<svg xmlns="http://www.w3.org/2000/svg" viewBox="0 0 105.42 106.03">
  <defs>
    <style>
      .cls-1 {
        fill: #fce8c5;
      }

      .cls-2 {
        fill: #d3c2a7;
      }

      .cls-3 {
        fill: #ffcb77;
      }

      .cls-4, .cls-5 {
        fill: #17c3b2;
      }

      .cls-4 {
        opacity: 0.15;
      }
    </style>
  </defs>
  <g id="Layer_2" data-name="Layer 2">
    <g id="Layer_1-2" data-name="Layer 1">
      <g>
        <g>
          <path class="cls-1" d="M26.28,14.85c1.93.53,2.56,1.67,4.86,3.47C33.82,20.43,34.42,20,34.9,21c.39.77-.48,5.69-5.1,9.86a20.76,20.76,0,0,1-13.1,4.81c-3.22-.06-4.42-1-5-1.57a6.09,6.09,0,0,1-1.41-4c-.21-3,1.45-5.59,3-8,.46-.71.9-1.25,1-1.36a16.2,16.2,0,0,1,2.19-2.23c2.18-1.86,4.26-3.64,7.27-3.86A7,7,0,0,1,26.28,14.85Z"/>
          <path class="cls-1" d="M12.12,34.7a14.11,14.11,0,0,0,7.22.31c4.58-1,7.15-4.16,8.67-6s3.47-4.19,3.36-7.5a9.31,9.31,0,0,0-.63-2.92,11.88,11.88,0,0,0-4.59-5.5s3.52,2.17,14,10.86c3.26,2.72,5.93,5.09,8.22,7.23,7,6.51,11.85,11.61,13,12.81,5,5.21,14.12,12.77,32.44,23,.23.62,3,8.73-2.13,15.69A17,17,0,0,1,80,89.21C74,82.72,67.19,76,59.64,69.34A306.88,306.88,0,0,0,12.12,34.7Z"/>
          <path class="cls-2" d="M30.17,17.36a15,15,0,0,1,0,7.67,14.21,14.21,0,0,1-4,6.64,14.57,14.57,0,0,1-6.91,3.54,14.32,14.32,0,0,1-3.92.41,6.57,6.57,0,0,1-3.83-1.24,5,5,0,0,1-1.7-3.7,11.08,11.08,0,0,1,.66-3.93,21.39,21.39,0,0,1,3.89-6.83,23.59,23.59,0,0,1,2.89-2.68,17.77,17.77,0,0,1,3.34-2.11,9.15,9.15,0,0,1,3.93-1,5.93,5.93,0,0,1,3.86,1.48,5.84,5.84,0,0,1,1.7,3.76,10.47,10.47,0,0,1-.39,4,11.42,11.42,0,0,1-4.89,6.18,13.18,13.18,0,0,1-3.66,1.58,9.89,9.89,0,0,1-4,.38,3.44,3.44,0,0,1-1.95-.94,3.58,3.58,0,0,1-.85-2,8.56,8.56,0,0,1,.65-4,12.51,12.51,0,0,1,2-3.42,8.94,8.94,0,0,1,3.13-2.45,5.63,5.63,0,0,1,4-.46,3.14,3.14,0,0,1,1.65,1.26,4.43,4.43,0,0,1,.62,1.94,5.34,5.34,0,0,1-1.13,3.76,6.47,6.47,0,0,1-3.15,2.3,2.79,2.79,0,0,1-2-.06,2.85,2.85,0,0,1-1.35-1.41,2.42,2.42,0,0,1-.06-1.92A3.25,3.25,0,0,1,20,22.72a3.21,3.21,0,0,0-1.17,1.48A2.29,2.29,0,0,0,18.94,26a2.69,2.69,0,0,0,1.3,1.28,2.56,2.56,0,0,0,1.81,0c2.31-.85,4.19-3.29,3.86-5.76a3.87,3.87,0,0,0-.58-1.7,2.59,2.59,0,0,0-1.37-1,5.12,5.12,0,0,0-3.53.51,10,10,0,0,0-4.68,5.56,7.86,7.86,0,0,0-.54,3.59,2.8,2.8,0,0,0,.64,1.5,2.55,2.55,0,0,0,1.47.68A9.09,9.09,0,0,0,21,30.28a12.44,12.44,0,0,0,3.4-1.48,10.55,10.55,0,0,0,4.47-5.7c.63-2.28.62-5.16-1.09-6.76a4.93,4.93,0,0,0-3.2-1.23A8.19,8.19,0,0,0,21,16a20.26,20.26,0,0,0-6,4.54A20.36,20.36,0,0,0,11.33,27a10.7,10.7,0,0,0-.65,3.63A4.2,4.2,0,0,0,12,33.79a5.92,5.92,0,0,0,3.39,1.14,13.94,13.94,0,0,0,3.74-.33,14.12,14.12,0,0,0,6.72-3.29,13.8,13.8,0,0,0,4-6.35A15.4,15.4,0,0,0,30.17,17.36Z"/>
          <g>
            <path class="cls-3" d="M48.15,46c-1.41-.1-10.06-.53-14.76,5.42C31.55,53.73,29,58.68,31,61.66a4.86,4.86,0,0,0,3.08,2c6.39,1.1,13.7-14.46,14.09-15.32l-.86-1.63a26.55,26.55,0,0,1-5.21,9.06c-1.38,1.56-5.22,5.52-6.18,4.86-1.13-.79,1.06-9.4,7.48-12.05a10.93,10.93,0,0,1,4.89-.77Z"/>
            <path class="cls-3" d="M46.35,46.86s8,18.54,5.5,23a7.33,7.33,0,0,0,2.71-2.15,7.24,7.24,0,0,0,1.16-2.23c.59.77,1.2,1.63,1.81,2.58a34.59,34.59,0,0,1,2.16,4A39.44,39.44,0,0,0,48.18,46.3Z"/>
            <path class="cls-3" d="M47.38,47.21C47,45.84,45,37.41,50,31.71c2-2.24,6.36-5.63,9.65-4.22a4.84,4.84,0,0,1,2.49,2.67c2.25,6.08-11.69,16.12-12.47,16.67l-1.76-.55a26.58,26.58,0,0,0,7.95-6.79c1.28-1.65,4.47-6.15,3.64-7-1-1-9,2.77-10.47,9.57A11.09,11.09,0,0,0,49.18,47Z"/>
            <path class="cls-3" d="M47.93,45.27s19.68,4.43,23.6,1.2a7.14,7.14,0,0,1-1.61,3.05,7,7,0,0,1-2,1.55c.87.44,1.83.89,2.87,1.3a33.35,33.35,0,0,0,4.36,1.4,39.52,39.52,0,0,1-27.46-6.59Z"/>
          </g>
        </g>
        <g>
          <circle class="cls-4" cx="52.71" cy="52.71" r="52.7"/>
          <path class="cls-5" d="M4.36,73.67s69.43,2,96.17-43.12c0,0,13.56,26.25-5.86,54S25.27,117.5,4.36,73.67Z"/>
        </g>
      </g>
    </g>
  </g>
</svg>
