<svg xmlns="http://www.w3.org/2000/svg" xmlns:xlink="http://www.w3.org/1999/xlink" viewBox="0 0 607.88 341.58"><defs><style>.cls-1{fill:none;}.cls-2{fill:#fff;}.cls-3{font-size:38px;font-family:BebasNeuePro-Bold, Bebas Neue Pro;}.cls-16,.cls-3,.cls-34{font-weight:700;}.cls-4{letter-spacing:-0.02em;}.cls-5{font-size:17px;font-family:Montserrat-Regular, Montserrat;}.cls-10,.cls-11,.cls-12,.cls-6,.cls-7,.cls-8,.cls-9{fill:#231f20;}.cls-6{letter-spacing:-0.01em;}.cls-7{letter-spacing:-0.01em;}.cls-9{letter-spacing:-0.02em;}.cls-10,.cls-14{letter-spacing:0em;}.cls-11{letter-spacing:-0.03em;}.cls-12{letter-spacing:0em;}.cls-13{letter-spacing:-0.02em;}.cls-15{letter-spacing:-0.02em;}.cls-16{font-size:20px;}.cls-16,.cls-25{fill:#17c3b2;}.cls-16,.cls-34{font-family:Montserrat-Bold, Montserrat;}.cls-17{letter-spacing:0em;}.cls-18{letter-spacing:-0.01em;}.cls-19{letter-spacing:0.01em;}.cls-20{letter-spacing:-0.02em;}.cls-21{letter-spacing:0em;}.cls-22{letter-spacing:0.01em;}.cls-23{letter-spacing:-0.02em;}.cls-24{clip-path:url(#clip-path);}.cls-26{fill:#121b44;}.cls-27{fill:#c99775;}.cls-28{fill:#e2ab81;}.cls-29{fill:#0631bc;}.cls-30{fill:#8d5524;}.cls-31{fill:#63391a;}.cls-32{fill:#fff200;}.cls-33{fill:#ff9100;}.cls-34{font-size:15px;}.cls-35{letter-spacing:-0.03em;}.cls-36{letter-spacing:0.01em;}</style><clipPath id="clip-path"><circle class="cls-1" cx="300.93" cy="125.33" r="47.08"/></clipPath></defs><g id="Layer_2" data-name="Layer 2"><g id="Layer_1-2" data-name="Layer 1"><rect class="cls-2" width="607.88" height="323.25" rx="7.53"/><text class="cls-3" transform="translate(218.79 58.25)">DID <tspan class="cls-4" x="44.23" y="0">Y</tspan><tspan x="58.4" y="0">OU KNOW?</tspan></text><text class="cls-5" transform="translate(171.09 238.34)">“<tspan class="cls-6" x="6.49" y="0">E</tspan><tspan class="cls-7" x="17.68" y="0">v</tspan><tspan class="cls-8" x="26.64" y="0">en if it</tspan><tspan class="cls-9" x="79.13" y="0">’</tspan><tspan class="cls-8" x="82.47" y="0">s s</tspan><tspan class="cls-10" x="103.55" y="0">m</tspan><tspan class="cls-8" x="121.62" y="0">ell</tspan><tspan class="cls-11" x="141.03" y="0">y</tspan><tspan class="cls-12" x="149.67" y="0">, it is still a job </tspan><tspan class="cls-8"><tspan x="44.93" y="29">that has </tspan><tspan class="cls-13" x="119.03" y="29">t</tspan><tspan x="125.61" y="29">o be do</tspan><tspan class="cls-14" x="189.16" y="29">n</tspan><tspan x="200.7" y="29">e</tspan><tspan class="cls-15" x="210.97" y="29">.</tspan><tspan x="214.28" y="29">”</tspan></tspan></text><text class="cls-16" transform="translate(213.04 206.31)">Ga<tspan class="cls-17" x="27.76" y="0">r</tspan><tspan class="cls-18" x="36.3" y="0">b</tspan><tspan class="cls-19" x="49.92" y="0">a</tspan><tspan x="62.38" y="0">ge </tspan><tspan class="cls-20" x="94.66" y="0">C</tspan><tspan class="cls-21" x="108.94" y="0">olle</tspan><tspan class="cls-22" x="146.7" y="0">c</tspan><tspan class="cls-23" x="158.68" y="0">t</tspan><tspan class="cls-21" x="167.04" y="0">or</tspan></text><g class="cls-24"><rect class="cls-25" x="226.41" y="78.25" width="149.04" height="106.37"/><path class="cls-26" d="M278.79,201.85c-2,14.77-3.21,27.23-4,36.55,0,0-.09,1.07-.24,3.08,0,0-.36,4.75-.56,8.73-.67,13.4,3,37.18,3,37.18,4.13,26.42,7.29,34.33,8.88,34.17.86-.08,1.14-2.48,2.88-2.69a7.4,7.4,0,0,1,4.48,1.53l0,0c.67-.07-.81-14.19,3-30.52,1-4.27,1.24-3.86,2.12-7.91a82.33,82.33,0,0,0,1.74-22.4c1.16-18.61,1.57-22.78,1.73-22.77s-.33,15.29-.2,24.73c.1,6.93.07,10.64,0,12.75,0,.08,0,.31,0,.44-.09,3-.18,6.54-.18,7.22,0,3.5,1.55,6.71,2.33,8.52,5,11.59,4.84,31.34,6.95,31.28.52,0,.85-1.25,1.88-1.26s1.24,1,2,1.26c2,.66,5.76-19.66,4.25-21.43-2-2.35-2.66-4.4-2.57-6.18.12-2.49,2.39-3.34,5.46-8.69.06-.11.8-1.39,1.4-2.65A31.85,31.85,0,0,0,326,271.17c1.08-14.67,1.62-22,1.55-24.55-.59-19.11-2.25-37-3.18-46Z"/><rect class="cls-27" x="295.16" y="128.89" width="13.98" height="23.3"/><path class="cls-28" d="M316.26,102.52c2.86,3.43,3,7.7,3.42,16.17.28,5.9.48,11.62-3.24,15.41-1.2,1.23-2.53,1.93-5.18,3.33-3.74,2-6.22,3.3-9.45,3.33-2.94,0-5.29-1.15-10-3.51-3.51-1.75-5.26-2.63-6.39-3.86-1.7-1.85-2.95-4.62-2.86-15.36.08-8.74.09-13.13,1.38-15C290,94.11,308.64,93.37,316.26,102.52Z"/><path d="M319.5,115c-.14,0-.15-.38-.9-2.46-.35-1-.67-1.81-.92-2.45l-1.56-3.44a17,17,0,0,1-5.47,1.15c-2.4.09-3.8-.39-10.62-2.06-4.51-1.1-5.2-1.2-6.18-1.22a16.83,16.83,0,0,0-7.61,1.77c-.4.64-1,1.56-1.57,2.69a20.73,20.73,0,0,0-1.4,2.89,13.54,13.54,0,0,0-.69,4.49c-.21,0-1.76-6.4.5-13.31,1.41-4.28,3.19-5.47,3.95-5.9a7.43,7.43,0,0,1,3.86-.87,24.48,24.48,0,0,1,7.21-2.44A21.9,21.9,0,0,1,310.39,95c2,.83,5.71,2.36,7.79,6.11a14.34,14.34,0,0,1,1.42,4.38C320.63,110.41,320,115,319.5,115Z"/><path d="M298,132.23a26.92,26.92,0,0,0,4.17.26,27.54,27.54,0,0,0,4.16-.49,8.28,8.28,0,0,1-8.33.23Z"/><path d="M298.62,113.84c-.38.59-2.3-.62-4.87-.89-3.11-.31-5.43.94-5.66.4-.13-.3.56-.86.72-1,.35-.28,1.5-1.11,4.87-.82,1.84.16,4.35.36,4.9,1.72A.67.67,0,0,1,298.62,113.84Z"/><ellipse cx="294.93" cy="116.77" rx="1.19" ry="1.6"/><path d="M294.63,115a4.2,4.2,0,0,0-2,.64,4.45,4.45,0,0,0-.74.54c-.1.13-.09.18-.08.2.12.18,1.56-.54,2.85-.83a2.76,2.76,0,0,1,1.16.13h0c.8.24,1,.24,1,.2A2.91,2.91,0,0,0,294.63,115Z"/><path d="M301.1,118.7a7.67,7.67,0,0,1-.78,3.47c-.83,1.65-2,2.15-1.8,3,.26,1.2,3,1.54,3,1.51s-1.93-.28-2.19-1.3c-.18-.73.6-1.27,1.22-2.37A6.49,6.49,0,0,0,301.1,118.7Z"/><path d="M296.52,129.21c1.53-.9,3.31-.89,5.67-.88s4.11,0,5.6.92c1.16.71,2,1.88,1.82,2.13s-1.06-.48-2.56-.77c-2-.38-2.38.48-4.82.47s-2.7-.87-4.5-.51-2.86,1.53-3.09,1.29S295.12,130,296.52,129.21Z"/><path class="cls-29" d="M309.24,146.38a22.59,22.59,0,0,1,8.39,1,20.55,20.55,0,0,1,6.47,3.32c.86.67,3.32,2.69,6.31,8.49a53.22,53.22,0,0,1,4.79,13.71l-10,3.35a219.14,219.14,0,0,0,1.3,27.72c.44,4,.88,6.73-.67,9.14-2.61,4-8.15,3-21.18,2.76-18.48-.37-23.61,1.73-26.52-2.59-1.5-2.23-1.32-4.56-.51-13.4.6-6.45,1.4-14.9,2.4-24.9l-11.54-3.29c.47-1.28,1.18-3.11,2.09-5.29.62-1.5,1.8-4.3,2.83-6.31a30.88,30.88,0,0,1,6.69-9c5.29-4.52,12-5,15.18-4.91a9.46,9.46,0,0,0,6,3.43C305.79,150.17,308.87,146.8,309.24,146.38Z"/><path class="cls-30" d="M271.27,172.5c-.36,3-.61,5.59-.79,7.56-.65,7.27-.54,9.74-.31,11.83a41.89,41.89,0,0,0,.77,4.44,81.51,81.51,0,0,0,4.41,14c.9-.19,1.85-.42,2.83-.69s1.9-.56,2.77-.86c-.55-2.15-1.31-5.3-2.07-9.2a45.37,45.37,0,0,1-.8-4.75c-.2-2.85.27-3.38,1-10.63.11-1,.16-.94.51-5.19.08-.95.21-2.35.4-4Z"/><path class="cls-30" d="M280.92,208.69a2.13,2.13,0,0,0,.38.78c.27.32.47.32,1.12.74.42.28.71.51,1.17.86a7.89,7.89,0,0,1,.72.62c.27.27.3.36.56.64s.44.37.81.7,1,.88.92,1.16-1,.35-1.11.34a3.68,3.68,0,0,1-1.87-.77c-.94-.72-.62.23-.62.23a4,4,0,0,0,.49,1.58c.49,1,1.61,3.26,1.83,3.77s.31,1.92-1,1.18-2.83-3.58-2.83-3.58,2.57,3.35,2.57,3.84-.48,1.81-2,.27a17,17,0,0,1-2.51-3.53s3.91,3.93,2.4,4.23-3.69-2.64-4-3.76c.33.63.63,1.12.84,1.46.33.54.62.94.47,1.29a.45.45,0,0,1-.2.23c-.38.15-1-.64-1.26-.91a7.84,7.84,0,0,1-1.82-3.58c-.52-2.18.11-2.85-.46-5.4a14.07,14.07,0,0,0-.5-1.7Z"/><path class="cls-31" d="M283.75,220.1a12.77,12.77,0,0,1-2.55-4.4"/><path class="cls-31" d="M282.42,221.34a6.78,6.78,0,0,1-.82-.72,10.1,10.1,0,0,1-.94-1,6.2,6.2,0,0,1-.82-1.2,5.86,5.86,0,0,1-.6-2,11.57,11.57,0,0,0,1.19,2.45A22.9,22.9,0,0,0,282.42,221.34Z"/><path class="cls-31" d="M279.23,220a2.27,2.27,0,0,1-.39-.43,6.08,6.08,0,0,1-.45-.56,3.68,3.68,0,0,1-.36-.69,3,3,0,0,1-.22-1.16,10,10,0,0,0,.51,1.25C278.76,219.35,279.27,220,279.23,220Z"/><path class="cls-32" d="M275.84,281.63c.68,6.71,1.51,12.09,2.12,15.61,2.81,16.39,5.54,21.39,2.93,26.43-1.81,3.49-2.1,5.44-2.67,9.34a4.69,4.69,0,0,0,.18,2.68c1.1,2.68,5.41,2.6,8.8,2.53,5.07-.1,6.82-1.73,7.43-2.4a4.41,4.41,0,0,0,1.18-1.76,6.21,6.21,0,0,0,.09-2.7,9.48,9.48,0,0,1,0-1.71c0-.89-.06-2-.08-2.25-.11-1.14-.09-3.46-.06-6.1,0-3,1.17-18.59,3.48-39.89-1.47.2-3.53.47-6,.73-1.6.16-4.19.48-6.16.52A49.33,49.33,0,0,1,275.84,281.63Z"/><path d="M278.4,335.69l.11,3.27a5.44,5.44,0,0,0,1.8,1.41,4.51,4.51,0,0,0,1.6.44c.08-.28.15-.57.22-.86,0,.31,0,.61,0,.92.42.11.87.21,1.34.29a14.9,14.9,0,0,0,1.65.21c.07-.37.13-.75.2-1.13l0,1.15q.75.06,1.59.06a21.18,21.18,0,0,0,2.18-.11l.09-1,.18,1a7.73,7.73,0,0,0,1.57-.16,9,9,0,0,0,2-.65l.12-.91.2.78a4.56,4.56,0,0,0,1.19-.64,5.64,5.64,0,0,0,1.07-1.06c.1-1.54.21-3.07.32-4.61a16.08,16.08,0,0,1-5.08,2.8A16.54,16.54,0,0,1,278.4,335.69Z"/><path class="cls-32" d="M324.27,281.77c-.68,6.71-1.52,12.08-2.13,15.6-2.81,16.39-5.54,21.39-2.93,26.44,1.81,3.48,2.1,5.43,2.68,9.34a4.83,4.83,0,0,1-.18,2.67c-1.1,2.69-5.41,2.6-8.81,2.54-5.06-.1-6.81-1.73-7.43-2.4a4.49,4.49,0,0,1-1.18-1.76,6.26,6.26,0,0,1-.08-2.71,9.16,9.16,0,0,0,0-1.71,22,22,0,0,1,.09-2.25c.1-1.13.08-3.45.05-6.09,0-3-1.16-18.6-3.47-39.9,1.46.21,3.53.47,6,.73,1.59.17,4.19.48,6.15.52A49.49,49.49,0,0,0,324.27,281.77Z"/><path d="M321.71,335.82l-.11,3.27a5.37,5.37,0,0,1-1.81,1.41,4.73,4.73,0,0,1-1.6.45c-.07-.29-.15-.58-.22-.87,0,.31,0,.62,0,.93-.42.1-.86.2-1.33.29s-1.14.17-1.66.21c-.06-.38-.13-.76-.19-1.13,0,.38,0,.76,0,1.15-.5,0-1,.05-1.59.05a21.33,21.33,0,0,1-2.18-.11l-.09-1-.18,1a8.27,8.27,0,0,1-3.52-.81l-.12-.9-.2.77a4.48,4.48,0,0,1-1.19-.63,5.11,5.11,0,0,1-1.07-1.07l-.33-4.6a15.94,15.94,0,0,0,5.09,2.79A16.45,16.45,0,0,0,321.71,335.82Z"/><path class="cls-33" d="M325.16,174.84c1.92-.83,4-1.65,6.18-2.42,1.19-.41,2.36-.79,3.5-1.14l.36,1.63-10,3.35Z"/><path class="cls-33" d="M280.23,173.58a32,32,0,0,0-6.33-2.41,31.35,31.35,0,0,0-4.91-.87l-.52,1.4L280.05,175Z"/><path class="cls-30" d="M333.55,173.46c.59,3.16.94,5.84,1.16,7.85a49.85,49.85,0,0,1,.31,11.83,41.89,41.89,0,0,1-.77,4.44,81.51,81.51,0,0,1-4.41,14c-.9-.19-1.85-.42-2.83-.69s-1.9-.56-2.76-.86c.54-2.15,1.3-5.3,2.06-9.2a45.37,45.37,0,0,0,.8-4.75c.2-2.85-.27-3.38-1-10.63-.11-1-.16-.94-.51-5.19-.08-.95-.21-2.34-.4-4Z"/><path class="cls-30" d="M324.27,209.94a2.13,2.13,0,0,1-.38.78c-.27.32-.47.32-1.12.75-.42.27-.71.5-1.17.85a7.89,7.89,0,0,0-.72.62c-.27.27-.3.37-.56.64s-.44.37-.81.7-1,.88-.92,1.16,1,.35,1.11.34a3.68,3.68,0,0,0,1.87-.77c.94-.72.62.23.62.23a4,4,0,0,1-.49,1.58c-.49,1-1.61,3.26-1.83,3.77s-.3,1.92,1,1.18,2.83-3.58,2.83-3.58-2.57,3.35-2.57,3.84.48,1.81,2,.27a17,17,0,0,0,2.51-3.53s-3.91,3.94-2.4,4.23,3.69-2.64,4-3.76c-.33.63-.63,1.12-.84,1.46-.33.54-.62.94-.47,1.29a.45.45,0,0,0,.2.23c.38.15,1-.64,1.26-.91a7.84,7.84,0,0,0,1.82-3.58c.52-2.18-.11-2.85.46-5.4a14.07,14.07,0,0,1,.5-1.7Z"/><path class="cls-31" d="M321.44,221.35A12.77,12.77,0,0,0,324,217"/><path class="cls-31" d="M322.77,222.59a6.78,6.78,0,0,0,.82-.72,10.1,10.1,0,0,0,.94-1,6.2,6.2,0,0,0,.82-1.2,5.86,5.86,0,0,0,.6-2,11.57,11.57,0,0,1-1.19,2.45A22.9,22.9,0,0,1,322.77,222.59Z"/><path class="cls-31" d="M326,221.28a2.51,2.51,0,0,0,.4-.43c.21-.26.32-.38.44-.56a3.68,3.68,0,0,0,.36-.69,3,3,0,0,0,.22-1.16,10,10,0,0,1-.51,1.25C326.43,220.6,325.92,221.25,326,221.28Z"/><path class="cls-33" d="M293,146.24a11.42,11.42,0,0,0,11.1,4.73,11.18,11.18,0,0,0,7-4.64l-1.87,0a9.49,9.49,0,0,1-6.73,3.1,9.6,9.6,0,0,1-7.25-3.3Z"/><path d="M303.44,113.94c.38.59,2.3-.62,4.86-.89,3.12-.31,5.44.94,5.67.4.13-.3-.56-.86-.72-1-.35-.29-1.5-1.12-4.88-.82-1.83.15-4.34.35-4.89,1.71A.67.67,0,0,0,303.44,113.94Z"/><ellipse cx="307.13" cy="116.88" rx="1.19" ry="1.6"/><path d="M307.43,115.13a4.2,4.2,0,0,1,2,.64,4.45,4.45,0,0,1,.74.54c.1.13.09.18.08.2-.12.18-1.56-.54-2.85-.83a2.76,2.76,0,0,0-1.16.13h0c-.8.24-1,.24-1,.2A2.91,2.91,0,0,1,307.43,115.13Z"/></g><text class="cls-34" transform="translate(230.46 296.16)">- <tspan class="cls-35" x="10.03" y="0">T</tspan><tspan x="18.9" y="0">an Be</tspan><tspan class="cls-36" x="63.7" y="0">n</tspan><tspan x="74.16" y="0">g Hoe, 59</tspan></text></g></g></svg>