<svg xmlns="http://www.w3.org/2000/svg" xmlns:xlink="http://www.w3.org/1999/xlink" viewBox="0 0 607.88 424.65"><defs><style>.cls-1{fill:none;}.cls-2{fill:#fff;}.cls-3{font-size:38px;font-family:BebasNeuePro-Bold, Bebas Neue Pro;}.cls-24,.cls-25,.cls-29,.cls-3,.cls-47{font-weight:700;}.cls-4{letter-spacing:-0.02em;}.cls-29,.cls-5{font-size:17px;}.cls-27,.cls-28,.cls-31,.cls-32,.cls-33,.cls-34,.cls-5{font-family:Montserrat-Regular, Montserrat;}.cls-6{letter-spacing:0.02em;}.cls-10,.cls-11,.cls-12,.cls-13,.cls-14,.cls-27,.cls-28,.cls-31,.cls-32,.cls-33,.cls-34,.cls-7,.cls-8,.cls-9{fill:#231f20;}.cls-7{letter-spacing:-0.06em;}.cls-23,.cls-33,.cls-9{letter-spacing:-0.01em;}.cls-10,.cls-21{letter-spacing:-0.01em;}.cls-11{letter-spacing:0em;}.cls-12,.cls-36{letter-spacing:0.02em;}.cls-13,.cls-34,.cls-35{letter-spacing:-0.02em;}.cls-14{letter-spacing:-0.01em;}.cls-15{letter-spacing:-0.01em;}.cls-16{letter-spacing:0em;}.cls-17{letter-spacing:0em;}.cls-18{letter-spacing:-0.01em;}.cls-19{letter-spacing:-0.02em;}.cls-20,.cls-31{letter-spacing:0em;}.cls-22{letter-spacing:-0.03em;}.cls-24,.cls-25,.cls-29,.cls-40,.cls-47{fill:#17c3b2;}.cls-24,.cls-25,.cls-29,.cls-47{font-family:Montserrat-Bold, Montserrat;}.cls-25,.cls-30{letter-spacing:0.01em;}.cls-26{letter-spacing:-0.01em;}.cls-27,.cls-28,.cls-31,.cls-32,.cls-33,.cls-34{font-weight:400;}.cls-28,.cls-38{letter-spacing:0.01em;}.cls-32{letter-spacing:0.01em;}.cls-37{letter-spacing:0.01em;}.cls-39{clip-path:url(#clip-path);}.cls-41{fill:#c68642;}.cls-42{fill:#8fc699;}.cls-43{fill:#b7783e;}.cls-44{fill:#512902;}.cls-45{fill:#e2b3b6;}.cls-46{fill:#aa6f3a;}.cls-47{font-size:20px;}.cls-48{letter-spacing:0.01em;}.cls-49{letter-spacing:-0.01em;}</style><clipPath id="clip-path"><circle class="cls-1" cx="300.93" cy="140.53" r="47.6"/></clipPath></defs><g id="Layer_2" data-name="Layer 2"><g id="Layer_1-2" data-name="Layer 1"><rect class="cls-2" width="607.88" height="424.65" rx="7.53"/><text class="cls-3" transform="translate(218.79 73.75)">DID <tspan class="cls-4" x="44.23" y="0">Y</tspan><tspan x="58.4" y="0">OU KNOW?</tspan></text><text class="cls-5" transform="translate(133.37 253.83)"><tspan class="cls-6">“</tspan><tspan class="cls-7" x="6.88" y="0">W</tspan><tspan class="cls-8" x="24.84" y="0">e l</tspan><tspan class="cls-9" x="44.13" y="0">e</tspan><tspan class="cls-10" x="54.14" y="0">a</tspan><tspan class="cls-9" x="64" y="0">v</tspan><tspan class="cls-8" x="72.96" y="0">e our </tspan><tspan class="cls-10" x="121.06" y="0">f</tspan><tspan class="cls-8" x="126.65" y="0">amilies a</tspan><tspan class="cls-11" x="201.5" y="0">p</tspan><tspan class="cls-8" x="212.97" y="0">a</tspan><tspan class="cls-12" x="223" y="0">r</tspan><tspan class="cls-8" x="230.07" y="0">t just </tspan><tspan class="cls-13" x="277.2" y="0">t</tspan><tspan class="cls-8" x="283.78" y="0">o </tspan><tspan class="cls-9" x="298.89" y="0">w</tspan><tspan class="cls-8" x="313.58" y="0">o</tspan><tspan class="cls-14" x="324.24" y="0">r</tspan><tspan class="cls-8" x="330.92" y="0">k </tspan><tspan class="cls-8"><tspan x="-6.67" y="29">ha</tspan><tspan class="cls-15" x="14.87" y="29">r</tspan><tspan x="21.46" y="29">d a</tspan><tspan class="cls-16" x="47.47" y="29">n</tspan><tspan class="cls-17" x="59.01" y="29">d s</tspan><tspan class="cls-18" x="83.31" y="29">a</tspan><tspan class="cls-19" x="93.17" y="29">v</tspan><tspan x="102.13" y="29">e </tspan><tspan class="cls-20" x="116.85" y="29">m</tspan><tspan x="134.92" y="29">o</tspan><tspan class="cls-20" x="145.58" y="29">n</tspan><tspan class="cls-21" x="157.12" y="29">e</tspan><tspan class="cls-22" x="167.22" y="29">y</tspan><tspan x="175.85" y="29">, </tspan><tspan class="cls-23" x="183.91" y="29">w</tspan><tspan x="198.6" y="29">e a</tspan><tspan class="cls-15" x="223.35" y="29">r</tspan><tspan x="229.95" y="29">e </tspan><tspan class="cls-24" x="244.67" y="29">human, </tspan><tspan class="cls-25" x="317.43" y="29">n</tspan><tspan class="cls-24" x="329.28" y="29">ot </tspan></tspan><tspan class="cls-24"><tspan class="cls-26" x="20.24" y="58">r</tspan><tspan x="27.41" y="58">obots.</tspan><tspan class="cls-27" x="82.29" y="58">” It is as simple as tha</tspan><tspan class="cls-28" x="262.84" y="58">t</tspan><tspan class="cls-27" x="269.91" y="58">, </tspan><tspan x="277.97" y="58">t</tspan><tspan class="cls-26" x="285.37" y="58">r</tspan><tspan class="cls-23" x="292.54" y="58">e</tspan><tspan x="303.01" y="58">at</tspan></tspan></text><text class="cls-29" transform="translate(155.75 350.82)">t<tspan class="cls-30" x="7.4" y="0">h</tspan><tspan x="19.24" y="0">em as equals</tspan><tspan class="cls-27" x="135.71" y="0" xml:space="preserve"> w</tspan><tspan class="cls-31" x="155.11" y="0">h</tspan><tspan class="cls-27" x="166.65" y="0">o dese</tspan><tspan class="cls-32" x="222.14" y="0">r</tspan><tspan class="cls-33" x="229.21" y="0">v</tspan><tspan class="cls-27" x="238.17" y="0">e </tspan><tspan class="cls-34" x="252.89" y="0">t</tspan><tspan class="cls-27" x="259.47" y="0">o be </tspan><tspan class="cls-27"><tspan x="2.75" y="29">t</tspan><tspan class="cls-15" x="9.66" y="29">r</tspan><tspan class="cls-23" x="16.25" y="29">e</tspan><tspan x="26.26" y="29">a</tspan><tspan class="cls-35" x="36.29" y="29">t</tspan><tspan x="42.87" y="29">ed with </tspan><tspan class="cls-26" x="111.5" y="29">c</tspan><tspan x="120.92" y="29">ou</tspan><tspan class="cls-36" x="143.02" y="29">r</tspan><tspan class="cls-35" x="150.09" y="29">t</tspan><tspan x="156.67" y="29">e</tspan><tspan class="cls-21" x="166.94" y="29">s</tspan><tspan x="175.08" y="29">y a</tspan><tspan class="cls-20" x="198.78" y="29">n</tspan><tspan x="210.32" y="29">d </tspan><tspan class="cls-15" x="226.3" y="29">r</tspan><tspan x="232.9" y="29">espe</tspan><tspan class="cls-37" x="273.27" y="29">c</tspan><tspan class="cls-38" x="282.94" y="29">t</tspan><tspan x="290.02" y="29">.</tspan></tspan></text><g class="cls-39"><rect class="cls-40" x="239.95" y="85.46" width="123.73" height="108.55"/><path class="cls-41" d="M286.47,311.92a37.29,37.29,0,0,1-1.26,15.42c.9,4.05,3.74,6.37,5.87,6,1.78-.29,3-2.44,3.05-2.6a5.7,5.7,0,0,0,.58-3.64,49.58,49.58,0,0,1-1.13-7.6,49,49,0,0,1,.09-8Z"/><path class="cls-41" d="M314.75,311.5A37.29,37.29,0,0,0,316,326.92c-.9,4.05-3.74,6.37-5.87,6-1.78-.29-3-2.43-3.05-2.59a5.8,5.8,0,0,1-.59-3.64,48.83,48.83,0,0,0,1-15.65Z"/><path d="M314.46,332a5,5,0,0,1-3.29,1.79,5.59,5.59,0,0,1-4.09-2.08,4.52,4.52,0,0,1-.58-5,3.39,3.39,0,0,0,1.91,2.92,5.56,5.56,0,0,0,2.57.75,5.46,5.46,0,0,0,5-3.52A5.6,5.6,0,0,1,314.46,332Z"/><path class="cls-41" d="M286.47,311.92a37.29,37.29,0,0,1-1.26,15.42c.9,4.05,3.74,6.37,5.87,6,1.78-.29,3-2.44,3.05-2.6a5.7,5.7,0,0,0,.58-3.64,49.58,49.58,0,0,1-1.13-7.6,49,49,0,0,1,.09-8Z"/><path class="cls-42" d="M276.79,210.34c-.45,13.86-.33,28.93.65,45a485.38,485.38,0,0,0,6.89,56.92,9.34,9.34,0,0,0,11.08.08q2.52-34.33,5-68.66l4.3,68.36a12.89,12.89,0,0,0,5.34,2.08,13.1,13.1,0,0,0,7.28-1c2.32-18.64,4.18-38.47,5.34-59.38.84-15.14,1.26-29.74,1.34-43.75Z"/><path d="M308.1,148.31c1.78,3.63,6.62,5.1,9.4,6.8,3.34,2,6.4,6,4.35,14.77,0,0-6.64-6.95-10.75-9.19S304,147.87,304,147.87c.76-1.6,1.74-3.3,2.53-3.25S307.22,146.52,308.1,148.31Z"/><rect class="cls-43" x="293.18" y="137.9" width="15.17" height="33.34"/><path class="cls-41" d="M315.42,118.92c4.44,4.79,3.81,11.09,3.45,14.67-.21,2.13-1.52,15.24-12.06,18.76-6,2-11.65-.17-13.11-.78-9.72-4.09-11.6-14.72-12.28-18.58-.82-4.65-1.69-9.56,1.39-13.61C288.94,111.29,307.74,110.62,315.42,118.92Z"/><path d="M318.83,134a9.72,9.72,0,0,0-1.23-4.38c-1.94-3.34-5.31-4-9-6.13a24.85,24.85,0,0,1-7.89-7.7,16.15,16.15,0,0,1-5.26,6.33c-1.19.83-1.95,1.07-4.72,2.83a36.46,36.46,0,0,0-4.06,2.79c-3.1,2.68-5,6.11-5.15,6h0c-.18-.25-3.16-6.57.6-14.43a20.1,20.1,0,0,1,4.37-6,19.17,19.17,0,0,1,30.75,5.63A22.23,22.23,0,0,1,318.83,134Z"/><path d="M296.37,146.07c1.48.07,2.83.18,4.21.13s2.72-.2,4.19-.36a7.25,7.25,0,0,1-4.16,1.36A7.34,7.34,0,0,1,296.37,146.07Z"/><path class="cls-44" d="M296.08,129.54c-.34.28-1-.1-1.72-.34a8.31,8.31,0,0,0-2.78-.19c-3,.05-5.19,1.89-5.33,1.65s1.15-1.43,2.92-2a6.44,6.44,0,0,1,1.75-.27,28.52,28.52,0,0,1,4.57.06c.34.06.64.16.74.4A.62.62,0,0,1,296.08,129.54Z"/><ellipse cx="293.7" cy="134.13" rx="1.2" ry="1.78"/><path d="M295.94,133.65a3.16,3.16,0,0,0-2.78-1.35c-.75.07-.81.43-2.1,1-1,.46-1.73.57-1.7.66a2.86,2.86,0,0,0,1.71-.1c1.11-.31,1.33-.85,2.07-1.06A3.31,3.31,0,0,1,295.94,133.65Z"/><path d="M300.06,136.27a8.18,8.18,0,0,1-.49,1.39c-.53,1.12-1.42,1.7-1.38,2.46.05,1,1.79,1.7,1.81,1.68s-1.46-.65-1.5-1.66c0-.43.2-.56.69-1.39A6.78,6.78,0,0,0,300.06,136.27Z"/><path class="cls-45" d="M308.34,156.58a17.82,17.82,0,0,1,7.66,1,17.35,17.35,0,0,1,5,2.79c2.58,2.13,3.89,4.67,5.58,9a113.62,113.62,0,0,1,4.64,14.59l-9.44,2.81c-2.67,8.2-2.17,14.24-1.17,18.31,1.84,7.47,6.81,14.12,3.64,18.85a6,6,0,0,1-.79,1s-.17.16-.36.31c-5.7,4.54-21.55,4.65-21.55,4.65-15.19.1-20.4-1.07-24.07-4.31a7.91,7.91,0,0,1-1.35-1.45c-3.33-4.75.65-11.49,2.6-19a46.5,46.5,0,0,0,.88-18.19l-9.92-2.06c.29-.95.74-2.41,1.25-4.21.86-3,1-4,1.49-5.4a34.63,34.63,0,0,1,3-6.84,24.58,24.58,0,0,1,9.42-9.76,18.7,18.7,0,0,1,8.33-2.21,55.93,55.93,0,0,0,3.29,7.25,57.05,57.05,0,0,0,3.89,6.23,33.34,33.34,0,0,0,5-6.52A32.77,32.77,0,0,0,308.34,156.58Z"/><path class="cls-41" d="M271.15,185.05c-.13,1.48-.25,3-.35,4.48,0,.54-.08,1.08-.11,1.62h0s0,.36,0,.69a76.09,76.09,0,0,0,.57,11.16,90.43,90.43,0,0,0,4.37,18.71c.9-.19,1.86-.43,2.85-.7s1.91-.57,2.79-.87c-.7-3.09-1.39-6.18-2.09-9.28a23.1,23.1,0,0,1-1.16-5c0-.51,0-1,0-1,.28-2.82.48-5.85.55-9.07s0-6.34-.14-9.2Z"/><path class="cls-41" d="M281.23,220a1.88,1.88,0,0,0,.38.79c.27.33.47.32,1.13.75.42.28.72.51,1.17.87a6,6,0,0,1,.73.62c.27.27.31.37.57.64a9.8,9.8,0,0,0,.82.72c.51.46,1,.88.93,1.16s-1,.35-1.13.35a3.74,3.74,0,0,1-1.89-.78c-.94-.73-.62.22-.62.22a4,4,0,0,0,.49,1.6c.5,1,1.63,3.29,1.85,3.81s.31,1.93-1,1.19-2.85-3.62-2.85-3.62,2.59,3.39,2.59,3.88-.49,1.82-2,.28a17.4,17.4,0,0,1-2.53-3.57s3.95,4,2.42,4.27-3.72-2.66-4.06-3.79c.33.63.63,1.13.84,1.47.34.54.63,1,.48,1.3a.43.43,0,0,1-.21.23c-.38.16-1-.64-1.26-.92a7.86,7.86,0,0,1-1.84-3.61c-.52-2.2.11-2.87-.47-5.44a12,12,0,0,0-.5-1.72Z"/><path class="cls-46" d="M284.08,231.55a13.07,13.07,0,0,1-1.7-2.43,14,14,0,0,1-.88-2"/><path class="cls-46" d="M282.73,232.8a7.14,7.14,0,0,1-.82-.73,9.2,9.2,0,0,1-1-1,6.36,6.36,0,0,1-.82-1.21,5.69,5.69,0,0,1-.61-2.06,11.29,11.29,0,0,0,1.2,2.47A24.83,24.83,0,0,0,282.73,232.8Z"/><path class="cls-46" d="M279.52,231.47s-.17-.16-.4-.43a6,6,0,0,1-.45-.57,3.83,3.83,0,0,1-.37-.69,3.3,3.3,0,0,1-.21-1.17,8,8,0,0,0,.51,1.26C279.05,230.78,279.55,231.45,279.52,231.47Z"/><path class="cls-41" d="M329.09,184.53c.19,2.06.38,4.69.42,7.75a94.36,94.36,0,0,1-.54,11.86,91.09,91.09,0,0,1-4.37,18.71c-.91-.2-1.87-.43-2.86-.7s-1.91-.57-2.79-.87Q320,216.65,321,212a23.1,23.1,0,0,0,1.16-5c0-.51,0-1,0-1,0-1.08-.19-1.91-.32-5.72-.12-3.31-.18-3.83-.2-4.62,0-.26,0-.51,0-.76a64.25,64.25,0,0,1,.38-8.32Z"/><path class="cls-41" d="M319,221.17a2.05,2.05,0,0,1-.39.79c-.26.33-.47.32-1.13.75-.42.28-.71.51-1.17.86a6.76,6.76,0,0,0-.73.63c-.27.27-.3.37-.56.64s-.45.38-.82.71-1,.88-.93,1.17,1,.35,1.12.35a3.74,3.74,0,0,0,1.89-.78c.95-.73.62.22.62.22a4,4,0,0,1-.49,1.6c-.5,1-1.62,3.29-1.85,3.81s-.31,1.93,1,1.19,2.86-3.62,2.86-3.62-2.6,3.39-2.6,3.88.49,1.82,2,.28a17.4,17.4,0,0,0,2.53-3.57s-3.94,4-2.42,4.26,3.73-2.66,4.06-3.78c-.33.63-.63,1.13-.84,1.47-.34.54-.62.95-.48,1.3a.43.43,0,0,0,.21.23c.38.15,1-.65,1.26-.92a7.67,7.67,0,0,0,1.84-3.61c.52-2.2-.11-2.87.47-5.44a15.43,15.43,0,0,1,.5-1.72Z"/><path class="cls-46" d="M316.13,232.69a13.08,13.08,0,0,0,1.69-2.43,12,12,0,0,0,.88-2"/><path class="cls-46" d="M317.47,233.94a7,7,0,0,0,.83-.73,11.33,11.33,0,0,0,.94-1,6.12,6.12,0,0,0,.83-1.22,6,6,0,0,0,.61-2.05,11.63,11.63,0,0,1-1.21,2.47A23.3,23.3,0,0,1,317.47,233.94Z"/><path class="cls-46" d="M320.69,232.61a3.53,3.53,0,0,0,.39-.43,6,6,0,0,0,.45-.57,3.24,3.24,0,0,0,.59-1.86,10,10,0,0,1-.51,1.25C321.16,231.92,320.65,232.58,320.69,232.61Z"/><path class="cls-44" d="M303.41,129.54c.35.28,1-.1,1.73-.34a8.25,8.25,0,0,1,2.77-.19c3,.05,5.19,1.89,5.33,1.65s-1.15-1.43-2.92-2a6.33,6.33,0,0,0-1.75-.27,28.53,28.53,0,0,0-4.57.06c-.34.06-.64.16-.74.4A.62.62,0,0,0,303.41,129.54Z"/><ellipse cx="305.79" cy="134.13" rx="1.2" ry="1.78"/><path d="M303.55,133.65a3.21,3.21,0,0,1,.79-.79,3.05,3.05,0,0,1,2-.56c.74.07.8.43,2.09,1,1,.46,1.73.57,1.71.66a2.91,2.91,0,0,1-1.72-.1c-1.1-.31-1.33-.85-2.07-1.06C305.79,132.65,304.91,132.68,303.55,133.65Z"/><path d="M286.76,332.46a4.93,4.93,0,0,0,3.29,1.78,5.59,5.59,0,0,0,4.09-2.08,4.51,4.51,0,0,0,.57-5,3.36,3.36,0,0,1-1.91,2.92,5.18,5.18,0,0,1-7.59-2.77A5.62,5.62,0,0,0,286.76,332.46Z"/><path d="M286.76,332.46a4.93,4.93,0,0,0,3.29,1.78,5.59,5.59,0,0,0,4.09-2.08,4.51,4.51,0,0,0,.57-5,3.36,3.36,0,0,1-1.91,2.92,5.18,5.18,0,0,1-7.59-2.77A5.62,5.62,0,0,0,286.76,332.46Z"/></g><text class="cls-47" transform="translate(212.32 221.81)">Maid in Si<tspan class="cls-48" x="101.24" y="0">n</tspan><tspan x="115.18" y="0">gapo</tspan><tspan class="cls-49" x="168.42" y="0">r</tspan><tspan x="176.86" y="0">e</tspan></text></g></g></svg>