<svg xmlns="http://www.w3.org/2000/svg" xmlns:xlink="http://www.w3.org/1999/xlink" viewBox="0 0 607.88 490.79"><defs><style>.cls-1{fill:none;}.cls-2{fill:#fff;}.cls-3{font-size:38px;font-family:BebasNeuePro-Bold, Bebas Neue Pro;}.cls-17,.cls-18,.cls-19,.cls-20,.cls-21,.cls-22,.cls-23,.cls-24,.cls-25,.cls-26,.cls-3,.cls-39,.cls-40,.cls-43{font-weight:700;}.cls-4{letter-spacing:-0.02em;}.cls-5{font-size:17px;}.cls-29,.cls-30,.cls-31,.cls-32,.cls-33,.cls-34,.cls-35,.cls-36,.cls-5{font-family:Montserrat-Regular, Montserrat;}.cls-6{letter-spacing:-0.02em;}.cls-20,.cls-7{letter-spacing:0.01em;}.cls-8{letter-spacing:-0.05em;}.cls-9{letter-spacing:-0.01em;}.cls-10{letter-spacing:-0.02em;}.cls-11{letter-spacing:0.01em;}.cls-12,.cls-33{letter-spacing:-0.01em;}.cls-13,.cls-31{letter-spacing:0em;}.cls-14{letter-spacing:-0.01em;}.cls-15,.cls-35{letter-spacing:0em;}.cls-16{letter-spacing:-0.02em;}.cls-17,.cls-18,.cls-19,.cls-20,.cls-21,.cls-22,.cls-23,.cls-24,.cls-25,.cls-26,.cls-39,.cls-40,.cls-49{fill:#17c3b2;}.cls-17,.cls-18,.cls-19,.cls-20,.cls-21,.cls-22,.cls-23,.cls-24,.cls-25,.cls-26,.cls-39,.cls-40,.cls-43{font-family:Montserrat-Bold, Montserrat;}.cls-18,.cls-27{letter-spacing:0em;}.cls-19,.cls-38{letter-spacing:-0.01em;}.cls-21{letter-spacing:-0.01em;}.cls-22{letter-spacing:0.01em;}.cls-23{letter-spacing:-0.02em;}.cls-24,.cls-28{letter-spacing:0em;}.cls-25{letter-spacing:-0.01em;}.cls-26{letter-spacing:0.01em;}.cls-29,.cls-30,.cls-31,.cls-32,.cls-33,.cls-34,.cls-35,.cls-36{font-weight:400;fill:#000;}.cls-30,.cls-37{letter-spacing:-0.01em;}.cls-32{letter-spacing:-0.02em;}.cls-34,.cls-41{letter-spacing:0em;}.cls-36{letter-spacing:-0.02em;}.cls-39{letter-spacing:-0.02em;}.cls-40{letter-spacing:-0.02em;}.cls-42{letter-spacing:0.08em;}.cls-43{font-size:20px;}.cls-44{letter-spacing:-0.06em;}.cls-45{letter-spacing:0em;}.cls-46{letter-spacing:0.01em;}.cls-47{letter-spacing:-0.01em;}.cls-48{clip-path:url(#clip-path);}.cls-50{fill:#8c4714;}.cls-51{fill:#8d5524;}.cls-52{fill:#ff7900;}.cls-53{fill:#abed64;}.cls-54{fill:#eaeaea;}.cls-55{fill:#f9b03a;}.cls-56,.cls-57{fill:#ce8e32;}.cls-57{opacity:0.55;}.cls-58{fill:#3f3f3f;}.cls-59{fill:#63391a;}.cls-60{clip-path:url(#clip-path-2);}.cls-61{fill:#121b44;}.cls-62{fill:#874c25;}.cls-63{fill:#aa622d;}.cls-64{fill:#0631bc;}.cls-65{fill:#fff200;}.cls-66{fill:#ff9100;}.cls-67{clip-path:url(#clip-path-3);}.cls-68{fill:#c68642;}.cls-69{fill:#8fc699;}.cls-70{fill:#b7783e;}.cls-71{fill:#512902;}.cls-72{fill:#e2b3b6;}.cls-73{fill:#aa6f3a;}</style><clipPath id="clip-path"><circle class="cls-1" cx="224.7" cy="130.74" r="47.77"/></clipPath><clipPath id="clip-path-2"><circle class="cls-1" cx="372.16" cy="130.74" r="47.08"/></clipPath><clipPath id="clip-path-3"><circle class="cls-1" cx="298.1" cy="130.74" r="47.6"/></clipPath></defs><g id="Layer_2" data-name="Layer 2"><g id="Layer_1-2" data-name="Layer 1"><rect class="cls-2" width="607.88" height="490.79" rx="7.53"/><text class="cls-3" transform="translate(215.96 61.96)">DID <tspan class="cls-4" x="44.23" y="0">Y</tspan><tspan x="58.4" y="0">OU KNOW?</tspan></text><text class="cls-5" transform="translate(205.27 251.05)">1. <tspan class="cls-6" x="14.19" y="0">C</tspan><tspan x="26.03" y="0">onstru</tspan><tspan class="cls-7" x="81.67" y="0">c</tspan><tspan x="91.34" y="0">tion </tspan><tspan class="cls-8" x="129.44" y="0">W</tspan><tspan x="147.39" y="0">o</tspan><tspan class="cls-9" x="158.05" y="0">r</tspan><tspan class="cls-10" x="164.73" y="0">k</tspan><tspan x="174.59" y="0">er</tspan><tspan class="cls-11" x="54.16" y="29">2</tspan><tspan x="63.99" y="29">. Cl</tspan><tspan class="cls-12" x="88.84" y="29">e</tspan><tspan x="98.85" y="29">a</tspan><tspan class="cls-13" x="108.88" y="29">n</tspan><tspan x="120.43" y="29">er</tspan><tspan x="10.31" y="58">3. Ga</tspan><tspan class="cls-14" x="51.13" y="58">r</tspan><tspan class="cls-15" x="57.81" y="58">b</tspan><tspan class="cls-13" x="69.28" y="58">a</tspan><tspan x="79.35" y="58">ge </tspan><tspan class="cls-6" x="105.73" y="58">C</tspan><tspan x="117.56" y="58">olle</tspan><tspan class="cls-7" x="147.63" y="58">c</tspan><tspan class="cls-16" x="157.31" y="58">t</tspan><tspan x="163.89" y="58">or</tspan></text><text class="cls-5" transform="translate(124.56 346.03)">Both<tspan class="cls-17" x="41.89" y="0" xml:space="preserve"> ga</tspan><tspan class="cls-18" x="69.09" y="0">r</tspan><tspan class="cls-19" x="76.35" y="0">b</tspan><tspan class="cls-20" x="87.92" y="0">a</tspan><tspan class="cls-17" x="98.51" y="0">ge </tspan><tspan class="cls-21" x="125.95" y="0">c</tspan><tspan class="cls-17" x="135.88" y="0">olle</tspan><tspan class="cls-22" x="167.98" y="0">c</tspan><tspan class="cls-23" x="178.16" y="0">t</tspan><tspan class="cls-17" x="185.26" y="0">o</tspan><tspan class="cls-24" x="196.4" y="0">r</tspan><tspan class="cls-17" x="203.69" y="0">s a</tspan><tspan class="cls-20" x="228.02" y="0">n</tspan><tspan class="cls-17" x="239.87" y="0">d </tspan><tspan class="cls-25" x="256.44" y="0">c</tspan><tspan class="cls-17" x="266.37" y="0">onstru</tspan><tspan class="cls-26" x="324.68" y="0">c</tspan><tspan class="cls-17" x="334.86" y="0">tion </tspan><tspan class="cls-17"><tspan class="cls-12" x="-1.98" y="29">w</tspan><tspan x="13.69" y="29">o</tspan><tspan class="cls-27" x="24.83" y="29">r</tspan><tspan class="cls-6" x="32.09" y="29">k</tspan><tspan x="42.92" y="29">e</tspan><tspan class="cls-28" x="53.64" y="29">r</tspan><tspan x="60.94" y="29">s</tspan><tspan class="cls-29" x="69.96" y="29" xml:space="preserve"> a</tspan><tspan class="cls-30" x="84.45" y="29">r</tspan><tspan class="cls-29" x="91.04" y="29">e </tspan><tspan class="cls-31" x="105.76" y="29">m</tspan><tspan class="cls-29" x="123.83" y="29">ostly ta</tspan><tspan class="cls-32" x="184.88" y="29">k</tspan><tspan class="cls-29" x="194.74" y="29">en up </tspan><tspan class="cls-33" x="248.39" y="29">b</tspan><tspan class="cls-29" x="259.66" y="29">y Si</tspan><tspan class="cls-34" x="288.36" y="29">n</tspan><tspan class="cls-29" x="299.9" y="29">gapo</tspan><tspan class="cls-30" x="343.78" y="29">r</tspan><tspan class="cls-35" x="350.37" y="29">e</tspan><tspan class="cls-36" x="360.59" y="29">’</tspan><tspan class="cls-29" x="363.92" y="29">s </tspan></tspan><tspan x="11.25" y="58">la</tspan><tspan class="cls-37" x="25.86" y="58">r</tspan><tspan x="32.45" y="58">ge </tspan><tspan class="cls-12" x="58.83" y="58">w</tspan><tspan x="73.52" y="58">o</tspan><tspan class="cls-9" x="84.18" y="58">r</tspan><tspan x="90.86" y="58">k</tspan><tspan class="cls-38" x="101.08" y="58">f</tspan><tspan x="106.69" y="58">o</tspan><tspan class="cls-37" x="117.35" y="58">r</tspan><tspan class="cls-38" x="123.94" y="58">c</tspan><tspan x="133.36" y="58">e of </tspan><tspan class="cls-17" x="168.96" y="58">mig</tspan><tspan class="cls-25" x="203.81" y="58">r</tspan><tspan class="cls-17" x="211.02" y="58">ant </tspan><tspan class="cls-39" x="245.46" y="58">w</tspan><tspan class="cls-17" x="261.13" y="58">o</tspan><tspan class="cls-18" x="272.27" y="58">r</tspan><tspan class="cls-40" x="279.53" y="58">k</tspan><tspan class="cls-17" x="290.36" y="58">e</tspan><tspan class="cls-24" x="301.08" y="58">r</tspan><tspan class="cls-17" x="308.38" y="58">s</tspan><tspan x="317.4" y="58" xml:space="preserve"> w</tspan><tspan class="cls-41" x="336.8" y="58">h</tspan><tspan x="348.34" y="58">o </tspan><tspan x="18.43" y="87">hail </tspan><tspan class="cls-42" x="53.57" y="87">f</tspan><tspan class="cls-37" x="60.69" y="87">r</tspan><tspan x="67.29" y="87">om </tspan><tspan class="cls-38" x="100.44" y="87">c</tspan><tspan x="109.85" y="87">ounties su</tspan><tspan class="cls-9" x="197.73" y="87">c</tspan><tspan x="207.16" y="87">h as Ba</tspan><tspan class="cls-41" x="268.77" y="87">n</tspan><tspan x="280.31" y="87">gl</tspan><tspan class="cls-41" x="296.54" y="87">a</tspan><tspan x="306.61" y="87">desh, </tspan><tspan x="116" y="116">I</tspan><tspan class="cls-41" x="121.13" y="116">n</tspan><tspan x="132.68" y="116">dia a</tspan><tspan class="cls-13" x="173.29" y="116">n</tspan><tspan x="184.83" y="116">d China.</tspan></text><text class="cls-43" transform="translate(123.9 220.1)"><tspan class="cls-44">T</tspan><tspan class="cls-45" x="11.26" y="0">op 3 U</tspan><tspan class="cls-46" x="77.08" y="0">n</tspan><tspan x="91.02" y="0">desi</tspan><tspan class="cls-47" x="134.12" y="0">r</tspan><tspan x="142.56" y="0">ed Jobs (Si</tspan><tspan class="cls-46" x="254.6" y="0">n</tspan><tspan x="268.54" y="0">gapo</tspan><tspan class="cls-47" x="321.78" y="0">r</tspan><tspan x="330.22" y="0">e)</tspan></text><g class="cls-48"><rect class="cls-49" x="145.82" y="76.57" width="154.49" height="112.18"/><rect class="cls-50" x="220.13" y="135.52" width="12.2" height="20.34"/><path class="cls-51" d="M238.55,112.5c3.84,4.61,3.29,10.67,3,14.12-.18,2-1.32,14.66-10.43,18-5.16,1.91-10.08-.17-11.34-.76-8.41-3.93-10-14.15-10.62-17.87-.72-4.48-1.47-9.2,1.19-13.1C215.64,105.17,231.9,104.52,238.55,112.5Z"/><path d="M241.74,123.46a4.29,4.29,0,0,0-1.11-3.46,3.68,3.68,0,0,0-1.51-.88c-.23-1-.47-2-.7-3a31.7,31.7,0,0,0-26.07-.31L212,118.9a4.64,4.64,0,0,0-2.11,1.35,5.07,5.07,0,0,0-1,4.19A14.81,14.81,0,0,1,213.55,107a18.62,18.62,0,0,1,7.81-4,15.94,15.94,0,0,1,18.79,8.84A18.55,18.55,0,0,1,241.74,123.46Z"/><path d="M222.6,138.44c1.29,0,2.45.1,3.64.05s2.33-.16,3.63-.25a6.32,6.32,0,0,1-7.27.2Z"/><path d="M222,121.05c-.34.53-1.43,0-3.07,0-2.39,0-3.93.95-4.23.44-.13-.22.08-.57.18-.72.43-.71,1.31-.85,2.57-1a21.64,21.64,0,0,1,3.18.07c.58,0,1.1.06,1.34.43A.83.83,0,0,1,222,121.05Z"/><ellipse cx="220.1" cy="125.09" rx="1.04" ry="1.54"/><path d="M221.78,124.69c-.48-1.18-1.18-1.41-1.36-1.46s-.66-.11-2.3.74a21.61,21.61,0,0,0-2,1.15l2-.64c1.5-.48,2-.63,2.59-.46A2.38,2.38,0,0,1,221.78,124.69Z"/><path d="M228.33,120.94c.34.52,1.44,0,3.07,0,2.39,0,3.94.95,4.23.44.13-.22-.08-.57-.17-.73-.44-.7-1.32-.84-2.57-1a20.35,20.35,0,0,0-3.19.07c-.57,0-1.1.06-1.33.43A.81.81,0,0,0,228.33,120.94Z"/><ellipse cx="230.27" cy="124.98" rx="1.04" ry="1.54"/><path d="M228.59,124.67a2.21,2.21,0,0,1,1.31-1.5c.24-.07.67-.13,2.33.66a19.83,19.83,0,0,1,2,1.08l-2-.57c-1.52-.43-2-.56-2.6-.37A2.36,2.36,0,0,0,228.59,124.67Z"/><path d="M225.31,126.63c-.11.35-.3.89-.54,1.53-.46,1.23-.55,1.3-.69,1.79-.26.85-.71,2.32,0,3.06a2.35,2.35,0,0,0,2.07.38,2.16,2.16,0,0,1-1.84-.65,2,2,0,0,1-.21-1.37,13.66,13.66,0,0,1,.88-3A10.3,10.3,0,0,0,225.31,126.63Z"/><path d="M218.66,143.33c-.17,0-.49-6,2.63-8,1.3-.83,2.86-.88,4.92-.94s3.58-.11,4.91.63c3.37,1.88,3.09,7.6,3.06,8-.09-.22-.24-.55-.42-.94-1.3-2.87-2-4.31-2.45-4.72-.94-.78-2.28-.71-5-.57s-3.9.21-4.91,1.07c-1.18,1-1.79,2.71-2.44,4.52C218.7,143.13,218.69,143.34,218.66,143.33Z"/><path d="M211,133.47a16.14,16.14,0,0,0,29.51-.81A15.48,15.48,0,0,1,234.18,143a15,15,0,0,1-7.78,2.48c-7.44.22-12-5.33-12.48-5.87A15.71,15.71,0,0,1,211,133.47Z"/><path class="cls-52" d="M232.24,150.73a72.83,72.83,0,0,1,7.32.89,21.92,21.92,0,0,1,3,.61c3.46,1.19,4.75,4.94,6.9,8.41a91.3,91.3,0,0,1,6.68,13l-10,3.17A190.63,190.63,0,0,0,247.29,201c.39,3.47.77,5.87-.58,8-2.28,3.54-7.12,2.64-18.49,2.41-16.13-.32-20.6,1.51-23.14-2.26-1.32-1.95-1.16-4-.45-11.7.52-5.62,1.22-13,2.1-21.73l-10.08-2.87c2.94-5,5.68-9,7.81-11.9,4-5.54,5.9-7.24,8.15-8.44a16.52,16.52,0,0,1,7.43-1.93,8.3,8.3,0,0,0,5.22,3A8.42,8.42,0,0,0,232.24,150.73Z"/><path class="cls-53" d="M251.34,154.75c-.16-.57-.88-2.31-10.83-3.4-2.51-.28-4.61-.4-6.1-.47a5.78,5.78,0,0,1,.36,1.26,8.73,8.73,0,0,1-.69,4.33c-.46,1.38-.73,2.83-1.22,4.2-1.46,4.07-4.54,14.86-5.54,18.76a109.72,109.72,0,0,0-2.6,29c.24,5.63,1.09,5.2,1,9.72,0,1.38-.14,3.06.8,4s2.57.55,3.75.41c4.28-.51,10.65-1.28,16-.66,1.29.15,3,.44,3.75-.64s.05-2.86-.14-3.41c-1.75-5-1.36-10.68-2.37-15.95-.87-4.56-.77-10.36-.59-22,.18-10.93.92-13.75,1.56-15.42.14-.37.82-2.47,2.18-6.68C251.37,155.58,251.47,155.24,251.34,154.75Z"/><path class="cls-54" d="M246.86,193.9c0,1.57.1,3.14.16,4.71l-8.75.2q-6.83.15-13.61.26a27.36,27.36,0,0,1,.1-2.77,20,20,0,0,1,.28-2.11q5.29-.15,10.71-.22Q241.36,193.9,246.86,193.9Z"/><path class="cls-54" d="M241.46,195.34a201.14,201.14,0,0,1-.44-25.11c.3-6.74.92-13,1.7-18.61l-3.6-.46c-1,5.87-1.83,12.37-2.42,19.45a242.69,242.69,0,0,0-.81,24.65Z"/><path class="cls-53" d="M200.41,154.75c.16-.57.88-2.31,10.83-3.4,2.51-.28,4.61-.4,6.1-.47a5.78,5.78,0,0,0-.36,1.26,8.62,8.62,0,0,0,.69,4.33c.46,1.38.73,2.83,1.22,4.2,1.46,4.07,4.54,14.86,5.54,18.76a109.72,109.72,0,0,1,2.6,29c-.24,5.63-1.09,5.2-1,9.72,0,1.38.14,3.06-.8,4s-2.58.55-3.75.41c-4.28-.51-10.65-1.28-16-.66-1.29.15-3,.44-3.75-.64s-.05-2.86.14-3.41c1.75-5,1.36-10.68,2.37-15.95.87-4.56.77-10.36.58-22-.17-10.93-.91-13.75-1.55-15.42-.14-.37-.82-2.47-2.18-6.68C200.38,155.58,200.28,155.24,200.41,154.75Z"/><path class="cls-54" d="M204.89,193.9c0,1.57-.11,3.14-.16,4.71l8.75.2,13.6.35c0-.91,0-1.87-.09-2.86,0-.7-.09-1.37-.14-2-3.56-.13-7.17-.24-10.85-.3S208.53,193.89,204.89,193.9Z"/><path class="cls-54" d="M210.29,195.34a201.14,201.14,0,0,0,.44-25.11c-.3-6.74-.92-13-1.7-18.61l3.6-.46c1,5.87,1.83,12.37,2.42,19.45a242.69,242.69,0,0,1,.81,24.65Z"/><path class="cls-55" d="M204.66,119.09a168.16,168.16,0,0,0,21.12.32,168.69,168.69,0,0,0,19.83-2.11l0-1.65-1.38,0-.19-2-2.11-1.81s0-16.91-14.57-16.67a2.32,2.32,0,0,0-.76-.39,1.47,1.47,0,0,0-.26,0,3.22,3.22,0,0,0-.59,0c-.54,0-1-.51-1.78-.65a1.9,1.9,0,0,0-1.14.06c-.43.18-1.13.7-1.45.79s-.39,0-.72.14a3.12,3.12,0,0,0-1.23.73,14.78,14.78,0,0,0-6.76,3.3c-5.81,5.12-5,13.14-4.92,14.06l-1.82,1.65-.06,2-1.22.08Z"/><path class="cls-56" d="M210.46,113.74a46.55,46.55,0,0,0,12,1.35c8.91,0,15.71-2.12,15.69-2.26a85.37,85.37,0,0,1-14,1.63A102,102,0,0,1,210.46,113.74Z"/><path class="cls-57" d="M223.07,94.05a3.89,3.89,0,0,0-.84.52c-.35.28-.47.48-.81.61a1.84,1.84,0,0,1-.63.08,2.18,2.18,0,0,0-1.39.8,15.7,15.7,0,0,0-2.89,1.18,16.14,16.14,0,0,0-5.24,4.54c-3.35,4.75-2.26,10.52-2.06,11.51l-2.47,1.83,0,2.37-.91.07,0,1.62-1.22-.09c0-.73,0-1.46,0-2.19l1.22-.08.06-2,1.79-1.79a16.63,16.63,0,0,1,.89-7.69,14.55,14.55,0,0,1,4.36-6.48,14.82,14.82,0,0,1,4.92-2.65,15.58,15.58,0,0,1,1.54-.4,2.34,2.34,0,0,1,1.23-.73,3.13,3.13,0,0,0,.72-.14,3.77,3.77,0,0,0,.79-.46A4.11,4.11,0,0,1,223.07,94.05Z"/><path class="cls-58" d="M207.56,119.25a30.69,30.69,0,0,0,1.91,12.65c1.07,2.83,2.51,6.6,6.28,9.76,1.58,1.32,5.08,4.27,10.18,4.22,6.37-.06,10.37-4.73,11.13-5.62,2.28-2.65,3-5.26,4-9.11a45.68,45.68,0,0,0,1.54-13.42l-.53.06-.46.08c0,.95,0,2.19,0,3.63,0,0-.14,2.56-.54,5-.91,5.48-1.84,11.12-6.3,15a13.65,13.65,0,0,1-8.69,3.75c-6.39.1-10.67-5.32-12.16-7.21-3.56-4.52-4.39-9.6-5-13.16a36,36,0,0,1-.48-5.56Z"/><path class="cls-51" d="M199.1,173.53a55.86,55.86,0,0,0-.69,6.6,61.41,61.41,0,0,0,.47,10.25,78.45,78.45,0,0,0,3.78,16.19c.79-.17,1.61-.37,2.47-.61s1.66-.49,2.41-.75l-1.8-8h0a19.94,19.94,0,0,1-1-4.33c0-.44,0-.89,0-.89,0-.94.16-1.65.28-5,.13-3.64.17-3.38.19-4.66a59.33,59.33,0,0,0-.34-7.19Z"/><path class="cls-51" d="M207.52,205.12a1.9,1.9,0,0,0,.33.68c.24.28.41.27,1,.65.37.24.62.44,1,.75a7.5,7.5,0,0,1,.63.53c.23.24.26.32.49.56a8.57,8.57,0,0,0,.7.62c.45.4.85.76.81,1s-.9.3-1,.3a3.3,3.3,0,0,1-1.64-.68c-.82-.63-.53.2-.53.2a3.43,3.43,0,0,0,.42,1.38c.43.89,1.41,2.85,1.6,3.3s.27,1.66-.87,1-2.47-3.14-2.47-3.14a22.73,22.73,0,0,1,2.25,3.36c0,.43-.42,1.58-1.71.24a15,15,0,0,1-2.19-3.09s3.41,3.44,2.09,3.69-3.22-2.3-3.51-3.28a14,14,0,0,0,.73,1.28c.29.47.54.82.41,1.13a.39.39,0,0,1-.18.19c-.33.14-.87-.55-1.09-.79a6.73,6.73,0,0,1-1.59-3.13c-.45-1.9.09-2.48-.41-4.7a10.83,10.83,0,0,0-.43-1.49Z"/><path class="cls-59" d="M210,215.08a11.14,11.14,0,0,1-2.23-3.85"/><path class="cls-59" d="M208.83,216.16a6.34,6.34,0,0,1-.72-.63,10.16,10.16,0,0,1-.82-.84,5.51,5.51,0,0,1-.71-1.05,5,5,0,0,1-.53-1.77,10.36,10.36,0,0,0,1,2.13A19.41,19.41,0,0,0,208.83,216.16Z"/><path class="cls-59" d="M206,215a3,3,0,0,1-.34-.37c-.19-.23-.28-.34-.39-.49a4.65,4.65,0,0,1-.32-.6,2.85,2.85,0,0,1-.18-1,7.21,7.21,0,0,0,.44,1.08C205.64,214.42,206.08,215,206,215Z"/><path class="cls-51" d="M252.55,174.79a54.48,54.48,0,0,1,.75,6.74,61.31,61.31,0,0,1-.47,10.25A79.25,79.25,0,0,1,249,208c-.78-.17-1.61-.37-2.46-.61s-1.66-.49-2.42-.74q.92-4,1.81-8a20,20,0,0,0,1-4.34c0-.44,0-.89,0-.89,0-.93-.16-1.65-.27-5-.11-2.86-.15-3.31-.18-4,0,0,0-.32,0-.66,0-.69.1-3.44.33-7.19Z"/><path class="cls-51" d="M244.18,206.52a1.62,1.62,0,0,1-.33.68c-.23.28-.41.28-1,.65-.36.24-.62.44-1,.75a5.5,5.5,0,0,0-.63.54c-.24.24-.27.32-.49.55a8.52,8.52,0,0,1-.71.62c-.45.4-.85.76-.8,1s.89.3,1,.3a3.32,3.32,0,0,0,1.63-.67c.82-.63.54.19.54.19a3.37,3.37,0,0,1-.43,1.38c-.43.89-1.4,2.85-1.59,3.3s-.27,1.67.86,1,2.47-3.13,2.47-3.13a23.13,23.13,0,0,0-2.24,3.35c0,.43.42,1.58,1.71.24a15,15,0,0,0,2.19-3.09s-3.42,3.44-2.1,3.69,3.23-2.3,3.52-3.27c-.29.55-.55,1-.73,1.27-.29.47-.54.82-.41,1.13a.36.36,0,0,0,.17.2c.34.13.88-.56,1.1-.8a6.84,6.84,0,0,0,1.59-3.12c.45-1.91-.1-2.49.4-4.71a12.72,12.72,0,0,1,.44-1.49Z"/><path class="cls-59" d="M241.72,216.48a11.07,11.07,0,0,0,1.46-2.1,10.2,10.2,0,0,0,.76-1.75"/><path class="cls-59" d="M242.88,217.56a5.55,5.55,0,0,0,.71-.63,7.72,7.72,0,0,0,.82-.84,5,5,0,0,0,.72-1.05,5.22,5.22,0,0,0,.52-1.77,9.65,9.65,0,0,1-1,2.13A20.28,20.28,0,0,1,242.88,217.56Z"/><path class="cls-59" d="M245.66,216.41s.15-.13.35-.37a4.79,4.79,0,0,0,.38-.49,2.82,2.82,0,0,0,.51-1.61,9.14,9.14,0,0,1-.44,1.09C246.07,215.82,245.63,216.39,245.66,216.41Z"/></g><g class="cls-60"><rect class="cls-49" x="297.64" y="83.65" width="149.04" height="106.37"/><path class="cls-61" d="M350,207.26c-1.95,14.77-3.21,27.23-4,36.55,0,0-.09,1.06-.24,3.07,0,0-.36,4.75-.56,8.74-.67,13.4,3,37.18,3,37.18,4.13,26.42,7.3,34.32,8.89,34.17.85-.08,1.13-2.48,2.87-2.69a7.34,7.34,0,0,1,4.48,1.53l0,0c.67-.08-.81-14.19,3-30.52,1-4.27,1.24-3.86,2.12-7.92A82.26,82.26,0,0,0,371.39,265c1.16-18.61,1.57-22.78,1.73-22.78s-.33,15.3-.2,24.74c.1,6.93.07,10.64,0,12.75,0,.08,0,.31,0,.44-.1,3-.19,6.54-.19,7.22,0,3.5,1.55,6.71,2.33,8.52,5,11.59,4.84,31.34,6.95,31.27.53,0,.85-1.24,1.88-1.25s1.24,1,2,1.25c2,.67,5.76-19.65,4.25-21.42-2-2.36-2.66-4.4-2.57-6.18.12-2.49,2.39-3.34,5.46-8.69.07-.11.8-1.39,1.4-2.65a31.64,31.64,0,0,0,2.85-11.64c1.08-14.67,1.62-22,1.55-24.55-.58-19.11-2.25-37-3.18-46Z"/><rect class="cls-62" x="366.39" y="134.3" width="13.98" height="23.3"/><path class="cls-63" d="M387.49,107.92c2.86,3.43,3,7.71,3.42,16.18.29,5.9.48,11.62-3.24,15.41-1.2,1.23-2.53,1.93-5.18,3.33-3.74,2-6.22,3.3-9.45,3.33-2.93,0-5.29-1.15-10-3.51-3.51-1.75-5.26-2.63-6.39-3.86-1.7-1.85-2.95-4.62-2.85-15.36.08-8.74.08-13.13,1.37-15C361.25,99.52,379.88,98.78,387.49,107.92Z"/><path d="M390.73,120.39c-.14,0-.15-.38-.9-2.47-.35-1-.67-1.8-.92-2.44L387.35,112a17,17,0,0,1-5.47,1.15c-2.4.09-3.8-.4-10.62-2.06-4.51-1.1-5.2-1.21-6.18-1.22a16.65,16.65,0,0,0-7.6,1.77c-.41.64-1,1.55-1.58,2.69a21.23,21.23,0,0,0-1.4,2.88,13.61,13.61,0,0,0-.69,4.5c-.21,0-1.76-6.4.5-13.31,1.41-4.28,3.19-5.47,3.95-5.9a7.45,7.45,0,0,1,3.86-.87,24.59,24.59,0,0,1,7.21-2.44,21.87,21.87,0,0,1,12.29,1.15c2,.84,5.72,2.37,7.79,6.12a14,14,0,0,1,1.42,4.37C391.86,115.82,391.19,120.37,390.73,120.39Z"/><path d="M369.22,137.64a28.3,28.3,0,0,0,4.17.26,27.54,27.54,0,0,0,4.16-.49,8.34,8.34,0,0,1-8.33.23Z"/><path d="M369.85,119.25c-.37.59-2.3-.63-4.86-.89-3.12-.32-5.44.94-5.67.4-.13-.3.56-.86.72-1,.35-.28,1.5-1.11,4.88-.82,1.83.16,4.34.35,4.89,1.72A.67.67,0,0,1,369.85,119.25Z"/><ellipse cx="366.16" cy="122.18" rx="1.19" ry="1.6"/><path d="M365.86,120.43a4.3,4.3,0,0,0-2,.65,4.45,4.45,0,0,0-.74.54c-.1.13-.09.18-.08.2.12.18,1.56-.54,2.85-.83a2.76,2.76,0,0,1,1.16.13h0c.8.24,1,.23,1,.2A2.94,2.94,0,0,0,365.86,120.43Z"/><path d="M372.33,124.11a7.61,7.61,0,0,1-.78,3.46c-.83,1.66-2,2.16-1.8,3,.27,1.2,2.95,1.54,3,1.51s-1.92-.28-2.19-1.3c-.18-.73.6-1.27,1.22-2.37A6.5,6.5,0,0,0,372.33,124.11Z"/><path d="M367.76,134.62c1.52-.91,3.3-.9,5.66-.88s4.11,0,5.6.92c1.16.71,2,1.88,1.82,2.13s-1.06-.48-2.56-.77c-2-.38-2.38.48-4.82.46s-2.7-.86-4.5-.51-2.86,1.54-3.09,1.3S366.36,135.45,367.76,134.62Z"/><path class="cls-64" d="M380.47,151.79a22.59,22.59,0,0,1,8.39,1,20.68,20.68,0,0,1,6.47,3.31c.87.68,3.32,2.7,6.31,8.5a52.71,52.71,0,0,1,4.79,13.71l-10,3.35a219.14,219.14,0,0,0,1.3,27.72c.45,4,.88,6.73-.67,9.14-2.61,4.05-8.15,3-21.18,2.76-18.48-.37-23.61,1.73-26.52-2.59-1.5-2.23-1.32-4.56-.5-13.4.59-6.45,1.39-14.9,2.4-24.9l-11.55-3.29c.48-1.28,1.18-3.12,2.09-5.29.62-1.5,1.8-4.3,2.83-6.31a30.75,30.75,0,0,1,6.69-9c5.29-4.52,12-4.95,15.18-4.91a9.51,9.51,0,0,0,6,3.43C377,155.58,380.1,152.21,380.47,151.79Z"/><path class="cls-51" d="M342.5,177.91c-.36,3-.61,5.59-.79,7.56-.65,7.27-.54,9.74-.31,11.83a41.76,41.76,0,0,0,.78,4.44,80.43,80.43,0,0,0,4.4,14c.9-.19,1.85-.42,2.83-.69s1.9-.56,2.77-.86c-.55-2.15-1.31-5.31-2.07-9.2a42,42,0,0,1-.79-4.75c-.21-2.85.27-3.38,1-10.63.11-1,.16-.94.51-5.19.08-.95.21-2.35.41-4Z"/><path class="cls-51" d="M352.16,214.1a2,2,0,0,0,.37.78c.27.32.47.32,1.13.74.41.28.7.51,1.16.86a6.49,6.49,0,0,1,.72.62c.27.27.3.36.56.63a9.35,9.35,0,0,0,.81.71c.51.46,1,.88.92,1.16s-1,.34-1.11.34a3.68,3.68,0,0,1-1.87-.77c-.94-.72-.62.22-.62.22a3.91,3.91,0,0,0,.49,1.58c.49,1,1.61,3.27,1.83,3.78s.31,1.91-1,1.18-2.83-3.59-2.83-3.59,2.57,3.36,2.57,3.85-.48,1.81-2,.27a17,17,0,0,1-2.51-3.53s3.91,3.93,2.4,4.22-3.69-2.63-4-3.75c.33.63.63,1.12.84,1.46.33.54.62.94.47,1.29a.4.4,0,0,1-.2.23c-.38.15-1-.64-1.25-.91a7.74,7.74,0,0,1-1.83-3.58c-.51-2.19.11-2.85-.46-5.4a13.53,13.53,0,0,0-.5-1.7Z"/><path class="cls-59" d="M355,225.51a12.74,12.74,0,0,1-1.68-2.4,12.33,12.33,0,0,1-.87-2"/><path class="cls-59" d="M353.65,226.75a7.84,7.84,0,0,1-.82-.72,11.45,11.45,0,0,1-.94-1,6.88,6.88,0,0,1-.82-1.21,5.79,5.79,0,0,1-.6-2,11.81,11.81,0,0,0,1.19,2.45A22.9,22.9,0,0,0,353.65,226.75Z"/><path class="cls-59" d="M350.46,225.44a2.27,2.27,0,0,1-.39-.43,6,6,0,0,1-.45-.57,3.78,3.78,0,0,1-.36-.68,3,3,0,0,1-.22-1.16,9.4,9.4,0,0,0,.51,1.24C350,224.75,350.5,225.41,350.46,225.44Z"/><path class="cls-65" d="M347.07,287c.68,6.71,1.52,12.09,2.12,15.61C352,319,354.73,324,352.12,329.08c-1.81,3.49-2.09,5.44-2.67,9.34a4.69,4.69,0,0,0,.18,2.68c1.1,2.68,5.41,2.6,8.8,2.53,5.07-.1,6.82-1.73,7.43-2.4a4.31,4.31,0,0,0,1.18-1.76,6.21,6.21,0,0,0,.09-2.7,9.48,9.48,0,0,1,0-1.71c0-.89-.06-2-.08-2.25-.11-1.14-.08-3.46-.06-6.1,0-3,1.17-18.6,3.48-39.89-1.47.2-3.53.47-6,.72-1.6.17-4.19.48-6.16.53A49.33,49.33,0,0,1,347.07,287Z"/><path d="M349.63,341.1l.11,3.27a5.57,5.57,0,0,0,1.8,1.41,4.78,4.78,0,0,0,1.61.44l.21-.86c0,.3,0,.61,0,.92.42.11.87.21,1.34.29s1.14.17,1.65.21c.07-.38.13-.75.2-1.13l0,1.15q.76.06,1.59.06a21,21,0,0,0,2.18-.11l.09-1c.06.32.13.65.19,1a8.5,8.5,0,0,0,1.56-.16,9,9,0,0,0,2-.65l.12-.91.2.78a4.89,4.89,0,0,0,1.19-.64,5.63,5.63,0,0,0,1.07-1.06c.11-1.54.21-3.07.32-4.61a15.77,15.77,0,0,1-5.08,2.79A16.5,16.5,0,0,1,349.63,341.1Z"/><path class="cls-65" d="M395.5,287.17c-.68,6.72-1.52,12.09-2.12,15.61-2.82,16.39-5.55,21.39-2.93,26.44,1.8,3.48,2.09,5.43,2.67,9.34a4.83,4.83,0,0,1-.18,2.67c-1.1,2.69-5.41,2.6-8.81,2.54-5.06-.1-6.81-1.74-7.43-2.41a4.46,4.46,0,0,1-1.18-1.75,6.26,6.26,0,0,1-.08-2.71,10.57,10.57,0,0,0,0-1.71,19.87,19.87,0,0,1,.08-2.25c.1-1.13.08-3.45.05-6.09,0-3-1.16-18.6-3.47-39.9,1.47.2,3.53.47,6,.73,1.59.16,4.19.48,6.15.52A49.42,49.42,0,0,0,395.5,287.17Z"/><path d="M392.94,341.23l-.11,3.27a5.42,5.42,0,0,1-1.8,1.41,4.83,4.83,0,0,1-1.61.45c-.07-.29-.14-.58-.22-.87,0,.31,0,.62,0,.92-.42.11-.86.21-1.33.29a15.52,15.52,0,0,1-1.66.22c-.06-.38-.13-.76-.19-1.13,0,.38,0,.76,0,1.14q-.75.06-1.59.06a21.33,21.33,0,0,1-2.18-.11l-.09-1-.18,1a7.87,7.87,0,0,1-1.57-.16,8.22,8.22,0,0,1-1.95-.65l-.12-.91-.2.78a4.28,4.28,0,0,1-1.19-.64,4.87,4.87,0,0,1-1.07-1.06l-.33-4.6a15.94,15.94,0,0,0,5.09,2.79A16.45,16.45,0,0,0,392.94,341.23Z"/><path class="cls-66" d="M396.39,180.25q2.89-1.26,6.18-2.42c1.19-.41,2.36-.79,3.5-1.14l.36,1.63-10,3.35Z"/><path class="cls-66" d="M351.46,179a32,32,0,0,0-6.33-2.41,31.44,31.44,0,0,0-4.9-.87l-.53,1.4,11.58,3.31Z"/><path class="cls-51" d="M404.78,178.87c.59,3.16.94,5.84,1.16,7.85a49.85,49.85,0,0,1,.31,11.83,41.89,41.89,0,0,1-.77,4.44,81.51,81.51,0,0,1-4.41,14c-.9-.19-1.85-.42-2.83-.69s-1.9-.56-2.76-.86c.55-2.15,1.31-5.31,2.06-9.2a45.37,45.37,0,0,0,.8-4.75c.2-2.85-.27-3.38-1-10.63-.1-1-.16-.94-.51-5.19-.08-.95-.21-2.35-.4-4Z"/><path class="cls-51" d="M395.5,215.35a2,2,0,0,1-.38.78c-.27.32-.47.32-1.12.74-.42.28-.71.51-1.16.86a6,6,0,0,0-.73.62c-.27.27-.3.36-.56.63a9.35,9.35,0,0,1-.81.71c-.51.46-1,.88-.92,1.16s1,.34,1.11.34a3.73,3.73,0,0,0,1.88-.77c.93-.72.61.22.61.22a4,4,0,0,1-.49,1.59c-.49,1-1.61,3.26-1.83,3.77s-.3,1.92,1,1.18,2.83-3.58,2.83-3.58-2.57,3.35-2.57,3.84.48,1.81,2,.27a17,17,0,0,0,2.51-3.53s-3.91,3.93-2.4,4.22,3.69-2.63,4-3.75c-.33.63-.63,1.12-.84,1.46-.33.54-.62.94-.47,1.29a.45.45,0,0,0,.2.23c.38.15,1-.64,1.26-.91a7.75,7.75,0,0,0,1.82-3.58c.52-2.18-.11-2.85.46-5.4a15.48,15.48,0,0,1,.5-1.7Z"/><path class="cls-59" d="M392.67,226.76a12.3,12.3,0,0,0,1.68-2.4,12.65,12.65,0,0,0,.87-2"/><path class="cls-59" d="M394,228a6.08,6.08,0,0,0,.82-.72,11.45,11.45,0,0,0,.94-1,6.55,6.55,0,0,0,.82-1.2,5.93,5.93,0,0,0,.6-2,11.81,11.81,0,0,1-1.19,2.45A22.9,22.9,0,0,1,394,228Z"/><path class="cls-59" d="M397.19,226.69a2.51,2.51,0,0,0,.4-.43c.21-.26.32-.39.44-.57a3.64,3.64,0,0,0,.37-.68,3.28,3.28,0,0,0,.21-1.16,11.41,11.41,0,0,1-.5,1.25C397.66,226,397.16,226.66,397.19,226.69Z"/><path class="cls-66" d="M364.26,151.65a11.42,11.42,0,0,0,11.1,4.73,11.22,11.22,0,0,0,7-4.64l-1.88,0a9.49,9.49,0,0,1-6.73,3.1,9.6,9.6,0,0,1-7.25-3.3Z"/><path d="M374.67,119.35c.38.59,2.3-.63,4.87-.89,3.11-.32,5.43.94,5.66.4.13-.3-.56-.86-.72-1-.35-.28-1.5-1.11-4.87-.82-1.84.16-4.35.35-4.9,1.72A.67.67,0,0,0,374.67,119.35Z"/><ellipse cx="378.36" cy="122.28" rx="1.19" ry="1.6"/><path d="M378.66,120.53a4.3,4.3,0,0,1,2,.65,4.45,4.45,0,0,1,.74.54c.1.13.09.18.08.2-.12.18-1.56-.54-2.85-.83a2.76,2.76,0,0,0-1.16.13h0c-.8.24-1,.24-1,.2A2.94,2.94,0,0,1,378.66,120.53Z"/></g><g class="cls-67"><rect class="cls-49" x="237.11" y="75.67" width="123.73" height="108.55"/><path class="cls-68" d="M283.64,302.13a37.08,37.08,0,0,1-1.27,15.42c.91,4.05,3.75,6.37,5.88,6,1.77-.29,3-2.44,3.05-2.6a5.77,5.77,0,0,0,.58-3.64,48.74,48.74,0,0,1-1-15.64Z"/><path class="cls-68" d="M311.92,301.71a36.85,36.85,0,0,0,1.26,15.42c-.91,4.05-3.75,6.37-5.87,6-1.78-.29-3-2.44-3.05-2.6a5.8,5.8,0,0,1-.59-3.64,48.15,48.15,0,0,0,1.14-7.59,49,49,0,0,0-.1-8.05Z"/><path d="M311.62,322.25a4.93,4.93,0,0,1-3.28,1.78,5.59,5.59,0,0,1-4.09-2.08,4.5,4.5,0,0,1-.58-5,3.39,3.39,0,0,0,1.91,2.92,5.19,5.19,0,0,0,7.6-2.77A5.63,5.63,0,0,1,311.62,322.25Z"/><path class="cls-68" d="M283.64,302.13a37.08,37.08,0,0,1-1.27,15.42c.91,4.05,3.75,6.37,5.88,6,1.77-.29,3-2.44,3.05-2.6a5.77,5.77,0,0,0,.58-3.64,48.74,48.74,0,0,1-1-15.64Z"/><path class="cls-69" d="M274,200.55c-.44,13.86-.32,28.93.66,45a483.26,483.26,0,0,0,6.89,56.92,9.32,9.32,0,0,0,11.07.08q2.54-34.32,5.05-68.65l4.31,68.35a12.83,12.83,0,0,0,5.34,2.08,13.06,13.06,0,0,0,7.27-1c2.32-18.64,4.18-38.47,5.35-59.37q1.26-22.73,1.33-43.76Z"/><path d="M305.27,138.52c1.77,3.63,6.62,5.1,9.4,6.8,3.34,2,6.4,6,4.35,14.77,0,0-6.64-7-10.75-9.19s-7.11-12.82-7.11-12.82c.76-1.6,1.74-3.3,2.53-3.25S304.39,136.73,305.27,138.52Z"/><rect class="cls-70" x="290.35" y="128.11" width="15.17" height="33.34"/><path class="cls-68" d="M312.59,109.13c4.44,4.79,3.81,11.09,3.45,14.67-.21,2.13-1.53,15.24-12.07,18.77-6,2-11.64-.18-13.1-.79-9.72-4.09-11.6-14.71-12.28-18.57-.82-4.66-1.69-9.57,1.38-13.62C286.11,101.5,304.9,100.83,312.59,109.13Z"/><path d="M316,124.21a9.75,9.75,0,0,0-1.23-4.38c-1.94-3.34-5.31-4-9-6.13a24.91,24.91,0,0,1-7.89-7.69,16.31,16.31,0,0,1-5.26,6.33c-1.19.82-2,1.06-4.72,2.82a36.16,36.16,0,0,0-4.07,2.8c-3.09,2.67-5,6.1-5.14,6h0c-.18-.26-3.16-6.58.6-14.44a20.1,20.1,0,0,1,4.37-6.05,19.16,19.16,0,0,1,30.74,5.63A22.19,22.19,0,0,1,316,124.21Z"/><path d="M293.54,136.28c1.48.07,2.83.19,4.21.13s2.72-.2,4.19-.36a7.19,7.19,0,0,1-4.17,1.36A7.3,7.3,0,0,1,293.54,136.28Z"/><path class="cls-71" d="M293.25,119.75c-.35.28-1-.1-1.73-.34a8.25,8.25,0,0,0-2.77-.19c-3,0-5.19,1.89-5.33,1.65s1.15-1.43,2.92-2a6.33,6.33,0,0,1,1.75-.27,28.53,28.53,0,0,1,4.57.06c.34.06.64.17.74.41A.61.61,0,0,1,293.25,119.75Z"/><ellipse cx="290.87" cy="124.34" rx="1.2" ry="1.78"/><path d="M293.11,123.86a3.4,3.4,0,0,0-.79-.79,3.05,3.05,0,0,0-2-.56c-.74.07-.8.43-2.09,1-1,.46-1.73.56-1.71.65a2.86,2.86,0,0,0,1.72-.09c1.1-.32,1.33-.86,2.07-1.06C290.87,122.86,291.76,122.89,293.11,123.86Z"/><path d="M297.22,126.48a6.93,6.93,0,0,1-.49,1.39c-.52,1.13-1.41,1.7-1.38,2.47.06,1,1.8,1.69,1.81,1.67s-1.45-.65-1.5-1.66c0-.43.21-.56.7-1.39A6.74,6.74,0,0,0,297.22,126.48Z"/><path class="cls-72" d="M305.51,146.79a17.92,17.92,0,0,1,7.65,1,17,17,0,0,1,5,2.8c2.58,2.12,3.89,4.66,5.58,9a115,115,0,0,1,4.64,14.58L319,176.91c-2.67,8.19-2.18,14.23-1.17,18.31,1.84,7.46,6.81,14.11,3.64,18.84a6,6,0,0,1-.8,1s-.17.17-.35.32c-5.7,4.53-21.55,4.64-21.55,4.64-15.19.11-20.4-1.07-24.07-4.31a8.38,8.38,0,0,1-1.36-1.44c-3.32-4.75.66-11.49,2.61-19a46.36,46.36,0,0,0,.87-18.19L266.87,175c.29-1,.74-2.41,1.25-4.21.86-3,1-4,1.49-5.4a34.63,34.63,0,0,1,3-6.84,24.53,24.53,0,0,1,9.41-9.75,18.77,18.77,0,0,1,8.34-2.22,57.15,57.15,0,0,0,3.28,7.25,58.81,58.81,0,0,0,3.9,6.24,32.82,32.82,0,0,0,8-13.24Z"/><path class="cls-68" d="M268.32,175.26c-.13,1.48-.25,3-.35,4.48,0,.54-.08,1.08-.11,1.62h0s0,.36,0,.7a77,77,0,0,0,.56,11.15,91.09,91.09,0,0,0,4.37,18.71c.91-.19,1.87-.42,2.86-.7s1.91-.56,2.79-.86c-.7-3.1-1.4-6.19-2.09-9.29a23.14,23.14,0,0,1-1.16-5c0-.52,0-1,0-1,.28-2.81.47-5.84.55-9.07s0-6.33-.14-9.19Z"/><path class="cls-68" d="M278.4,210.25a1.85,1.85,0,0,0,.38.78c.26.33.47.32,1.13.75.42.28.71.51,1.17.87a7.2,7.2,0,0,1,.73.62c.27.28.3.37.56.64s.45.38.82.72,1,.88.93,1.16-1,.35-1.12.35a3.74,3.74,0,0,1-1.89-.78c-.95-.72-.62.23-.62.23a4,4,0,0,0,.49,1.59c.5,1,1.62,3.29,1.85,3.81s.31,1.93-1,1.19-2.86-3.62-2.86-3.62,2.6,3.39,2.6,3.89-.49,1.82-2,.27a17.4,17.4,0,0,1-2.53-3.57s3.94,4,2.42,4.27-3.72-2.66-4.06-3.79c.33.64.63,1.13.84,1.47.34.54.63,1,.48,1.3a.4.4,0,0,1-.21.23c-.38.16-1-.64-1.26-.92a7.67,7.67,0,0,1-1.84-3.61c-.52-2.2.11-2.87-.47-5.44a16.11,16.11,0,0,0-.5-1.72Z"/><path class="cls-73" d="M281.24,221.76a13.31,13.31,0,0,1-1.69-2.42,13,13,0,0,1-.88-2"/><path class="cls-73" d="M279.9,223a7,7,0,0,1-.83-.73,10,10,0,0,1-.94-1,6.29,6.29,0,0,1-.83-1.21,6.12,6.12,0,0,1-.61-2,11.59,11.59,0,0,0,1.21,2.46A22.14,22.14,0,0,0,279.9,223Z"/><path class="cls-73" d="M276.69,221.68s-.17-.16-.4-.43a6,6,0,0,1-.45-.57,3.24,3.24,0,0,1-.59-1.86,10,10,0,0,0,.51,1.26C276.21,221,276.72,221.66,276.69,221.68Z"/><path class="cls-68" d="M326.26,174.74c.19,2.06.38,4.69.42,7.76a94.28,94.28,0,0,1-.54,11.85,90.56,90.56,0,0,1-4.38,18.71c-.9-.19-1.86-.43-2.85-.7s-1.91-.57-2.79-.86c.7-3.1,1.39-6.19,2.09-9.29a23.14,23.14,0,0,0,1.16-5c0-.52,0-1,0-1,0-1.08-.19-1.9-.33-5.72-.11-3.31-.17-3.83-.2-4.62,0-.25,0-.51,0-.76a65.79,65.79,0,0,1,.39-8.31Z"/><path class="cls-68" d="M316.14,211.38a1.88,1.88,0,0,1-.38.79c-.27.33-.47.32-1.13.75-.42.28-.72.51-1.17.87a7.2,7.2,0,0,0-.73.62c-.27.28-.31.37-.57.64a9.8,9.8,0,0,1-.82.72c-.51.46-1,.88-.92,1.16s1,.35,1.12.35a3.74,3.74,0,0,0,1.89-.78c.95-.73.62.23.62.23a4,4,0,0,1-.49,1.59c-.5,1-1.63,3.29-1.85,3.81s-.31,1.93,1,1.19,2.85-3.62,2.85-3.62-2.59,3.39-2.59,3.88.49,1.82,2,.28a17.4,17.4,0,0,0,2.53-3.57s-4,4-2.42,4.27,3.72-2.66,4.06-3.79c-.33.63-.63,1.13-.84,1.47-.34.54-.63.95-.48,1.3a.43.43,0,0,0,.21.23c.38.16,1-.64,1.26-.92a7.86,7.86,0,0,0,1.84-3.61c.52-2.2-.11-2.87.47-5.44a12,12,0,0,1,.5-1.72Z"/><path class="cls-73" d="M313.29,222.9a13.07,13.07,0,0,0,1.7-2.43,14,14,0,0,0,.88-2"/><path class="cls-73" d="M314.64,224.15a7.14,7.14,0,0,0,.82-.73,9.2,9.2,0,0,0,1-1,6.36,6.36,0,0,0,.82-1.21,5.69,5.69,0,0,0,.61-2.05,11.47,11.47,0,0,1-1.2,2.46A23.52,23.52,0,0,1,314.64,224.15Z"/><path class="cls-73" d="M317.85,222.82s.17-.16.4-.43a6,6,0,0,0,.45-.57,3.83,3.83,0,0,0,.37-.69,3.3,3.3,0,0,0,.21-1.17,8,8,0,0,1-.51,1.26C318.32,222.14,317.82,222.8,317.85,222.82Z"/><path class="cls-71" d="M300.58,119.75c.34.28,1-.1,1.72-.34a8.34,8.34,0,0,1,2.78-.19c3,0,5.19,1.89,5.33,1.65s-1.15-1.43-2.92-2a6.38,6.38,0,0,0-1.75-.27,28.52,28.52,0,0,0-4.57.06c-.34.06-.64.17-.74.41A.61.61,0,0,0,300.58,119.75Z"/><ellipse cx="302.96" cy="124.34" rx="1.2" ry="1.78"/><path d="M300.72,123.86a3.22,3.22,0,0,1,.79-.79,3,3,0,0,1,2-.56c.75.07.81.43,2.1,1,1,.46,1.73.56,1.7.65a2.82,2.82,0,0,1-1.71-.09c-1.11-.32-1.33-.86-2.07-1.06C303,122.86,302.07,122.89,300.72,123.86Z"/><path d="M283.93,322.67a4.93,4.93,0,0,0,3.29,1.78,5.53,5.53,0,0,0,4.08-2.08,4.5,4.5,0,0,0,.58-5,3.39,3.39,0,0,1-1.91,2.92,5.19,5.19,0,0,1-7.6-2.77A5.66,5.66,0,0,0,283.93,322.67Z"/><path d="M283.93,322.67a4.93,4.93,0,0,0,3.29,1.78,5.53,5.53,0,0,0,4.08-2.08,4.5,4.5,0,0,0,.58-5,3.39,3.39,0,0,1-1.91,2.92,5.19,5.19,0,0,1-7.6-2.77A5.66,5.66,0,0,0,283.93,322.67Z"/></g></g></g></svg>