<svg xmlns="http://www.w3.org/2000/svg" xmlns:xlink="http://www.w3.org/1999/xlink" viewBox="0 0 607.88 424.65"><defs><style>.cls-1{fill:none;}.cls-2{fill:#fff;}.cls-3{font-size:38px;font-family:BebasNeuePro-Bold, Bebas Neue Pro;}.cls-3,.cls-30,.cls-31{font-weight:700;}.cls-4{letter-spacing:-0.02em;}.cls-5{clip-path:url(#clip-path);}.cls-30,.cls-31,.cls-6{fill:#17c3b2;}.cls-7{fill:#8c4714;}.cls-8{fill:#8d5524;}.cls-9{fill:#ff7900;}.cls-10{fill:#abed64;}.cls-11{fill:#eaeaea;}.cls-12{fill:#f9b03a;}.cls-13,.cls-14{fill:#ce8e32;}.cls-14{opacity:0.55;}.cls-15{fill:#3f3f3f;}.cls-16{fill:#63391a;}.cls-17{font-size:17px;fill:#231f20;font-family:Montserrat-Regular, Montserrat;}.cls-18{letter-spacing:-0.02em;}.cls-19{letter-spacing:0em;}.cls-20{letter-spacing:0.08em;}.cls-21{letter-spacing:-0.01em;}.cls-22{letter-spacing:-0.01em;}.cls-23{letter-spacing:-0.01em;}.cls-24{letter-spacing:-0.01em;}.cls-25{letter-spacing:0em;}.cls-26{letter-spacing:-0.02em;}.cls-27{letter-spacing:-0.01em;}.cls-28{letter-spacing:0em;}.cls-29{letter-spacing:-0.01em;}.cls-30,.cls-31{font-family:Montserrat-Bold, Montserrat;}.cls-31,.cls-36{letter-spacing:-0.01em;}.cls-32{letter-spacing:-0.01em;}.cls-33{letter-spacing:0em;}.cls-34{letter-spacing:0em;}.cls-35{letter-spacing:0.01em;}.cls-37{letter-spacing:0.01em;}.cls-38{letter-spacing:-0.01em;}.cls-39{letter-spacing:-0.02em;}.cls-40{letter-spacing:-0.02em;}</style><clipPath id="clip-path"><circle class="cls-1" cx="303.94" cy="130.04" r="47.77"/></clipPath></defs><g id="Layer_2" data-name="Layer 2"><g id="Layer_1-2" data-name="Layer 1"><rect class="cls-2" width="607.88" height="424.65" rx="7.53"/><text class="cls-3" transform="translate(221.8 63.27)">DID <tspan class="cls-4" x="44.23" y="0">Y</tspan><tspan x="58.4" y="0">OU KNOW?</tspan></text><g class="cls-5"><rect class="cls-6" x="225.07" y="75.88" width="154.49" height="112.18"/><rect class="cls-7" x="299.37" y="134.83" width="12.2" height="20.34"/><path class="cls-8" d="M317.79,111.81c3.84,4.61,3.3,10.67,3,14.11-.19,2-1.32,14.66-10.44,18-5.16,1.92-10.07-.16-11.34-.75-8.41-3.94-10-14.16-10.62-17.87-.71-4.48-1.46-9.2,1.2-13.1C294.88,104.47,311.14,103.83,317.79,111.81Z"/><path d="M321,122.77a4.33,4.33,0,0,0-1.12-3.47,3.8,3.8,0,0,0-1.51-.88l-.69-3a31.77,31.77,0,0,0-26.08-.32l-.35,3.13a4.54,4.54,0,0,0-2.1,1.35,5,5,0,0,0-1,4.19,14.81,14.81,0,0,1,4.66-17.42,18.88,18.88,0,0,1,7.81-4,15.93,15.93,0,0,1,18.79,8.84A18.68,18.68,0,0,1,321,122.77Z"/><path d="M301.84,137.75c1.3,0,2.46.09,3.64,0s2.34-.16,3.63-.24a5.9,5.9,0,0,1-3.6,1.24A6,6,0,0,1,301.84,137.75Z"/><path d="M301.28,120.35c-.34.53-1.44,0-3.07,0-2.4,0-3.94,1-4.24.44-.13-.23.09-.58.18-.73.44-.7,1.31-.84,2.57-1a21.06,21.06,0,0,1,3.18.06c.58,0,1.1.07,1.34.44A.81.81,0,0,1,301.28,120.35Z"/><ellipse cx="299.34" cy="124.4" rx="1.04" ry="1.54"/><path d="M301,124a2.2,2.2,0,0,0-1.36-1.45c-.24-.06-.67-.11-2.3.74a20.28,20.28,0,0,0-2,1.15l1.95-.64c1.5-.49,2-.63,2.59-.46A2.41,2.41,0,0,1,301,124Z"/><path d="M307.57,120.24c.34.53,1.44,0,3.07,0,2.4,0,3.94,1,4.24.44.13-.23-.09-.58-.18-.73-.44-.71-1.31-.84-2.57-1A23.27,23.27,0,0,0,309,119c-.58,0-1.1.07-1.34.44A.81.81,0,0,0,307.57,120.24Z"/><ellipse cx="309.51" cy="124.28" rx="1.04" ry="1.54"/><path d="M307.84,124c.44-1.2,1.13-1.45,1.31-1.5s.66-.14,2.32.65a19.53,19.53,0,0,1,2,1.09l-2-.58c-1.51-.43-2-.56-2.6-.37A2.41,2.41,0,0,0,307.84,124Z"/><path d="M304.56,125.94c-.12.35-.31.88-.55,1.53-.46,1.23-.54,1.3-.69,1.78-.26.86-.7,2.32,0,3.07a2.44,2.44,0,0,0,2.08.38,2.19,2.19,0,0,1-1.85-.66,1.94,1.94,0,0,1-.21-1.36,13.5,13.5,0,0,1,.88-3A10.32,10.32,0,0,0,304.56,125.94Z"/><path d="M297.9,142.64c-.17,0-.49-6,2.64-8,1.3-.84,2.85-.88,4.91-1s3.59-.11,4.91.63c3.38,1.89,3.09,7.6,3.07,8l-.42-.94c-1.3-2.87-2-4.31-2.46-4.73-.93-.78-2.28-.71-5-.56s-3.91.2-4.92,1.07c-1.17,1-1.78,2.71-2.43,4.52C298,142.43,297.93,142.65,297.9,142.64Z"/><path d="M290.19,132.78a16.14,16.14,0,0,0,29.52-.81,15.59,15.59,0,0,1-6.28,10.32,14.93,14.93,0,0,1-7.79,2.47c-7.43.22-12-5.32-12.47-5.87A15.67,15.67,0,0,1,290.19,132.78Z"/><path class="cls-9" d="M311.48,150a72.25,72.25,0,0,1,7.32.88,21.12,21.12,0,0,1,3,.62c3.46,1.19,4.75,4.93,6.91,8.41a91.42,91.42,0,0,1,6.67,13l-10,3.16a192.43,192.43,0,0,0,1.13,24.19c.39,3.48.77,5.88-.58,8-2.28,3.53-7.11,2.64-18.48,2.41-16.13-.33-20.61,1.51-23.15-2.26-1.31-1.95-1.16-4-.44-11.7.52-5.63,1.22-13,2.09-21.73l-10.08-2.88c2.95-5,5.68-9,7.82-11.9,4-5.54,5.9-7.23,8.15-8.44a16.32,16.32,0,0,1,7.42-1.92,8.3,8.3,0,0,0,5.23,3A8.42,8.42,0,0,0,311.48,150Z"/><path class="cls-10" d="M330.58,154.05c-.15-.56-.88-2.3-10.82-3.4-2.51-.27-4.61-.4-6.1-.46a5.54,5.54,0,0,1,.35,1.26,8.47,8.47,0,0,1-.69,4.32c-.45,1.38-.73,2.84-1.22,4.2-1.45,4.08-4.54,14.87-5.54,18.77a110.11,110.11,0,0,0-2.6,29c.25,5.64,1.1,5.2,1,9.73,0,1.37-.14,3.05.79,4s2.58.56,3.75.42c4.28-.52,10.66-1.28,16-.66,1.28.15,3,.44,3.75-.65s0-2.86-.15-3.41c-1.75-5-1.36-10.68-2.36-15.95-.88-4.56-.78-10.36-.59-22,.18-10.93.91-13.75,1.55-15.42.15-.37.83-2.48,2.19-6.69C330.62,154.88,330.71,154.55,330.58,154.05Z"/><path class="cls-11" d="M326.1,193.21c0,1.57.11,3.13.16,4.7l-8.75.2q-6.83.15-13.6.26a24.55,24.55,0,0,1,.09-2.77c.07-.76.17-1.46.28-2.11,3.53-.09,7.1-.17,10.71-.21S322.44,193.21,326.1,193.21Z"/><path class="cls-11" d="M320.7,194.65a203.21,203.21,0,0,1-.44-25.12c.3-6.74.92-13,1.7-18.6l-3.6-.46c-1,5.86-1.83,12.37-2.42,19.45a245.23,245.23,0,0,0-.8,24.64Z"/><path class="cls-10" d="M279.66,154.05c.15-.56.87-2.3,10.82-3.4,2.51-.27,4.61-.4,6.1-.46a5.46,5.46,0,0,0-.36,1.26,8.59,8.59,0,0,0,.7,4.32c.45,1.38.72,2.84,1.21,4.2,1.46,4.08,4.54,14.87,5.55,18.77a110.11,110.11,0,0,1,2.6,29c-.25,5.64-1.1,5.2-1,9.73,0,1.37.14,3.05-.8,4s-2.57.56-3.75.42c-4.27-.52-10.65-1.28-16-.66-1.28.15-3,.44-3.75-.65s-.05-2.86.14-3.41c1.76-5,1.36-10.68,2.37-15.95.87-4.56.78-10.36.59-22-.18-10.93-.91-13.75-1.56-15.42-.14-.37-.82-2.48-2.18-6.69C279.62,154.88,279.52,154.55,279.66,154.05Z"/><path class="cls-11" d="M284.14,193.21c-.06,1.57-.11,3.13-.16,4.7l8.75.2q6.81.16,13.6.36c0-.92,0-1.87-.09-2.87,0-.69-.09-1.37-.15-2-3.55-.14-7.17-.24-10.84-.3S287.78,193.19,284.14,193.21Z"/><path class="cls-11" d="M289.53,194.65a201.27,201.27,0,0,0,.44-25.12c-.3-6.74-.92-13-1.7-18.6l3.6-.46c1,5.86,1.84,12.37,2.43,19.45a245.23,245.23,0,0,1,.8,24.64Z"/><path class="cls-12" d="M283.9,118.39a170,170,0,0,0,21.12.33,170.62,170.62,0,0,0,19.83-2.11l0-1.66-1.38,0-.18-2-2.11-1.81s0-16.91-14.57-16.67a2.2,2.2,0,0,0-.77-.39l-.25-.06a2.9,2.9,0,0,0-.6,0c-.54,0-1-.51-1.78-.66a2,2,0,0,0-1.13.07c-.44.18-1.13.7-1.45.79s-.39,0-.72.14a2.84,2.84,0,0,0-1.23.73,14.59,14.59,0,0,0-6.76,3.3c-5.82,5.11-5,13.14-4.92,14.06l-1.83,1.65-.05,2-1.23.09Z"/><path class="cls-13" d="M289.71,113.05a46.38,46.38,0,0,0,12,1.35c8.9,0,15.7-2.12,15.68-2.26a86.32,86.32,0,0,1-14,1.63A101.76,101.76,0,0,1,289.71,113.05Z"/><path class="cls-14" d="M302.31,93.36a4.17,4.17,0,0,0-.84.52c-.34.28-.46.48-.8.6a1.65,1.65,0,0,1-.64.08,2.16,2.16,0,0,0-1.38.81,15.47,15.47,0,0,0-2.9,1.18,16.25,16.25,0,0,0-5.23,4.54c-3.36,4.74-2.27,10.52-2.06,11.5L286,114.42l0,2.38-.9.07v1.62l-1.22-.1c0-.72,0-1.45,0-2.18l1.23-.09c0-.67,0-1.34.05-2l1.79-1.79a16.9,16.9,0,0,1,.89-7.69,14.56,14.56,0,0,1,4.37-6.49,14.84,14.84,0,0,1,4.92-2.64,14.27,14.27,0,0,1,1.54-.4,2.18,2.18,0,0,1,1.23-.73,3.77,3.77,0,0,0,.72-.14,4.43,4.43,0,0,0,.79-.47A3.86,3.86,0,0,1,302.31,93.36Z"/><path class="cls-15" d="M286.81,118.56a30.69,30.69,0,0,0,1.91,12.65c1.07,2.82,2.5,6.6,6.27,9.76,1.58,1.32,5.09,4.27,10.19,4.22,6.36-.06,10.37-4.74,11.13-5.62,2.27-2.65,3-5.27,4-9.12A45.92,45.92,0,0,0,321.88,117l-.54.07-.45.08c0,.94,0,2.18,0,3.63a50,50,0,0,1-.54,5c-.9,5.48-1.83,11.11-6.3,15a13.6,13.6,0,0,1-8.69,3.74c-6.39.1-10.67-5.32-12.15-7.2-3.57-4.52-4.4-9.6-5-13.16a37.52,37.52,0,0,1-.48-5.57Z"/><path class="cls-8" d="M278.34,172.83a56.34,56.34,0,0,0-.69,6.6,62.7,62.7,0,0,0,.47,10.26,79,79,0,0,0,3.78,16.18c.79-.17,1.62-.37,2.47-.6s1.66-.49,2.42-.75c-.61-2.68-1.21-5.35-1.81-8h0a20,20,0,0,1-1-4.33c0-.45,0-.9,0-.9,0-.93.17-1.65.28-4.94.13-3.64.17-3.39.19-4.66a58.86,58.86,0,0,0-.33-7.19Z"/><path class="cls-8" d="M286.77,204.42a1.56,1.56,0,0,0,.33.68c.23.29.41.28,1,.65.36.24.61.44,1,.75a6.84,6.84,0,0,1,.63.54c.23.24.26.32.49.56s.39.32.71.61.85.77.8,1-.9.3-1,.3a3.17,3.17,0,0,1-1.63-.67c-.82-.63-.54.19-.54.19a3.43,3.43,0,0,0,.42,1.38c.44.9,1.41,2.85,1.6,3.3s.27,1.67-.86,1-2.47-3.13-2.47-3.13a22.73,22.73,0,0,1,2.24,3.36c0,.43-.42,1.57-1.71.23a14.79,14.79,0,0,1-2.19-3.08s3.41,3.43,2.1,3.69-3.23-2.3-3.52-3.28c.29.55.55,1,.73,1.28.29.46.54.82.41,1.12a.31.31,0,0,1-.17.2c-.34.13-.88-.56-1.1-.8a6.69,6.69,0,0,1-1.59-3.12c-.45-1.9.1-2.48-.4-4.71a13.35,13.35,0,0,0-.44-1.49Z"/><path class="cls-16" d="M289.23,214.38a11.29,11.29,0,0,1-1.46-2.09,9.76,9.76,0,0,1-.76-1.75"/><path class="cls-16" d="M288.07,215.46a5.44,5.44,0,0,1-.72-.63,9.91,9.91,0,0,1-.81-.83,5.64,5.64,0,0,1-.72-1.05,5.29,5.29,0,0,1-.52-1.78,9.9,9.9,0,0,0,1,2.14A20.75,20.75,0,0,0,288.07,215.46Z"/><path class="cls-16" d="M285.29,214.32a1.94,1.94,0,0,1-.35-.38,4.79,4.79,0,0,1-.38-.49,2.82,2.82,0,0,1-.51-1.61,7.24,7.24,0,0,0,.44,1.09C284.88,213.72,285.32,214.29,285.29,214.32Z"/><path class="cls-8" d="M331.8,174.1a54.51,54.51,0,0,1,.74,6.74,61.34,61.34,0,0,1-.47,10.25,78.45,78.45,0,0,1-3.78,16.19c-.79-.17-1.61-.37-2.47-.61s-1.66-.49-2.41-.75l1.8-8a19.94,19.94,0,0,0,1-4.33c0-.45,0-.89,0-.89,0-.94-.16-1.65-.28-4.95-.1-2.86-.15-3.32-.17-4l0-.66c0-.69.1-3.45.33-7.19Z"/><path class="cls-8" d="M323.43,205.83a1.9,1.9,0,0,1-.33.68c-.24.28-.41.27-1,.65a11.22,11.22,0,0,0-1,.74c-.39.31-.52.44-.63.54s-.26.32-.49.56a7.33,7.33,0,0,1-.71.62c-.44.4-.84.76-.8,1s.9.3,1,.29a3.22,3.22,0,0,0,1.64-.67c.82-.63.53.2.53.2a3.47,3.47,0,0,1-.42,1.38c-.43.89-1.41,2.84-1.6,3.29s-.27,1.67.87,1,2.46-3.13,2.46-3.13a22.73,22.73,0,0,0-2.24,3.36c0,.43.42,1.57,1.71.24a15,15,0,0,0,2.19-3.09s-3.41,3.44-2.09,3.69,3.22-2.3,3.51-3.28c-.29.55-.54,1-.73,1.28-.29.47-.54.82-.41,1.12a.36.36,0,0,0,.18.2c.33.14.87-.56,1.09-.79a6.79,6.79,0,0,0,1.59-3.13c.45-1.9-.09-2.48.41-4.71a11.05,11.05,0,0,1,.43-1.48Z"/><path class="cls-16" d="M321,215.79a11.14,11.14,0,0,0,2.23-3.85"/><path class="cls-16" d="M322.12,216.87a6.34,6.34,0,0,0,.72-.63,10.16,10.16,0,0,0,.82-.84,5.87,5.87,0,0,0,.71-1.05,5,5,0,0,0,.53-1.78,10.16,10.16,0,0,1-1,2.14A19.41,19.41,0,0,1,322.12,216.87Z"/><path class="cls-16" d="M324.91,215.72a2.73,2.73,0,0,0,.34-.38,5.12,5.12,0,0,0,.39-.49,3.79,3.79,0,0,0,.32-.59,2.87,2.87,0,0,0,.18-1,6.85,6.85,0,0,1-.44,1.09C325.31,215.13,324.87,215.7,324.91,215.72Z"/></g><text class="cls-17" transform="translate(148.3 209.49)"><tspan class="cls-18">C</tspan><tspan x="11.83" y="0">omi</tspan><tspan class="cls-19" x="45.1" y="0">n</tspan><tspan x="56.64" y="0">g </tspan><tspan class="cls-20" x="72.76" y="0">f</tspan><tspan class="cls-21" x="79.88" y="0">r</tspan><tspan x="86.48" y="0">om </tspan><tspan class="cls-22" x="119.63" y="0">c</tspan><tspan x="129.05" y="0">ount</tspan><tspan class="cls-23" x="169.56" y="0">r</tspan><tspan x="176.24" y="0">ies su</tspan><tspan class="cls-24" x="223.6" y="0">c</tspan><tspan x="233.03" y="0">h as t</tspan><tspan class="cls-19" x="278.7" y="0">h</tspan><tspan x="290.24" y="0">e </tspan><tspan x="-25.62" y="29">Phillipi</tspan><tspan class="cls-19" x="32.49" y="29">n</tspan><tspan x="44.03" y="29">es, I</tspan><tspan class="cls-25" x="75.8" y="29">n</tspan><tspan x="87.34" y="29">do</tspan><tspan class="cls-19" x="109.53" y="29">n</tspan><tspan x="121.07" y="29">esia, China, Ba</tspan><tspan class="cls-25" x="243.06" y="29">n</tspan><tspan x="254.6" y="29">gl</tspan><tspan class="cls-19" x="270.84" y="29">a</tspan><tspan x="280.9" y="29">desh, </tspan><tspan x="-1.44" y="58">I</tspan><tspan class="cls-19" x="3.7" y="58">n</tspan><tspan x="15.24" y="58">dia, M</tspan><tspan class="cls-26" x="65.66" y="58">y</tspan><tspan x="74.6" y="58">anma</tspan><tspan class="cls-27" x="124.21" y="58">r</tspan><tspan x="130.86" y="58">, S</tspan><tspan class="cls-24" x="149.37" y="58">r</tspan><tspan class="cls-28" x="156.05" y="58">i </tspan><tspan class="cls-19" x="165.08" y="58">L</tspan><tspan x="175.12" y="58">an</tspan><tspan class="cls-27" x="196.66" y="58">k</tspan><tspan x="206.71" y="58">a, Thaila</tspan><tspan class="cls-19" x="275.27" y="58">n</tspan><tspan x="286.81" y="58">d,</tspan></text><text class="cls-17" transform="translate(129.4 306.47)"><tspan class="cls-24">C</tspan><tspan x="12.09" y="0">ambodia, a</tspan><tspan class="cls-25" x="106.56" y="0">n</tspan><tspan x="118.1" y="0">d Mal</tspan><tspan class="cls-27" x="164.92" y="0">a</tspan><tspan class="cls-29" x="174.77" y="0">y</tspan><tspan x="183.89" y="0">sia, t</tspan><tspan class="cls-19" x="221.76" y="0">h</tspan><tspan x="233.31" y="0">ese </tspan><tspan class="cls-30" x="266.61" y="0">mig</tspan><tspan class="cls-31" x="301.46" y="0">r</tspan><tspan class="cls-30" x="308.67" y="0">ant </tspan><tspan class="cls-30"><tspan class="cls-32" x="-25.86" y="29">w</tspan><tspan x="-10.19" y="29">o</tspan><tspan class="cls-33" x="0.94" y="29">r</tspan><tspan class="cls-18" x="8.2" y="29">k</tspan><tspan x="19.03" y="29">e</tspan><tspan class="cls-34" x="29.76" y="29">r</tspan><tspan x="37.05" y="29">s build our </tspan><tspan class="cls-35" x="136.06" y="29">h</tspan><tspan x="147.91" y="29">o</tspan><tspan class="cls-35" x="159.04" y="29">m</tspan><tspan x="176.98" y="29">es, offi</tspan><tspan class="cls-36" x="236.77" y="29">c</tspan><tspan x="246.69" y="29">es a</tspan><tspan class="cls-37" x="281.75" y="29">n</tspan><tspan x="293.6" y="29">d </tspan><tspan class="cls-38" x="310.17" y="29">ro</tspan><tspan class="cls-37" x="328.33" y="29">a</tspan><tspan x="338.92" y="29">ds. </tspan></tspan><tspan x="-24.59" y="58">T</tspan><tspan class="cls-19" x="-14.83" y="58">h</tspan><tspan class="cls-27" x="-3.29" y="58">e</tspan><tspan x="6.81" y="58">y </tspan><tspan class="cls-39" x="20.48" y="58">w</tspan><tspan x="35.16" y="58">o</tspan><tspan class="cls-24" x="45.82" y="58">r</tspan><tspan x="52.5" y="58">k </tspan><tspan class="cls-40" x="67.18" y="58">t</tspan><tspan x="73.75" y="58">o ensu</tspan><tspan class="cls-21" x="130.4" y="58">r</tspan><tspan x="136.99" y="58">e that t</tspan><tspan class="cls-25" x="198.41" y="58">h</tspan><tspan x="209.96" y="58">ese pl</tspan><tspan class="cls-19" x="259.36" y="58">a</tspan><tspan class="cls-22" x="269.42" y="58">c</tspan><tspan x="278.84" y="58">es </tspan><tspan class="cls-21" x="301.87" y="58">r</tspan><tspan x="308.47" y="58">emain </tspan><tspan class="cls-24" x="80.23" y="87">c</tspan><tspan x="89.67" y="87">l</tspan><tspan class="cls-39" x="94.24" y="87">e</tspan><tspan x="104.25" y="87">an a</tspan><tspan class="cls-19" x="140.27" y="87">n</tspan><tspan x="151.82" y="87">d fu</tspan><tspan class="cls-19" x="185" y="87">n</tspan><tspan class="cls-37" x="196.54" y="87">c</tspan><tspan x="206.22" y="87">tional.</tspan></text></g></g></svg>