<svg xmlns="http://www.w3.org/2000/svg" xmlns:xlink="http://www.w3.org/1999/xlink" viewBox="0 0 607.88 424.65"><defs><style>.cls-1{fill:none;}.cls-2{fill:#fff;}.cls-3{font-size:38px;font-family:BebasNeuePro-Bold, Bebas Neue Pro;}.cls-17,.cls-3,.cls-33,.cls-34,.cls-35,.cls-36,.cls-37,.cls-38,.cls-49{font-weight:700;}.cls-4{letter-spacing:-0.02em;}.cls-5{clip-path:url(#clip-path);}.cls-17,.cls-33,.cls-34,.cls-35,.cls-36,.cls-37,.cls-38,.cls-49,.cls-6{fill:#17c3b2;}.cls-7{fill:#8c4714;}.cls-8{fill:#8d5524;}.cls-9{fill:#ff7900;}.cls-10{fill:#abed64;}.cls-11{fill:#eaeaea;}.cls-12{fill:#f9b03a;}.cls-13,.cls-14{fill:#ce8e32;}.cls-14{opacity:0.55;}.cls-15{fill:#3f3f3f;}.cls-16{fill:#63391a;}.cls-17,.cls-42{font-size:17px;}.cls-17,.cls-33,.cls-34,.cls-35,.cls-36,.cls-37,.cls-38,.cls-49{font-family:Montserrat-Bold, Montserrat;}.cls-18{letter-spacing:-0.02em;}.cls-19{letter-spacing:0.01em;}.cls-20,.cls-25{letter-spacing:-0.01em;}.cls-21{letter-spacing:0em;}.cls-22{letter-spacing:-0.02em;}.cls-23{letter-spacing:0em;}.cls-24,.cls-25,.cls-26,.cls-27,.cls-42,.cls-50,.cls-51,.cls-52,.cls-53{font-family:Montserrat-Regular, Montserrat;}.cls-24,.cls-25,.cls-26,.cls-27,.cls-50,.cls-51,.cls-52,.cls-53{font-weight:400;}.cls-24,.cls-25,.cls-26{fill:#000;}.cls-26,.cls-46,.cls-53{letter-spacing:-0.01em;}.cls-28,.cls-34,.cls-45{letter-spacing:-0.01em;}.cls-29,.cls-38{letter-spacing:-0.01em;}.cls-30,.cls-36{letter-spacing:0.01em;}.cls-31,.cls-51{letter-spacing:0em;}.cls-32{letter-spacing:0em;}.cls-33,.cls-39{letter-spacing:-0.01em;}.cls-37{letter-spacing:-0.06em;}.cls-40{letter-spacing:-0.02em;}.cls-41{letter-spacing:-0.01em;}.cls-43{letter-spacing:-0.01em;}.cls-44,.cls-45,.cls-50,.cls-51,.cls-52,.cls-53{fill:#231f20;}.cls-47{letter-spacing:-0.02em;}.cls-48,.cls-52{letter-spacing:0.01em;}.cls-49{letter-spacing:-0.01em;}.cls-54{letter-spacing:0.01em;}</style><clipPath id="clip-path"><circle class="cls-1" cx="303.94" cy="130.48" r="47.77"/></clipPath></defs><g id="Layer_2" data-name="Layer 2"><g id="Layer_1-2" data-name="Layer 1"><rect class="cls-2" width="607.88" height="424.65" rx="7.53"/><text class="cls-3" transform="translate(221.8 63.7)">DID <tspan class="cls-4" x="44.23" y="0">Y</tspan><tspan x="58.4" y="0">OU KNOW?</tspan></text><g class="cls-5"><rect class="cls-6" x="225.07" y="76.31" width="154.49" height="112.18"/><rect class="cls-7" x="299.37" y="135.26" width="12.2" height="20.34"/><path class="cls-8" d="M317.79,112.24c3.84,4.61,3.3,10.67,3,14.12-.19,2-1.32,14.66-10.44,18-5.16,1.91-10.07-.17-11.34-.76-8.41-3.93-10-14.15-10.62-17.87-.71-4.48-1.46-9.2,1.2-13.1C294.88,104.91,311.14,104.26,317.79,112.24Z"/><path d="M321,123.2a4.31,4.31,0,0,0-1.12-3.46,3.85,3.85,0,0,0-1.51-.89l-.69-3a31.72,31.72,0,0,0-26.08-.31l-.35,3.12a4.62,4.62,0,0,0-2.1,1.35,5,5,0,0,0-1,4.19,14.81,14.81,0,0,1,4.66-17.42,18.88,18.88,0,0,1,7.81-4,15.92,15.92,0,0,1,18.79,8.85A18.65,18.65,0,0,1,321,123.2Z"/><path d="M301.84,138.18c1.3,0,2.46.09,3.64,0s2.34-.16,3.63-.25a6,6,0,0,1-3.6,1.25A6,6,0,0,1,301.84,138.18Z"/><path d="M301.28,120.79c-.34.52-1.44,0-3.07,0-2.4,0-3.94,1-4.24.44-.13-.22.09-.57.18-.73.44-.7,1.31-.84,2.57-1a20.22,20.22,0,0,1,3.18.07c.58,0,1.1.06,1.34.43A.83.83,0,0,1,301.28,120.79Z"/><ellipse cx="299.34" cy="124.83" rx="1.04" ry="1.54"/><path d="M301,124.43a2.23,2.23,0,0,0-1.36-1.46c-.24-.06-.67-.11-2.3.74a20.28,20.28,0,0,0-2,1.15l1.95-.64c1.5-.48,2-.63,2.59-.46A2.42,2.42,0,0,1,301,124.43Z"/><path d="M307.57,120.68c.34.52,1.44,0,3.07,0,2.4,0,3.94,1,4.24.44.13-.23-.09-.58-.18-.73-.44-.7-1.31-.84-2.57-1a21.06,21.06,0,0,0-3.18.06c-.58,0-1.1.07-1.34.44A.83.83,0,0,0,307.57,120.68Z"/><ellipse cx="309.51" cy="124.72" rx="1.04" ry="1.54"/><path d="M307.84,124.41c.44-1.2,1.13-1.45,1.31-1.5s.66-.13,2.32.65a21.71,21.71,0,0,1,2,1.09l-2-.57c-1.51-.43-2-.56-2.6-.37A2.32,2.32,0,0,0,307.84,124.41Z"/><path d="M304.56,126.37c-.12.35-.31.89-.55,1.53-.46,1.23-.54,1.3-.69,1.79-.26.85-.7,2.31,0,3.06a2.37,2.37,0,0,0,2.08.38,2.17,2.17,0,0,1-1.85-.65,2,2,0,0,1-.21-1.37,13.66,13.66,0,0,1,.88-3A10.32,10.32,0,0,0,304.56,126.37Z"/><path d="M297.9,143.07c-.17,0-.49-6,2.64-8,1.3-.83,2.85-.88,4.91-.94s3.59-.11,4.91.63c3.38,1.88,3.09,7.6,3.07,8l-.42-.94c-1.3-2.87-2-4.31-2.46-4.72-.93-.78-2.28-.71-5-.57s-3.91.21-4.92,1.07c-1.17,1-1.78,2.71-2.43,4.52C298,142.87,297.93,143.08,297.9,143.07Z"/><path d="M290.19,133.21a16.14,16.14,0,0,0,29.52-.81,15.57,15.57,0,0,1-6.28,10.32,15,15,0,0,1-7.79,2.48c-7.43.22-12-5.33-12.47-5.88A15.67,15.67,0,0,1,290.19,133.21Z"/><path class="cls-9" d="M311.48,150.47c1.72.12,4.25.36,7.32.88a21.12,21.12,0,0,1,3,.62c3.46,1.19,4.75,4.94,6.91,8.41a91.42,91.42,0,0,1,6.67,13l-10,3.16a192.61,192.61,0,0,0,1.13,24.2c.39,3.47.77,5.87-.58,8-2.28,3.54-7.11,2.64-18.48,2.41-16.13-.32-20.61,1.51-23.15-2.26-1.31-2-1.16-4-.44-11.7.52-5.63,1.22-13,2.09-21.73l-10.08-2.87c2.95-5,5.68-9,7.82-11.91,4-5.53,5.9-7.23,8.15-8.44a16.58,16.58,0,0,1,7.42-1.92,8.3,8.3,0,0,0,5.23,3A8.39,8.39,0,0,0,311.48,150.47Z"/><path class="cls-10" d="M330.58,154.49c-.15-.57-.88-2.31-10.82-3.4-2.51-.28-4.61-.4-6.1-.47a5.86,5.86,0,0,1,.35,1.26,8.51,8.51,0,0,1-.69,4.33c-.45,1.38-.73,2.83-1.22,4.2-1.45,4.07-4.54,14.86-5.54,18.76a110.22,110.22,0,0,0-2.6,29.05c.25,5.63,1.1,5.2,1,9.72,0,1.38-.14,3.06.79,4s2.58.55,3.75.41c4.28-.51,10.66-1.28,16-.66,1.28.15,3,.44,3.75-.64s0-2.87-.15-3.41c-1.75-5-1.36-10.68-2.36-15.95-.88-4.57-.78-10.37-.59-22,.18-10.93.91-13.75,1.55-15.42.15-.37.83-2.48,2.19-6.68C330.62,155.32,330.71,155,330.58,154.49Z"/><path class="cls-11" d="M326.1,193.64c0,1.57.11,3.14.16,4.7-2.91.08-5.83.14-8.75.21q-6.83.13-13.6.25A24.45,24.45,0,0,1,304,196c.07-.77.17-1.47.28-2.11q5.3-.15,10.71-.22C318.73,193.66,322.44,193.64,326.1,193.64Z"/><path class="cls-11" d="M320.7,195.08a203.09,203.09,0,0,1-.44-25.11c.3-6.75.92-13,1.7-18.61l-3.6-.46c-1,5.87-1.83,12.37-2.42,19.45a245.42,245.42,0,0,0-.8,24.65Z"/><path class="cls-10" d="M279.66,154.49c.15-.57.87-2.31,10.82-3.4,2.51-.28,4.61-.4,6.1-.47a5.78,5.78,0,0,0-.36,1.26,8.62,8.62,0,0,0,.7,4.33c.45,1.38.72,2.83,1.21,4.2,1.46,4.07,4.54,14.86,5.55,18.76a110.22,110.22,0,0,1,2.6,29.05c-.25,5.63-1.1,5.2-1,9.72,0,1.38.14,3.06-.8,4s-2.57.55-3.75.41c-4.27-.51-10.65-1.28-16-.66-1.28.15-3,.44-3.75-.64s-.05-2.87.14-3.41c1.76-5,1.36-10.68,2.37-15.95.87-4.57.78-10.37.59-22-.18-10.93-.91-13.75-1.56-15.42-.14-.37-.82-2.48-2.18-6.68C279.62,155.32,279.52,155,279.66,154.49Z"/><path class="cls-11" d="M284.14,193.64c-.06,1.57-.11,3.14-.16,4.7l8.75.21q6.81.16,13.6.35c0-.91,0-1.87-.09-2.86,0-.7-.09-1.37-.15-2-3.55-.14-7.17-.24-10.84-.3S287.78,193.62,284.14,193.64Z"/><path class="cls-11" d="M289.53,195.08A201.14,201.14,0,0,0,290,170c-.3-6.75-.92-13-1.7-18.61l3.6-.46c1,5.87,1.84,12.37,2.43,19.45a245.42,245.42,0,0,1,.8,24.65Z"/><path class="cls-12" d="M283.9,118.83a168.23,168.23,0,0,0,21.12.32A168.46,168.46,0,0,0,324.85,117l0-1.65-1.38,0-.18-2-2.11-1.81s0-16.91-14.57-16.67a2.38,2.38,0,0,0-.77-.39l-.25,0a3.27,3.27,0,0,0-.6,0c-.54,0-1-.51-1.78-.65a1.87,1.87,0,0,0-1.13.06c-.44.18-1.13.7-1.45.79s-.39,0-.72.14a2.94,2.94,0,0,0-1.23.73,14.69,14.69,0,0,0-6.76,3.3c-5.82,5.12-5,13.14-4.92,14.06l-1.83,1.65-.05,2-1.23.08Z"/><path class="cls-13" d="M289.71,113.48a46.38,46.38,0,0,0,12,1.35c8.9,0,15.7-2.12,15.68-2.26a85,85,0,0,1-14,1.63A101.76,101.76,0,0,1,289.71,113.48Z"/><path class="cls-14" d="M302.31,93.79a4.17,4.17,0,0,0-.84.52c-.34.28-.46.48-.8.61A2.16,2.16,0,0,1,300,95a2.14,2.14,0,0,0-1.38.8,15.47,15.47,0,0,0-2.9,1.18,16.25,16.25,0,0,0-5.23,4.54c-3.36,4.75-2.27,10.52-2.06,11.51L286,114.85l0,2.38-.9.07v1.62l-1.22-.09c0-.73,0-1.46,0-2.19l1.23-.08c0-.67,0-1.35.05-2l1.79-1.79a16.91,16.91,0,0,1,.89-7.69,14.67,14.67,0,0,1,4.37-6.49,14.84,14.84,0,0,1,4.92-2.64,14.27,14.27,0,0,1,1.54-.4,2.31,2.31,0,0,1,1.23-.73,3.13,3.13,0,0,0,.72-.14,4.35,4.35,0,0,0,.79-.46A3.81,3.81,0,0,1,302.31,93.79Z"/><path class="cls-15" d="M286.81,119a30.69,30.69,0,0,0,1.91,12.65c1.07,2.83,2.5,6.6,6.27,9.76,1.58,1.32,5.09,4.27,10.19,4.22,6.36-.06,10.37-4.73,11.13-5.62,2.27-2.65,3-5.26,4-9.12a45.87,45.87,0,0,0,1.55-13.42l-.54.07-.45.08c0,1,0,2.19,0,3.63a49.72,49.72,0,0,1-.54,5c-.9,5.48-1.83,11.12-6.3,15a13.59,13.59,0,0,1-8.69,3.75c-6.39.1-10.67-5.32-12.15-7.21-3.57-4.52-4.4-9.6-5-13.16a37.41,37.41,0,0,1-.48-5.56Z"/><path class="cls-8" d="M278.34,173.27a55.86,55.86,0,0,0-.69,6.6,62.61,62.61,0,0,0,.47,10.25,79.11,79.11,0,0,0,3.78,16.19c.79-.17,1.62-.37,2.47-.61s1.66-.49,2.42-.75q-.92-4-1.81-8h0a20,20,0,0,1-1-4.33c0-.45,0-.89,0-.89,0-.94.17-1.65.28-4.95.13-3.64.17-3.38.19-4.66a58.86,58.86,0,0,0-.33-7.19Z"/><path class="cls-8" d="M286.77,204.86a1.62,1.62,0,0,0,.33.68c.23.28.41.27,1,.65.36.24.61.44,1,.74s.52.44.63.54.26.32.49.56.39.33.71.62.85.76.8,1-.9.3-1,.29a3.17,3.17,0,0,1-1.63-.67c-.82-.63-.54.2-.54.2a3.47,3.47,0,0,0,.42,1.38c.44.89,1.41,2.84,1.6,3.29s.27,1.67-.86,1-2.47-3.13-2.47-3.13a22.73,22.73,0,0,1,2.24,3.36c0,.43-.42,1.58-1.71.24a15,15,0,0,1-2.19-3.09s3.41,3.44,2.1,3.69-3.23-2.3-3.52-3.28c.29.55.55,1,.73,1.28.29.47.54.82.41,1.12a.31.31,0,0,1-.17.2c-.34.14-.88-.56-1.1-.79a6.79,6.79,0,0,1-1.59-3.13c-.45-1.9.1-2.48-.4-4.7a12.14,12.14,0,0,0-.44-1.49Z"/><path class="cls-16" d="M289.23,214.82a11.07,11.07,0,0,1-1.46-2.1A9.76,9.76,0,0,1,287,211"/><path class="cls-16" d="M288.07,215.9a6.34,6.34,0,0,1-.72-.63,9.79,9.79,0,0,1-.81-.84,5,5,0,0,1-.72-1.05,5.21,5.21,0,0,1-.52-1.78,9.69,9.69,0,0,0,1,2.14A21.59,21.59,0,0,0,288.07,215.9Z"/><path class="cls-16" d="M285.29,214.75a2.05,2.05,0,0,1-.35-.37c-.18-.23-.28-.34-.38-.49a3,3,0,0,1-.32-.6,2.81,2.81,0,0,1-.19-1,7.21,7.21,0,0,0,.44,1.08C284.88,214.16,285.32,214.73,285.29,214.75Z"/><path class="cls-8" d="M331.8,174.53a54.74,54.74,0,0,1,.74,6.74,61.31,61.31,0,0,1-.47,10.25,78.45,78.45,0,0,1-3.78,16.19c-.79-.17-1.61-.37-2.47-.61s-1.66-.49-2.41-.74l1.8-8a20,20,0,0,0,1-4.34c0-.44,0-.89,0-.89,0-.93-.16-1.65-.28-4.95-.1-2.86-.15-3.31-.17-4l0-.66c0-.69.1-3.44.33-7.19Z"/><path class="cls-8" d="M323.43,206.26a1.9,1.9,0,0,1-.33.68c-.24.28-.41.28-1,.65-.37.24-.62.44-1,.75a5.5,5.5,0,0,0-.63.54c-.23.23-.26.32-.49.55a7.33,7.33,0,0,1-.71.62c-.44.4-.84.76-.8,1s.9.3,1,.3a3.33,3.33,0,0,0,1.64-.67c.82-.63.53.19.53.19a3.43,3.43,0,0,1-.42,1.38c-.43.89-1.41,2.85-1.6,3.3s-.27,1.67.87,1,2.46-3.13,2.46-3.13a22.59,22.59,0,0,0-2.24,3.35c0,.43.42,1.58,1.71.24a15,15,0,0,0,2.19-3.09s-3.41,3.44-2.09,3.69,3.22-2.3,3.51-3.27c-.29.55-.54,1-.73,1.27-.29.47-.54.82-.41,1.13a.44.44,0,0,0,.18.2c.33.13.87-.56,1.09-.8a6.73,6.73,0,0,0,1.59-3.13c.45-1.9-.09-2.48.41-4.7a10.83,10.83,0,0,1,.43-1.49Z"/><path class="cls-16" d="M321,216.22a11.14,11.14,0,0,0,2.23-3.85"/><path class="cls-16" d="M322.12,217.3a5.44,5.44,0,0,0,.72-.63,8.79,8.79,0,0,0,.82-.84,5.51,5.51,0,0,0,.71-1.05,5,5,0,0,0,.53-1.77,10.36,10.36,0,0,1-1,2.13A18.34,18.34,0,0,1,322.12,217.3Z"/><path class="cls-16" d="M324.91,216.15a2.26,2.26,0,0,0,.34-.37,5.12,5.12,0,0,0,.39-.49,4,4,0,0,0,.32-.6,2.8,2.8,0,0,0,.18-1,7.21,7.21,0,0,1-.44,1.08C325.31,215.56,324.87,216.13,324.91,216.15Z"/></g><text class="cls-17" transform="translate(102.44 209.92)"><tspan class="cls-18">C</tspan><tspan x="12.14" y="0">onstru</tspan><tspan class="cls-19" x="70.45" y="0">c</tspan><tspan x="80.63" y="0">tion </tspan><tspan class="cls-20" x="120.83" y="0">w</tspan><tspan x="136.51" y="0">o</tspan><tspan class="cls-21" x="147.64" y="0">r</tspan><tspan class="cls-22" x="154.9" y="0">k</tspan><tspan x="165.73" y="0">e</tspan><tspan class="cls-23" x="176.46" y="0">r</tspan><tspan x="183.75" y="0">s</tspan><tspan class="cls-24" x="192.78" y="0"> </tspan><tspan class="cls-25" x="197.23" y="0">e</tspan><tspan class="cls-24" x="207.25" y="0">a</tspan><tspan class="cls-26" x="217.27" y="0">r</tspan><tspan class="cls-24" x="223.96" y="0">n an</tspan><tspan class="cls-27" x="261.46" y="0"> </tspan><tspan class="cls-28" x="265.91" y="0">a</tspan><tspan class="cls-20" x="276.23" y="0">v</tspan><tspan x="286.14" y="0">e</tspan><tspan class="cls-29" x="296.87" y="0">r</tspan><tspan class="cls-30" x="304.08" y="0">a</tspan><tspan x="314.67" y="0">ge of $600</tspan><tspan class="cls-24" x="409.39" y="0"> </tspan><tspan class="cls-24"><tspan x="2.55" y="29">a </tspan><tspan class="cls-31" x="17.03" y="29">m</tspan><tspan x="35.1" y="29">onth a</tspan><tspan class="cls-32" x="90.17" y="29">n</tspan><tspan x="101.71" y="29">d </tspan><tspan class="cls-33" x="117.69" y="29">p</tspan><tspan class="cls-34" x="129.27" y="29">a</tspan><tspan class="cls-35" x="139.59" y="29">y high </tspan><tspan class="cls-36" x="199.88" y="29">a</tspan><tspan class="cls-35" x="210.48" y="29">gent</tspan><tspan class="cls-37" x="252.24" y="29">/</tspan><tspan class="cls-33" x="257.82" y="29">r</tspan><tspan class="cls-35" x="264.99" y="29">ecruit</tspan><tspan class="cls-36" x="317.29" y="29">m</tspan><tspan class="cls-35" x="335.22" y="29">ent </tspan><tspan class="cls-38" x="369.9" y="29">f</tspan><tspan class="cls-35" x="376.36" y="29">ees</tspan><tspan class="cls-6" x="406.84" y="29"> </tspan><tspan class="cls-39" x="55.31" y="58">f</tspan><tspan x="60.92" y="58">or t</tspan><tspan class="cls-31" x="89.75" y="58">h</tspan><tspan x="101.29" y="58">eir empl</tspan><tspan class="cls-40" x="171.81" y="58">o</tspan><tspan x="182.21" y="58">y</tspan><tspan class="cls-31" x="191.43" y="58">m</tspan><tspan x="209.5" y="58">ent in Si</tspan><tspan class="cls-31" x="278.19" y="58">n</tspan><tspan x="289.74" y="58">gapo</tspan><tspan class="cls-41" x="333.61" y="58">r</tspan><tspan x="340.21" y="58">e,</tspan></tspan></text><text class="cls-42" transform="translate(133.5 306.65)">whi<tspan class="cls-43" x="31.02" y="0">c</tspan><tspan x="40.46" y="0">h l</tspan><tspan class="cls-40" x="61" y="0">e</tspan><tspan class="cls-28" x="71.01" y="0">a</tspan><tspan class="cls-20" x="80.87" y="0">v</tspan><tspan x="89.83" y="0">es t</tspan><tspan class="cls-31" x="119.76" y="0">h</tspan><tspan x="131.31" y="0">em </tspan><tspan class="cls-35" x="164.06" y="0">deeply in debt</tspan><tspan x="292.4" y="0">. </tspan><tspan class="cls-44" x="300.45" y="0">Ma</tspan><tspan class="cls-45" x="326.72" y="0">n</tspan><tspan class="cls-44" x="338.06" y="0">y </tspan><tspan class="cls-44"><tspan class="cls-20" x="19.98" y="29">w</tspan><tspan x="34.67" y="29">o</tspan><tspan class="cls-46" x="45.33" y="29">r</tspan><tspan class="cls-47" x="52.01" y="29">k</tspan><tspan x="61.87" y="29">e</tspan><tspan class="cls-21" x="72.14" y="29">r</tspan><tspan x="78.89" y="29">s </tspan><tspan class="cls-41" x="91.65" y="29">r</tspan><tspan x="98.25" y="29">epo</tspan><tspan class="cls-48" x="130.7" y="29">r</tspan><tspan class="cls-18" x="137.77" y="29">t</tspan><tspan x="144.35" y="29">ed </tspan><tspan class="cls-41" x="170.6" y="29">r</tspan><tspan x="177.2" y="29">e</tspan><tspan class="cls-39" x="187.46" y="29">c</tspan><tspan x="196.88" y="29">eivi</tspan><tspan class="cls-31" x="225.51" y="29">n</tspan><tspan x="237.05" y="29">g</tspan><tspan class="cls-35" x="248.71" y="29"> </tspan><tspan class="cls-33" x="253.53" y="29">r</tspan><tspan class="cls-35" x="260.7" y="29">edu</tspan><tspan class="cls-49" x="294.87" y="29">c</tspan><tspan class="cls-35" x="304.8" y="29">ed </tspan></tspan><tspan class="cls-35"><tspan x="12.97" y="58">sala</tspan><tspan class="cls-21" x="48.09" y="58">r</tspan><tspan x="55.35" y="58">ies </tspan><tspan class="cls-50" x="85.03" y="58">or </tspan><tspan class="cls-51" x="106.96" y="58">n</tspan><tspan class="cls-50" x="118.51" y="58">o sala</tspan><tspan class="cls-52" x="166.56" y="58">r</tspan><tspan class="cls-50" x="173.64" y="58">y at all du</tspan><tspan class="cls-53" x="255.29" y="58">r</tspan><tspan class="cls-50" x="261.97" y="58">i</tspan><tspan class="cls-51" x="266.54" y="58">n</tspan><tspan class="cls-50" x="278.08" y="58">g t</tspan><tspan class="cls-51" x="301.1" y="58">h</tspan><tspan class="cls-50" x="312.64" y="58">eir </tspan></tspan><tspan class="cls-44"><tspan class="cls-31" x="69.68" y="87">m</tspan><tspan x="87.75" y="87">onths of </tspan><tspan class="cls-39" x="161.97" y="87">c</tspan><tspan x="171.39" y="87">onfi</tspan><tspan class="cls-32" x="205.26" y="87">n</tspan><tspan x="216.8" y="87">e</tspan><tspan class="cls-31" x="227.07" y="87">m</tspan><tspan x="245.14" y="87">en</tspan><tspan class="cls-54" x="266.91" y="87">t</tspan><tspan x="273.99" y="87">.</tspan></tspan></text></g></g></svg>