<svg xmlns="http://www.w3.org/2000/svg" xmlns:xlink="http://www.w3.org/1999/xlink" viewBox="0 0 607.88 452.95"><defs><style>.cls-1{fill:none;}.cls-2{fill:#fff;}.cls-3{font-size:38px;font-family:BebasNeuePro-Bold, Bebas Neue Pro;}.cls-17,.cls-3,.cls-44,.cls-45,.cls-46,.cls-47,.cls-48,.cls-49{font-weight:700;}.cls-4{letter-spacing:-0.02em;}.cls-5{clip-path:url(#clip-path);}.cls-17,.cls-44,.cls-45,.cls-46,.cls-47,.cls-48,.cls-49,.cls-6{fill:#17c3b2;}.cls-7{fill:#8c4714;}.cls-8{fill:#8d5524;}.cls-9{fill:#ff7900;}.cls-10{fill:#abed64;}.cls-11{fill:#eaeaea;}.cls-12{fill:#f9b03a;}.cls-13,.cls-14{fill:#ce8e32;}.cls-14{opacity:0.55;}.cls-15{fill:#3f3f3f;}.cls-16{fill:#63391a;}.cls-17,.cls-37{font-size:17px;}.cls-17,.cls-44,.cls-45,.cls-46,.cls-47,.cls-48,.cls-49{font-family:Montserrat-Bold, Montserrat;}.cls-18{letter-spacing:0em;}.cls-19{letter-spacing:-0.01em;}.cls-20{letter-spacing:0.01em;}.cls-21,.cls-46{letter-spacing:-0.01em;}.cls-22{letter-spacing:0.01em;}.cls-23{letter-spacing:-0.02em;}.cls-24{letter-spacing:0em;}.cls-25,.cls-26,.cls-27,.cls-28,.cls-29,.cls-37,.cls-50{font-family:Montserrat-Regular, Montserrat;}.cls-25,.cls-26,.cls-27,.cls-28,.cls-29,.cls-50{font-weight:400;}.cls-25,.cls-26,.cls-27,.cls-28,.cls-50{fill:#000;}.cls-26,.cls-35{letter-spacing:0em;}.cls-27{letter-spacing:-0.02em;}.cls-28,.cls-31,.cls-48{letter-spacing:-0.01em;}.cls-30{letter-spacing:-0.01em;}.cls-32{letter-spacing:-0.01em;}.cls-33{letter-spacing:-0.01em;}.cls-34{letter-spacing:0em;}.cls-36{letter-spacing:-0.01em;}.cls-38{letter-spacing:-0.01em;}.cls-39{letter-spacing:-0.02em;}.cls-40{letter-spacing:-0.02em;}.cls-41{letter-spacing:-0.01em;}.cls-42,.cls-50{letter-spacing:-0.02em;}.cls-43{letter-spacing:0.01em;}.cls-45{letter-spacing:-0.01em;}.cls-47{letter-spacing:-0.02em;}.cls-49{letter-spacing:-0.01em;}</style><clipPath id="clip-path"><circle class="cls-1" cx="303.94" cy="130.85" r="47.77"/></clipPath></defs><g id="Layer_2" data-name="Layer 2"><g id="Layer_1-2" data-name="Layer 1"><rect class="cls-2" width="607.88" height="452.95" rx="7.53"/><text class="cls-3" transform="translate(221.8 64.07)">DID <tspan class="cls-4" x="44.23" y="0">Y</tspan><tspan x="58.4" y="0">OU KNOW?</tspan></text><g class="cls-5"><rect class="cls-6" x="225.07" y="76.69" width="154.49" height="112.18"/><rect class="cls-7" x="299.37" y="135.64" width="12.2" height="20.34"/><path class="cls-8" d="M317.79,112.61c3.84,4.61,3.3,10.68,3,14.12-.19,2-1.32,14.66-10.44,18-5.16,1.92-10.07-.17-11.34-.76-8.41-3.93-10-14.15-10.62-17.86-.71-4.49-1.46-9.21,1.2-13.1C294.88,105.28,311.14,104.63,317.79,112.61Z"/><path d="M321,123.57a4.31,4.31,0,0,0-1.12-3.46,3.68,3.68,0,0,0-1.51-.88l-.69-3a31.72,31.72,0,0,0-26.08-.31l-.35,3.13a4.5,4.5,0,0,0-2.1,1.34,5,5,0,0,0-1,4.19,14.82,14.82,0,0,1,4.66-17.42,19,19,0,0,1,7.81-4A15.93,15.93,0,0,1,319.39,112,18.66,18.66,0,0,1,321,123.57Z"/><path d="M301.84,138.55c1.3,0,2.46.1,3.64,0s2.34-.16,3.63-.25a5.91,5.91,0,0,1-3.6,1.25A6,6,0,0,1,301.84,138.55Z"/><path d="M301.28,121.16c-.34.53-1.44,0-3.07,0-2.4,0-3.94,1-4.24.44-.13-.23.09-.58.18-.73.44-.71,1.31-.85,2.57-1a21.64,21.64,0,0,1,3.18.07c.58,0,1.1.07,1.34.43A.83.83,0,0,1,301.28,121.16Z"/><ellipse cx="299.34" cy="125.2" rx="1.04" ry="1.54"/><path d="M301,124.8c-.49-1.18-1.19-1.41-1.36-1.45s-.67-.12-2.3.73a18.15,18.15,0,0,0-2,1.16l1.95-.64c1.5-.49,2-.63,2.59-.47A2.42,2.42,0,0,1,301,124.8Z"/><path d="M307.57,121.05c.34.53,1.44,0,3.07,0,2.4,0,3.94.95,4.24.44.13-.22-.09-.57-.18-.72-.44-.71-1.31-.85-2.57-1a21.64,21.64,0,0,0-3.18.07c-.58,0-1.1.06-1.34.43A.83.83,0,0,0,307.57,121.05Z"/><ellipse cx="309.51" cy="125.09" rx="1.04" ry="1.54"/><path d="M307.84,124.78a2.19,2.19,0,0,1,1.31-1.5c.23-.07.66-.13,2.32.66a19.83,19.83,0,0,1,2,1.08l-2-.57c-1.51-.43-2-.56-2.6-.37A2.49,2.49,0,0,0,307.84,124.78Z"/><path d="M304.56,126.74c-.12.36-.31.89-.55,1.53-.46,1.24-.54,1.3-.69,1.79-.26.85-.7,2.32,0,3.06a2.37,2.37,0,0,0,2.08.38,2.14,2.14,0,0,1-1.85-.65,2,2,0,0,1-.21-1.36,13.5,13.5,0,0,1,.88-3A10.27,10.27,0,0,0,304.56,126.74Z"/><path d="M297.9,143.45c-.17,0-.49-6,2.64-8,1.3-.83,2.85-.88,4.91-.94s3.59-.11,4.91.63c3.38,1.88,3.09,7.6,3.07,8l-.42-.94c-1.3-2.86-2-4.31-2.46-4.72-.93-.78-2.28-.71-5-.57s-3.91.21-4.92,1.07c-1.17,1-1.78,2.72-2.43,4.52C298,143.24,297.93,143.45,297.9,143.45Z"/><path d="M290.19,133.58a16.15,16.15,0,0,0,29.52-.8,15.55,15.55,0,0,1-6.28,10.31,14.81,14.81,0,0,1-7.79,2.48c-7.43.22-12-5.32-12.47-5.87A15.64,15.64,0,0,1,290.19,133.58Z"/><path class="cls-9" d="M311.48,150.84a72.83,72.83,0,0,1,7.32.89,21.57,21.57,0,0,1,3,.61c3.46,1.19,4.75,4.94,6.91,8.41a91.63,91.63,0,0,1,6.67,13l-10,3.16a192.54,192.54,0,0,0,1.13,24.19c.39,3.48.77,5.87-.58,8-2.28,3.54-7.11,2.64-18.48,2.41-16.13-.32-20.61,1.51-23.15-2.26-1.31-1.94-1.16-4-.44-11.69.52-5.63,1.22-13,2.09-21.74l-10.08-2.87c2.95-5,5.68-9,7.82-11.9,4-5.54,5.9-7.23,8.15-8.44a16.49,16.49,0,0,1,7.42-1.93,8.25,8.25,0,0,0,5.23,3A8.36,8.36,0,0,0,311.48,150.84Z"/><path class="cls-10" d="M330.58,154.86c-.15-.57-.88-2.31-10.82-3.4-2.51-.28-4.61-.4-6.1-.46a5.54,5.54,0,0,1,.35,1.26,8.47,8.47,0,0,1-.69,4.32c-.45,1.38-.73,2.83-1.22,4.2-1.45,4.07-4.54,14.86-5.54,18.76a110.22,110.22,0,0,0-2.6,29.05c.25,5.63,1.1,5.2,1,9.72,0,1.38-.14,3.06.79,4s2.58.56,3.75.42c4.28-.52,10.66-1.28,16-.67,1.28.15,3,.45,3.75-.64s0-2.86-.15-3.41c-1.75-5-1.36-10.68-2.36-15.95-.88-4.56-.78-10.36-.59-22,.18-10.94.91-13.76,1.55-15.43.15-.37.83-2.47,2.19-6.68C330.62,155.69,330.71,155.36,330.58,154.86Z"/><path class="cls-11" d="M326.1,194c0,1.56.11,3.13.16,4.7l-8.75.2q-6.83.15-13.6.26a24.55,24.55,0,0,1,.09-2.77c.07-.76.17-1.47.28-2.11q5.3-.15,10.71-.22C318.73,194,322.44,194,326.1,194Z"/><path class="cls-11" d="M320.7,195.45a203.09,203.09,0,0,1-.44-25.11c.3-6.74.92-13,1.7-18.61l-3.6-.45c-1,5.86-1.83,12.36-2.42,19.44a245.42,245.42,0,0,0-.8,24.65Z"/><path class="cls-10" d="M279.66,154.86c.15-.57.87-2.31,10.82-3.4,2.51-.28,4.61-.4,6.1-.46a5.46,5.46,0,0,0-.36,1.26,8.59,8.59,0,0,0,.7,4.32c.45,1.38.72,2.83,1.21,4.2,1.46,4.07,4.54,14.86,5.55,18.76a110.22,110.22,0,0,1,2.6,29.05c-.25,5.63-1.1,5.2-1,9.72,0,1.38.14,3.06-.8,4s-2.57.56-3.75.42c-4.27-.52-10.65-1.28-16-.67-1.28.15-3,.45-3.75-.64s-.05-2.86.14-3.41c1.76-5,1.36-10.68,2.37-15.95.87-4.56.78-10.36.59-22-.18-10.94-.91-13.76-1.56-15.43-.14-.37-.82-2.47-2.18-6.68C279.62,155.69,279.52,155.36,279.66,154.86Z"/><path class="cls-11" d="M284.14,194c-.06,1.56-.11,3.13-.16,4.7l8.75.2,13.6.35c0-.91,0-1.87-.09-2.86,0-.7-.09-1.37-.15-2-3.55-.14-7.17-.24-10.84-.31S287.78,194,284.14,194Z"/><path class="cls-11" d="M289.53,195.45a201.14,201.14,0,0,0,.44-25.11c-.3-6.74-.92-13-1.7-18.61l3.6-.45c1,5.86,1.84,12.36,2.43,19.44a245.42,245.42,0,0,1,.8,24.65Z"/><path class="cls-12" d="M283.9,119.2a170,170,0,0,0,21.12.33,170.62,170.62,0,0,0,19.83-2.11l0-1.66-1.38,0-.18-2L321.14,112s0-16.9-14.57-16.67a2.38,2.38,0,0,0-.77-.39l-.25,0a4.67,4.67,0,0,0-.6,0c-.54,0-1-.51-1.78-.65a2,2,0,0,0-1.13.07c-.44.18-1.13.69-1.45.79s-.39,0-.72.13a2.94,2.94,0,0,0-1.23.74,14.59,14.59,0,0,0-6.76,3.3c-5.82,5.11-5,13.13-4.92,14.05l-1.83,1.65-.05,2-1.23.08Z"/><path class="cls-13" d="M289.71,113.85a45.86,45.86,0,0,0,12,1.35c8.9,0,15.7-2.11,15.68-2.25a87.14,87.14,0,0,1-14,1.62A101.76,101.76,0,0,1,289.71,113.85Z"/><path class="cls-14" d="M302.31,94.16a3.73,3.73,0,0,0-.84.53c-.34.28-.46.48-.8.6a1.87,1.87,0,0,1-.64.08,2.12,2.12,0,0,0-1.38.81,14.21,14.21,0,0,0-2.9,1.18,16,16,0,0,0-5.23,4.54c-3.36,4.74-2.27,10.51-2.06,11.5L286,115.23l0,2.37-.9.07v1.62l-1.22-.09c0-.73,0-1.46,0-2.19l1.23-.08c0-.67,0-1.35.05-2l1.79-1.79a16.91,16.91,0,0,1,.89-7.69A14.6,14.6,0,0,1,292.18,99a14.92,14.92,0,0,1,4.92-2.65,13.86,13.86,0,0,1,1.54-.39,2.28,2.28,0,0,1,1.23-.74,3.68,3.68,0,0,0,.72-.13,5.12,5.12,0,0,0,.79-.47A4.24,4.24,0,0,1,302.31,94.16Z"/><path class="cls-15" d="M286.81,119.37A30.63,30.63,0,0,0,288.72,132c1.07,2.83,2.5,6.61,6.27,9.76,1.58,1.32,5.09,4.27,10.19,4.23,6.36-.06,10.37-4.74,11.13-5.63,2.27-2.65,3-5.26,4-9.11a46,46,0,0,0,1.55-13.42l-.54.06-.45.08c0,1,0,2.19,0,3.63a49.72,49.72,0,0,1-.54,5c-.9,5.48-1.83,11.12-6.3,15.05a13.65,13.65,0,0,1-8.69,3.74c-6.39.1-10.67-5.32-12.15-7.2-3.57-4.53-4.4-9.6-5-13.17a37.3,37.3,0,0,1-.48-5.56Z"/><path class="cls-8" d="M278.34,173.64a56.1,56.1,0,0,0-.69,6.6,62.56,62.56,0,0,0,.47,10.25,79.11,79.11,0,0,0,3.78,16.19c.79-.17,1.62-.37,2.47-.61s1.66-.49,2.42-.74q-.92-4-1.81-8h0a20,20,0,0,1-1-4.34c0-.44,0-.89,0-.89,0-.93.17-1.65.28-4.95.13-3.63.17-3.38.19-4.66a59,59,0,0,0-.33-7.19Z"/><path class="cls-8" d="M286.77,205.23a1.62,1.62,0,0,0,.33.68c.23.28.41.28,1,.65.36.24.61.44,1,.75a5.5,5.5,0,0,1,.63.54c.23.23.26.32.49.55s.39.33.71.62.85.76.8,1-.9.3-1,.3a3.28,3.28,0,0,1-1.63-.67c-.82-.63-.54.19-.54.19a3.43,3.43,0,0,0,.42,1.38c.44.89,1.41,2.85,1.6,3.3s.27,1.67-.86,1-2.47-3.13-2.47-3.13a22.59,22.59,0,0,1,2.24,3.35c0,.43-.42,1.58-1.71.24a15,15,0,0,1-2.19-3.09s3.41,3.44,2.1,3.69-3.23-2.3-3.52-3.27c.29.55.55,1,.73,1.27.29.47.54.82.41,1.13a.36.36,0,0,1-.17.2c-.34.13-.88-.56-1.1-.8a6.74,6.74,0,0,1-1.59-3.12c-.45-1.91.1-2.49-.4-4.71a12.14,12.14,0,0,0-.44-1.49Z"/><path class="cls-16" d="M289.23,215.19a11.07,11.07,0,0,1-1.46-2.1,9.46,9.46,0,0,1-.76-1.75"/><path class="cls-16" d="M288.07,216.27a5.44,5.44,0,0,1-.72-.63,8.51,8.51,0,0,1-.81-.84,5,5,0,0,1-.72-1.05,5.22,5.22,0,0,1-.52-1.77,9.65,9.65,0,0,0,1,2.13A20.28,20.28,0,0,0,288.07,216.27Z"/><path class="cls-16" d="M285.29,215.12s-.15-.14-.35-.37a4.79,4.79,0,0,1-.38-.49,2.82,2.82,0,0,1-.51-1.61,7.69,7.69,0,0,0,.44,1.09C284.88,214.53,285.32,215.1,285.29,215.12Z"/><path class="cls-8" d="M331.8,174.91a54.55,54.55,0,0,1,.74,6.73,61.31,61.31,0,0,1-.47,10.25,78.3,78.3,0,0,1-3.78,16.19c-.79-.17-1.61-.37-2.47-.61s-1.66-.48-2.41-.74l1.8-8a19.94,19.94,0,0,0,1-4.33c0-.45,0-.9,0-.9,0-.93-.16-1.65-.28-4.94-.1-2.87-.15-3.32-.17-4l0-.66c0-.7.1-3.45.33-7.19Z"/><path class="cls-8" d="M323.43,206.63a1.83,1.83,0,0,1-.33.68c-.24.29-.41.28-1,.65-.37.24-.62.44-1,.75a5.5,5.5,0,0,0-.63.54c-.23.24-.26.32-.49.55a6.18,6.18,0,0,1-.71.62c-.44.4-.84.76-.8,1s.9.3,1,.3a3.22,3.22,0,0,0,1.64-.67c.82-.63.53.19.53.19a3.43,3.43,0,0,1-.42,1.38c-.43.9-1.41,2.85-1.6,3.3s-.27,1.67.87,1,2.46-3.13,2.46-3.13a22.73,22.73,0,0,0-2.24,3.36c0,.43.42,1.57,1.71.23a14.79,14.79,0,0,0,2.19-3.08s-3.41,3.43-2.09,3.69,3.22-2.3,3.51-3.28c-.29.55-.54,1-.73,1.28-.29.46-.54.81-.41,1.12a.36.36,0,0,0,.18.2c.33.13.87-.56,1.09-.8a6.69,6.69,0,0,0,1.59-3.12c.45-1.91-.09-2.48.41-4.71a11.77,11.77,0,0,1,.43-1.49Z"/><path class="cls-16" d="M321,216.59a11.77,11.77,0,0,0,1.47-2.09,11.46,11.46,0,0,0,.76-1.75"/><path class="cls-16" d="M322.12,217.67a5.44,5.44,0,0,0,.72-.63,10.29,10.29,0,0,0,.82-.83,6.28,6.28,0,0,0,.71-1.05,5.11,5.11,0,0,0,.53-1.78,10.4,10.4,0,0,1-1,2.14A18.72,18.72,0,0,1,322.12,217.67Z"/><path class="cls-16" d="M324.91,216.53a2.73,2.73,0,0,0,.34-.38,5.12,5.12,0,0,0,.39-.49,4,4,0,0,0,.32-.6,2.76,2.76,0,0,0,.18-1,7.24,7.24,0,0,1-.44,1.09C325.31,215.93,324.87,216.5,324.91,216.53Z"/></g><text class="cls-17" transform="translate(160.46 210.29)">Ga<tspan class="cls-18" x="23.6" y="0">r</tspan><tspan class="cls-19" x="30.85" y="0">b</tspan><tspan class="cls-20" x="42.43" y="0">a</tspan><tspan x="53.02" y="0">ge </tspan><tspan class="cls-21" x="80.46" y="0">c</tspan><tspan x="90.39" y="0">olle</tspan><tspan class="cls-22" x="122.48" y="0">c</tspan><tspan class="cls-23" x="132.67" y="0">t</tspan><tspan x="139.77" y="0">o</tspan><tspan class="cls-24" x="150.91" y="0">r</tspan><tspan x="158.2" y="0">s</tspan><tspan class="cls-25" x="167.23" y="0" xml:space="preserve"> h</tspan><tspan class="cls-26" x="183.19" y="0">a</tspan><tspan class="cls-25" x="193.25" y="0">d </tspan><tspan class="cls-27" x="209.23" y="0">t</tspan><tspan class="cls-25" x="215.81" y="0">o </tspan><tspan class="cls-28" x="230.93" y="0">we</tspan><tspan class="cls-25" x="255.63" y="0">ar a</tspan><tspan class="cls-29" x="286.96" y="0"> </tspan><tspan class="cls-20" x="-8.74" y="29">h</tspan><tspan x="3.11" y="29">el</tspan><tspan class="cls-20" x="18.95" y="29">m</tspan><tspan x="36.89" y="29">et </tspan><tspan class="cls-23" x="59.82" y="29">t</tspan><tspan x="66.93" y="29">o p</tspan><tspan class="cls-19" x="94.6" y="29">r</tspan><tspan class="cls-30" x="101.78" y="29">e</tspan><tspan class="cls-31" x="112.34" y="29">v</tspan><tspan x="122.25" y="29">ent ge</tspan><tspan class="cls-32" x="179.55" y="29">t</tspan><tspan x="186.75" y="29">ti</tspan><tspan class="cls-20" x="199.26" y="29">n</tspan><tspan x="211.11" y="29">g inju</tspan><tspan class="cls-19" x="261.58" y="29">r</tspan><tspan x="268.75" y="29">ed. </tspan><tspan class="cls-25"><tspan x="-13.01" y="58">“Glass bo</tspan><tspan class="cls-33" x="64.49" y="58">t</tspan><tspan x="71.15" y="58">tles a</tspan><tspan class="cls-34" x="115.69" y="58">n</tspan><tspan x="127.24" y="58">d ot</tspan><tspan class="cls-35" x="160.78" y="58">h</tspan><tspan x="172.32" y="58">er ha</tspan><tspan class="cls-36" x="215.4" y="58">r</tspan><tspan x="221.99" y="58">d obje</tspan><tspan class="cls-20" x="275.08" y="58">c</tspan><tspan x="284.76" y="58">ts </tspan><tspan x="38.39" y="87">might </tspan><tspan class="cls-19" x="95.53" y="87">c</tspan><tspan x="104.95" y="87">o</tspan><tspan class="cls-35" x="115.61" y="87">m</tspan><tspan x="133.68" y="87">e flyi</tspan><tspan class="cls-34" x="172.52" y="87">n</tspan><tspan x="184.06" y="87">g d</tspan><tspan class="cls-31" x="211.71" y="87">o</tspan><tspan x="222.11" y="87">wn</tspan></tspan></text><text class="cls-37" transform="translate(169.21 338.82)">t<tspan class="cls-35" x="6.9" y="0">h</tspan><tspan x="18.44" y="0">e </tspan><tspan class="cls-38" x="33.17" y="0">c</tspan><tspan x="42.6" y="0">hu</tspan><tspan class="cls-39" x="65.55" y="0">t</tspan><tspan x="72.13" y="0">e w</tspan><tspan class="cls-34" x="101.79" y="0">h</tspan><tspan x="113.34" y="0">en t</tspan><tspan class="cls-35" x="146.47" y="0">h</tspan><tspan x="158.01" y="0">e </tspan><tspan class="cls-31" x="172.73" y="0">w</tspan><tspan x="187.42" y="0">o</tspan><tspan class="cls-38" x="198.08" y="0">r</tspan><tspan class="cls-40" x="204.76" y="0">k</tspan><tspan x="214.62" y="0">e</tspan><tspan class="cls-18" x="224.89" y="0">r</tspan><tspan x="231.64" y="0">s a</tspan><tspan class="cls-36" x="254.44" y="0">r</tspan><tspan x="261.03" y="0">e </tspan><tspan class="cls-41" x="-33.94" y="29">c</tspan><tspan x="-24.51" y="29">l</tspan><tspan class="cls-42" x="-19.93" y="29">e</tspan><tspan x="-9.92" y="29">ani</tspan><tspan class="cls-35" x="16.19" y="29">n</tspan><tspan x="27.73" y="29">g i</tspan><tspan class="cls-43" x="48.42" y="29">t</tspan><tspan class="cls-23" x="55.49" y="29">.</tspan><tspan x="58.81" y="29">” Ron</tspan><tspan class="cls-30" x="104.22" y="29">n</tspan><tspan x="115.55" y="29">y said. </tspan><tspan class="cls-44" x="171.72" y="29">Be </tspan><tspan class="cls-45" x="200.27" y="29">c</tspan><tspan class="cls-44" x="210.19" y="29">onside</tspan><tspan class="cls-46" x="269.71" y="29">r</tspan><tspan class="cls-44" x="276.92" y="29">a</tspan><tspan class="cls-47" x="287.41" y="29">t</tspan><tspan class="cls-44" x="294.51" y="29">e</tspan><tspan x="305.24" y="29"> </tspan><tspan x="-26.32" y="58">in ma</tspan><tspan class="cls-41" x="22.28" y="58">k</tspan><tspan x="32.36" y="58">i</tspan><tspan class="cls-34" x="36.93" y="58">n</tspan><tspan x="48.47" y="58">g su</tspan><tspan class="cls-36" x="84.34" y="58">r</tspan><tspan x="90.94" y="58">e </tspan><tspan class="cls-48" x="105.66" y="58">y</tspan><tspan class="cls-44" x="115.57" y="58">our t</tspan><tspan class="cls-46" x="157.92" y="58">r</tspan><tspan class="cls-44" x="165.13" y="58">ash a</tspan><tspan class="cls-49" x="211.69" y="58">r</tspan><tspan class="cls-44" x="218.86" y="58">e tied up </tspan><tspan class="cls-44"><tspan x="52.79" y="87">p</tspan><tspan class="cls-19" x="64.52" y="87">r</tspan><tspan x="71.7" y="87">ope</tspan><tspan class="cls-18" x="105.29" y="87">r</tspan><tspan x="112.55" y="87">ly</tspan><tspan class="cls-25" x="127.83" y="87"> </tspan><tspan class="cls-26" x="132.28" y="87">n</tspan><tspan class="cls-50" x="143.83" y="87">e</tspan><tspan class="cls-25" x="153.84" y="87">xt ti</tspan><tspan class="cls-26" x="185.75" y="87">m</tspan><tspan class="cls-25" x="203.82" y="87">e!</tspan></tspan></text></g></g></svg>