<svg xmlns="http://www.w3.org/2000/svg" viewBox="0 0 161.82 617.74"><defs><style>.cls-1{fill:#024e60;}.cls-2{fill:#8c4714;}.cls-3{fill:#8d5524;}.cls-4{fill:#458c93;}.cls-5{fill:#f26608;}.cls-6{fill:#eaeaea;}.cls-7{fill:#f9b03a;}.cls-8,.cls-9{fill:#ce8e32;}.cls-9{opacity:0.55;}.cls-10{fill:#3f3f3f;}.cls-11{fill:#63391a;}</style></defs><g id="Layer_2" data-name="Layer 2"><g id="Layer_1-2" data-name="Layer 1"><path d="M31.39,546a74.58,74.58,0,0,1-1.72,28.46,69.66,69.66,0,0,1-3.51,10.13,45.69,45.69,0,0,0-3,14.33c-.14,3-.19,4.54.43,6,2.61,6,12.84,5.8,20.91,5.65,12-.22,16.19-3.86,17.66-5.36a10,10,0,0,0,2.8-3.92c.69-2,.42-3.64.19-6-.38-4.18.21-1.85-.28-8.83-.53-7.62-1.55-14.81-1.94-18.23A109.45,109.45,0,0,1,62.67,546a46.79,46.79,0,0,0-31.28,0Z"/><path d="M23.59,604.89l.25,7.29a12.87,12.87,0,0,0,4.29,3.15,11.64,11.64,0,0,0,3.81,1c.17-.64.35-1.28.52-1.93,0,.69,0,1.37,0,2.06,1,.24,2.05.46,3.17.65,1.39.23,2.7.38,3.92.47.16-.84.31-1.68.47-2.52l.09,2.56c1.19.08,2.45.13,3.77.13,1.84,0,3.57-.09,5.17-.25.08-.75.15-1.5.23-2.25.14.73.28,1.46.43,2.19a21.3,21.3,0,0,0,3.72-.36,21.53,21.53,0,0,0,4.65-1.45c.09-.68.19-1.35.28-2,.16.58.32,1.16.47,1.74a10.93,10.93,0,0,0,2.83-1.42,12.15,12.15,0,0,0,2.54-2.37L65,601.26a38.74,38.74,0,0,1-12.09,6.23C39.28,611.64,27.49,606.73,23.59,604.89Z"/><path d="M121,546a74.54,74.54,0,0,0,1.71,28.46,69.66,69.66,0,0,0,3.51,10.13,45.4,45.4,0,0,1,3,14.33c.14,3,.2,4.54-.42,6-2.62,6-12.85,5.8-20.92,5.65-12-.22-16.19-3.86-17.65-5.36a9.8,9.8,0,0,1-2.8-3.92c-.7-2-.42-3.64-.2-6,.39-4.18-.2-1.85.28-8.83.54-7.62,1.55-14.81,1.95-18.23A110.34,110.34,0,0,0,89.71,546,46.82,46.82,0,0,1,121,546Z"/><path d="M128.8,604.89l-.26,7.29a12.87,12.87,0,0,1-4.29,3.15,11.64,11.64,0,0,1-3.81,1l-.51-1.93c0,.69,0,1.37,0,2.06-1,.24-2,.46-3.16.65-1.39.23-2.71.38-3.93.47-.16-.84-.31-1.68-.47-2.52,0,.85,0,1.71-.08,2.56-1.2.08-2.45.13-3.77.13-1.85,0-3.58-.09-5.18-.25-.08-.75-.15-1.5-.22-2.25-.15.73-.29,1.46-.43,2.19a20.87,20.87,0,0,1-8.37-1.81c-.1-.68-.19-1.35-.29-2-.16.58-.31,1.16-.47,1.74a11.08,11.08,0,0,1-2.83-1.42,12.15,12.15,0,0,1-2.54-2.37c-.26-3.43-.51-6.85-.77-10.28a38.56,38.56,0,0,0,12.08,6.23C113.1,611.64,124.89,606.73,128.8,604.89Z"/><path class="cls-1" d="M24.53,286.14c-4.65,35.07-7.65,64.68-9.6,86.81,0,0-.92,10.14-1.91,28.06-2.07,37.32-3.33,56-2.35,74.75,2.05,39.32,10.06,34.73,12.72,72.18,1.12,15.89,3.58,20.82,6.51,21.67,1.47.42,1.82-.65,7.31-2.76,4.68-1.79,7.4-2.83,11-2.75,1.86,0,6.71.15,10.64,3.63,2.54,2.25,3,4.38,4.61,4.43,2.5.07,4.54-4.86,5.45-7.18,7.89-20.29,6.35-54,6.1-68.76,0-1.93-.1-5.91.19-11.1.23-4.15.54-7.32.67-8.61,0-.28,0-.4,0-.44,2.26-21.3,1.45-51.64,1.45-51.64q1.64-55.24,2-55.24t-.45,58.75c.23,16.46.16,25.27,0,30.29,0,.2,0,.73,0,1-.17,5-.4,9.68-.45,17.15-.06,9.22.45,16.05.41,19.71-.37,31.35-.86,74,9.92,77.42,4.46,1.4,6.5-5.25,16.19-5.57,9.17-.3,12.87,5.47,17.48,3.38,5.35-2.41,5.6-12.5,6.8-25,2.89-30,6.52-24.56,9.09-54.3,1.2-13.88,1.31-23.94,2.16-42.19.55-11.7.62-14.39.66-15.67.24-7.73.22-19-.76-41.72-1.24-28.52-3.43-65.62-7.55-109.35Z"/><rect class="cls-2" x="63.9" y="112.98" width="33.21" height="55.35"/><path class="cls-3" d="M114,50.32c10.45,12.54,9,29.05,8.12,38.42-.5,5.56-3.59,39.9-28.4,49.12-14,5.22-27.42-.45-30.86-2.06C40,125.1,35.59,97.28,34,87.18,32,75,30,62.13,37.24,51.52,51.68,30.36,95.93,28.6,114,50.32Z"/><path d="M122.72,80.15c.09-.75.62-5.88-3-9.43a10.14,10.14,0,0,0-4.11-2.4l-1.89-8.23a86.45,86.45,0,0,0-71-.86l-.95,8.51A12.49,12.49,0,0,0,36,71.41C32,76,33.14,82,33.31,82.81c-1.47-3.88-5.61-16.34-.38-29.93A42.76,42.76,0,0,1,46,35.41a51.24,51.24,0,0,1,21.26-10.8C71.87,23.54,83.79,21,96.87,27c13.56,6.19,19.47,17.61,21.5,21.69A50.64,50.64,0,0,1,122.72,80.15Z"/><path d="M70.61,120.92a43,43,0,0,0,9.93,1,41.23,41.23,0,0,0,9.86-1.54,21.88,21.88,0,0,1-9.83,2.53A22.37,22.37,0,0,1,70.61,120.92Z"/><path d="M69.08,73.58c-.93,1.43-3.91.07-8.35,0C54.21,73.44,50,76.15,49.2,74.76c-.36-.61.23-1.56.48-2,1.19-1.92,3.58-2.3,7-2.79,1.41-.2,3.83-.07,8.66.18,1.57.09,3,.18,3.64,1.19A2.21,2.21,0,0,1,69.08,73.58Z"/><ellipse cx="63.81" cy="84.58" rx="2.84" ry="4.19"/><path d="M68.4,83.48c-1.33-3.21-3.23-3.82-3.7-4-.65-.17-1.82-.31-6.26,2a56.28,56.28,0,0,0-5.34,3.14l5.33-1.74c4.08-1.32,5.42-1.72,7-1.26A6.58,6.58,0,0,1,68.4,83.48Z"/><path d="M86.22,73.27c.92,1.44,3.91.08,8.35,0,6.51-.12,10.72,2.59,11.52,1.2.36-.62-.22-1.57-.48-2-1.18-1.92-3.57-2.3-7-2.79-1.41-.21-3.83-.08-8.66.18-1.58.08-3,.18-3.65,1.18A2.23,2.23,0,0,0,86.22,73.27Z"/><ellipse cx="91.49" cy="84.28" rx="2.84" ry="4.19"/><path d="M86.94,83.44c1.21-3.26,3.09-3.94,3.56-4.08.64-.2,1.8-.37,6.33,1.78a56.35,56.35,0,0,1,5.44,3c-1.16-.34-3-.89-5.39-1.55-4.12-1.18-5.47-1.53-7.08-1A6.56,6.56,0,0,0,86.94,83.44Z"/><path d="M78,88.77c-.32,1-.83,2.42-1.48,4.17-1.26,3.35-1.49,3.54-1.89,4.86-.7,2.32-1.91,6.31,0,8.34,1.63,1.73,4.75,1.21,5.66,1-.48,0-3.61.24-5-1.77-.74-1.05-.68-2.2-.57-3.72.22-3.18,1.38-4.53,2.4-8.11A28.36,28.36,0,0,0,78,88.77Z"/><path d="M59.89,134.23c-.45-.09-1.33-16.39,7.18-21.86,3.53-2.27,7.76-2.4,13.37-2.57s9.76-.3,13.37,1.72c9.18,5.13,8.41,20.69,8.34,21.75-.27-.61-.66-1.49-1.14-2.55-3.54-7.81-5.34-11.73-6.69-12.86-2.54-2.12-6.21-1.93-13.54-1.54-7.08.37-10.62.56-13.37,2.91-3.2,2.73-4.86,7.38-6.63,12.3C60,133.67,60,134.25,59.89,134.23Z"/><path d="M38.91,107.39a43.93,43.93,0,0,0,80.33-2.2c-.45,3-3.12,18.57-17.09,28.08A40.58,40.58,0,0,1,81,140c-20.24.59-32.75-14.5-33.95-16A42.54,42.54,0,0,1,38.91,107.39Z"/><path class="cls-4" d="M96.86,154.37a195.88,195.88,0,0,1,19.92,2.4,57.66,57.66,0,0,1,8.08,1.68c9.42,3.24,12.93,13.44,18.79,22.89a249,249,0,0,1,18.17,35.41l-27.09,8.61a522.08,522.08,0,0,0,3.09,65.84c1.06,9.46,2.09,16-1.59,21.7-6.19,9.62-19.36,7.18-50.3,6.56-43.9-.88-56.08,4.11-63-6.15-3.57-5.31-3.14-10.84-1.2-31.84,1.41-15.32,3.32-35.38,5.7-59.15L0,214.51c8-13.59,15.46-24.45,21.27-32.4,11-15.08,16.05-19.68,22.17-23a44.93,44.93,0,0,1,20.21-5.24A22.56,22.56,0,0,0,77.87,162C88.65,163.38,96,155.36,96.86,154.37Z"/><path class="cls-5" d="M148.83,165.29c-.42-1.54-2.38-6.27-29.46-9.25-6.83-.75-12.54-1.09-16.6-1.26a15.9,15.9,0,0,1,1,3.43c.72,4.36-.6,7.85-1.89,11.76-1.23,3.76-2,7.72-3.31,11.44-4,11.09-12.36,40.45-15.09,51.07,0,0-9,35.1-7.08,79,.68,15.34,3,14.16,2.74,26.47-.07,3.75-.38,8.32,2.17,10.93,2.71,2.78,7,1.52,10.2,1.13,11.65-1.4,29-3.48,43.46-1.79,3.49.4,8.24,1.2,10.2-1.76s.13-7.79-.39-9.28c-4.77-13.64-3.7-29.07-6.44-43.41-2.38-12.42-2.12-28.2-1.6-59.78.48-29.75,2.48-37.43,4.23-42,.39-1,2.24-6.74,5.94-18.19C148.93,167.55,149.2,166.65,148.83,165.29Z"/><path class="cls-6" d="M136.64,271.86q.23,6.4.44,12.8-11.88.29-23.82.55-18.57.41-37,.7a69.12,69.12,0,0,1,.25-7.53c.19-2.08.46-4,.76-5.74q14.43-.4,29.15-.6Q121.69,271.85,136.64,271.86Z"/><path class="cls-6" d="M122,275.78a549.25,549.25,0,0,1-1.2-68.35c.82-18.35,2.51-35.3,4.63-50.64l-9.8-1.25c-2.65,16-5,33.66-6.59,52.93a663.47,663.47,0,0,0-2.19,67.07Z"/><path class="cls-5" d="M10.24,165.29c.42-1.54,2.39-6.27,29.46-9.25,6.83-.75,12.54-1.09,16.6-1.26a15.9,15.9,0,0,0-1,3.43c-.71,4.36.6,7.85,1.89,11.76,1.24,3.76,2,7.72,3.31,11.44,4,11.09,12.36,40.45,15.09,51.07,0,0,9,35.1,7.08,79C82,326.86,79.7,325.68,80,338c.08,3.75.38,8.32-2.17,10.93-2.7,2.78-7,1.52-10.2,1.13-11.65-1.4-29-3.48-43.45-1.79-3.5.4-8.25,1.2-10.21-1.76s-.13-7.79.39-9.28c4.77-13.64,3.7-29.07,6.44-43.41,2.38-12.42,2.12-28.2,1.6-59.78-.48-29.75-2.47-37.43-4.22-42-.4-1-2.25-6.74-5.95-18.19C10.14,167.55,9.87,166.65,10.24,165.29Z"/><path class="cls-6" d="M22.43,271.86q-.22,6.4-.44,12.8,11.9.25,23.82.55,18.55.45,37,1c0-2.49-.09-5.09-.24-7.79-.11-1.9-.24-3.73-.4-5.51q-14.5-.57-29.51-.83Q37.3,271.78,22.43,271.86Z"/><path class="cls-6" d="M37.12,275.78a549.25,549.25,0,0,0,1.2-68.35c-.82-18.35-2.5-35.3-4.63-50.64l9.8-1.25c2.65,16,5,33.66,6.59,52.93a663.47,663.47,0,0,1,2.19,67.07Z"/><path class="cls-7" d="M21.8,68.25a459.59,459.59,0,0,0,57.48.88,463.21,463.21,0,0,0,54-5.74l-.1-4.51-3.76.09-.5-5.43-5.75-4.94s.05-46-39.65-45.37a6.4,6.4,0,0,0-2.09-1.06A5.82,5.82,0,0,0,80.7,2a9.67,9.67,0,0,0-1.62-.09C77.62,2,76.43.54,74.24.15a5.28,5.28,0,0,0-3.09.18c-1.18.49-3.08,1.9-4,2.15s-1.06.11-2,.37a8.06,8.06,0,0,0-3.35,2,39.86,39.86,0,0,0-18.41,9C27.67,27.75,29.82,49.58,30.11,52.09l-5,4.48L25,62.07l-3.33.22Z"/><path class="cls-8" d="M37.59,53.69c0,.36,14.39,3.66,32.63,3.67,24.23,0,42.75-5.76,42.7-6.14S97.71,55,74.83,55.66C53.13,56.25,37.61,53.32,37.59,53.69Z"/><path class="cls-9" d="M71.89.11A10.37,10.37,0,0,0,69.6,1.53c-.93.76-1.25,1.31-2.18,1.64a5,5,0,0,1-1.73.22,5.85,5.85,0,0,0-3.76,2.19A41.93,41.93,0,0,0,54.05,8.8,43.7,43.7,0,0,0,39.8,21.15c-9.14,12.91-6.16,28.63-5.61,31.31l-6.74,5,.09,6.47-2.47.19c0,1.47,0,2.94.05,4.4l-3.32-.24c-.05-2-.09-4-.14-6L25,62.07l.15-5.5L30,51.7a45.55,45.55,0,0,1,2.41-20.92A39.88,39.88,0,0,1,44.32,13.12,40.55,40.55,0,0,1,57.71,5.93,38.5,38.5,0,0,1,61.9,4.85a6.21,6.21,0,0,1,3.35-2,8.91,8.91,0,0,0,2-.37,11.58,11.58,0,0,0,2.16-1.27A10.21,10.21,0,0,1,71.89.11Z"/><path class="cls-10" d="M29.7,68.7a83.4,83.4,0,0,0,5.2,34.42c2.91,7.69,6.81,18,17.08,26.56,4.3,3.6,13.84,11.62,27.71,11.49C97,141,107.92,128.28,110,125.87c6.18-7.21,8.11-14.33,11-24.81a124.35,124.35,0,0,0,4.19-36.52c-.46,0-1,.1-1.45.18s-.84.13-1.24.21c.08,2.58.1,5.95-.1,9.88,0,0-.37,7-1.46,13.58-2.47,14.92-5,30.25-17.14,40.94-2.34,2.06-11.1,10-23.66,10.19-17.4.27-29-14.48-33.08-19.6-9.71-12.31-12-26.13-13.54-35.83A100.58,100.58,0,0,1,32.17,69Z"/><path class="cls-3" d="M6.67,216.41a151.14,151.14,0,0,0-1.89,18,167.89,167.89,0,0,0,1.29,27.9,213.72,213.72,0,0,0,10.29,44.06q3.21-.69,6.72-1.65t6.56-2q-2.46-10.92-4.91-21.85h0c-.8-2.5-2.47-7.68-2.74-11.79-.07-1.21-.08-2.43-.08-2.43,0-2.54.44-4.49.76-13.46.35-9.91.46-9.21.51-12.69a161.41,161.41,0,0,0-.91-19.57Z"/><path class="cls-3" d="M29.59,302.38a4.65,4.65,0,0,0,.9,1.85c.63.77,1.11.76,2.66,1.77,1,.65,1.69,1.2,2.76,2a15.88,15.88,0,0,1,1.72,1.47c.64.64.72.86,1.33,1.51a24.73,24.73,0,0,0,1.93,1.68c1.21,1.09,2.31,2.07,2.19,2.74-.17.91-2.45.82-2.64.82A8.85,8.85,0,0,1,36,314.43c-2.23-1.71-1.45.53-1.45.53a9.26,9.26,0,0,0,1.15,3.75c1.18,2.44,3.82,7.75,4.35,9s.73,4.54-2.36,2.8S31,322,31,322s6.1,8,6.1,9.14-1.14,4.28-4.66.64a40.48,40.48,0,0,1-5.95-8.4s9.29,9.35,5.7,10-8.77-6.26-9.57-8.92c.78,1.5,1.48,2.67,2,3.48.8,1.27,1.48,2.23,1.12,3.06a1,1,0,0,1-.48.54c-.9.36-2.37-1.52-3-2.17a18.32,18.32,0,0,1-4.33-8.5c-1.23-5.18.25-6.76-1.1-12.81A35.1,35.1,0,0,0,15.62,304Z"/><path class="cls-11" d="M36.3,329.49a30.52,30.52,0,0,1-4-5.71A29.51,29.51,0,0,1,30.24,319"/><path class="cls-11" d="M33.14,332.43a17,17,0,0,1-1.95-1.71A25.17,25.17,0,0,1,29,328.44,16,16,0,0,1,27,325.58a13.65,13.65,0,0,1-1.43-4.83,27.06,27.06,0,0,0,2.83,5.81A54,54,0,0,0,33.14,332.43Z"/><path class="cls-11" d="M25.57,329.31a5.51,5.51,0,0,1-.94-1A15.76,15.76,0,0,1,23.57,327a8.33,8.33,0,0,1-.86-1.62,7.37,7.37,0,0,1-.51-2.76,22,22,0,0,0,1.19,3C24.46,327.69,25.65,329.25,25.57,329.31Z"/><path class="cls-3" d="M152.14,219.85a147.18,147.18,0,0,1,2,18.34,166.07,166.07,0,0,1-1.28,27.9,214.53,214.53,0,0,1-10.29,44.06c-2.14-.46-4.39-1-6.73-1.66s-4.5-1.33-6.56-2l4.92-21.85c.8-2.5,2.46-7.68,2.73-11.79.08-1.22.08-2.43.08-2.43,0-2.55-.44-4.49-.76-13.47-.27-7.79-.4-9-.47-10.89,0,0,0-.87,0-1.79,0-1.89.27-9.38.91-19.57Z"/><path class="cls-3" d="M129.36,306.2a4.52,4.52,0,0,1-.9,1.85c-.63.77-1.11.75-2.66,1.77-1,.65-1.68,1.19-2.76,2a16.31,16.31,0,0,0-1.72,1.46c-.63.65-.72.87-1.33,1.51a22.87,22.87,0,0,1-1.93,1.69c-1.21,1.09-2.31,2.07-2.18,2.74.16.91,2.44.82,2.63.81a8.78,8.78,0,0,0,4.46-1.82c2.23-1.72,1.46.53,1.46.53a9.41,9.41,0,0,1-1.16,3.75c-1.17,2.43-3.82,7.75-4.34,9s-.73,4.55,2.35,2.81,6.72-8.52,6.72-8.52-6.1,8-6.11,9.13,1.14,4.29,4.66.65a40.74,40.74,0,0,0,6-8.4s-9.29,9.35-5.71,10,8.78-6.26,9.57-8.92c-.78,1.5-1.48,2.67-2,3.47-.79,1.27-1.47,2.24-1.12,3.07a1,1,0,0,0,.48.54c.9.36,2.38-1.52,3-2.17a18.5,18.5,0,0,0,4.33-8.51c1.22-5.17-.26-6.75,1.09-12.8a34.74,34.74,0,0,1,1.19-4.06Z"/><path class="cls-11" d="M122.65,333.31a30.39,30.39,0,0,0,4-5.71,29.89,29.89,0,0,0,2.07-4.76"/><path class="cls-11" d="M125.81,336.25a15.6,15.6,0,0,0,2-1.72,24,24,0,0,0,2.23-2.27,15.49,15.49,0,0,0,1.94-2.86,13.72,13.72,0,0,0,1.43-4.83,27.17,27.17,0,0,1-2.82,5.81A53.32,53.32,0,0,1,125.81,336.25Z"/><path class="cls-11" d="M133.39,333.13a6.19,6.19,0,0,0,.93-1,14,14,0,0,0,1.06-1.34,8.38,8.38,0,0,0,.87-1.63,7.68,7.68,0,0,0,.51-2.75,22.9,22.9,0,0,1-1.2,3C134.5,331.51,133.3,333.07,133.39,333.13Z"/></g></g></svg>