<svg xmlns="http://www.w3.org/2000/svg" viewBox="0 0 158.65 589.49"><defs><style>.cls-1{fill:#121b44;}.cls-2{fill:#72421e;}.cls-3{fill:#8d5524;}.cls-4{fill:#0631bc;}.cls-5{fill:#63391a;}.cls-6{fill:#f4e200;}.cls-7{fill:#ff9100;}</style></defs><g id="Layer_2" data-name="Layer 2"><g id="Layer_1-2" data-name="Layer 1"><path class="cls-1" d="M24.53,257.58c-4.65,35.07-7.65,64.67-9.6,86.8,0,0-.23,2.54-.58,7.31,0,0-.86,11.29-1.33,20.75-1.6,31.83,7.23,88.32,7.23,88.32,9.81,62.77,17.32,81.54,21.1,81.17,2-.19,2.7-5.9,6.82-6.4,2.81-.33,8.24,1.5,10.64,3.63,0,0,.07.07.11.06,1.59-.18-1.94-33.71,7.19-72.5,2.39-10.14,3-9.17,5-18.8a195.17,195.17,0,0,0,4.12-53.2c2.75-44.2,3.74-54.11,4.1-54.1.7,0-.77,36.34-.45,58.75.23,16.46.16,25.27,0,30.29,0,.2,0,.74,0,1-.24,7.11-.44,15.54-.45,17.15-.08,8.32,3.7,15.95,5.54,20.24,11.81,27.52,11.49,74.44,16.51,74.29,1.25,0,2-3,4.47-3,2.23,0,2.94,2.4,4.7,3,4.73,1.57,13.68-46.68,10.09-50.9-4.75-5.59-6.32-10.45-6.11-14.67.3-5.93,5.69-7.94,13-20.64.14-.26,1.88-3.3,3.31-6.29,5.49-11.51,6.38-22.31,6.78-27.65,2.57-34.85,3.85-52.27,3.67-58.32-1.38-45.4-5.35-87.87-7.55-109.35Z"/><rect class="cls-2" x="63.4" y="84.26" width="33.21" height="55.35"/><path class="cls-3" d="M113.54,21.6c6.79,8.15,7.15,18.3,8.12,38.42.67,14,1.13,27.6-7.7,36.62-2.86,2.91-6,4.58-12.31,7.91-8.89,4.71-14.78,7.82-22.45,7.9-7,.08-12.57-2.72-23.75-8.33C47.11,100,43,97.86,40.28,95c-4-4.4-7-11-6.79-36.49.19-20.75.2-31.18,3.25-35.66C51.18,1.64,95.44-.12,113.54,21.6Z"/><path d="M121.22,51.22c-.32,0-.36-.91-2.14-5.86-.83-2.33-1.58-4.3-2.18-5.82l-3.71-8.17a39.83,39.83,0,0,1-13,2.74c-5.71.22-9-.94-25.22-4.89-10.71-2.61-12.36-2.86-14.68-2.9a39.82,39.82,0,0,0-18.07,4.2c-1,1.52-2.3,3.7-3.75,6.38a52.39,52.39,0,0,0-3.32,6.87c-2.21,6-1.36,10.66-1.64,10.68-.5,0-4.19-15.21,1.2-31.62,3.33-10.18,7.56-13,9.38-14a17.57,17.57,0,0,1,9.17-2.06A57.81,57.81,0,0,1,70.39.94c4.55-.77,16.23-2.61,29.2,2.75,4.81,2,13.57,5.62,18.5,14.52,1.91,3.46,2.53,6.42,3.36,10.4C123.91,40.36,122.3,51.16,121.22,51.22Z"/><path d="M70.12,92.2a44.29,44.29,0,0,0,4.95.89,35.56,35.56,0,0,0,10-.26,45.13,45.13,0,0,0,4.89-1.18,22.21,22.21,0,0,1-4.78,1.74,23.88,23.88,0,0,1-5.06.67,24.12,24.12,0,0,1-5.09-.4A22.7,22.7,0,0,1,70.12,92.2Z"/><path d="M71.63,48.51c-.9,1.39-5.47-1.49-11.56-2.11-7.4-.76-12.92,2.23-13.46,1-.31-.73,1.33-2.06,1.72-2.38.83-.67,3.55-2.64,11.57-1.94,4.36.37,10.33.83,11.63,4.08C71.67,47.44,71.92,48.07,71.63,48.51Z"/><ellipse cx="62.85" cy="55.47" rx="2.84" ry="3.8"/><path d="M62.15,51.32a10.19,10.19,0,0,0-4.76,1.53,12.11,12.11,0,0,0-1.75,1.28c-.24.32-.22.44-.19.49.28.42,3.7-1.3,6.76-2A6.57,6.57,0,0,1,65,53h0c1.89.56,2.3.56,2.34.46C67.42,53.15,65.08,51.33,62.15,51.32Z"/><path d="M77.51,60.05a18,18,0,0,1-1.84,8.23c-2,3.93-4.72,5.12-4.28,7.11.63,2.86,7,3.67,7,3.59s-4.58-.67-5.2-3.1c-.44-1.71,1.42-3,2.89-5.61C77.21,68.32,78.27,65.14,77.51,60.05Z"/><path d="M66.65,85c3.61-2.14,7.85-2.12,13.45-2.09s9.77.06,13.3,2.2c2.76,1.67,4.76,4.47,4.33,5.06S95.21,89,91.65,88.35c-4.72-.92-5.66,1.13-11.44,1.09s-6.42-2.06-10.69-1.21-6.8,3.66-7.34,3.08S63.32,87,66.65,85Z"/><path class="cls-4" d="M96.86,125.8a53.76,53.76,0,0,1,19.92,2.4,48.78,48.78,0,0,1,15.37,7.87c2.06,1.6,7.88,6.41,15,20.18a125.78,125.78,0,0,1,11.39,32.56l-23.79,8a522.08,522.08,0,0,0,3.09,65.84c1.06,9.46,2.09,16-1.59,21.7-6.19,9.62-19.36,7.19-50.3,6.56-43.9-.88-56.08,4.11-63-6.15-3.57-5.3-3.14-10.83-1.2-31.84,1.41-15.31,3.32-35.38,5.7-59.15L0,185.94c1.13-3,2.8-7.39,5-12.57,1.48-3.55,4.27-10.21,6.72-15,1.59-3.09,7.17-13.93,15.9-21.4C40.14,126.25,56,125.24,63.65,125.33a22.47,22.47,0,0,0,14.22,8.14C88.65,134.81,96,126.79,96.86,125.8Z"/><path class="cls-3" d="M6.67,187.84c-.87,7.18-1.47,13.29-1.89,18C3.24,223.07,3.49,229,4.05,233.91a101.09,101.09,0,0,0,1.83,10.55,192.93,192.93,0,0,0,10.48,33.3c2.14-.46,4.38-1,6.72-1.65s4.5-1.33,6.56-2c-1.31-5.11-3.11-12.61-4.91-21.86a104,104,0,0,1-1.89-11.28c-.47-6.78.65-8,2.42-25.26.25-2.38.37-2.22,1.21-12.31.19-2.28.49-5.58,1-9.62Z"/><path class="cls-3" d="M29.59,273.82a4.65,4.65,0,0,0,.9,1.85c.63.77,1.11.75,2.66,1.76,1,.65,1.69,1.2,2.76,2a15.88,15.88,0,0,1,1.72,1.47c.64.65.72.87,1.33,1.51a24.73,24.73,0,0,0,1.93,1.68c1.21,1.09,2.31,2.07,2.19,2.75-.17.9-2.45.82-2.64.81A8.85,8.85,0,0,1,36,285.86c-2.23-1.71-1.45.53-1.45.53a9.27,9.27,0,0,0,1.15,3.76c1.18,2.43,3.82,7.74,4.35,9s.73,4.54-2.36,2.8S31,293.4,31,293.4s6.1,8,6.1,9.14-1.14,4.28-4.66.64a40.48,40.48,0,0,1-5.95-8.4s9.29,9.35,5.7,10.05-8.77-6.27-9.57-8.92c.78,1.5,1.48,2.66,2,3.47.8,1.27,1.48,2.23,1.12,3.06a1,1,0,0,1-.48.54c-.9.36-2.37-1.52-3-2.16a18.42,18.42,0,0,1-4.33-8.51c-1.23-5.18.25-6.76-1.1-12.81a34.82,34.82,0,0,0-1.18-4.05Z"/><path class="cls-5" d="M36.3,300.92a30.74,30.74,0,0,1-4-5.7,30.29,30.29,0,0,1-2.07-4.76"/><path class="cls-5" d="M33.14,303.87a17.37,17.37,0,0,1-1.95-1.72A25.17,25.17,0,0,1,29,299.87,15.64,15.64,0,0,1,27,297a13.59,13.59,0,0,1-1.43-4.83A27.06,27.06,0,0,0,28.42,298,56,56,0,0,0,33.14,303.87Z"/><path class="cls-5" d="M25.57,300.74c-.05,0-.4-.38-.94-1a14.39,14.39,0,0,1-1.06-1.33,9.35,9.35,0,0,1-.87-1.63,7.55,7.55,0,0,1-.5-2.75A22,22,0,0,0,23.39,297C24.46,299.13,25.65,300.68,25.57,300.74Z"/><path class="cls-6" d="M17.5,447.08c1.62,15.94,3.61,28.71,5.05,37.07,6.68,38.94,13.16,50.82,7,62.79-4.29,8.28-5,12.92-6.35,22.2a11.19,11.19,0,0,0,.43,6.35c2.61,6.38,12.84,6.17,20.91,6,12-.24,16.19-4.12,17.66-5.71a10.7,10.7,0,0,0,2.8-4.17c.69-2.12.42-3.88.19-6.43a23.11,23.11,0,0,1-.08-4.06c.05-2.11-.14-4.68-.2-5.34-.25-2.7-.19-8.21-.13-14.48.07-7.15,2.77-44.18,8.25-94.77-3.48.48-8.38,1.12-14.27,1.73-3.79.39-10,1.14-14.62,1.24A117.42,117.42,0,0,1,17.5,447.08Z"/><path d="M23.59,575.49l.25,7.77a13.07,13.07,0,0,0,4.29,3.35,11.24,11.24,0,0,0,3.81,1l.52-2c0,.73,0,1.46,0,2.19,1,.26,2.05.49,3.17.69,1.39.24,2.7.4,3.92.5.16-.89.31-1.79.47-2.68l.09,2.72c1.19.09,2.45.14,3.77.14,1.84,0,3.57-.1,5.17-.26.08-.8.15-1.6.23-2.4.14.77.28,1.55.43,2.33a19.69,19.69,0,0,0,3.72-.38,20.21,20.21,0,0,0,4.65-1.55c.09-.72.19-1.44.28-2.15.16.61.32,1.23.47,1.85a10.79,10.79,0,0,0,2.83-1.52,12.31,12.31,0,0,0,2.54-2.52L65,571.63a37.92,37.92,0,0,1-12.09,6.63C39.28,582.68,27.49,577.45,23.59,575.49Z"/><path class="cls-6" d="M132.55,447.4c-1.62,15.94-3.61,28.71-5,37.07-6.69,38.94-13.17,50.82-7,62.79,4.29,8.28,5,12.92,6.34,22.2a11.19,11.19,0,0,1-.43,6.35c-2.61,6.38-12.84,6.17-20.91,6-12-.24-16.19-4.12-17.65-5.71A10.49,10.49,0,0,1,85.1,572c-.7-2.12-.43-3.88-.2-6.43a23.47,23.47,0,0,0,.09-4.06,53.25,53.25,0,0,1,.19-5.34c.25-2.7.2-8.21.14-14.48-.07-7.15-2.78-44.18-8.26-94.77,3.48.48,8.38,1.12,14.27,1.73,3.8.39,10,1.14,14.62,1.24A117.42,117.42,0,0,0,132.55,447.4Z"/><path d="M126.46,575.81l-.25,7.77a13.07,13.07,0,0,1-4.29,3.35,11.24,11.24,0,0,1-3.81,1.05l-.51-2.05c0,.73,0,1.46,0,2.19-1,.26-2,.49-3.16.69-1.39.24-2.71.4-3.93.5-.16-.89-.31-1.79-.47-2.68,0,.91-.06,1.82-.08,2.72-1.2.09-2.45.14-3.77.14-1.85,0-3.58-.1-5.18-.26-.08-.8-.15-1.6-.22-2.4-.15.77-.29,1.55-.43,2.33a19.71,19.71,0,0,1-3.73-.38A20,20,0,0,1,92,587.23c-.1-.72-.19-1.44-.29-2.15-.16.61-.31,1.23-.47,1.85a10.94,10.94,0,0,1-2.83-1.52,12.31,12.31,0,0,1-2.54-2.52c-.26-3.65-.51-7.29-.77-10.94a37.75,37.75,0,0,0,12.08,6.63C110.77,583,122.56,577.77,126.46,575.81Z"/><path class="cls-7" d="M134.67,193.4c4.57-2,9.46-3.91,14.68-5.73,2.83-1,5.61-1.9,8.32-2.73.28,1.29.57,2.58.85,3.87l-23.79,8Z"/><path class="cls-7" d="M27.93,190.42a74.49,74.49,0,0,0-15-5.72,74,74,0,0,0-11.65-2.07L0,185.94l27.52,7.88Z"/><path class="cls-3" d="M154.6,190.13c1.4,7.5,2.24,13.87,2.75,18.64,1.1,10.14,1.89,17.95.74,28.11a98.4,98.4,0,0,1-1.84,10.55,192.73,192.73,0,0,1-10.47,33.3c-2.14-.46-4.39-1-6.72-1.65s-4.51-1.33-6.56-2c1.3-5.11,3.11-12.61,4.91-21.86a103.24,103.24,0,0,0,1.88-11.28c.48-6.78-.64-8-2.42-25.26-.24-2.38-.37-2.22-1.21-12.31-.18-2.28-.49-5.58-.95-9.62Z"/><path class="cls-3" d="M132.54,276.79a4.61,4.61,0,0,1-.89,1.85c-.64.77-1.12.75-2.67,1.76-1,.65-1.68,1.2-2.76,2a15.35,15.35,0,0,0-1.71,1.47c-.64.65-.72.86-1.33,1.51-.79.82-1.06.89-1.93,1.68-1.22,1.09-2.31,2.07-2.19,2.75.16.9,2.44.82,2.64.81a8.84,8.84,0,0,0,4.45-1.83c2.23-1.71,1.46.53,1.46.53a9.49,9.49,0,0,1-1.15,3.76c-1.18,2.43-3.83,7.74-4.35,9s-.73,4.54,2.35,2.8,6.72-8.52,6.72-8.52-6.1,8-6.11,9.14,1.15,4.28,4.66.64a40.74,40.74,0,0,0,6-8.4s-9.29,9.35-5.7,10.05,8.77-6.27,9.57-8.92c-.79,1.5-1.49,2.66-2,3.47-.79,1.27-1.47,2.23-1.12,3.06a1,1,0,0,0,.48.54c.9.36,2.38-1.52,3-2.16a18.42,18.42,0,0,0,4.33-8.51c1.23-5.18-.26-6.76,1.1-12.81a32.93,32.93,0,0,1,1.18-4.05Z"/><path class="cls-5" d="M125.84,303.89a31.23,31.23,0,0,0,4-5.7,30.14,30.14,0,0,0,2.06-4.76"/><path class="cls-5" d="M129,306.84a19.59,19.59,0,0,0,1.95-1.72,24.85,24.85,0,0,0,2.22-2.28,14.67,14.67,0,0,0,1.94-2.86,13.56,13.56,0,0,0,1.44-4.83,27.55,27.55,0,0,1-2.83,5.81A56,56,0,0,1,129,306.84Z"/><path class="cls-5" d="M136.57,303.71c.05,0,.39-.38.94-1a12.56,12.56,0,0,0,1.05-1.33,8.14,8.14,0,0,0,.87-1.63,7.56,7.56,0,0,0,.51-2.75,22.31,22.31,0,0,1-1.2,2.95C137.68,302.1,136.48,303.65,136.57,303.71Z"/><path class="cls-7" d="M58.34,125.47c6.35,8.62,16.6,13,26.37,11.23,9.92-1.8,15.38-9.27,16.6-11l-4.45.11a22.63,22.63,0,0,1-16,7.37c-10.2.19-16.4-6.88-17.21-7.84Z"/><path d="M83.07,48.75c.9,1.39,5.47-1.49,11.56-2.11,7.4-.76,12.91,2.23,13.46,1,.31-.73-1.33-2.06-1.72-2.38-.83-.67-3.55-2.64-11.57-1.94-4.36.37-10.33.83-11.63,4.08C83,47.68,82.78,48.31,83.07,48.75Z"/><ellipse cx="91.84" cy="55.71" rx="2.84" ry="3.8"/><path d="M92.54,51.56a10.16,10.16,0,0,1,4.76,1.53,11.08,11.08,0,0,1,1.76,1.28c.23.32.22.43.19.48-.29.43-3.7-1.29-6.76-2a6.63,6.63,0,0,0-2.77.32h0c-1.9.56-2.3.55-2.34.46C87.28,53.39,89.62,51.57,92.54,51.56Z"/></g></g></svg>