<svg xmlns="http://www.w3.org/2000/svg" viewBox="0 0 153.9 565.76"><defs><style>.cls-1{fill:#c68642;}.cls-2{fill:#8fc699;}.cls-3{fill:#b7783e;}.cls-4{fill:#512902;}.cls-5{fill:#e2b3b6;}.cls-6{fill:#aa6f3a;}</style></defs><g id="Layer_2" data-name="Layer 2"><g id="Layer_1-2" data-name="Layer 1"><path class="cls-1" d="M41.94,509.92a92.84,92.84,0,0,1,.51,18.76,92.87,92.87,0,0,1-3.66,19.81c2.26,10.14,9.37,15.94,14.68,15.08,4.45-.73,7.42-6.09,7.63-6.5A14.38,14.38,0,0,0,62.57,548a122.24,122.24,0,0,1-2.85-19A121,121,0,0,1,60,508.84Z"/><path class="cls-1" d="M112.68,508.87a92.84,92.84,0,0,0,3.15,38.56c-2.26,10.14-9.36,16-14.68,15.08-4.45-.72-7.41-6.09-7.63-6.49a14.41,14.41,0,0,1-1.47-9.1,120.73,120.73,0,0,0,2.85-19,120.91,120.91,0,0,0-.25-20.13Z"/><path d="M111.94,560.24c-1.63,1.65-4.23,4.28-8.21,4.46-5.43.23-9.4-4.27-10.23-5.21-4.6-5.2-2.19-11-1.45-12.57,0,.67.1,4.64,4.78,7.29a13.86,13.86,0,0,0,6.42,1.89,13.66,13.66,0,0,0,12.58-8.81A14.05,14.05,0,0,1,111.94,560.24Z"/><path class="cls-1" d="M41.94,509.92a92.84,92.84,0,0,1,.51,18.76,92.87,92.87,0,0,1-3.66,19.81c2.26,10.14,9.37,15.94,14.68,15.08,4.45-.73,7.42-6.09,7.63-6.5A14.38,14.38,0,0,0,62.57,548a122.24,122.24,0,0,1-2.85-19A121,121,0,0,1,60,508.84Z"/><path class="cls-2" d="M17.73,255.87c-1.11,34.66-.82,72.34,1.64,112.59A1210.56,1210.56,0,0,0,36.6,510.83a23.34,23.34,0,0,0,27.7.2L76.93,339.31l10.76,171a32.33,32.33,0,0,0,13.36,5.2,32.77,32.77,0,0,0,18.19-2.6c5.81-46.63,10.46-96.22,13.37-148.51,2.11-37.88,3.15-74.4,3.34-109.43Z"/><path d="M96,100.71c4.45,9.09,16.56,12.76,23.52,17,8.36,5.09,16,15.12,10.88,36.94,0,0-16.61-17.37-26.88-23S85.77,99.62,85.77,99.62c1.9-4,4.35-8.27,6.32-8.13S93.86,96.24,96,100.71Z"/><rect class="cls-3" x="58.72" y="74.68" width="37.93" height="83.4"/><path class="cls-1" d="M114.36,27.2c11.1,12,9.52,27.75,8.63,36.71-.54,5.31-3.82,38.11-30.18,46.92-14.92,5-29.12-.43-32.77-2C35.72,98.64,31,72.07,29.32,62.41c-2.06-11.65-4.23-23.93,3.46-34.06C48.12,8.13,95.13,6.45,114.36,27.2Z"/><path d="M122.88,64.93a24.11,24.11,0,0,0-3.07-11C115,45.61,106.52,44.1,97.4,38.63c-5.6-3.35-12.87-9-19.73-19.24-4.27,8.53-9.28,13.16-13.16,15.83-3,2.06-4.89,2.68-11.8,7.07-5.29,3.37-7.93,5.05-10.17,7C34.79,56,30,64.54,29.66,64.27h0c-.46-.64-7.9-16.44,1.49-36.1A50.55,50.55,0,0,1,42.07,13,48.23,48.23,0,0,1,64.65,1.55C69.57.42,82.23-2.29,96.13,4.06c14.35,6.56,20.63,18.65,22.84,23.05C127.46,44,124.07,60.17,122.88,64.93Z"/><path d="M66.71,95.11A43.89,43.89,0,0,0,77.26,96.2a42.89,42.89,0,0,0,10.47-1.67,23.47,23.47,0,0,1-10.45,2.66A23.9,23.9,0,0,1,66.71,95.11Z"/><path class="cls-4" d="M66,53.76c-.86.72-2.48-.24-4.31-.84s-3.5-.55-6.94-.48c-7.5.13-13,4.73-13.34,4.14S44.28,53,48.7,51.64A15.94,15.94,0,0,1,53.09,51c1.51-.07,8.38-.41,11.42.15.84.15,1.6.41,1.85,1A1.5,1.5,0,0,1,66,53.76Z"/><ellipse cx="60.03" cy="65.26" rx="3.01" ry="4.45"/><path d="M65.63,64.05a8.25,8.25,0,0,0-2-2,7.72,7.72,0,0,0-5-1.4c-1.87.18-2,1.07-5.23,2.51-2.58,1.16-4.33,1.41-4.27,1.65s2.12.38,4.29-.24c2.76-.8,3.33-2.14,5.17-2.65C60,61.54,62.25,61.61,65.63,64.05Z"/><path d="M75.93,70.59a18.41,18.41,0,0,1-1.23,3.5c-1.31,2.8-3.55,4.24-3.45,6.16.14,2.6,4.49,4.23,4.53,4.18S72.13,82.8,72,80.29c0-1.09.52-1.41,1.75-3.49A17,17,0,0,0,75.93,70.59Z"/><path class="cls-5" d="M96.66,121.4a44.6,44.6,0,0,1,19.13,2.4,42.72,42.72,0,0,1,12.54,7c6.46,5.31,9.74,11.67,14,22.41a286.55,286.55,0,0,1,11.6,36.48l-23.62,7c-6.68,20.49-5.43,35.61-2.92,45.8,4.6,18.66,17,35.3,9.1,47.13a14.07,14.07,0,0,1-2,2.43s-.43.41-.89.78c-14.25,11.36-53.9,11.62-53.9,11.62-38,.26-51-2.68-60.2-10.78a21.61,21.61,0,0,1-3.39-3.61c-8.32-11.88,1.63-28.74,6.52-47.57,2.59-10,5-25.21,2.19-45.5L0,191.86c.74-2.38,1.85-6,3.13-10.53,2.15-7.55,2.56-10.06,3.74-13.51a86.27,86.27,0,0,1,7.46-17.1c3.74-6.38,10.44-17.24,23.56-24.41a47.11,47.11,0,0,1,20.83-5.54A146,146,0,0,0,67,138.91a143.76,143.76,0,0,0,9.74,15.59,82.48,82.48,0,0,0,20-33.1Z"/><path class="cls-1" d="M3.63,192.61q-.48,5.53-.88,11.2l-.27,4.05h0c0,.06,0,.9,0,1.74a196.34,196.34,0,0,0,1.41,27.9,227.25,227.25,0,0,0,10.94,46.8c2.27-.49,4.65-1.07,7.14-1.76s4.78-1.41,7-2.15l-5.22-23.22c-.85-2.66-2.62-8.15-2.91-12.52-.08-1.29-.09-2.59-.09-2.59.69-7.05,1.18-14.63,1.36-22.68s0-15.86-.35-23Z"/><path class="cls-1" d="M28.84,280.11a4.72,4.72,0,0,0,.95,2c.67.82,1.18.8,2.83,1.88,1.05.69,1.79,1.27,2.93,2.17a16.5,16.5,0,0,1,1.82,1.55c.68.69.77.93,1.42,1.61a25.76,25.76,0,0,0,2.05,1.79c1.29,1.16,2.45,2.2,2.32,2.91-.17,1-2.59.88-2.8.87a9.42,9.42,0,0,1-4.74-2c-2.36-1.81-1.54.57-1.54.57a9.89,9.89,0,0,0,1.22,4c1.25,2.58,4.06,8.23,4.62,9.53s.78,4.83-2.5,3-7.14-9.06-7.14-9.06,6.49,8.47,6.49,9.71-1.21,4.55-5,.69a43.23,43.23,0,0,1-6.33-8.93s9.87,9.94,6.06,10.67-9.32-6.65-10.16-9.47c.83,1.59,1.57,2.83,2.1,3.69.85,1.34,1.57,2.37,1.2,3.25a1.08,1.08,0,0,1-.51.57c-1,.39-2.53-1.61-3.17-2.3a19.56,19.56,0,0,1-4.6-9c-1.3-5.51.28-7.18-1.17-13.61A34.22,34.22,0,0,0,14,281.84Z"/><path class="cls-6" d="M36,308.9a32.4,32.4,0,0,1-4.24-6.06,31.5,31.5,0,0,1-2.19-5"/><path class="cls-6" d="M32.6,312a18.76,18.76,0,0,1-2.07-1.82,26.67,26.67,0,0,1-2.36-2.42,16.3,16.3,0,0,1-2.07-3,14.83,14.83,0,0,1-1.52-5.13,29.25,29.25,0,0,0,3,6.17A59.83,59.83,0,0,0,32.6,312Z"/><path class="cls-6" d="M24.56,308.72a6.55,6.55,0,0,1-1-1.09,15.57,15.57,0,0,1-1.12-1.42,8.56,8.56,0,0,1-.92-1.73,8.07,8.07,0,0,1-.54-2.92,23.05,23.05,0,0,0,1.27,3.14C23.38,307,24.65,308.65,24.56,308.72Z"/><path class="cls-1" d="M148.54,191.31c.49,5.15,1,11.73,1.06,19.39a230.93,230.93,0,0,1-1.36,29.65,227.92,227.92,0,0,1-10.93,46.8c-2.28-.49-4.66-1.07-7.14-1.76s-4.79-1.41-7-2.16L128.42,260c.84-2.66,2.62-8.16,2.9-12.53.08-1.29.09-2.58.09-2.58,0-2.7-.47-4.77-.81-14.3-.29-8.28-.43-9.59-.5-11.57,0-.63,0-1.27,0-1.91a161.08,161.08,0,0,1,1-20.78Z"/><path class="cls-1" d="M123.25,283a4.89,4.89,0,0,1-1,2c-.67.82-1.18.8-2.83,1.88-1,.69-1.79,1.27-2.93,2.16a20,20,0,0,0-1.82,1.56c-.68.69-.76.92-1.41,1.61-.84.87-1.12.95-2.06,1.79-1.28,1.15-2.45,2.2-2.32,2.91.18,1,2.6.87,2.8.86a9.34,9.34,0,0,0,4.74-1.94c2.37-1.81,1.54.57,1.54.57a9.93,9.93,0,0,1-1.22,4c-1.25,2.58-4.06,8.23-4.62,9.53s-.77,4.82,2.5,3,7.14-9.06,7.14-9.06-6.48,8.47-6.49,9.71,1.22,4.55,5,.69a43.23,43.23,0,0,0,6.33-8.93s-9.87,9.94-6.06,10.67,9.32-6.65,10.17-9.47c-.84,1.59-1.58,2.83-2.11,3.68-.84,1.35-1.57,2.37-1.19,3.26a1,1,0,0,0,.51.57c1,.39,2.53-1.61,3.16-2.3a19.51,19.51,0,0,0,4.6-9c1.3-5.5-.27-7.17,1.17-13.6a36,36,0,0,1,1.25-4.31Z"/><path class="cls-6" d="M116.12,311.75a32.4,32.4,0,0,0,4.24-6.06,30.68,30.68,0,0,0,2.19-5.06"/><path class="cls-6" d="M119.48,314.88a18.93,18.93,0,0,0,2.07-1.82,30,30,0,0,0,2.37-2.42,16.38,16.38,0,0,0,2.06-3,14.69,14.69,0,0,0,1.52-5.13,28.76,28.76,0,0,1-3,6.17A58.35,58.35,0,0,1,119.48,314.88Z"/><path class="cls-6" d="M127.52,311.56s.42-.4,1-1.08a15.18,15.18,0,0,0,1.12-1.42,8.56,8.56,0,0,0,.92-1.73,7.86,7.86,0,0,0,.54-2.92,23.05,23.05,0,0,1-1.27,3.14C128.7,309.85,127.43,311.5,127.52,311.56Z"/><path class="cls-4" d="M84.33,53.76c.85.72,2.48-.24,4.3-.84s3.51-.55,7-.48c7.5.13,13,4.73,13.33,4.14S106,53,101.61,51.64A16,16,0,0,0,97.22,51c-1.51-.07-8.39-.41-11.43.15-.84.15-1.59.41-1.84,1A1.48,1.48,0,0,0,84.33,53.76Z"/><ellipse cx="90.27" cy="65.26" rx="3.01" ry="4.45"/><path d="M84.67,64.05a8.26,8.26,0,0,1,2-2,7.67,7.67,0,0,1,5-1.4c1.87.18,2,1.07,5.24,2.51,2.57,1.16,4.33,1.41,4.27,1.65s-2.12.38-4.29-.24c-2.76-.8-3.33-2.14-5.17-2.65C90.27,61.54,88.06,61.61,84.67,64.05Z"/><path d="M42.68,561.29c1.63,1.65,4.23,4.29,8.22,4.46,5.43.23,9.4-4.27,10.22-5.21,4.6-5.2,2.19-11,1.45-12.56,0,.67-.1,4.63-4.78,7.28a13.57,13.57,0,0,1-6.42,1.89,13.67,13.67,0,0,1-12.58-8.8A14.07,14.07,0,0,0,42.68,561.29Z"/><path d="M42.68,561.29c1.63,1.65,4.23,4.29,8.22,4.46,5.43.23,9.4-4.27,10.22-5.21,4.6-5.2,2.19-11,1.45-12.56,0,.67-.1,4.63-4.78,7.28a13.57,13.57,0,0,1-6.42,1.89,13.67,13.67,0,0,1-12.58-8.8A14.07,14.07,0,0,0,42.68,561.29Z"/></g></g></svg>