<svg xmlns="http://www.w3.org/2000/svg" viewBox="0 0 1923.8 1088.3">
  <defs>
    <style>
      .cls-1 {
        fill: #17c3b2;
        opacity: 0.31;
      }

      .cls-2 {
        fill: #fef9ef;
      }

      .cls-3, .cls-4, .cls-5, .cls-7 {
        fill: none;
        stroke-miterlimit: 10;
      }

      .cls-3 {
        stroke: #848484;
      }

      .cls-3, .cls-4, .cls-5 {
        stroke-width: 2px;
      }

      .cls-4, .cls-7 {
        stroke: #227c9d;
      }

      .cls-5 {
        stroke: #6c6e71;
      }

      .cls-6 {
        fill: #227c9d;
      }

      .cls-7 {
        stroke-width: 14px;
      }
    </style>
  </defs>
  <g id="Layer_2" data-name="Layer 2">
    <g id="Layer_1-2" data-name="Layer 1">
      <g>
        <rect class="cls-1" x="1.1" width="1921.48" height="1088.3"/>
        <path class="cls-2" d="M999.62,208.59s-3.73-9.94-69.53-10.56-55.88,8.07-77.6,0-44.08-3.16-61.46,0-50.29.54-65.19-4.37-9.31-3.78-18,0-26.07,9.15-33.52,5.84-1.24-8.89-19.25-4.54-31-7.28-39.73-4.57-9.31-7.85-23.59-4.12-21.11,14.28-38.49,6.21c0,0-3.72-8.69-18.62-.62s-32.29-6.83-37.25-2.49-34.77,3.73-51.53,0-5.59-9.06-24.21-3.91c0,0-10.55-19.06-23.59-14.71,0,0-11.8-14.28-25.45-9.93,0,0-8.69-9.1-18-.83,0,0-14.9,3.93-19.24,13.24,0,0-9.31,6.83-23.59,1.24,0,0-6.21-9.93-11.8-5.58,0,0-7.45-11.8-21.73-7.45s-22.34-1.87-29.17,14.27a81.71,81.71,0,0,1-20.49,1.25c-12.42-.62-34.14-9.94-44.7,2.48,0,0-10.55-3.73-23,7.45,0,0,4.35,12.42-26.69,13,0,0-12.42,1.86-34.15-1.25,0,0-46.55-3.1-52.14,5.59,0,0-34.15,5-9.94,8.07s54-9.31,62.71-3.72,34.49,9.65,39.73,0c0,0,50.28,5,72.63-1.24,0,0,35.39-3.73,42.84,2.48s21.1,1.86,24.83-1.24,21.11,6.83,47.18-.62,31.66,5.58,65.8,0c0,0,9.32,8.69,42.84,3.1s43.46.62,52.77.62,24.83-3.72,42.21-1.24,43.46-6.21,53.39-.62,37.25,0,53.39-.62,60.22-.79,88.15,5.19,83.81,0,83.81,0a452.82,452.82,0,0,1,61.46-4.57c21.67-.14,32.22,1.34,53.39,1.86A572.36,572.36,0,0,0,999.62,208.59Z"/>
        <path class="cls-2" d="M1415.51,139c12.36-.27,13.42-3.88,25.82-3.93,9,0,10.16,1.83,21.58,1.75,5.67,0,16.8-.6,17.08-2.45.22-1.46-6.58-3.24-17.17-5.67-26.3-6-39.45-9-49.3-9.62-18.63-1.09-16.77,2.46-47.1,2.51-26.33.06-33.15-2.61-36.74-4.35-10.62-5.17-9.7-10.46-21.24-14.71-12.88-4.74-20.75.94-26.06-5-4-4.53-.76-23.15-25.62-25.17,0,0-10.47-10.57-25.52,0s-24.2,5.37-30.74,31.37c0,0,1.31,7.72-12.43,0a23.28,23.28,0,0,1-16.35-2.18c-8.51-4.53-8.51,6.55-41.87,5s-24.2,18.11-16.36,20.63-11.12-1-19.62,4-12.43-3-20.28,2-30.74.5-34.67,2-50.37,1-24.86,4.53,58.88-1,75.23,0,87.66-5,96.82-2.51c42.08,11.56,66-1.41,79.15-1,51.45,1.55,71.54,6.63,96.27,2.18,6.88-1.23,17.74-3.86,32.43-2.28C1403.93,137.19,1406.19,139.18,1415.51,139Z"/>
        <path class="cls-2" d="M662.22,319.51s2.38-6.34,44.38-6.74,35.66,5.15,49.53,0,28.13-2,39.22,0,32.1.35,41.61-2.79,5.94-2.41,11.49,0,16.64,5.84,21.39,3.73.8-5.67,12.29-2.9,19.81-4.64,25.36-2.91,5.94-5,15-2.63,13.47,9.11,24.57,4c0,0,2.38-5.55,11.89-.4s20.6-4.36,23.77-1.58,22.19,2.37,32.89,0,3.56-5.79,15.45-2.5c0,0,6.73-12.16,15.05-9.39,0,0,7.53-9.11,16.25-6.34,0,0,5.55-5.8,11.49-.52,0,0,9.51,2.5,12.28,8.44,0,0,6,4.36,15.06.8,0,0,4-6.34,7.53-3.57a12.22,12.22,0,0,1,13.87-4.75c9.11,2.77,14.26-1.19,18.62,9.11a52.13,52.13,0,0,0,13.07.79c7.93-.39,21.8-6.34,28.53,1.59,0,0,6.74-2.38,14.66,4.75,0,0-2.77,7.93,17,8.32,0,0,7.92,1.19,21.79-.79,0,0,29.72-2,33.29,3.57,0,0,21.79,3.17,6.33,5.15s-34.47-5.95-40-2.38-22,6.16-25.36,0c0,0-32.1,3.17-46.36-.79,0,0-22.59-2.38-27.34,1.58s-13.47,1.19-15.85-.79-13.47,4.36-30.11-.4-20.21,3.57-42,0c0,0-6,5.55-27.34,2s-27.74.4-33.68.4-15.85-2.38-26.94-.79-27.74-4-34.08-.4-23.77,0-34.07-.39-38.44-.51-56.27,3.31-53.49,0-53.49,0a289.48,289.48,0,0,0-39.22-2.92c-13.83-.09-20.57.86-34.08,1.19A364.83,364.83,0,0,1,662.22,319.51Z"/>
        <path class="cls-2" d="M1430.83,279.58c-14-.14-15.21-2-29.26-2-10.15,0-11.52.94-24.47.9-6.42,0-19-.31-19.36-1.26-.25-.75,7.46-1.66,19.47-2.91,29.8-3.1,44.71-4.64,55.87-4.94,21.11-.56,19,1.26,53.38,1.29,29.85,0,37.58-1.34,41.65-2.24,12-2.65,11-5.36,24.08-7.55,14.59-2.43,23.51.48,29.53-2.58,4.57-2.33.87-11.89,29-12.92,0,0,11.86-5.43,28.92,0s27.43,2.76,34.85,16.11c0,0-1.49,4,14.08,0a56.44,56.44,0,0,0,18.54-1.12c9.64-2.33,9.64,3.36,47.45,2.58s27.44,9.3,18.54,10.6,12.6-.52,22.24,2.06,14.09-1.55,23,1,34.85.25,39.29,1,57.1.52,28.18,2.33-66.73-.52-85.27,0-99.35-2.59-109.73-1.3c-47.7,5.94-74.86-.72-89.72-.51-58.31.79-81.08,3.4-109.11,1.12a252.34,252.34,0,0,0-36.76-1.17C1444,278.67,1441.39,279.68,1430.83,279.58Z"/>
        <g>
          <g>
            <g>
              <g>
                <path class="cls-3" d="M1529,924.43Q1587.43,842,1645.86,759.5"/>
                <path class="cls-3" d="M1543.41,931.4l104.44-172.15"/>
              </g>
              <g>
                <path class="cls-3" d="M1756.63,933.27l-91.18-171.18"/>
                <path class="cls-3" d="M1771.24,923.69Q1718.67,842,1666.07,760.26"/>
              </g>
              <g>
                <g>
                  <path class="cls-4" d="M1555.11,547.15l87.78,180"/>
                  <path class="cls-4" d="M1538.46,554.1,1638.9,726.43"/>
                </g>
                <g>
                  <path class="cls-4" d="M1602.72,531.34l46.11,198.58"/>
                  <path class="cls-4" d="M1585.53,534.12l62.2,197.44"/>
                </g>
                <g>
                  <path class="cls-4" d="M1659.93,525.47q-3,101.87-6.1,203.72"/>
                  <path class="cls-4" d="M1643.8,525.75l8.55,204.74"/>
                </g>
                <g>
                  <path class="cls-4" d="M1720,536.83q-31.35,98.31-62.68,196.62"/>
                  <path class="cls-4" d="M1704.22,531.3l-48.66,203"/>
                </g>
                <g>
                  <path class="cls-4" d="M1769.4,559.66,1663.35,724.47"/>
                  <path class="cls-4" d="M1755.13,553.4l-93.69,171.38"/>
                </g>
                <g>
                  <path class="cls-4" d="M1811,594.66,1667.36,726.3"/>
                  <path class="cls-4" d="M1798.87,584.87,1665.45,726.1"/>
                </g>
                <g>
                  <path class="cls-4" d="M1843.7,643.26,1669,730.39"/>
                  <path class="cls-4" d="M1834.78,630.52l-167.55,99.15"/>
                </g>
                <g>
                  <path class="cls-4" d="M1863.14,698,1673.4,735.43"/>
                  <path class="cls-4" d="M1859.49,683.58l-187.61,50.7"/>
                </g>
                <g>
                  <path class="cls-4" d="M1867.84,752.52l-193-12.93"/>
                  <path class="cls-4" d="M1866.52,737.23l-192.83.86"/>
                </g>
                <g>
                  <path class="cls-4" d="M1857.08,808.23l-184.56-57.71"/>
                  <path class="cls-4" d="M1859.39,793.06l-187.66-44.28"/>
                </g>
                <g>
                  <path class="cls-4" d="M1834.2,860l-163.5-103.8"/>
                  <path class="cls-4" d="M1840.05,845.94q-84.85-45.8-169.69-91.61"/>
                </g>
                <g>
                  <path class="cls-4" d="M1797.07,903.15q-64.71-72-129.43-143.95"/>
                  <path class="cls-4" d="M1808,892.54,1667.82,757.28"/>
                </g>
                <g>
                  <path class="cls-4" d="M1586.87,949.86q32.2-96.66,64.4-193.33"/>
                  <path class="cls-4" d="M1602.55,956.47l50.52-200.74"/>
                </g>
                <g>
                  <path class="cls-4" d="M1488.31,889.53l150.41-130.4"/>
                  <path class="cls-4" d="M1500.32,902.86l140.39-143.54"/>
                </g>
                <g>
                  <path class="cls-4" d="M1444.63,667.86,1641.35,734"/>
                  <path class="cls-4" d="M1439,684.18l203.24,51.72"/>
                </g>
                <g>
                  <path class="cls-4" d="M1470.13,617.91l167.58,113.52"/>
                  <path class="cls-4" d="M1463.44,630.87l174.65,102.56"/>
                </g>
                <g>
                  <path class="cls-4" d="M1512.48,574.35q63.9,79.35,127.78,158.71"/>
                  <path class="cls-4" d="M1496.81,587.57l140.73,146"/>
                </g>
                <g>
                  <path class="cls-4" d="M1452,834.79l184.88-80.61"/>
                  <path class="cls-4" d="M1460.77,850,1638.71,755"/>
                </g>
                <g>
                  <path class="cls-4" d="M1434.54,786.22l204.85-37.73"/>
                  <path class="cls-4" d="M1439.42,802.35,1641,749.79"/>
                </g>
                <g>
                  <path class="cls-4" d="M1431.79,724.43l200.59,17.38"/>
                  <path class="cls-4" d="M1432.1,740.74l201.4,2.69"/>
                </g>
                <g>
                  <path class="cls-4" d="M1704.42,954.31l-47.7-200.52"/>
                  <path class="cls-4" d="M1718.82,948q-30.51-97.94-61-195.86"/>
                </g>
              </g>
              <ellipse class="cls-5" cx="1649.5" cy="742.86" rx="218.18" ry="217.63"/>
              <ellipse class="cls-6" cx="1651.7" cy="742.74" rx="23.66" ry="23.6"/>
              <ellipse class="cls-7" cx="1652.63" cy="740.74" rx="218.18" ry="217.63"/>
              <rect class="cls-6" x="1639.07" y="749.24" width="26.58" height="301.64"/>
              <ellipse class="cls-6" cx="1649.5" cy="505.12" rx="16.56" ry="16.52"/>
              <ellipse class="cls-6" cx="1587.43" cy="514.78" rx="16.56" ry="16.52"/>
              <ellipse class="cls-6" cx="1538.46" cy="536.83" rx="16.56" ry="16.52"/>
              <ellipse class="cls-6" cx="1492.85" cy="568.35" rx="16.56" ry="16.52"/>
              <ellipse class="cls-6" cx="1452" cy="614.01" rx="16.56" ry="16.52"/>
              <ellipse class="cls-6" cx="1428.07" cy="669.61" rx="16.56" ry="16.52"/>
              <ellipse class="cls-6" cx="1417.98" cy="733.06" rx="16.56" ry="16.52"/>
              <ellipse class="cls-6" cx="1422.44" cy="794.48" rx="16.56" ry="16.52"/>
              <ellipse class="cls-6" cx="1442.18" cy="847.68" rx="16.56" ry="16.52"/>
              <ellipse class="cls-6" cx="1483.77" cy="902.86" rx="16.56" ry="16.52"/>
              <ellipse class="cls-6" cx="1528.99" cy="940.95" rx="16.56" ry="16.52"/>
              <ellipse class="cls-6" cx="1588.68" cy="966.37" rx="16.56" ry="16.52"/>
              <ellipse class="cls-6" cx="1712.98" cy="513.79" rx="16.56" ry="16.52"/>
              <ellipse class="cls-6" cx="1761.94" cy="535.84" rx="16.56" ry="16.52"/>
              <ellipse class="cls-6" cx="1807.56" cy="567.36" rx="16.56" ry="16.52"/>
              <ellipse class="cls-6" cx="1848.4" cy="613.02" rx="16.56" ry="16.52"/>
              <ellipse class="cls-6" cx="1872.33" cy="668.62" rx="16.56" ry="16.52"/>
              <ellipse class="cls-6" cx="1882.42" cy="732.07" rx="16.56" ry="16.52"/>
              <ellipse class="cls-6" cx="1877.97" cy="793.49" rx="16.56" ry="16.52"/>
              <ellipse class="cls-6" cx="1858.22" cy="846.69" rx="16.56" ry="16.52"/>
              <ellipse class="cls-6" cx="1816.64" cy="901.87" rx="16.56" ry="16.52"/>
              <ellipse class="cls-6" cx="1771.41" cy="939.96" rx="16.56" ry="16.52"/>
              <ellipse class="cls-6" cx="1711.72" cy="965.38" rx="16.56" ry="16.52"/>
              <path class="cls-6" d="M1502,1034.23l-22.24,3.7,158.09-298.36,15,8.26Q1577.44,891,1502,1034.23Z"/>
              <path class="cls-6" d="M1800.11,1033.28l21.46,4L1661.56,740l-14.15,7.9Z"/>
            </g>
            <path class="cls-6" d="M401.75,1024.73l-3.21-294c-4.58-.06-24-.57-28.36-9.31-4.62-9.31,10.56-22.5,19.26-29.91,42.21-35.92,112.1-59,187.7-55.08,21.27,1.1,48,2.71,52.27,14.28,3.64,10-10.36,24.8-33.41,37.4q1.59,169.56,3.17,339.12Z"/>
            <path class="cls-6" d="M784.12,1017.51c5.48-.5,29.94-.76,35.39-.38V1087H0v-80.22H73.09v-89h51.64V845h39.65V1014.3h15.67V927.6h40.57V687.35h51.64V825.93h40.52l39.7,50.83V992.54h81.14v-67.3H488v64.94h20.29V874.48L535,840.24h39.65V948.85h60.86v-46h51V809.87l22.81-29.2h53L784,808.47v76.26Z"/>
            <path class="cls-6" d="M1457,884.73V1087H793.31v-69.85l12.41.15-1.5-160.5h51.17V664.92l41-52.53V565.65h66.39V686.48h64.54V870.73h35.05V547.57L1165.67,591V705.83h53.47v55H1280V917.79h27.66V823.5l92.21-15v76.26Z"/>
          </g>
          <rect class="cls-6" x="1437.5" y="1017.51" width="486.3" height="69.47"/>
        </g>
      </g>
    </g>
  </g>
</svg>
