<svg xmlns="http://www.w3.org/2000/svg" xmlns:xlink="http://www.w3.org/1999/xlink" viewBox="0 0 397.53 116.68"><defs><style>.cls-1,.cls-5{fill:none;}.cls-2{fill:#f9b03a;}.cls-3{fill:#ce8e32;}.cls-4{fill:#e59b39;}.cls-10,.cls-11,.cls-5,.cls-8,.cls-9{stroke:#c6d5db;stroke-width:3px;}.cls-10,.cls-5,.cls-8,.cls-9{stroke-miterlimit:10;}.cls-6{fill:#c6d5db;}.cls-7,.cls-9{fill:#fff;}.cls-10,.cls-8{fill:#efefef;}.cls-10{opacity:0.27;}.cls-11,.cls-12{fill:#848484;}.cls-11{stroke-linecap:round;stroke-linejoin:round;}.cls-13{fill:#8c4714;}.cls-14{fill:#8d5524;}.cls-15{clip-path:url(#clip-path);}.cls-16{fill:#4989ce;}.cls-17{fill:#76a3cc;}.cls-18{fill:#f26608;}.cls-19{fill:#eaeaea;}</style><clipPath id="clip-path" transform="translate(-20.23)"><path class="cls-1" d="M300.84,83.51l-16.5,1.41c-5.65-6-14.24-12-19.71-18l16.56-1.5C286.14,71.47,294.72,77.49,300.84,83.51Z"/></clipPath></defs><g id="Layer_2" data-name="Layer 2"><g id="Layer_1-2" data-name="Layer 1"><path class="cls-2" d="M406.87,43.58a19.82,19.82,0,0,1,7.71,5.05c1.66,1.79,3.38,3.63,3.16,5.44-.45,3.87-9.41,5.93-16.42,7.49-14,3.1-26.15,3.25-39.1,3.4-2.16,0-4.38.06-6.81,0-4.7-.16-7.64-.59-13.37-.72-6.2-.14-26.46-.58-37.22.32a7.08,7.08,0,0,1-4.61-.89c-2.79-1.88-2.79-6.13-2.59-8.46l2.1,0A46.14,46.14,0,0,1,301,35.3a48.07,48.07,0,0,1,16.36-24.38C332.43-1,350.11-.13,355.84.11c5.88.24,19.41,1,31.91,10.39C403.7,22.41,406.36,39.54,406.87,43.58Z" transform="translate(-20.23)"/><path class="cls-3" d="M302.88,55.28c0,.39,19.59,2.35,44.21.39,32.72-2.61,57.45-10.79,57.36-11.19s-20.35,5.71-51.21,8.86C324,56.33,302.88,54.88,302.88,55.28Z" transform="translate(-20.23)"/><path class="cls-4" d="M314.8,34.49a49.75,49.75,0,0,1,17.08-15.3c3.12-1.68,19.84-10.66,37.42-3.38a39.39,39.39,0,0,1,15.47,11.72,53,53,0,0,0-35.11-10.26C329.43,18.8,317.31,31.71,314.8,34.49Z" transform="translate(-20.23)"/><path class="cls-5" d="M244.71,79.49l-1.05.09c-1.1-1-2.24-1.93-3.38-2.89l1.05-.09C242.47,77.56,243.61,78.53,244.71,79.49Z" transform="translate(-20.23)"/><path class="cls-6" d="M294,74.08h0c8.8,7.07,8.93,13.25,2,13.79l-19.67,1.6c-6.55.54-15.36-4.69-24-11.66h0c-8.72-7-8.58-13.09-1.67-13.68l19.59-1.76C276.79,61.77,285.32,67,294,74.08Z" transform="translate(-20.23)"/><path class="cls-7" d="M301.64,83.44q-8.22.72-16.49,1.41c-5.68-6-14.27-12-19.72-18L282,65.37C286.93,71.39,295.5,77.42,301.64,83.44Z" transform="translate(-20.23)"/><path d="M250.92,73.75c-.62-.53-1.23-1.06-1.82-1.59h.19l.89.78-.18-.85.26,0c0,.23.08.46.13.7l1.72.88-.26,0-1.43-.75a2.56,2.56,0,0,0,.05.27l.64.55Z" transform="translate(-20.23)"/><path d="M251.39,72l.19,0,1,.92a2.36,2.36,0,0,1,.39.38c.08.1.11.18.09.25s-.09.1-.23.11a1,1,0,0,1-.42,0,2.2,2.2,0,0,1-.44-.21,4.11,4.11,0,0,1-.52-.39l-1-.92h.19l1,.91a3,3,0,0,0,.39.3,1,1,0,0,0,.29.14.93.93,0,0,0,.27,0c.14,0,.2-.06.18-.14a1.44,1.44,0,0,0-.38-.41Z" transform="translate(-20.23)"/><path d="M253.71,73.5c-.61-.53-1.22-1.06-1.81-1.59l.28,0L253.8,73l.34.23-.22-.26L253,71.81l.26,0c.59.53,1.2,1.06,1.81,1.59h-.18c-.52-.44-1-.88-1.52-1.33.36.46.73.91,1.1,1.37h-.17l-2-1.31,1.55,1.35Z" transform="translate(-20.23)"/><path d="M255.23,73.36c-.43-.54-.85-1.09-1.26-1.64h.21l2.39,1.53-.21,0-.72-.47-.61.06c.14.16.27.33.4.49Zm-.34-.69.49,0-.65-.43-.47-.32.26.31Z" transform="translate(-20.23)"/><path d="M256.73,73.23l-1.81-1.59.64-.06a1.19,1.19,0,0,1,.34,0,1.4,1.4,0,0,1,.33.13,2,2,0,0,1,.33.24.63.63,0,0,1,.22.29c0,.09,0,.14-.14.18a.86.86,0,0,1,.21.07l.4.19.75.41-.24,0-.57-.32-.39-.21a1.46,1.46,0,0,0-.22-.09l-.13,0h-.12l-.22,0,.81.71Zm-.83-.91.41,0a.34.34,0,0,0,.17-.05s0-.06,0-.11l-.13-.15a.88.88,0,0,0-.28-.17.57.57,0,0,0-.31,0l-.46,0Z" transform="translate(-20.23)"/><path d="M258.73,73.05l-1.8-1.59.2,0,2.16,1.18-1.4-1.25h.18L259.86,73h-.19c-.73-.39-1.46-.78-2.17-1.18.46.42.94.83,1.41,1.25Z" transform="translate(-20.23)"/><path d="M260,72.93c-.43-.55-.84-1.09-1.24-1.64l.2,0,2.38,1.54-.21,0-.72-.47-.6.06.39.49Zm-.33-.69.49,0-.65-.43-.47-.32.26.31Z" transform="translate(-20.23)"/><path d="M261.41,72.81l-.23-.2c-.14-.36-.27-.72-.4-1.08a1.15,1.15,0,0,1-.06-.21l-.81.08-.21-.19,1-.09.2.18.43,1.18,0,.12.92-.08.22.18Z" transform="translate(-20.23)"/><path d="M262.76,72.68c-.61-.53-1.21-1.06-1.79-1.59l.64,0a1,1,0,0,1,.34,0,1,1,0,0,1,.32.14,2.13,2.13,0,0,1,.33.23.64.64,0,0,1,.22.3c0,.08,0,.14-.14.17l.2.07.4.2.74.41-.24,0-.56-.31-.39-.21-.22-.1-.13,0h-.11l-.22,0,.8.71Zm-.82-.9.41,0a.28.28,0,0,0,.17,0s0-.06,0-.1a.79.79,0,0,0-.12-.15,1.67,1.67,0,0,0-.28-.18.72.72,0,0,0-.32-.05l-.46,0Z" transform="translate(-20.23)"/><path d="M263.37,70.88l.19,0,1,.92a2.61,2.61,0,0,1,.38.39.28.28,0,0,1,.08.24c0,.07-.09.11-.23.12a1,1,0,0,1-.42,0,1.72,1.72,0,0,1-.44-.2,4.58,4.58,0,0,1-.5-.4c-.35-.3-.69-.61-1-.92l.19,0,1,.92.38.31a1.35,1.35,0,0,0,.3.14.6.6,0,0,0,.26,0c.14,0,.2-.06.18-.13a1.18,1.18,0,0,0-.36-.41Z" transform="translate(-20.23)"/><path d="M265.65,72.42c-.61-.53-1.2-1.06-1.78-1.59l.19,0,1.56,1.41.71-.07.22.19Z" transform="translate(-20.23)"/><path d="M256.13,77.42l.22.19-1,.08a.8.8,0,0,1-.13-.13.74.74,0,0,1-.13-.22,1,1,0,0,1-.06-.26,1.07,1.07,0,0,0-.08-.37.72.72,0,0,0-.19-.24,1.23,1.23,0,0,0-.31-.19.56.56,0,0,0-.29-.06c-.08,0-.12,0-.1.1s.08.14.2.24h-.21a.77.77,0,0,1-.26-.35c0-.09,0-.14.19-.15a1,1,0,0,1,.47.1,1.54,1.54,0,0,1,.49.3,1.13,1.13,0,0,1,.19.19.78.78,0,0,1,.11.2,1.13,1.13,0,0,1,.06.31,1.43,1.43,0,0,0,0,.21.61.61,0,0,0,.05.12Z" transform="translate(-20.23)"/><path d="M257.21,77.54H257l-1.46-1.24a.38.38,0,0,1,0,.15.35.35,0,0,1-.07.12l-.22-.19a.3.3,0,0,0,0-.21.52.52,0,0,0-.1-.23h.12Z" transform="translate(-20.23)"/><path d="M257.64,77l-.23-.19.54,0,.23.19Z" transform="translate(-20.23)"/><path d="M259.25,77.36c-.44-.55-.88-1.1-1.33-1.64l.21,0,2.46,1.54-.21,0-.74-.47-.6,0,.41.5Zm-.36-.69.49,0-.67-.42-.49-.32a4.12,4.12,0,0,1,.28.31Z" transform="translate(-20.23)"/><path d="M260.74,77.22l-1.87-1.59.54,0h.23a1.31,1.31,0,0,1,.27.06,1.94,1.94,0,0,1,.3.14l.3.22a.93.93,0,0,1,.29.35c0,.1-.06.16-.26.18l-.37,0,.76.65Zm-.79-.85.37,0c.12,0,.18,0,.17-.1a.45.45,0,0,0-.17-.22,1.38,1.38,0,0,0-.25-.17.91.91,0,0,0-.23-.08h-.19l-.37,0Z" transform="translate(-20.23)"/><path d="M262.09,77.1l-1.88-1.58.63-.06a1.33,1.33,0,0,1,.35,0,1.47,1.47,0,0,1,.33.14,2.24,2.24,0,0,1,.34.23.84.84,0,0,1,.25.3c0,.08,0,.14-.14.17l.21.07.41.2.76.41-.24,0-.58-.31-.4-.21-.22-.1-.13,0h-.12l-.22,0,.84.71Zm-.86-.9.4,0c.09,0,.15,0,.17,0s0-.06,0-.1a.58.58,0,0,0-.13-.15,1.75,1.75,0,0,0-.29-.18.72.72,0,0,0-.32-.05l-.45,0Z" transform="translate(-20.23)"/><path d="M263.43,76.46l-.23-.2.54-.05.23.2Z" transform="translate(-20.23)"/><path d="M266,76.55l.22.19-.95.08a.89.89,0,0,1-.14-.13.74.74,0,0,1-.13-.22,1.07,1.07,0,0,1-.06-.27,1.07,1.07,0,0,0-.08-.36.64.64,0,0,0-.2-.24,1.17,1.17,0,0,0-.3-.19.75.75,0,0,0-.29-.07c-.09,0-.12,0-.11.11a.72.72,0,0,0,.2.24h-.2a.77.77,0,0,1-.27-.35c0-.09.05-.13.19-.15a1,1,0,0,1,.48.1,2.22,2.22,0,0,1,.49.3,1.75,1.75,0,0,1,.19.2.78.78,0,0,1,.11.2,1.42,1.42,0,0,1,.06.3,1.41,1.41,0,0,0,0,.22.37.37,0,0,0,.05.11Z" transform="translate(-20.23)"/><path d="M265.43,75.94a4.44,4.44,0,0,1-.48-.46.48.48,0,0,1-.16-.28q0-.11.15-.12a.92.92,0,0,1,.26,0,2,2,0,0,1,.32.13,3.13,3.13,0,0,1,.37.23c.13.09.29.22.47.37a3.88,3.88,0,0,1,.49.46.63.63,0,0,1,.16.28q0,.1-.15.12a1,1,0,0,1-.53-.14A4.41,4.41,0,0,1,265.43,75.94Zm.18,0a5.2,5.2,0,0,0,.7.52.86.86,0,0,0,.36.11c.08,0,.09-.06.05-.15a2.87,2.87,0,0,0-.54-.53,4.22,4.22,0,0,0-.7-.51.59.59,0,0,0-.35-.11c-.08,0-.11,0-.06.13A2.53,2.53,0,0,0,265.61,75.92Z" transform="translate(-20.23)"/><path d="M268.14,76.57H268l-1.47-1.24a.34.34,0,0,1,0,.14.22.22,0,0,1-.07.12l-.22-.19a.3.3,0,0,0,0-.21.4.4,0,0,0-.1-.22h.12Z" transform="translate(-20.23)"/><path d="M267,75.14l-.22-.19.93-.08.18.15a2.29,2.29,0,0,0,.24.46,6.31,6.31,0,0,0,.44.57c.12.13.27.28.45.44l-.18,0c-.15-.13-.3-.28-.47-.46a5.91,5.91,0,0,1-.43-.53,2.37,2.37,0,0,1-.23-.44Z" transform="translate(-20.23)"/><path d="M260,80.72l.25,0a.76.76,0,0,1,.22.42c0,.1-.08.15-.23.17a1.14,1.14,0,0,1-.5-.08,2.65,2.65,0,0,1-.56-.28,4.44,4.44,0,0,1-.55-.42,2.17,2.17,0,0,1-.4-.44c-.08-.12-.11-.23-.07-.3s.11-.11.24-.12a1,1,0,0,1,.5.09,2.65,2.65,0,0,1,.59.32l-.13.06a2.44,2.44,0,0,0-.43-.24.83.83,0,0,0-.33-.05c-.11,0-.17,0-.18.11a.37.37,0,0,0,.11.25,2.12,2.12,0,0,0,.3.3,3.43,3.43,0,0,0,.45.35,1.45,1.45,0,0,0,.41.21.72.72,0,0,0,.33.06c.11,0,.16,0,.16-.13A.56.56,0,0,0,260,80.72Z" transform="translate(-20.23)"/><path d="M260.32,80.67c-.23-.21-.36-.38-.37-.49s.06-.14.19-.15a1,1,0,0,1,.53.12,2.83,2.83,0,0,1,.62.42,2.37,2.37,0,0,1,.33.35c.05.09.07.16,0,.22s-.08.08-.18.09a1,1,0,0,1-.52-.13A2.56,2.56,0,0,1,260.32,80.67Zm.19,0A2,2,0,0,0,261,81a1,1,0,0,0,.35.09c.09,0,.12,0,.09-.13a.94.94,0,0,0-.28-.35,2.15,2.15,0,0,0-.45-.31.69.69,0,0,0-.35-.09c-.09,0-.12,0-.09.13A.86.86,0,0,0,260.51,80.65Z" transform="translate(-20.23)"/><path d="M262.16,81.14,260.87,80H261l.19.16c-.07-.13,0-.21.12-.22a.82.82,0,0,1,.21,0,.79.79,0,0,1,.23.09,1.64,1.64,0,0,1,.22.14l.23.19.79.71h-.18l-.78-.7a1.66,1.66,0,0,0-.22-.17.76.76,0,0,0-.18-.09.35.35,0,0,0-.17,0c-.07,0-.11,0-.1.09s.09.16.25.31l.7.63Z" transform="translate(-20.23)"/><path d="M262.83,80.71l.14,0a1.05,1.05,0,0,0,.28.17.6.6,0,0,0,.26,0c.08,0,.12,0,.12-.07a.25.25,0,0,0-.09-.14.69.69,0,0,0-.17-.1l-.25,0a3,3,0,0,1-.38-.07.67.67,0,0,1-.23-.1,1.07,1.07,0,0,1-.22-.15.79.79,0,0,1-.13-.14.15.15,0,0,1,0-.12.09.09,0,0,1,0-.07.25.25,0,0,1,.13,0,.78.78,0,0,1,.26,0,1.14,1.14,0,0,1,.26.09,1.64,1.64,0,0,1,.26.17l-.14,0a1.34,1.34,0,0,0-.23-.13.4.4,0,0,0-.21,0c-.09,0-.13,0-.13.06a.13.13,0,0,0,.07.1l.1.07.12,0,.22,0,.36.07a1.09,1.09,0,0,1,.23.09,1.24,1.24,0,0,1,.23.17.52.52,0,0,1,.16.18.13.13,0,0,1,0,.15.22.22,0,0,1-.16.07.89.89,0,0,1-.42-.07A1.87,1.87,0,0,1,262.83,80.71Z" transform="translate(-20.23)"/><path d="M264.48,80.75a1.84,1.84,0,0,1,.22.17l-.11,0a.58.58,0,0,1-.19,0,.56.56,0,0,1-.17-.09,2.05,2.05,0,0,1-.28-.22L263.2,80l-.13,0-.17-.16H263l-.33-.28,0-.13.46.4.18,0,.17.15-.17,0,.76.67.12.11.08,0h.14Z" transform="translate(-20.23)"/><path d="M264.85,80.91l-1.3-1.15.16,0,.2.18a.51.51,0,0,1-.07-.17s0,0,.07,0a.66.66,0,0,1,.25,0l.15.19-.18,0s-.06,0-.06,0a.25.25,0,0,0,.05.11,2.49,2.49,0,0,0,.23.23l.68.6Z" transform="translate(-20.23)"/><path d="M266.21,80.79l-.19-.17c.07.14,0,.21-.11.22a.58.58,0,0,1-.22,0,.92.92,0,0,1-.23-.09,1.13,1.13,0,0,1-.22-.14l-.21-.18-.81-.71.18,0,.72.64.25.21a.78.78,0,0,0,.2.11.31.31,0,0,0,.18,0c.06,0,.09,0,.1-.06s0-.07,0-.13a1.68,1.68,0,0,0-.23-.22c-.23-.21-.46-.42-.7-.62l.18,0,1.3,1.16Z" transform="translate(-20.23)"/><path d="M266.86,80.27h.2a.56.56,0,0,1,.2.32c0,.08-.05.13-.16.14a1.13,1.13,0,0,1-.52-.12,2.79,2.79,0,0,1-.63-.44,1.52,1.52,0,0,1-.31-.33c-.07-.09-.1-.17-.07-.22s.08-.09.17-.09a.79.79,0,0,1,.38.07,1.69,1.69,0,0,1,.45.25l-.14,0a1.5,1.5,0,0,0-.28-.17.49.49,0,0,0-.22,0c-.09,0-.12,0-.1.12a1.11,1.11,0,0,0,.3.34,1.83,1.83,0,0,0,.46.33.59.59,0,0,0,.33.09c.07,0,.1,0,.09-.09S267,80.37,266.86,80.27Z" transform="translate(-20.23)"/><path d="M267.85,80.45l.22.18-.12,0a.37.37,0,0,1-.18,0,.58.58,0,0,1-.18-.08,2.19,2.19,0,0,1-.28-.23l-.75-.66h-.13l-.18-.15h.13l-.32-.29,0-.13.46.4h.18l.17.15-.17,0,.76.67.13.1.07,0h.08Z" transform="translate(-20.23)"/><path d="M266.67,79.25l-.26-.23h.18l.25.22Zm1.55,1.36-1.31-1.15h.18c.44.38.88.76,1.31,1.15Z" transform="translate(-20.23)"/><path d="M268,80c-.24-.21-.37-.37-.38-.48s.05-.15.18-.16a1.2,1.2,0,0,1,.53.12,2.88,2.88,0,0,1,.63.42,2,2,0,0,1,.34.36.27.27,0,0,1,.05.21.18.18,0,0,1-.18.09,1,1,0,0,1-.53-.12A2.62,2.62,0,0,1,268,80Zm.18,0a2,2,0,0,0,.47.32.64.64,0,0,0,.34.09c.09,0,.12-.05.09-.13a.92.92,0,0,0-.29-.34,2,2,0,0,0-.46-.32.66.66,0,0,0-.34-.09c-.09,0-.12,0-.1.13A1,1,0,0,0,268.13,80Z" transform="translate(-20.23)"/><path d="M269.79,80.48l-1.31-1.16h.16l.19.16c-.07-.13,0-.2.11-.22l.21,0a1.69,1.69,0,0,1,.24.08l.22.14.23.19.8.71-.17,0-.8-.7-.23-.18a.61.61,0,0,0-.18-.09.32.32,0,0,0-.16,0c-.08,0-.11,0-.11.09s.1.16.26.31l.72.63Z" transform="translate(-20.23)"/><path d="M271.75,80.31l-2.21-1.56.2,0,1.42,1,.43.33-.27-.31c-.32-.36-.64-.73-1-1.09l.23,0,1.14.78c.28.2.54.38.76.56l-.33-.36-.95-1h.19c.49.54,1,1.08,1.43,1.62l-.18,0L271,79l-.26-.18.17.19c.37.41.73.83,1.08,1.24Z" transform="translate(-20.23)"/><path d="M272.62,79.59q-.37-.32-.39-.48c0-.1,0-.15.18-.16a1.2,1.2,0,0,1,.53.12,2.71,2.71,0,0,1,.64.42,2,2,0,0,1,.34.36.27.27,0,0,1,.05.21c0,.06-.08.09-.18.1a1.1,1.1,0,0,1-.53-.13A2.62,2.62,0,0,1,272.62,79.59Zm.18,0a1.71,1.71,0,0,0,.47.32.64.64,0,0,0,.34.09c.09,0,.12,0,.09-.13a1,1,0,0,0-.29-.34,2.58,2.58,0,0,0-.46-.32.69.69,0,0,0-.35-.09c-.09,0-.12,0-.09.13A.92.92,0,0,0,272.8,79.58Z" transform="translate(-20.23)"/><path d="M274.46,80.07l-1.33-1.16h.16l.21.18a.39.39,0,0,1-.08-.18s0,0,.07-.05a1.08,1.08,0,0,1,.25.05l.15.19a.29.29,0,0,0-.17,0s-.06,0-.06,0,0,.06,0,.11a1.79,1.79,0,0,0,.24.23l.69.6Z" transform="translate(-20.23)"/><path d="M275.13,80l-1.83-1.59.17,0,1.06.91c0-.17-.09-.34-.13-.51l.23,0c0,.16.07.31.1.47l1.27.68-.22,0-1-.56,0,.15.52.45Z" transform="translate(-20.23)"/><path d="M276.43,79.49h.21a.48.48,0,0,1,.16.28c0,.08-.07.12-.19.13a1.09,1.09,0,0,1-.54-.13,2.51,2.51,0,0,1-.64-.42,1.37,1.37,0,0,1-.39-.47c0-.11,0-.18.17-.19a1.07,1.07,0,0,1,.52.13,2.92,2.92,0,0,1,.65.43l.06,0-.78.07a2.32,2.32,0,0,0,.43.29.71.71,0,0,0,.34.08c.06,0,.09,0,.1-.07A.32.32,0,0,0,276.43,79.49Zm-.95-.27.59,0a1.44,1.44,0,0,0-.32-.21.86.86,0,0,0-.35-.1c-.08,0-.12,0-.1.11A.49.49,0,0,0,275.48,79.22Z" transform="translate(-20.23)"/><path d="M277.26,79.82l-1.33-1.15.16,0,.2.18a.55.55,0,0,1-.08-.17.07.07,0,0,1,.07,0,.71.71,0,0,1,.26,0l.15.19-.18,0s-.06,0-.06,0,0,.06.06.11a2.49,2.49,0,0,0,.23.23l.69.61Z" transform="translate(-20.23)"/><path class="cls-8" d="M228.55,64c6.85,9.73,24.82,19.46,27.39,29.21q28.92-2.22,56.72-4.51c-7-9.91-25.22-19.81-27.82-29.71Zm78.84,21c1.47,1.53,1.25,2.87-.18,3q-20.62,1.71-41.78,3.38c-1.47.11-3.17-1-4.2-2.54-4.85-7.1-15.73-14.21-22.39-21.31-1.43-1.51-1.19-2.84.23-3l41.52-3.71c1.47-.13,3.14,1,4.16,2.54C289.55,70.5,300.57,77.71,307.39,84.92Z" transform="translate(-20.23)"/><path class="cls-9" d="M249.83,80.9h0a4.39,4.39,0,0,1-2.59-1.16c-1.91-1.68-3.92-3.35-5.88-5-.82-.7-1-1.31-.33-1.37h0a4.48,4.48,0,0,1,2.63,1.16c2,1.68,4,3.35,5.89,5C250.36,80.23,250.47,80.85,249.83,80.9Z" transform="translate(-20.23)"/><path class="cls-10" d="M297.12,88.74l-21.4,1.73c-7,.56-15.83-5-25-12.38h0c-9.3-7.39-9-13.89-1.61-14.52l21.27-1.9C277.32,61,286,66.59,295.31,74.1h0C304.72,81.61,304.58,88.17,297.12,88.74Z" transform="translate(-20.23)"/><path class="cls-11" d="M242.08,77.46c0-.12,0-.62,1-.59a6.08,6.08,0,0,1,2,.52l1,.84a7.31,7.31,0,0,0-1.75-.44c-.3,0-.78-.06-1,.19a.52.52,0,0,0-.06.46Z" transform="translate(-20.23)"/><path class="cls-12" d="M241.78,77.48c-24.14-8.32-46.9-10.35-57.78-5.89-7.14,3-6.66,8.5-6.77,9.58.56.6-.58,9.53,4.32,12.4,2.82,1.48,9.68,1,26.82-3.14a207.88,207.88,0,0,0,35-11.59L242.26,78c-19.94,8.84-53.66,17.32-59.49,13.65-1-.63-.84-1.61-1.06-3.55.47-2.86-5.94-13,6.36-16.55,6.88-1.94,15.41-.78,32.81,1.6a108.87,108.87,0,0,1,16.45,3.76c2.34.68,4.27,1.3,5.66,1.77Z" transform="translate(-20.23)"/><path class="cls-13" d="M285,77.74c2.34,2,4.63,4,6.64,6l2.91-.25c-2-2-4.33-4-6.68-6Z" transform="translate(-20.23)"/><path class="cls-14" d="M282.3,71.32a22.36,22.36,0,0,1,5,3.64c.58.54,4.24,3.87,3.08,5-.65.61-2.43.16-2.9,0-3.14-.85-6.68-3.49-8-4.45-1.55-1.15-3.17-2.37-3.69-3.45C274.78,69.9,278.47,69.38,282.3,71.32Z" transform="translate(-20.23)"/><path d="M286.33,74.13a4.71,4.71,0,0,0-1.31-.89,3.44,3.44,0,0,0-.62-.2l-1.07-.77a12.57,12.57,0,0,0-3.95-.5,3,3,0,0,0-2.28,1l.86.83c-.07,0-.17.15-.09.39a3.48,3.48,0,0,0,1.05,1.12,14.26,14.26,0,0,1-3.36-2.87,2.81,2.81,0,0,1-.73-1.78,1.27,1.27,0,0,1,.76-1.21,3.84,3.84,0,0,1,2.82,0,16.73,16.73,0,0,1,4.1,1.92A20.66,20.66,0,0,1,286.33,74.13Z" transform="translate(-20.23)"/><path d="M286.45,78.45a.46.46,0,0,1,.43-.43,2.45,2.45,0,0,1,1.22.23.73.73,0,0,1,.24.53c0,.14-.09.23-.26.25A2.9,2.9,0,0,1,286.45,78.45Z" transform="translate(-20.23)"/><path d="M281,73.91c.08.15-.33,0-.72.07-.58,0-.64.33-.86.2a.48.48,0,0,1-.19-.19c-.11-.19.06-.25.3-.32a4.08,4.08,0,0,1,.76,0,.75.75,0,0,1,.45.08A1,1,0,0,1,281,73.91Z" transform="translate(-20.23)"/><path d="M282,75c.26.22.36.41.23.43a1.42,1.42,0,0,1-.72-.39c-.26-.22-.37-.41-.23-.42A1.56,1.56,0,0,1,282,75Z" transform="translate(-20.23)"/><path d="M282,74.87a2.14,2.14,0,0,0-.76-.35c-.08,0-.19,0-.32.24a1.22,1.22,0,0,0-.1.34l.26-.2c.2-.16.28-.21.47-.18A2.37,2.37,0,0,1,282,74.87Z" transform="translate(-20.23)"/><path d="M282.41,73.75c.24.13.35,0,.72-.07.55-.06,1.22.17,1.13,0a1,1,0,0,0-.26-.19,2,2,0,0,0-.92-.21,3.81,3.81,0,0,0-.72.08c-.13,0-.24,0-.19.15A.86.86,0,0,0,282.41,73.75Z" transform="translate(-20.23)"/><path d="M283.86,74.79a1.47,1.47,0,0,0,.72.38c.13,0,0-.2-.23-.42a1.42,1.42,0,0,0-.72-.39C283.5,74.38,283.6,74.57,283.86,74.79Z" transform="translate(-20.23)"/><path d="M283.62,74.72c-.27-.32-.18-.4-.15-.42s.11,0,.74.12c.33.09.61.18.8.25l-.64-.11c-.48-.08-.64-.11-.72,0S283.6,74.66,283.62,74.72Z" transform="translate(-20.23)"/><path d="M283.45,75.31l.35.41c.27.33.27.35.39.48a3.17,3.17,0,0,0,.94.8.75.75,0,0,0,.61.06,1.08,1.08,0,0,1-.64-.13,2.56,2.56,0,0,1-.47-.36,7.93,7.93,0,0,1-.71-.8C283.82,75.67,283.67,75.51,283.45,75.31Z" transform="translate(-20.23)"/><path d="M287,79.82s-1.93-1.57-1.81-2.16c0-.25.39-.29.86-.35a2.85,2.85,0,0,1,1.35.06,10.67,10.67,0,0,1,3.16,2l-.38-.24c-1.18-.72-1.78-1.08-2-1.18a2.18,2.18,0,0,0-1.35,0c-.56.09-.85.14-.82.39a3.66,3.66,0,0,0,.79,1.23C287,79.76,287,79.82,287,79.82Z" transform="translate(-20.23)"/><path d="M282.19,77.4c2.46,1.47,5,2.29,6.39,2.09s1.54-1.35.29-2.92c.31.29,1.85,1.81,1.69,2.83,0,.13-.14.69-1.1.81-1.68.21-4.42-1.14-4.7-1.28A19.77,19.77,0,0,1,282.19,77.4Z" transform="translate(-20.23)"/><g class="cls-15"><path class="cls-16" d="M288.22,80.55a1.58,1.58,0,0,0,.24.39c1.08,1.32,4.61,2.74,4.75,2.8a3,3,0,0,0,0-.57,2.41,2.41,0,0,0-.38-1.33,6.36,6.36,0,0,0-1.73-1.54,3.22,3.22,0,0,1,.95,0,9,9,0,0,1,2.16.61A32.28,32.28,0,0,1,299,83.43c4.3,2.74,6,4.12,6.28,4.45,2.2,2.91-1.57,5.15-1.91,5.35l-3.95.44-3.92-.23A5.73,5.73,0,0,1,292.41,92a14.1,14.1,0,0,1-2.36-3.25,44.36,44.36,0,0,1-2.52-4.3,6.52,6.52,0,0,1-1-2.8.89.89,0,0,1,.25-.74A2,2,0,0,1,288.22,80.55Z" transform="translate(-20.23)"/><path class="cls-17" d="M293.21,83.74a13.71,13.71,0,0,0-1.66-.58,7.94,7.94,0,0,0-2.13-.32c-.37-.47-.65-.85-.85-1.14-.47-.69-.5-.89-.45-1a.26.26,0,0,1,.12-.13c.09.07.21.19.37.33l.34.31.45.4.09.09C289.64,81.82,290.68,82.39,293.21,83.74Z" transform="translate(-20.23)"/><path class="cls-17" d="M293.21,83.74a1.57,1.57,0,0,1,.32-.75,1.9,1.9,0,0,1,1.15-.61c-.59-.45-1.12-.81-1.53-1.08a7.36,7.36,0,0,0-1.69-.91l-.38-.09.38.33.33.31.45.4.1.09A6.27,6.27,0,0,1,293.21,83.74Z" transform="translate(-20.23)"/></g><path class="cls-18" d="M24.33,17.87c.53,0-7.17.31-2.69,13.72a33.67,33.67,0,0,0,6.16,8.29,8.5,8.5,0,0,1,2,0c2.75.3,6,1.5,9.62,2.76s6.94,2.2,10.63,3.45c10.67,3.73,40.79,12.62,51.92,15.72-.13,0,36.53,10.19,70.81,16.36,11.92,2.15,9.17.75,19.33,2.89,3.08.66,7,1.57,7.16.66s-4.19-3.43-7.12-5.17c-10.52-6.36-27.79-15.83-37.76-23.19-2.43-1.78-5.37-4.17-9-5.67a15.2,15.2,0,0,0-6.93-1.27c-7.28.34-19.83-2.66-28.82-3.47-7.72-.7-20.14-3.32-42.12-8.45-20.43-4.82-25.15-7-28.24-8.58-.59-.35-4.63-2.17-10.61-5.79C25.39,18.16,25.1,17.88,24.33,17.87Z" transform="translate(-20.23)"/><path class="cls-19" d="M94.28,40.41l9.19,1.77A176,176,0,0,0,120.7,54.71c10,6.5,21,13,31.2,19.39-1.81-.34-3.94-.77-6.4-1.34-1.86-.43-3.66-.88-5.36-1.32-8.18-5-16.7-10.11-24.62-15.24C107.29,50.88,99.9,45.62,94.28,40.41Z" transform="translate(-20.23)"/><path class="cls-19" d="M106.69,48.69c-14.49-2.32-31.77-5.53-50.46-10C42.69,35.45,30.54,32,20.49,28.62a23,23,0,0,0,2.11,4.83c11.63,3.77,25.6,7.66,41.18,11.47C83.69,49.77,102.2,53.57,118,56.55,114.05,53.93,110.23,51.31,106.69,48.69Z" transform="translate(-20.23)"/><path class="cls-18" d="M104,88.54c-1.87-.46-4.93-2.2-28.79-16.39-6.1-3.57-11.1-6.53-14.52-8.61.88.28,2.18.67,3.59,1a24.87,24.87,0,0,0,8.08.88c2.06,0,4.69.2,6.64.1,5.82-.29,23,0,29.45.33,0,0,21.4.87,59.22,9,13.13,2.85,14,3.87,23.77,5.76a44.73,44.73,0,0,1,10.43,2.94,26.1,26.1,0,0,1,8,5.54c6.63,5.88,13.82,14.6,15,22.43.44,1.9.34,4.51-1.6,5s-4.15-1.26-5-1.78c-7.35-4.8-17-6.83-27-10.64-8.93-3.29-19.65-5.79-42.59-10.68-21.89-4.6-26.83-4.8-29.13-4.65-.54,0-3.77.06-10.24.1C105.78,89,105.25,89,104,88.54Z" transform="translate(-20.23)"/><path class="cls-19" d="M175.87,99.66q4.55,1.17,8.95,2.35c-2.47-4.07-6.33-8.15-11.11-12.23-7.43-6.36-17.06-12.71-27-19.06-2-.39-4.12-.77-6.23-1.12-1.47-.25-2.87-.48-4.21-.68,7.78,5,15.65,10,22.64,15.15C166,89.35,172,94.55,175.87,99.66Z" transform="translate(-20.23)"/><path class="cls-19" d="M171.7,92.72c-15.92-4.13-34.48-8.23-53.84-11.7-14.07-2.52-26.5-4.36-37.28-5.7-2.9-1.72-5.86-3.44-8.84-5.16,10.89,1.15,23.49,2.76,37.91,5C128,78,145.93,81.42,161.92,84.85A118.36,118.36,0,0,1,171.7,92.72Z" transform="translate(-20.23)"/></g></g></svg>