<svg xmlns="http://www.w3.org/2000/svg" viewBox="0 0 202.01 750.34"><defs><style>.cls-1{fill:#273a68;}.cls-2{fill:#b2b2b2;}.cls-3{fill:#fff;}</style></defs><g id="Layer_2" data-name="Layer 2"><g id="Layer_1-2" data-name="Layer 1"><path class="cls-1" d="M201.82,750.34,0,661,1.2,89.67,202,0Q201.92,375.17,201.82,750.34Z"/><circle class="cls-2" cx="164.96" cy="375.17" r="15.09"/><path class="cls-3" d="M70.69,176.67c1.46-.24,2.91-.48,4.37-.74l-.48,8.44a17,17,0,0,1-8.5,4c-6.48,1-11-2.92-10.65-9.13s5.38-11.26,12-12.32C71,166.32,74,167,75.83,169c-1.08,1.13-2.15,2.26-3.23,3.38A5.78,5.78,0,0,0,67.39,171a8.2,8.2,0,0,0-7.13,7.63c-.22,3.87,2.37,6.25,6.32,5.65a8.88,8.88,0,0,0,3.77-1.48C70.46,180.72,70.58,178.7,70.69,176.67Z"/><path class="cls-3" d="M77.82,178.16c.27-4.82,4.15-8.89,9.2-9.86s8.5,1.76,8.23,6.6a11,11,0,0,1-9.17,9.92C81,185.75,77.55,183,77.82,178.16Zm12.77-2.36c.15-2.78-1.49-4.11-3.79-3.68a5.44,5.44,0,0,0-4.32,5.2c-.16,2.77,1.52,4.11,3.82,3.68A5.4,5.4,0,0,0,90.59,175.8Z"/><path class="cls-3" d="M111.76,162.86l-6.6,1.27c.07-1.32.15-2.64.22-3.95,6-1.17,12-2.32,18-3.37-.07,1.32-.15,2.64-.22,4L116.54,162q-.48,8.53-1,17l-4.78.88Q111.29,171.39,111.76,162.86Z"/><path class="cls-3" d="M122.08,169.86a10.79,10.79,0,0,1,9.2-9.79c5-.8,8.51,2.18,8.23,7.05a10.54,10.54,0,0,1-9.16,9.61C125.31,177.52,121.81,174.72,122.08,169.86Zm12.77-2.07c.16-2.8-1.48-4.23-3.79-3.87a5.27,5.27,0,0,0-4.32,5.14c-.15,2.8,1.52,4.18,3.82,3.82A5.19,5.19,0,0,0,134.85,167.79Z"/><path class="cls-3" d="M50.15,204.68q-4,10.62-7.93,21.1c-1.71.11-3.42.2-5.13.28q-1.87-6.83-3.74-13.67-2.75,7-5.49,13.86c-1.7,0-3.4,0-5.1-.07Q20,215.94,17.15,205.63q2.48.13,5,.21l3.84,14.36q2.85-7.12,5.69-14.35c1.48,0,2.95-.08,4.43-.14Q38,212.85,39.94,220q2.82-7.4,5.64-14.87C47.11,205,48.63,204.83,50.15,204.68Z"/><path class="cls-3" d="M49.4,217.35c.27-4.76,4.15-8.49,9.19-9.13s8.51,2.19,8.24,7a10.21,10.21,0,0,1-9.17,9.35C52.62,225.17,49.12,222.1,49.4,217.35Zm12.77-1.48c.15-2.75-1.49-4.16-3.79-3.87a5,5,0,0,0-4.32,4.87c-.16,2.74,1.52,4.2,3.82,3.92A5,5,0,0,0,62.17,215.87Z"/><path class="cls-3" d="M80.21,204.91,80,209.19c-.39,0-.68.06-1,.12a5.07,5.07,0,0,0-4.47,5.16c-.14,2.51-.29,5-.43,7.54l-4.6.71.9-15.94,4.4-.71-.12,2.11A8.27,8.27,0,0,1,80.21,204.91Z"/><path class="cls-3" d="M89.2,213.19l-2.34,2.6c-.07,1.36-.15,2.72-.23,4.08l-4.6.81q.63-11,1.25-22.09l4.6-.83q-.36,6.26-.71,12.52,3.56-3.83,7.09-7.68l5.49-1-7,8,6.67,7.94-5.57,1C92.3,216.78,90.75,215,89.2,213.19Z"/><path class="cls-3" d="M119.11,206.05a10.28,10.28,0,0,1-8.37,9.69,5,5,0,0,1-4.67-1.08l-.42,7.51-4.6.83,1.23-21.89,4.4-.82c0,.62-.07,1.24-.11,1.86a8,8,0,0,1,5.1-3C116.13,198.33,119.4,201,119.11,206.05Zm-4.66.81c.16-2.79-1.49-4.16-3.79-3.74a5.37,5.37,0,0,0-4.29,5.2c-.16,2.78,1.49,4.14,3.79,3.73A5.36,5.36,0,0,0,114.45,206.86Z"/><path class="cls-3" d="M123,191.33l4.6-.75q-.61,11.14-1.25,22.29l-4.6.74Q122.35,202.48,123,191.33Z"/><path class="cls-3" d="M145.16,201.17q-.27,4.62-.52,9.24c-1.44.16-2.87.32-4.31.5l.12-2a6.43,6.43,0,0,1-5,2.88c-3.71.51-5.81-1.25-5.65-4.05s2.24-5.16,7.08-5.81l3.66-.48c.11-2-1-3-3.48-2.71a8.92,8.92,0,0,0-4.65,2.14l-1.47-3a14,14,0,0,1,6.95-2.93C142.75,194.26,145.43,196.27,145.16,201.17Zm-4.84,4.66c0-.55.07-1.11.1-1.66l-3.16.41c-2.15.28-2.87,1.2-2.94,2.28s.87,1.81,2.49,1.6A4.27,4.27,0,0,0,140.32,205.83Z"/><path class="cls-3" d="M148.24,202a9.72,9.72,0,0,1,9.32-9.07c3.33-.21,5.87,1.17,6.88,3.78-1.23.69-2.46,1.4-3.68,2.11a3.43,3.43,0,0,0-3.45-2,4.77,4.77,0,0,0-4.41,4.79c-.15,2.83,1.58,4.33,3.91,4.18a4.5,4.5,0,0,0,3.7-2.43l3.45,1.84a8.4,8.4,0,0,1-7.33,4.44C151.47,209.94,148,206.87,148.24,202Z"/><path class="cls-3" d="M182,202.48q-6-.37-12-.34c.33,2,1.94,3.24,4.36,3.28a5.53,5.53,0,0,0,4.07-1.44l2.3,2.83a8.64,8.64,0,0,1-6.69,2.37c-5.49-.1-8.86-3.47-8.59-8.3a8.7,8.7,0,0,1,8.93-8.38c4.66.08,8.08,3.52,7.79,8.72C182.16,201.58,182.08,202.09,182,202.48Zm-11.91-3.08c2.6,0,5.21,0,7.81.13a3.65,3.65,0,0,0-3.7-3.48A4,4,0,0,0,170.12,199.4Z"/></g></g></svg>