<svg xmlns="http://www.w3.org/2000/svg" viewBox="0 0 120.22 64.99"><defs><style>.cls-1{fill:#f9b03a;}.cls-2{fill:#ce8e32;}.cls-3{fill:#e59b39;}</style></defs><g id="Layer_2" data-name="Layer 2"><g id="Layer_1-2" data-name="Layer 1"><path class="cls-1" d="M109.33,43.58A19.89,19.89,0,0,1,117,48.63c1.66,1.79,3.37,3.63,3.16,5.44-.45,3.87-9.42,5.93-16.42,7.49-14,3.1-26.15,3.25-39.1,3.4-2.17,0-4.38.06-6.81,0-4.7-.16-7.64-.59-13.37-.72-6.2-.14-26.46-.58-37.22.32a7.07,7.07,0,0,1-4.61-.89c-2.8-1.88-2.79-6.13-2.6-8.46l2.11,0A46,46,0,0,1,3.42,35.3,48.07,48.07,0,0,1,19.78,10.92C34.88-1,52.57-.13,58.3.11c5.88.24,19.41,1,31.91,10.39C106.15,22.41,108.82,39.54,109.33,43.58Z"/><path class="cls-2" d="M5.33,55.28c0,.39,19.6,2.35,44.22.39C82.26,53.06,107,44.88,106.91,44.48S86.56,50.19,55.7,53.34C26.43,56.33,5.34,54.88,5.33,55.28Z"/><path class="cls-3" d="M17.26,34.49a49.7,49.7,0,0,1,17.07-15.3c3.13-1.68,19.85-10.66,37.43-3.38A39.47,39.47,0,0,1,87.23,27.53,53,53,0,0,0,52.12,17.27C31.89,18.8,19.77,31.71,17.26,34.49Z"/></g></g></svg>