<svg xmlns="http://www.w3.org/2000/svg" viewBox="0 0 495.21 309.07">
  <defs>
    <style>
      .cls-1 {
        fill: #f9b03a;
      }

      .cls-2, .cls-3 {
        fill: #ce8e32;
      }

      .cls-3 {
        opacity: 0.55;
      }
    </style>
  </defs>
  <g id="Layer_2" data-name="Layer 2">
    <g id="Layer_1-2" data-name="Layer 1">
      <g>
        <path class="cls-1" d="M.62,302.89a2045.5,2045.5,0,0,0,255.1,3.91,2043.9,2043.9,0,0,0,239.49-25.48l-.47-20-16.66.39-2.23-24.12-25.52-21.9s.22-204.22-176-201.35a27.82,27.82,0,0,0-9.25-4.72A22,22,0,0,0,262,9a44.53,44.53,0,0,0-7.22-.42c-6.49.23-11.75-6.16-21.46-7.91-2.9-.52-8.19-1.48-13.73.81C214.41,3.63,206,9.9,202.12,11c-4.1,1.18-4.71.48-8.68,1.64a36,36,0,0,0-14.86,8.87c-19.61,4-52,13.77-81.69,39.86C26.69,123.14,36.21,220,37.49,231.18l-22,19.9-.68,24.39L0,276.44Z"/>
        <path class="cls-2" d="M70.7,238.28c-.07,1.59,63.86,16.23,144.82,16.31C323.06,254.68,405.25,229,405,227.33c-.21-1.53-67.49,16.89-169,19.68C139.66,249.65,70.77,236.62,70.7,238.28Z"/>
        <path class="cls-3" d="M222.92.48a46.64,46.64,0,0,0-10.14,6.3c-4.13,3.37-5.59,5.8-9.69,7.31-3.15,1.16-5.09.74-7.67,1-4.11.36-9.88,2.31-16.72,9.71a186.14,186.14,0,0,0-35,14.28C138.35,41.9,104,60.63,80.48,93.87c-40.55,57.3-27.33,127-24.89,139L25.71,254.89q.2,14.36.38,28.72l-10.95.84c.06,6.52.13,13,.19,19.54L.62,302.89Q.3,289.67,0,276.44l14.77-1q.35-12.2.68-24.39l21.64-21.61A202.31,202.31,0,0,1,47.8,136.6C53.51,121,66.73,86.17,100.55,58.25,124.28,38.65,149.47,29.62,160,26.3a176.68,176.68,0,0,1,18.6-4.79c5.87-6.11,11.11-8.15,14.86-8.87,3-.58,4.93-.27,8.68-1.64,4.06-1.48,5.49-3.2,9.55-5.63A48.34,48.34,0,0,1,222.92.48Z"/>
      </g>
    </g>
  </g>
</svg>
