<svg xmlns="http://www.w3.org/2000/svg" viewBox="0 0 216.92 591.39"><defs><style>.cls-1{fill:#02424c;}.cls-2{fill:#024e60;}.cls-3{fill:#8c4714;}.cls-4{fill:#8d5524;}.cls-5{fill:#458c93;}.cls-6{fill:#63391a;}</style></defs><g id="Layer_2" data-name="Layer 2"><g id="Layer_1-2" data-name="Layer 1"><path d="M124.69,554.39c1.52,5.05,2.79,10.45,5.89,18.69,1.78,4.74,3.47,8.56,4.65,11.14C147.43,581,214.92,563,215,560.7c0-.79-.13-2.73.06-2.62a15.78,15.78,0,0,0-3.6-7.78,16,16,0,0,0-3-2.64c-6.27-4.3-13.73-3.6-15.36-3.45a45.88,45.88,0,0,0-6.91,1.31c-.75.2-1.43.4-2,.59a84.46,84.46,0,0,1-10.41,2.5,37,37,0,0,1-11.34.15c-8.22-1.45-15.26-12.79-18.48-27.11l-28.86,9A145.26,145.26,0,0,1,124.69,554.39Z"/><path d="M216.59,562.79c-13,4.86-24.39,8.34-33.59,10.85-5.53,1.51-8,2.05-13.33,3.52a330.74,330.74,0,0,0-32.93,11l-1.49-4.51,79.55-26.34Z"/><rect x="136.71" y="585.84" width="7.27" height="3.22" transform="translate(-177.51 73.87) rotate(-18.32)"/><rect x="145.24" y="583.02" width="7.27" height="3.22" transform="translate(-176.19 76.41) rotate(-18.32)"/><rect x="153.84" y="580.17" width="7.27" height="3.22" transform="translate(-174.86 78.97) rotate(-18.32)"/><rect x="162.38" y="577.35" width="7.27" height="3.22" transform="translate(-173.54 81.51) rotate(-18.32)"/><rect x="183.66" y="570.3" width="7.27" height="3.22" transform="translate(-170.25 87.84) rotate(-18.32)"/><rect x="192.19" y="567.48" width="7.27" height="3.22" transform="translate(-168.93 90.38) rotate(-18.32)"/><rect x="200.79" y="564.63" width="7.27" height="3.22" transform="translate(-167.6 92.94) rotate(-18.32)"/><rect x="209.33" y="561.8" width="7.27" height="3.22" transform="matrix(0.95, -0.31, 0.31, 0.95, -166.28, 95.48)"/><path class="cls-1" d="M18.06,292.31c4.56,37.29,10.34,55.31,15,64.85.74,1.5,4.24,8.5,8.75,18.43s7.62,17.44,9,20.85c12.81,31.14,28.31,61.29,38.57,93.36,7.51,23.48,20,45.06,29.8,67.68.75,1.74,2.84,6.57,7.23,8.15,5.89,2.12,14-2.33,17.84-5.89.75-.7,2.61-2.5,5.5-4.91A32.88,32.88,0,0,1,154,551.6a24.16,24.16,0,0,1,5.37-1.79c2.26-.61,3.76-.89,3.88-.92,2.72-.81-15.57-74.72-73-283.39Z"/><path d="M6.42,539c-1.08,5.16-2.54,10.51-3.77,19.23-.7,5-1,9.18-1.24,12,12.26,3,80.13,19.48,81.29,17.51.41-.67,1.2-2.46,1.32-2.27a15.91,15.91,0,0,0,.56-8.55,16.86,16.86,0,0,0-1.39-3.76c-3.45-6.78-10.34-9.74-11.84-10.38a45.44,45.44,0,0,0-6.7-2.16c-.75-.18-1.45-.33-2.07-.45a87.19,87.19,0,0,1-10.33-2.79,37.22,37.22,0,0,1-10-5.29C35.7,546.88,35,533.56,39,519.45L9.33,513.51A144.42,144.42,0,0,1,6.42,539Z"/><path d="M83.1,590.35c-13.73-2-25.41-4.34-34.69-6.54-5.58-1.32-8-2-13.39-3.29A331.85,331.85,0,0,0,.86,574.39l.85-4.68,82.46,14.94Q83.63,587.5,83.1,590.35Z"/><rect x="0.71" y="573.92" width="7.27" height="3.22" transform="translate(102.68 8.45) rotate(10.27)"/><rect x="9.56" y="575.52" width="7.27" height="3.22" transform="translate(103.11 6.89) rotate(10.27)"/><rect x="18.47" y="577.13" width="7.27" height="3.22" transform="translate(103.54 5.33) rotate(10.27)"/><rect x="27.32" y="578.74" width="7.27" height="3.22" transform="translate(103.97 3.78) rotate(10.27)"/><rect x="49.38" y="582.73" width="7.27" height="3.22" transform="translate(105.03 -0.09) rotate(10.27)"/><rect x="58.22" y="584.34" width="7.27" height="3.22" transform="translate(105.46 -1.64) rotate(10.27)"/><rect x="67.14" y="585.95" width="7.27" height="3.22" transform="translate(105.89 -3.2) rotate(10.27)"/><rect x="75.98" y="587.55" width="7.27" height="3.22" transform="translate(106.32 -4.76) rotate(10.27)"/><path class="cls-2" d="M25,240.29C7.66,261.78,3,281.15,1.55,291.82-.22,304.51.89,316,2.4,331.51a341.71,341.71,0,0,0,6,38.08c8.07,41.27.71,80.73-2.1,95.81-4.52,24.23-4,49.14-6.22,73.69C0,541-.52,546.22,2.58,549.71c4.16,4.68,13.41,4.65,18.49,3.36,1-.25,3.48-1,7.17-1.68a32.64,32.64,0,0,1,5.25-.82,23.48,23.48,0,0,1,5.57,1c2.27.55,3.72,1,3.85,1,12,2.56,33.4-123.78,33.4-123.78,8.52-27.14,14.32-49.71,18.14-65.92,2-8.47,4.34-18.18,6.88-31.13,4.54-23.24,7-42.81,8.45-56.85Z"/><rect class="cls-3" x="49.74" y="97.61" width="35.08" height="41.66"/><path class="cls-4" d="M121.79,24.61s5.89,2.71,8.6,39.85c0,0,0,6.11,2.27,9.28s8.38,9.51-1.13,11.78a118.1,118.1,0,0,1-5.93,21.72c-2.48,6.53-3.76,9.84-6.08,12-8.28,7.76-24,3-34.7.25a95.06,95.06,0,0,1-36.44-18.73,52.11,52.11,0,0,1-9.05-16.3c-5.67-16.82-2.54-36.92,8.15-50.27C63,14.78,94.86,9.25,121.79,24.61Z"/><path d="M129.35,52.85c-.83,1.28-3.51.06-7.5,0-5.85-.12-9.62,2.32-10.35,1.07-.32-.55.21-1.41.44-1.78,1.06-1.72,3.21-2.06,6.28-2.5a51.54,51.54,0,0,1,7.77.16c1.42.07,2.7.16,3.27,1.06A2,2,0,0,1,129.35,52.85Z"/><ellipse cx="124.62" cy="62.72" rx="2.55" ry="3.76"/><path d="M122.65,114.57c.84,2.26-2.73,5.9-5.77,7.78a19.33,19.33,0,0,1-11.14,2.49c-15.88-.42-29.21-6.14-33.15-7.91-7.57-3.38-11.35-5.08-12.79-6.76C48.2,96.68,64.22,69.59,57.2,65.6,54.44,64,49.9,67,48,69c-4.71,4.77-4.52,13.08-1.74,18.1,1.39,2.56,2.84,3.12,4,6.44,1,2.72.89,5,.73,8.18-.19,3.79-.54,8.71-1.23,14.59C22.5,84,21.42,62.73,22.69,52.47c0,0,.12-.95.28-1.93,1.09-6.49,7.26-27.3,24.52-39.56,19.91-14.15,53.3-16,70.4,2.65,8.81,9.6,10.56,21.66,10.94,28.14-2.54.07-4.67,0-6.26-.07-7.56-.38-10.82-1.63-17.91-1.81-2.47-.06-4.55,0-6,.13l-10,5c-7.73,2.76-11.35,7-12.9,9.28-3,4.34-2.71,12.55-3.36,28.93-.12,2.93-.21,6.7,1.81,10.68,1.26,2.49,3.36,5.09,8.51,8.33,12.73,8,27.13,9.8,28.6,10C117.81,112.94,121.87,112.47,122.65,114.57Z"/><path d="M110.91,99.5a39.27,39.27,0,0,0,7.41,4,38,38,0,0,0,8.13,2.13,17.66,17.66,0,0,1-8.49-1.2A18.25,18.25,0,0,1,110.91,99.5Z"/><path d="M128.82,60.82c-1.58-2.7-3.35-3-3.78-3.06-.6-.08-1.66,0-5.33,2.55a50.79,50.79,0,0,0-4.36,3.45c1-.48,2.56-1.26,4.53-2.21,3.47-1.67,4.61-2.19,6.11-2A5.87,5.87,0,0,1,128.82,60.82Z"/><path d="M98.52,117.54c-2.84-1.91-2.51-6.42-2-14.21.6-8.5,2.56-11.5,3.67-12.92a17.91,17.91,0,0,1,3.07-3c5.32-3.94,16.06-3,27.47,2,.19.74.08,7.44-1.63,8.11-.94.37-2.06-.42-2.46-.68-3.83-2.52-13.47-4.81-17.12-2.63-5.83,3.5,1.37,19.89-4.85,23.59A6.14,6.14,0,0,1,98.52,117.54Z"/><path class="cls-5" d="M87.66,142.7c9.81,12.87,5.41,17,17.43,66.12a371.19,371.19,0,0,1,7.7,50.27c1,11.91.95,18.09-3.16,22.23s-14.06,4.39-34.2,5.17c-3.32.12-5.64.14-7.84.08-4.92-.14-7.48-.64-17.29-.54-25.59.26-35.7,3.92-40.54-2.15-3.19-4-2-9.75-1.58-12.57,2.42-18.18,6.57-45.37,13.69-78.21C35.72,129.2,43,122.83,51.51,120.77,67.59,116.89,85.5,139.87,87.66,142.7Z"/><path class="cls-4" d="M41.23,182.82a203.55,203.55,0,0,0,3.43,28.09,225.62,225.62,0,0,0,10.4,35.83,285.24,285.24,0,0,0,27.14,54l16.42-8.51c-2.25-6.18-3.92-11.06-5.06-14.44-.73-2.18-1.81-5.44-3.55-10.53-1-2.84-1.64-4.77-1.92-5.58-4.78-14-8-30.29-11.91-49.86-1.8-9.11-4-21.13-6.34-35.4Z"/><path class="cls-4" d="M98.15,291.47a6,6,0,0,0,1.74,2.12c1.07.81,1.68.64,4,1.47,1.49.53,2.56,1,4.22,1.78a20.72,20.72,0,0,1,2.68,1.37c1,.64,1.21.9,2.2,1.54a32.16,32.16,0,0,0,3,1.58c1.91,1,3.64,2,3.7,2.89.07,1.22-2.92,1.83-3.18,1.87a11.69,11.69,0,0,1-6.35-1c-3.43-1.52-1.73,1.15-1.73,1.15a12.48,12.48,0,0,0,2.67,4.52c2.29,2.78,7.39,8.86,8.45,10.29s2.37,5.67-2.18,4.37-11.38-9-11.38-9,10.41,8.44,10.78,10-.14,5.92-5.84,2.29a54.32,54.32,0,0,1-10.37-9.05s15,9.24,10.55,11.26S97.82,325.55,96,322.35c1.49,1.7,2.76,3,3.67,3.89,1.42,1.4,2.61,2.44,2.41,3.62a1.33,1.33,0,0,1-.45.86c-1.07.75-3.57-1.23-4.55-1.88a24.59,24.59,0,0,1-8.28-9.69c-3.22-6.35-1.78-8.86-5.44-16.29a43.6,43.6,0,0,0-2.8-4.9Z"/><path class="cls-6" d="M115.34,324.57a40.78,40.78,0,0,1-7-6.16,40,40,0,0,1-4.17-5.53"/><path class="cls-6" d="M112.15,329.38a21.06,21.06,0,0,1-3.06-1.61,35.28,35.28,0,0,1-3.61-2.26,20.76,20.76,0,0,1-3.41-3.11,18.39,18.39,0,0,1-3.38-5.83,36.86,36.86,0,0,0,5.5,6.66C108.11,327,112.25,329.23,112.15,329.38Z"/><path class="cls-6" d="M101.34,327.7a7.41,7.41,0,0,1-1.53-1A18.77,18.77,0,0,1,98,325.26a10.78,10.78,0,0,1-1.64-1.84A10.08,10.08,0,0,1,94.86,320a30.34,30.34,0,0,0,2.48,3.47C99.4,326,101.44,327.59,101.34,327.7Z"/><path class="cls-5" d="M36.87,171q-1.53,12.86-3,25.73a111.18,111.18,0,0,0,54.34,0A100.93,100.93,0,0,0,81.82,170c-3.8-9.77-12.37-31.84-23.53-31.67C49.61,138.46,40.44,152.06,36.87,171Z"/></g></g></svg>