<svg xmlns="http://www.w3.org/2000/svg" viewBox="0 0 129.06 590.97"><defs><style>.cls-1{fill:#8c4714;}.cls-2{fill:#8d5524;}.cls-3{fill:#024e60;}.cls-4{fill:#458c93;}.cls-5{fill:#63391a;}</style></defs><g id="Layer_2" data-name="Layer 2"><g id="Layer_1-2" data-name="Layer 1"><rect class="cls-1" x="42.12" y="97.61" width="35.08" height="41.66"/><path class="cls-2" d="M114.16,24.61s5.89,2.71,8.61,39.85c0,0,0,6.11,2.26,9.28s8.38,9.51-1.13,11.78A117.29,117.29,0,0,1,118,107.24c-2.47,6.53-3.76,9.84-6.07,12-8.29,7.76-24,3-34.71.25a94.93,94.93,0,0,1-36.43-18.73,52.3,52.3,0,0,1-9.06-16.3C26,67.66,29.17,47.56,39.85,34.21,55.4,14.78,87.24,9.25,114.16,24.61Z"/><path d="M121.72,52.85c-.83,1.28-3.51.06-7.49,0-5.85-.12-9.63,2.32-10.35,1.07-.33-.55.2-1.41.43-1.78,1.06-1.72,3.21-2.06,6.28-2.5a51.67,51.67,0,0,1,7.78.16c1.41.07,2.69.16,3.27,1.06A2,2,0,0,1,121.72,52.85Z"/><ellipse cx="116.99" cy="62.72" rx="2.55" ry="3.76"/><path d="M115,114.57c.84,2.26-2.73,5.9-5.77,7.78a19.33,19.33,0,0,1-11.14,2.49c-15.88-.42-29.2-6.14-33.15-7.91-7.56-3.38-11.35-5.08-12.79-6.76-11.6-13.49,4.42-40.58-2.6-44.57C46.82,64,42.27,67,40.35,69c-4.7,4.77-4.51,13.08-1.73,18.1,1.38,2.56,2.84,3.12,4,6.44.94,2.72.88,5,.72,8.18-.19,3.79-.54,8.71-1.23,14.59C14.87,84,13.79,62.73,15.06,52.47c0,0,.12-.95.28-1.93C16.43,44.05,22.6,23.24,39.86,11c19.91-14.15,53.3-16,70.41,2.65,8.8,9.6,10.55,21.66,10.93,28.14-2.53.07-4.66,0-6.26-.07-7.56-.38-10.81-1.63-17.9-1.81-2.48-.06-4.56,0-6.06.13L80.52,45c-7.37,2.87-10.88,7.06-12.44,9.34C65,58.79,65.37,67,64.72,83.26c-.12,2.93-.21,6.7,1.81,10.68,1.26,2.49,3.36,5.09,8.51,8.33,12.74,8,27.13,9.8,28.6,10C110.18,112.94,114.24,112.47,115,114.57Z"/><path d="M103.29,99.5a39.19,39.19,0,0,0,7.4,4,38,38,0,0,0,8.13,2.13,17.66,17.66,0,0,1-8.49-1.2A18.14,18.14,0,0,1,103.29,99.5Z"/><path d="M121.19,60.82c-1.58-2.7-3.34-3-3.78-3.06-.6-.08-1.65,0-5.33,2.55a50.79,50.79,0,0,0-4.36,3.45c1-.48,2.56-1.26,4.53-2.21,3.47-1.67,4.61-2.19,6.11-2A5.87,5.87,0,0,1,121.19,60.82Z"/><path d="M90.89,117.54c-2.84-1.91-2.51-6.42-2-14.21.6-8.5,2.56-11.5,3.67-12.92a17.75,17.75,0,0,1,3.08-3c5.31-3.94,16.06-3,27.46,2,.19.74.08,7.44-1.63,8.11-.94.37-2.06-.42-2.46-.68-3.83-2.52-13.47-4.81-17.11-2.63-5.84,3.5,1.36,19.89-4.86,23.59A6.14,6.14,0,0,1,90.89,117.54Z"/><path d="M42.5,553.05c-.14,5.27-.63,10.79-.28,19.59.2,5.06.6,9.22.92,12,12.6.75,82.32,4.88,83.11,2.74.28-.74.74-2.63.89-2.47a15.85,15.85,0,0,0-1-8.51,16.26,16.26,0,0,0-2-3.46c-4.6-6.05-11.91-7.73-13.5-8.1a45.87,45.87,0,0,0-7-.93c-.77,0-1.48-.07-2.11-.08A86.34,86.34,0,0,1,90.88,563a37.37,37.37,0,0,1-10.82-3.42c-7.35-4-10.46-16.94-9-31.55l-30.22-.56A144,144,0,0,1,42.5,553.05Z"/><path d="M127.11,589.91c-13.86.53-25.78.25-35.31-.26-5.72-.3-8.24-.57-13.75-.84a327,327,0,0,0-34.71.06v-4.76h83.8Z"/><rect x="43.34" y="587.75" width="7.27" height="3.22"/><rect x="52.33" y="587.75" width="7.27" height="3.22"/><rect x="61.39" y="587.75" width="7.27" height="3.22"/><rect x="70.38" y="587.75" width="7.27" height="3.22"/><rect x="92.79" y="587.75" width="7.27" height="3.22"/><rect x="101.78" y="587.75" width="7.27" height="3.22"/><rect x="110.84" y="587.75" width="7.27" height="3.22"/><rect x="119.83" y="587.75" width="7.27" height="3.22"/><path class="cls-3" d="M10.39,258.25a401.19,401.19,0,0,0-1,70.51c1.1,14.88,2.33,20.26,6.8,50.78,9,61.23,13.42,91.84,13.13,101.1-.78,24.65,4.82,49.07,7,73.62.17,1.89.63,7.13,4.3,10,4.93,3.87,14,2.19,18.79,0,.93-.42,3.26-1.55,6.76-2.92a31.55,31.55,0,0,1,5-1.75,23.89,23.89,0,0,1,5.66,0c2.33.14,3.84.35,4,.35,2.84.09,8.7-75.82,19.74-292Z"/><path class="cls-4" d="M80,142.7c9.81,12.87,5.41,17,17.44,66.12a370.34,370.34,0,0,1,7.69,50.27c1,11.91,1,18.09-3.16,22.23s-14.06,4.39-34.2,5.17c-3.32.12-5.63.14-7.83.08-4.92-.14-7.49-.64-17.3-.54C17.08,286.29,7,290,2.14,283.88c-3.2-4-2-9.75-1.59-12.57C3,253.13,7.12,225.94,14.24,193.1c13.85-63.9,21.16-70.27,29.64-72.33C60,116.89,77.87,139.87,80,142.7Z"/><path class="cls-2" d="M40.91,175.76a204.07,204.07,0,0,0-2.78,28.17,225.14,225.14,0,0,0,2.32,37.23,286.44,286.44,0,0,0,14.71,58.62L73,295.06c-.84-6.52-1.41-11.65-1.78-15.19-.24-2.3-.58-5.71-1.17-11.06-.33-3-.56-5-.65-5.87-1.63-14.66-1.25-31.31-.75-51.25.23-9.28.66-21.5,1.53-35.93Z"/><path class="cls-2" d="M72.75,294.22A6.13,6.13,0,0,0,74,296.67c.86,1,1.5,1,3.6,2.3,1.34.85,2.27,1.56,3.72,2.66a22.9,22.9,0,0,1,2.33,1.92c.86.85,1,1.15,1.81,2a33.71,33.71,0,0,0,2.61,2.21c1.65,1.43,3.13,2.71,3,3.62-.2,1.21-3.24,1.14-3.5,1.14a11.77,11.77,0,0,1-6-2.35c-3-2.23-1.94.74-1.94.74a12.55,12.55,0,0,0,1.63,5c1.62,3.22,5.27,10.27,6,11.89s1.07,6.05-3.08,3.8S75,320.34,75,320.34s8.32,10.52,8.35,12.07-1.43,5.75-6.2,1A54.36,54.36,0,0,1,69,322.29s12.61,12.28,7.83,13.29-11.85-8.18-13-11.71c1.08,2,2,3.53,2.72,4.6,1.09,1.67,2,2.94,1.57,4.06a1.35,1.35,0,0,1-.63.74c-1.2.5-3.21-2-4-2.83a24.75,24.75,0,0,1-6-11.27c-1.75-6.89.2-9-1.74-17.08a45.39,45.39,0,0,0-1.67-5.39Z"/><path class="cls-5" d="M82.3,330.27a40.93,40.93,0,0,1-5.45-7.53A39.55,39.55,0,0,1,74,316.42"/><path class="cls-5" d="M78.14,334.27A23.3,23.3,0,0,1,75.5,332a34.26,34.26,0,0,1-3-3,20.71,20.71,0,0,1-2.66-3.78,18.51,18.51,0,0,1-2-6.42,36.84,36.84,0,0,0,3.91,7.7C74.72,331.05,78.27,334.14,78.14,334.27Z"/><path class="cls-5" d="M68,330.27a8,8,0,0,1-1.27-1.35,16.9,16.9,0,0,1-1.44-1.76,11.71,11.71,0,0,1-1.2-2.15,10.25,10.25,0,0,1-.74-3.67A30.93,30.93,0,0,0,65,325.27C66.44,328.13,68.07,330.18,68,330.27Z"/><path class="cls-4" d="M29.24,171q-1.53,12.86-3,25.73a112.05,112.05,0,0,0,33,3.22,111,111,0,0,0,21.38-3.22A100.53,100.53,0,0,0,74.19,170c-3.79-9.77-12.37-31.84-23.52-31.67C42,138.46,32.82,152.06,29.24,171Z"/></g></g></svg>