<svg xmlns="http://www.w3.org/2000/svg" xmlns:xlink="http://www.w3.org/1999/xlink" viewBox="0 0 138.16 37.41"><defs><style>.cls-1,.cls-2{fill:none;}.cls-2,.cls-5,.cls-6,.cls-7,.cls-8{stroke:#c6d5db;stroke-width:3px;}.cls-2,.cls-5,.cls-6,.cls-7{stroke-miterlimit:10;}.cls-3{fill:#c6d5db;}.cls-4,.cls-6{fill:#fff;}.cls-5,.cls-7{fill:#efefef;}.cls-7{opacity:0.27;}.cls-8,.cls-9{fill:#848484;}.cls-8{stroke-linecap:round;stroke-linejoin:round;}.cls-10{fill:#8c4714;}.cls-11{fill:#8d5524;}.cls-12{clip-path:url(#clip-path);}.cls-13{fill:#4989ce;}.cls-14{fill:#76a3cc;}</style><clipPath id="clip-path" transform="translate(-24.56)"><path class="cls-1" d="M148.17,26.16q-8.22.72-16.5,1.41c-5.65-6-14.24-12-19.71-18l16.56-1.5C133.47,14.12,142.05,20.14,148.17,26.16Z"/></clipPath></defs><g id="Layer_2" data-name="Layer 2"><g id="Layer_1-2" data-name="Layer 1"><path class="cls-2" d="M92,22.14l-1.05.1c-1.1-1-2.24-1.93-3.38-2.9l1-.09C89.8,20.21,90.94,21.18,92,22.14Z" transform="translate(-24.56)"/><path class="cls-3" d="M141.35,16.73h0c8.79,7.08,8.92,13.25,2,13.79q-9.78.81-19.67,1.61c-6.55.53-15.36-4.7-24-11.67h0C91,13.49,91.1,7.37,98,6.78L117.6,5C124.12,4.42,132.65,9.66,141.35,16.73Z" transform="translate(-24.56)"/><path class="cls-4" d="M149,26.1l-16.49,1.41c-5.68-6-14.27-12-19.72-18L129.33,8C134.26,14.05,142.83,20.07,149,26.1Z" transform="translate(-24.56)"/><path d="M98.25,16.4l-1.82-1.58.19,0,.9.79c-.07-.29-.13-.57-.19-.85l.26,0c0,.23.09.47.13.7l1.72.89-.25,0-1.44-.76a2.56,2.56,0,0,0,0,.27l.64.55Z" transform="translate(-24.56)"/><path d="M98.72,14.61l.19,0,1,.92a3.3,3.3,0,0,1,.38.38c.08.1.11.18.09.25s-.09.1-.23.12a1.24,1.24,0,0,1-.42-.05,1.47,1.47,0,0,1-.44-.21,4.11,4.11,0,0,1-.52-.39l-1-.91.19,0,1,.91a3,3,0,0,0,.39.3,1,1,0,0,0,.29.14.68.68,0,0,0,.27,0c.14,0,.2-.06.18-.13a1.21,1.21,0,0,0-.38-.41Z" transform="translate(-24.56)"/><path d="M101,16.15l-1.81-1.58.28,0,1.62,1.09.34.23-.22-.26-.91-1.14.26,0c.59.53,1.2,1.06,1.81,1.59h-.18l-1.52-1.32,1.1,1.36-.17,0-2-1.32,1.55,1.36Z" transform="translate(-24.56)"/><path d="M102.56,16c-.43-.54-.85-1.09-1.26-1.63l.21,0,2.39,1.53-.21,0-.72-.46-.6.05.39.5Zm-.33-.68.48-.05-.65-.42-.47-.32.26.3Z" transform="translate(-24.56)"/><path d="M104.06,15.88l-1.8-1.59.63-.06a1.19,1.19,0,0,1,.34,0,1.12,1.12,0,0,1,.33.14,1.94,1.94,0,0,1,.33.23.71.71,0,0,1,.23.3c0,.08,0,.14-.15.17l.21.07.4.2.75.41-.24,0-.57-.32-.39-.2-.22-.1-.13,0h-.12l-.22,0,.81.7Zm-.83-.9.41,0a.34.34,0,0,0,.17,0s0-.06,0-.1a.79.79,0,0,0-.12-.15.88.88,0,0,0-.29-.18.65.65,0,0,0-.31-.05l-.46,0Z" transform="translate(-24.56)"/><path d="M106.06,15.7l-1.8-1.59.2,0c.71.4,1.44.79,2.16,1.18L105.22,14h.18l1.8,1.59-.2,0c-.73-.4-1.46-.79-2.17-1.19.46.42.94.84,1.42,1.25Z" transform="translate(-24.56)"/><path d="M107.36,15.58c-.43-.54-.84-1.09-1.24-1.64h.2l2.38,1.53-.21,0-.72-.46-.6.05.39.5Zm-.33-.69.49,0-.65-.43-.47-.32.26.31Z" transform="translate(-24.56)"/><path d="M108.74,15.46l-.22-.2c-.15-.36-.28-.72-.41-1.08a1.36,1.36,0,0,1-.06-.2l-.81.07-.21-.19,1-.09a1.8,1.8,0,0,1,.2.19c.14.39.29.78.44,1.17l0,.12.91-.08.22.19Z" transform="translate(-24.56)"/><path d="M110.09,15.34c-.61-.53-1.21-1.06-1.79-1.59l.64-.06a1.25,1.25,0,0,1,.34,0,1.47,1.47,0,0,1,.33.14,1.91,1.91,0,0,1,.32.24.63.63,0,0,1,.22.29c0,.08,0,.14-.14.18a.77.77,0,0,1,.2.07l.4.19.74.41-.24,0-.56-.31-.39-.21a1.44,1.44,0,0,0-.21-.09l-.14,0h-.11l-.22,0,.8.71Zm-.82-.91.41,0a.3.3,0,0,0,.17,0s0-.06,0-.11a1.31,1.31,0,0,0-.12-.15,1.67,1.67,0,0,0-.28-.18.72.72,0,0,0-.32-.05l-.45.05Z" transform="translate(-24.56)"/><path d="M110.7,13.53l.19,0,1,.92a2.61,2.61,0,0,1,.38.39.29.29,0,0,1,.08.24c0,.07-.09.11-.23.12a1,1,0,0,1-.42,0,1.72,1.72,0,0,1-.44-.2,4.58,4.58,0,0,1-.5-.4c-.35-.3-.69-.61-1-.91l.19,0,1,.92.37.3a1.35,1.35,0,0,0,.3.14.6.6,0,0,0,.26,0c.14,0,.2-.05.19-.13a1.51,1.51,0,0,0-.37-.41Z" transform="translate(-24.56)"/><path d="M113,15.08c-.61-.53-1.2-1.06-1.78-1.6h.19l1.56,1.4.71-.06.22.18Z" transform="translate(-24.56)"/><path d="M103.46,20.08l.22.18-1,.09a.83.83,0,0,1-.13-.14.64.64,0,0,1-.13-.22.91.91,0,0,1-.06-.26.88.88,0,0,0-.08-.37,1,1,0,0,0-.19-.24,1.2,1.2,0,0,0-.31-.18.71.71,0,0,0-.29-.07c-.08,0-.12,0-.1.11s.08.14.2.24h-.21a.77.77,0,0,1-.26-.35c0-.09,0-.14.19-.15a1,1,0,0,1,.47.1,2,2,0,0,1,.49.3,1.13,1.13,0,0,1,.19.19.84.84,0,0,1,.11.21,1,1,0,0,1,.06.3,1.64,1.64,0,0,0,0,.22.54.54,0,0,0,.05.11Z" transform="translate(-24.56)"/><path d="M104.54,20.19h-.18L102.9,19a.38.38,0,0,1,0,.15.35.35,0,0,1-.07.12L102.6,19a.3.3,0,0,0,0-.21.4.4,0,0,0-.1-.22h.12Z" transform="translate(-24.56)"/><path d="M105,19.62l-.23-.19.54-.05.23.2Z" transform="translate(-24.56)"/><path d="M106.58,20l-1.32-1.64.2,0,2.46,1.54-.21,0-.74-.47-.6.06.41.49Zm-.36-.69.49,0-.67-.43-.49-.32a3.92,3.92,0,0,1,.28.31Z" transform="translate(-24.56)"/><path d="M108.07,19.88l-1.87-1.59.54-.05H107l.26.06a1.39,1.39,0,0,1,.3.15l.3.21a.93.93,0,0,1,.29.35c0,.1-.06.16-.26.18l-.37,0,.76.65Zm-.79-.85.37,0c.12,0,.18,0,.17-.1s-.06-.13-.17-.22a1.32,1.32,0,0,0-.25-.16.68.68,0,0,0-.23-.09H107l-.37,0Z" transform="translate(-24.56)"/><path d="M109.42,19.76l-1.88-1.59.63-.06a1,1,0,0,1,.35,0,1.4,1.4,0,0,1,.33.13,2.16,2.16,0,0,1,.35.24.8.8,0,0,1,.24.29c0,.09,0,.14-.14.18a.86.86,0,0,1,.21.07c.12.05.26.11.41.19l.76.41-.24,0-.58-.32-.4-.21a1.13,1.13,0,0,0-.22-.09l-.13,0H109l-.22,0,.84.71Zm-.86-.91.4,0a.34.34,0,0,0,.17-.05s0-.06,0-.11a.54.54,0,0,0-.13-.14.88.88,0,0,0-.29-.18.6.6,0,0,0-.32-.05l-.45,0Z" transform="translate(-24.56)"/><path d="M110.76,19.11l-.23-.2.54-.05.24.2Z" transform="translate(-24.56)"/><path d="M113.28,19.2l.22.19-1,.09a.92.92,0,0,1-.14-.14.85.85,0,0,1-.13-.22,1,1,0,0,1-.06-.26,1.07,1.07,0,0,0-.08-.37.64.64,0,0,0-.2-.24,1.17,1.17,0,0,0-.3-.19.56.56,0,0,0-.29-.06c-.08,0-.12,0-.1.1a.56.56,0,0,0,.19.24h-.2A.86.86,0,0,1,111,18c0-.08.06-.13.19-.14a1,1,0,0,1,.48.09,1.93,1.93,0,0,1,.49.31,1.13,1.13,0,0,1,.19.19.78.78,0,0,1,.11.2,1.7,1.7,0,0,1,.06.31,1.64,1.64,0,0,0,0,.22l0,.11Z" transform="translate(-24.56)"/><path d="M112.76,18.59a4.44,4.44,0,0,1-.48-.46.48.48,0,0,1-.16-.28c0-.06,0-.1.15-.11a.61.61,0,0,1,.26,0,1.25,1.25,0,0,1,.32.14,3,3,0,0,1,.37.22l.48.38a4.55,4.55,0,0,1,.48.45.69.69,0,0,1,.16.28q0,.11-.15.12a1.07,1.07,0,0,1-.52-.13A5,5,0,0,1,112.76,18.59Zm.18,0a4.22,4.22,0,0,0,.7.51.73.73,0,0,0,.36.11c.08,0,.09-.06,0-.15a2.87,2.87,0,0,0-.54-.53,4.25,4.25,0,0,0-.69-.51.73.73,0,0,0-.36-.11c-.08,0-.1.05-.06.13A2.74,2.74,0,0,0,112.94,18.58Z" transform="translate(-24.56)"/><path d="M115.47,19.22h-.18L113.82,18a.38.38,0,0,1,0,.15.35.35,0,0,1-.07.12l-.22-.19a.3.3,0,0,0,0-.21.5.5,0,0,0-.09-.23h.11Z" transform="translate(-24.56)"/><path d="M114.3,17.79l-.23-.18.93-.09.18.15a2.29,2.29,0,0,0,.24.46,4.37,4.37,0,0,0,.44.57,4.76,4.76,0,0,0,.45.44l-.18,0c-.15-.13-.3-.28-.47-.46a3.73,3.73,0,0,1-.42-.53,1.79,1.79,0,0,1-.24-.44Z" transform="translate(-24.56)"/><path d="M107.34,23.37l.25,0c.15.17.23.31.22.41s-.08.16-.23.17a1.29,1.29,0,0,1-.5-.07,2.74,2.74,0,0,1-.56-.29,4.36,4.36,0,0,1-.55-.41,2.88,2.88,0,0,1-.4-.44c-.08-.13-.11-.23-.07-.3s.11-.12.24-.13a1.23,1.23,0,0,1,.5.09,2.94,2.94,0,0,1,.6.32l-.14.07a1.59,1.59,0,0,0-.43-.24.68.68,0,0,0-.33-.06c-.11,0-.17,0-.18.11a.37.37,0,0,0,.11.25,2.84,2.84,0,0,0,.3.31,4.58,4.58,0,0,0,.45.35,2.67,2.67,0,0,0,.41.21.88.88,0,0,0,.33,0c.11,0,.16,0,.16-.13A.6.6,0,0,0,107.34,23.37Z" transform="translate(-24.56)"/><path d="M107.66,23.32c-.24-.21-.37-.37-.37-.48s0-.15.18-.16a1.2,1.2,0,0,1,.53.12,2.83,2.83,0,0,1,.62.42,2.32,2.32,0,0,1,.33.35c0,.09.07.16,0,.22s-.08.08-.18.09a1.13,1.13,0,0,1-.52-.12A2.41,2.41,0,0,1,107.66,23.32Zm.18,0a2.27,2.27,0,0,0,.46.32.64.64,0,0,0,.34.09c.09,0,.12,0,.09-.13a.86.86,0,0,0-.28-.34,1.89,1.89,0,0,0-.45-.32.69.69,0,0,0-.35-.09c-.09,0-.12.05-.09.13A.86.86,0,0,0,107.84,23.31Z" transform="translate(-24.56)"/><path d="M109.49,23.79l-1.29-1.15h.15l.19.16c-.07-.13,0-.2.12-.22l.21,0,.24.08.21.14.23.19.79.71-.18,0-.78-.7-.22-.18a.76.76,0,0,0-.18-.09.35.35,0,0,0-.17,0c-.07,0-.11,0-.1.09s.09.16.25.31l.7.63Z" transform="translate(-24.56)"/><path d="M110.16,23.36l.14-.05a.84.84,0,0,0,.28.17.5.5,0,0,0,.26.05c.08,0,.12,0,.12-.07a.21.21,0,0,0-.09-.13.37.37,0,0,0-.17-.1.74.74,0,0,0-.25-.05l-.38-.07-.23-.1-.22-.16a.55.55,0,0,1-.13-.14.18.18,0,0,1,0-.12.07.07,0,0,1,0-.06.25.25,0,0,1,.13,0,.78.78,0,0,1,.26,0,1.14,1.14,0,0,1,.26.09,1.75,1.75,0,0,1,.26.18l-.14,0a.89.89,0,0,0-.23-.13.41.41,0,0,0-.21,0c-.08,0-.13,0-.13.06a.16.16,0,0,0,.07.11l.1.06.12.05.22,0,.36.06a.67.67,0,0,1,.23.1.87.87,0,0,1,.23.16.54.54,0,0,1,.16.19.12.12,0,0,1,0,.14.22.22,0,0,1-.16.07.89.89,0,0,1-.42-.07A1.58,1.58,0,0,1,110.16,23.36Z" transform="translate(-24.56)"/><path d="M111.81,23.4l.22.17a.2.2,0,0,1-.11,0,.4.4,0,0,1-.19,0l-.17-.08a2.4,2.4,0,0,1-.28-.23l-.75-.66h-.13l-.17-.15h.13l-.33-.29,0-.13.46.4.18,0,.17.16h-.17l.76.67a.49.49,0,0,0,.13.11l.07,0s0,0,.07,0Z" transform="translate(-24.56)"/><path d="M112.18,23.56l-1.3-1.15.16,0,.2.18a.39.39,0,0,1-.07-.17s0,0,.07,0a.54.54,0,0,1,.25,0l.15.18-.18,0s-.06,0-.06.05,0,.06.06.11a1.53,1.53,0,0,0,.22.23c.23.2.46.4.68.61Z" transform="translate(-24.56)"/><path d="M113.54,23.44l-.19-.17c.07.14,0,.21-.11.23l-.22,0a.92.92,0,0,1-.23-.09.85.85,0,0,1-.21-.14,1.24,1.24,0,0,1-.22-.18l-.81-.71.18,0,.72.64.25.21a.66.66,0,0,0,.2.11.46.46,0,0,0,.19,0s.08,0,.09-.06,0-.08,0-.13a1.61,1.61,0,0,0-.23-.23l-.7-.62h.18l1.3,1.15Z" transform="translate(-24.56)"/><path d="M114.19,22.92h.2c.13.14.2.24.2.33s0,.12-.16.13a1,1,0,0,1-.52-.12,3.07,3.07,0,0,1-.63-.43,2.85,2.85,0,0,1-.31-.33c-.07-.1-.09-.18-.07-.23s.08-.08.17-.09a.85.85,0,0,1,.39.07,1.87,1.87,0,0,1,.44.26l-.14,0a1.39,1.39,0,0,0-.28-.16.4.4,0,0,0-.22,0c-.09,0-.12,0-.1.12a1.24,1.24,0,0,0,.3.35,2.54,2.54,0,0,0,.46.33.66.66,0,0,0,.33.08c.07,0,.1,0,.09-.08S114.29,23,114.19,22.92Z" transform="translate(-24.56)"/><path d="M115.18,23.11l.22.17-.11,0a.58.58,0,0,1-.19,0l-.18-.09-.28-.22-.75-.67h-.13l-.18-.15h.13l-.32-.28,0-.14.46.41.18,0,.17.15-.17,0,.76.67.13.11.07,0h.15Z" transform="translate(-24.56)"/><path d="M114,21.9l-.26-.22.18,0,.25.23Zm1.55,1.37-1.31-1.16h.18l1.31,1.15Z" transform="translate(-24.56)"/><path d="M115.28,22.66c-.24-.22-.37-.38-.38-.49s0-.15.18-.16a1.1,1.1,0,0,1,.53.13,2.31,2.31,0,0,1,.63.42,1.76,1.76,0,0,1,.34.35.27.27,0,0,1,0,.21.21.21,0,0,1-.18.1,1.1,1.1,0,0,1-.53-.13A2.76,2.76,0,0,1,115.28,22.66Zm.18,0a1.71,1.71,0,0,0,.47.32.78.78,0,0,0,.34.1c.09,0,.12-.06.1-.14a1.24,1.24,0,0,0-.3-.34,1.69,1.69,0,0,0-.46-.31.82.82,0,0,0-.34-.1c-.09,0-.12,0-.1.13A1.19,1.19,0,0,0,115.46,22.64Z" transform="translate(-24.56)"/><path d="M117.12,23.13,115.81,22l.16,0,.19.17c-.07-.14,0-.21.11-.22a.6.6,0,0,1,.22,0,.92.92,0,0,1,.23.09,1.35,1.35,0,0,1,.22.14s.12.1.23.19l.8.71h-.17l-.8-.7-.23-.18-.18-.08a.34.34,0,0,0-.16,0c-.08,0-.11,0-.11.1a.88.88,0,0,0,.26.3l.72.64Z" transform="translate(-24.56)"/><path d="M119.08,23l-2.21-1.56.2,0,1.42,1c.15.1.29.21.43.32l-.27-.3-1-1.1.24,0c.38.26.76.52,1.13.79s.54.38.76.55l-.33-.35-1-1.05h.19q.73.81,1.44,1.62l-.19,0-1.69-1.19-.26-.18.17.19,1.08,1.24Z" transform="translate(-24.56)"/><path d="M120,22.25c-.25-.22-.38-.38-.39-.49s0-.15.18-.16a1.1,1.1,0,0,1,.53.13,2.2,2.2,0,0,1,.64.42,1.76,1.76,0,0,1,.34.35.25.25,0,0,1,0,.22.2.2,0,0,1-.17.09,1.11,1.11,0,0,1-.54-.13A2.76,2.76,0,0,1,120,22.25Zm.18,0a2.27,2.27,0,0,0,.47.33.75.75,0,0,0,.34.09c.09,0,.12,0,.1-.13a1.11,1.11,0,0,0-.3-.35,2.06,2.06,0,0,0-.46-.31.86.86,0,0,0-.35-.1c-.09,0-.12,0-.09.13A.92.92,0,0,0,120.13,22.23Z" transform="translate(-24.56)"/><path d="M121.79,22.72l-1.32-1.15.15,0,.21.18a.37.37,0,0,1-.08-.17.07.07,0,0,1,.07,0,.64.64,0,0,1,.25,0,1.46,1.46,0,0,0,.16.19l-.18,0s-.06,0-.06.05,0,.06.05.11a1.79,1.79,0,0,0,.24.23l.69.61Z" transform="translate(-24.56)"/><path d="M122.46,22.66l-1.83-1.59.17,0,1.06.91c0-.17-.08-.34-.13-.5l.23,0c0,.16.07.31.1.47l1.27.69-.22,0-1-.56,0,.14.52.46Z" transform="translate(-24.56)"/><path d="M123.76,22.14H124a.5.5,0,0,1,.16.29c0,.07-.07.11-.19.12a1.21,1.21,0,0,1-.54-.12,2.87,2.87,0,0,1-.64-.43,1.2,1.2,0,0,1-.38-.46c0-.12,0-.18.16-.2a1.16,1.16,0,0,1,.52.13,2.71,2.71,0,0,1,.65.43l.06.06L123,22a2.23,2.23,0,0,0,.43.28.71.71,0,0,0,.34.08c.06,0,.09,0,.1-.07A.34.34,0,0,0,123.76,22.14Zm-1-.27.59-.05a1.91,1.91,0,0,0-.32-.21.69.69,0,0,0-.35-.09c-.08,0-.12,0-.1.1A.49.49,0,0,0,122.81,21.87Z" transform="translate(-24.56)"/><path d="M124.59,22.48l-1.33-1.16h.16l.2.17a.46.46,0,0,1-.08-.17.07.07,0,0,1,.07,0,.58.58,0,0,1,.26,0l.15.18-.18,0s-.06,0-.06.05a.17.17,0,0,0,.06.11,2.49,2.49,0,0,0,.23.24l.7.6Z" transform="translate(-24.56)"/><path class="cls-5" d="M75.89,6.61c6.84,9.73,24.81,19.47,27.38,29.21Q132.19,33.6,160,31.31c-7-9.91-25.22-19.81-27.82-29.7Zm78.83,21c1.47,1.53,1.25,2.87-.18,3q-20.62,1.71-41.78,3.38c-1.47.11-3.17-1-4.2-2.53-4.85-7.11-15.73-14.22-22.39-21.32-1.43-1.51-1.19-2.84.23-3l41.53-3.72c1.46-.13,3.13,1,4.15,2.54C136.89,13.15,147.9,20.36,154.72,27.57Z" transform="translate(-24.56)"/><path class="cls-6" d="M97.16,23.55h0a4.33,4.33,0,0,1-2.59-1.16c-1.91-1.67-3.91-3.35-5.88-5-.82-.7-1-1.31-.33-1.37h0A4.54,4.54,0,0,1,91,17.16c2,1.68,4,3.35,5.89,5C97.69,22.89,97.8,23.5,97.16,23.55Z" transform="translate(-24.56)"/><path class="cls-7" d="M144.45,31.39q-10.63.87-21.4,1.73c-7,.56-15.83-5-25-12.38h0c-9.3-7.39-9-13.88-1.61-14.51L117.7,4.32c7-.64,15.65,4.93,24.94,12.43h0C152.05,24.26,151.91,30.82,144.45,31.39Z" transform="translate(-24.56)"/><path class="cls-8" d="M89.41,20.11c0-.11,0-.62,1-.59a6.23,6.23,0,0,1,2,.52l1,.84a7.82,7.82,0,0,0-1.75-.44c-.3,0-.78-.06-1,.19a.54.54,0,0,0-.06.47Z" transform="translate(-24.56)"/><path class="cls-9" d="M89.11,20.13C65,11.81,42.21,9.79,31.33,14.24c-7.14,3-6.66,8.51-6.77,9.58.56.61-.58,9.53,4.32,12.4,2.82,1.49,9.68,1,26.82-3.14a207.58,207.58,0,0,0,35-11.59l-1.12-.88C69.65,29.45,35.93,37.93,30.1,34.26c-1-.63-.84-1.61-1.06-3.54.47-2.87-5.94-13,6.36-16.55,6.88-1.94,15.41-.78,32.81,1.59a109.24,109.24,0,0,1,16.45,3.77c2.34.67,4.28,1.29,5.66,1.76Z" transform="translate(-24.56)"/><path class="cls-10" d="M132.31,20.39c2.34,2,4.63,4,6.64,6l2.91-.25c-2-2-4.33-4-6.68-6Z" transform="translate(-24.56)"/><path class="cls-11" d="M129.64,14a22.2,22.2,0,0,1,5,3.63c.58.54,4.24,3.87,3.08,4.95-.65.61-2.43.17-2.9,0-3.14-.86-6.68-3.5-8-4.45-1.55-1.16-3.17-2.38-3.69-3.45C122.11,12.55,125.8,12,129.64,14Z" transform="translate(-24.56)"/><path d="M133.66,16.78a4.78,4.78,0,0,0-1.31-.88,2.32,2.32,0,0,0-.62-.2l-1.07-.78a12.55,12.55,0,0,0-3.94-.5,3,3,0,0,0-2.29,1l.86.83a.32.32,0,0,0-.09.4,3.42,3.42,0,0,0,1,1.11,14,14,0,0,1-3.36-2.87,2.87,2.87,0,0,1-.73-1.78,1.28,1.28,0,0,1,.76-1.21,3.87,3.87,0,0,1,2.82,0,16.79,16.79,0,0,1,4.1,1.91A21.11,21.11,0,0,1,133.66,16.78Z" transform="translate(-24.56)"/><path d="M133.78,21.11a.46.46,0,0,1,.43-.44,2.45,2.45,0,0,1,1.22.23.73.73,0,0,1,.24.54c0,.14-.09.22-.26.24A2.87,2.87,0,0,1,133.78,21.11Z" transform="translate(-24.56)"/><path d="M128.3,16.57c.08.14-.33,0-.72.06-.58,0-.64.33-.86.21a.51.51,0,0,1-.18-.2c-.12-.19,0-.25.29-.32a4.13,4.13,0,0,1,.77-.05.76.76,0,0,1,.7.3Z" transform="translate(-24.56)"/><path d="M129.33,17.64c.26.23.36.42.23.43a1.47,1.47,0,0,1-.72-.38c-.26-.23-.37-.42-.23-.43A1.51,1.51,0,0,1,129.33,17.64Z" transform="translate(-24.56)"/><path d="M129.36,17.52a2.49,2.49,0,0,0-.77-.35c-.08,0-.19,0-.32.24a1.27,1.27,0,0,0-.1.35l.26-.21c.21-.16.28-.21.47-.18A2.76,2.76,0,0,1,129.36,17.52Z" transform="translate(-24.56)"/><path d="M129.74,16.4c.24.13.35,0,.72-.06.55-.07,1.22.16,1.13,0a.81.81,0,0,0-.26-.18,1.86,1.86,0,0,0-.92-.22,3.38,3.38,0,0,0-.72.09c-.13,0-.24,0-.19.14A.72.72,0,0,0,129.74,16.4Z" transform="translate(-24.56)"/><path d="M131.19,17.44a1.35,1.35,0,0,0,.72.38c.14,0,0-.2-.23-.42A1.47,1.47,0,0,0,131,17C130.83,17,130.93,17.22,131.19,17.44Z" transform="translate(-24.56)"/><path d="M131,17.38c-.26-.33-.18-.41-.15-.42s.11-.05.74.12l.81.24-.65-.11c-.48-.08-.64-.1-.72,0S130.93,17.31,131,17.38Z" transform="translate(-24.56)"/><path d="M130.78,18l.35.41c.27.33.27.35.39.48a3.17,3.17,0,0,0,.94.8.75.75,0,0,0,.61.06,1,1,0,0,1-.64-.13,3,3,0,0,1-.47-.35,9.19,9.19,0,0,1-.71-.8C131.15,18.32,131,18.16,130.78,18Z" transform="translate(-24.56)"/><path d="M134.33,22.47s-1.92-1.57-1.81-2.16c0-.24.4-.29.86-.35a2.85,2.85,0,0,1,1.35.06,10.88,10.88,0,0,1,3.16,2l-.38-.23c-1.18-.73-1.78-1.09-2-1.19a2.16,2.16,0,0,0-1.34,0c-.57.09-.86.13-.83.38a3.48,3.48,0,0,0,.79,1.23C134.28,22.41,134.34,22.47,134.33,22.47Z" transform="translate(-24.56)"/><path d="M129.52,20.05c2.46,1.47,5,2.29,6.4,2.09s1.53-1.34.28-2.92c.31.29,1.85,1.81,1.69,2.83,0,.13-.13.69-1.1.81-1.68.22-4.42-1.14-4.7-1.27A19.59,19.59,0,0,1,129.52,20.05Z" transform="translate(-24.56)"/><g class="cls-12"><path class="cls-13" d="M135.55,23.21a1.73,1.73,0,0,0,.24.38c1.08,1.33,4.61,2.74,4.75,2.8a2.85,2.85,0,0,0,0-.56,2.45,2.45,0,0,0-.38-1.34A6.18,6.18,0,0,0,138.41,23a3.28,3.28,0,0,1,1,0,9.59,9.59,0,0,1,2.15.61,32.05,32.05,0,0,1,4.83,2.53c4.3,2.73,6,4.11,6.28,4.44,2.2,2.92-1.57,5.15-1.91,5.35l-3.95.44-3.92-.23a5.68,5.68,0,0,1-3.11-1.46,14.38,14.38,0,0,1-2.36-3.26,43.38,43.38,0,0,1-2.52-4.29,6.54,6.54,0,0,1-1-2.81.89.89,0,0,1,.25-.74A2,2,0,0,1,135.55,23.21Z" transform="translate(-24.56)"/><path class="cls-14" d="M140.54,26.39a13.81,13.81,0,0,0-1.66-.57,8.05,8.05,0,0,0-2.12-.33c-.38-.46-.66-.85-.86-1.14-.47-.69-.5-.89-.45-1a.29.29,0,0,1,.12-.14l.37.33.35.31.44.4.1.09A42,42,0,0,0,140.54,26.39Z" transform="translate(-24.56)"/><path class="cls-14" d="M140.54,26.39a1.61,1.61,0,0,1,.32-.75A1.91,1.91,0,0,1,142,25c-.59-.45-1.12-.82-1.53-1.08a7.16,7.16,0,0,0-1.69-.92,2.42,2.42,0,0,0-.38-.09l.38.33.34.31.44.41.1.08A6.47,6.47,0,0,1,140.54,26.39Z" transform="translate(-24.56)"/></g></g></g></svg>