<svg xmlns="http://www.w3.org/2000/svg" xmlns:xlink="http://www.w3.org/1999/xlink" viewBox="0 0 596.23 489.65"><defs><style>.cls-1,.cls-2{fill:none;}.cls-10,.cls-11,.cls-12,.cls-2,.cls-9{stroke:#c6d5db;stroke-width:3px;}.cls-10,.cls-11,.cls-2,.cls-9{stroke-miterlimit:10;}.cls-3{fill:#c6d5db;}.cls-10,.cls-4{fill:#fff;}.cls-5{font-size:18px;font-family:ArialMT, Arial;}.cls-6{letter-spacing:-0.04em;}.cls-7{letter-spacing:-0.06em;}.cls-8{letter-spacing:-0.02em;}.cls-11,.cls-9{fill:#efefef;}.cls-11{opacity:0.27;}.cls-12,.cls-13{fill:#848484;}.cls-12{stroke-linecap:round;stroke-linejoin:round;}.cls-14{fill:#8c4714;}.cls-15{fill:#8d5524;}.cls-16{clip-path:url(#clip-path);}.cls-17{fill:#4989ce;}.cls-18{fill:#76a3cc;}</style><clipPath id="clip-path"><rect class="cls-1" x="390.07" y="48.65" width="145.18" height="145.18"/></clipPath></defs><g id="Layer_2" data-name="Layer 2"><g id="Layer_1-2" data-name="Layer 1"><rect class="cls-2" x="105.6" y="104.47" width="9.4" height="23.62"/><rect class="cls-3" x="277.18" y="-66.41" width="205.45" height="374.06" rx="15.12" transform="translate(259.28 500.52) rotate(-90)"/><rect class="cls-4" x="397.16" y="48.65" width="145.18" height="145.18"/><text class="cls-5" transform="translate(218.82 90.35)">KUMAR NAZRU<tspan class="cls-6" x="132" y="0">L</tspan></text><text class="cls-5" transform="translate(218.3 122.32)">21 -<tspan class="cls-7" x="31.02" y="0"> </tspan><tspan x="35.02" y="0">APR - 2017</tspan></text><text class="cls-5" transform="translate(217.4 152.13)">Construction <tspan class="cls-8" x="106.05" y="0">W</tspan><tspan x="122.71" y="0">orker</tspan></text><path class="cls-9" d="M116.75,1.5V239.74h478V1.5Zm460.5,206.89A22.29,22.29,0,0,1,555,230.68H199.18a22.29,22.29,0,0,1-22.29-22.29V34.91a22.29,22.29,0,0,1,22.29-22.29H555a22.29,22.29,0,0,1,22.29,22.29Z"/><rect class="cls-10" x="133.26" y="80.3" width="20.64" height="61.56" rx="10.32"/><rect class="cls-11" x="176.89" y="12.59" width="400.36" height="218.06" rx="22.29"/><path class="cls-12" d="M112.82,111.35a19.51,19.51,0,0,1,13.63-3.76,19.21,19.21,0,0,1,11,5.18v6.84a25,25,0,0,0-10-4.4,16.16,16.16,0,0,0-9.81.77,15,15,0,0,0-4.85,3.4Z"/><path class="cls-13" d="M107.33,110c-5.22,6.1-12.59,15.08-20.88,26.56-18.86,26.11-73,107.32-84.58,217.07-5.16,49,1.39,77.24,7.21,95.35,1,3.22,15,45.08,31.33,40.3,3.63-1.06,6.24-4.08,7.45-5.54,19.25-23.11,32.66-118.68,34.66-133.34,2.16-15.78,10-159.32,21.06-210.36,1.79-8.28,3.58-15,4.84-19.54a11.06,11.06,0,0,0-1-3.19,8.6,8.6,0,0,0-1.31-1.89c-.88,3.22-2.26,8.37-3.84,14.72-17.83,71.25-17.24,115-26.61,218,0,0-10,106.12-32.29,125.14-3.53,3-6.32-.57-11.71-8-10.15-13.93-10-15.05-11.8-19.28-17.06-39.45-7.31-110.22-7.31-110.22s8.92-64.69,50.93-149.64A382.52,382.52,0,0,1,96.33,131.9h0c2.09-2.92,4.34-5.92,6.77-9q2.33-2.93,4.59-5.56Z"/><rect class="cls-14" x="458.55" y="141.33" width="25.73" height="48.27"/><path class="cls-15" d="M497.39,92.79c8.09,9.71,6.94,22.5,6.29,29.76-.39,4.31-2.78,30.91-22,38.06-10.88,4-21.24-.35-23.9-1.6-17.73-8.29-21.16-29.84-22.4-37.67-1.5-9.45-3.08-19.41,2.52-27.62C449.08,77.32,483.37,76,497.39,92.79Z"/><path d="M504.12,115.89c.07-.57.48-4.55-2.35-7.3a7.81,7.81,0,0,0-3.19-1.86c-.48-2.12-1-4.25-1.46-6.37a66.85,66.85,0,0,0-55-.67l-.74,6.59a9.77,9.77,0,0,0-4.44,2.84c-3.12,3.58-2.24,8.22-2.12,8.84-1.13-3-4.34-12.66-.29-23.19a33.17,33.17,0,0,1,10.12-13.54,39.87,39.87,0,0,1,16.46-8.37c3.59-.82,12.83-2.79,23,1.84,10.51,4.8,15.08,13.65,16.66,16.81A39.19,39.19,0,0,1,504.12,115.89Z"/><path d="M463.75,147.48a37.28,37.28,0,0,0,7.69.65,36.52,36.52,0,0,0,7.64-1.07,15.89,15.89,0,0,1-7.61,2.07A16.26,16.26,0,0,1,463.75,147.48Z"/><path d="M462.56,110.8c-.72,1.12-3,.06-6.47,0-5-.1-8.3,2-8.93.92-.28-.48.18-1.21.37-1.53.92-1.49,2.77-1.78,5.42-2.16a45,45,0,0,1,6.71.14c1.22.06,2.33.14,2.82.91A1.71,1.71,0,0,1,462.56,110.8Z"/><ellipse cx="458.48" cy="119.33" rx="2.2" ry="3.25"/><path d="M462,118.48c-1-2.49-2.51-3-2.87-3.06-.51-.14-1.41-.24-4.86,1.55a44.44,44.44,0,0,0-4.13,2.43l4.13-1.35c3.16-1,4.2-1.33,5.46-1A5.12,5.12,0,0,1,462,118.48Z"/><path d="M475.84,110.57c.72,1.11,3,.06,6.47,0,5.05-.1,8.3,2,8.93.93.28-.48-.18-1.22-.38-1.54-.91-1.48-2.76-1.78-5.41-2.16a45.14,45.14,0,0,0-6.72.14c-1.21.07-2.32.14-2.82.92A1.71,1.71,0,0,0,475.84,110.57Z"/><ellipse cx="479.92" cy="119.09" rx="2.2" ry="3.25"/><path d="M476.4,118.45c.94-2.53,2.39-3,2.76-3.17s1.39-.28,4.9,1.38a43.4,43.4,0,0,1,4.22,2.29l-4.18-1.21c-3.2-.91-4.24-1.18-5.49-.78A5,5,0,0,0,476.4,118.45Z"/><path d="M469.48,122.57c-.25.75-.64,1.88-1.15,3.24-1,2.59-1.15,2.74-1.46,3.76-.55,1.8-1.48,4.89,0,6.46,1.26,1.35,3.68.94,4.38.8-.37,0-2.79.18-3.89-1.37a4.12,4.12,0,0,1-.45-2.88c.17-2.47,1.08-3.51,1.86-6.29A21.76,21.76,0,0,0,469.48,122.57Z"/><path d="M455.44,157.8c-.35-.07-1-12.71,5.56-16.94,2.74-1.76,6-1.86,10.36-2s7.56-.23,10.36,1.33c7.11,4,6.51,16,6.46,16.85l-.88-2c-2.75-6-4.14-9.08-5.18-10-2-1.64-4.81-1.49-10.5-1.19-5.48.29-8.22.43-10.35,2.25-2.48,2.12-3.77,5.72-5.14,9.53C455.54,157.36,455.51,157.81,455.44,157.8Z"/><path d="M439.18,137a34,34,0,0,0,62.25-1.7c-.36,2.33-2.43,14.38-13.25,21.75a31.29,31.29,0,0,1-16.41,5.23c-15.68.46-25.38-11.23-26.31-12.39A33.07,33.07,0,0,1,439.18,137Z"/><g class="cls-16"><path class="cls-17" d="M458.57,164A9.4,9.4,0,0,0,457,167c-3.28,10.43,13.7,23.17,14.45,23.71,1.11-1,2.69-2.4,4.51-4.2,4.73-4.7,7.09-7.05,8.33-10.09.7-1.71,2-5.94-.19-12.42a27.93,27.93,0,0,1,7.75.62,30,30,0,0,1,11.9,5.87c9.45,7.3,15.83,18.89,17.33,21.65,12.42,23,18.63,34.49,18.57,37.18-.47,23.35-35.48,38.65-38.69,40l-32.9,1.05-31.32-4.21c-3.21-.65-14.38-3.3-21.29-13.42-5.32-7.8-5-16.13-4.5-26.59a85.6,85.6,0,0,1,8.84-34c5.95-12.52,12.27-18.61,15.58-21.39a29.23,29.23,0,0,1,8.67-5.3A28.77,28.77,0,0,1,458.57,164Z"/><path class="cls-18" d="M471.46,190.66a42.74,42.74,0,0,0-23.29-9.07,56.09,56.09,0,0,1,2.94-9c2.28-5.38,3.92-6.91,5.44-7.77a9.25,9.25,0,0,1,2.25-.92c0,.61,0,1.54,0,2.67s0,.9,0,2.47c0,1.42,0,2.58,0,3.27,0,.41,0,.69,0,.7C458.79,174.22,462,179,471.46,190.66Z"/><path class="cls-18" d="M471.46,190.66a42.66,42.66,0,0,1,23.28-9.07,56.09,56.09,0,0,0-2.94-9c-2.28-5.38-3.92-6.91-5.44-7.77a9.25,9.25,0,0,0-2.25-.92c0,.61,0,1.54,0,2.67s0,1.64,0,2.47c0,1.42,0,2.58,0,3.27,0,.41,0,.69,0,.7C484.12,174.22,480.9,179,471.46,190.66Z"/></g></g></g></svg>