<svg xmlns="http://www.w3.org/2000/svg" viewBox="0 0 204.82 98.8"><defs><style>.cls-1{fill:#f26608;}.cls-2{fill:#eaeaea;}</style></defs><g id="Layer_2" data-name="Layer 2"><g id="Layer_1-2" data-name="Layer 1"><path class="cls-1" d="M24.33.59c.53,0-7.17.31-2.69,13.72A33.67,33.67,0,0,0,27.8,22.6a8.5,8.5,0,0,1,2,0c2.75.3,6,1.5,9.62,2.76s6.94,2.2,10.63,3.45c10.67,3.73,40.79,12.62,51.92,15.72-.13,0,36.53,10.19,70.81,16.36,11.92,2.15,9.17.75,19.33,2.89,3.08.66,7,1.57,7.16.66S195,61,192.11,59.29c-10.52-6.36-27.79-15.83-37.76-23.19-2.43-1.78-5.37-4.17-9-5.67a15.2,15.2,0,0,0-6.93-1.27c-7.28.34-19.83-2.66-28.82-3.47-7.72-.7-20.14-3.32-42.12-8.45-20.43-4.81-25.15-7-28.24-8.58-.59-.35-4.63-2.17-10.61-5.79C25.39.88,25.1.6,24.33.59Z" transform="translate(-20.23 -0.59)"/><path class="cls-2" d="M94.28,23.13l9.19,1.77A176,176,0,0,0,120.7,37.43c10,6.5,21,13,31.2,19.39-1.81-.34-3.94-.77-6.4-1.34-1.86-.43-3.66-.88-5.36-1.32-8.18-5-16.7-10.11-24.62-15.24C107.29,33.6,99.9,28.34,94.28,23.13Z" transform="translate(-20.23 -0.59)"/><path class="cls-2" d="M106.69,31.41c-14.49-2.32-31.77-5.53-50.46-10-13.54-3.24-25.69-6.67-35.74-10.07a23,23,0,0,0,2.11,4.83c11.63,3.77,25.6,7.66,41.18,11.47C83.69,32.49,102.2,36.29,118,39.27,114.05,36.65,110.23,34,106.69,31.41Z" transform="translate(-20.23 -0.59)"/><path class="cls-1" d="M104,71.26c-1.87-.46-4.93-2.2-28.79-16.38-6.1-3.58-11.1-6.54-14.52-8.62.88.28,2.18.67,3.59,1a24.87,24.87,0,0,0,8.08.88c2.06,0,4.69.2,6.64.1,5.82-.28,23,0,29.45.33,0,0,21.4.87,59.22,9,13.13,2.85,14,3.87,23.77,5.76a44.73,44.73,0,0,1,10.43,2.94,26.1,26.1,0,0,1,8,5.54c6.63,5.88,13.82,14.6,15,22.43.44,1.9.34,4.51-1.6,5s-4.15-1.26-5-1.78c-7.35-4.8-17-6.83-27-10.64-8.93-3.29-19.65-5.79-42.59-10.68-21.89-4.6-26.83-4.8-29.13-4.65-.54,0-3.77.06-10.24.1C105.78,71.68,105.25,71.67,104,71.26Z" transform="translate(-20.23 -0.59)"/><path class="cls-2" d="M175.87,82.38q4.55,1.17,8.95,2.35c-2.47-4.07-6.33-8.15-11.11-12.23-7.43-6.36-17.06-12.71-27-19.06-2-.39-4.12-.77-6.23-1.12-1.47-.25-2.87-.48-4.21-.68,7.78,5,15.65,10,22.64,15.15C166,72.07,172,77.27,175.87,82.38Z" transform="translate(-20.23 -0.59)"/><path class="cls-2" d="M171.7,75.44c-15.92-4.13-34.48-8.23-53.84-11.7-14.07-2.52-26.5-4.36-37.28-5.7-2.9-1.72-5.86-3.44-8.84-5.16,10.89,1.15,23.49,2.76,37.91,5,18.39,2.86,36.28,6.25,52.27,9.68A118.36,118.36,0,0,1,171.7,75.44Z" transform="translate(-20.23 -0.59)"/></g></g></svg>