<svg xmlns="http://www.w3.org/2000/svg" viewBox="0 0 323.57 456.44"><defs><style>.cls-1{fill:#f26608;}.cls-2{fill:#eaeaea;}</style></defs><g id="Layer_2" data-name="Layer 2"><g id="Layer_1-2" data-name="Layer 1"><path class="cls-1" d="M323.24,24.49c-1-3.58-5.55-14.62-68.64-21.55C238.69,1.19,225.38.4,215.93,0a36.48,36.48,0,0,1,2.27,8c1.67,10.15-1.39,18.28-4.39,27.41-2.89,8.75-4.62,18-7.73,26.64-9.25,25.84-28.79,94.26-35.14,119,0,0-21,81.78-16.51,184.19,1.58,35.72,7,33,6.39,61.66-.18,8.74-.88,19.38,5.06,25.48,6.3,6.47,16.32,3.52,23.77,2.63,27.13-3.26,67.55-8.11,101.24-4.19,8.14.95,19.21,2.8,23.77-4.09,4.46-6.72.3-18.15-.91-21.62-11.11-31.77-8.62-67.73-15-101.15-5.53-28.93-4.93-65.71-3.73-139.28,1.13-69.33,5.77-87.22,9.85-97.79.91-2.37,5.22-15.71,13.85-42.39C323.47,29.76,324.1,27.65,323.24,24.49Z"/><path class="cls-2" d="M294.85,272.81q.5,14.9,1,29.81-27.69.69-55.49,1.28-43.27.93-86.26,1.64a157.63,157.63,0,0,1,.58-17.56c.44-4.83,1.06-9.3,1.78-13.37q33.59-.93,67.91-1.38Q260,272.75,294.85,272.81Z"/><path class="cls-2" d="M260.61,281.92a1280.67,1280.67,0,0,1-2.79-159.26c1.92-42.75,5.83-82.23,10.79-118L245.77,1.78C239.59,39,234.16,80.21,230.41,125.09a1547.73,1547.73,0,0,0-5.1,156.29Z"/><path class="cls-1" d="M.32,24.49C1.3,20.91,5.88,9.87,69,2.94,84.87,1.19,98.19.4,107.64,0a36.48,36.48,0,0,0-2.27,8c-1.67,10.15,1.39,18.28,4.39,27.41,2.88,8.75,4.62,18,7.72,26.64,9.26,25.84,28.79,94.26,35.15,119,0,0,21,81.78,16.51,184.19-1.58,35.72-7,33-6.39,61.66.17,8.74.88,19.38-5.06,25.48-6.3,6.47-16.32,3.52-23.77,2.63-27.14-3.26-67.56-8.11-101.24-4.19-8.14.95-19.21,2.8-23.77-4.09-4.46-6.72-.31-18.15.9-21.62,11.11-31.77,8.63-67.73,15-101.15,5.53-28.93,4.93-65.71,3.73-139.28-1.13-69.33-5.77-87.22-9.85-97.79-.92-2.37-5.23-15.71-13.85-42.39C.1,29.76-.53,27.65.32,24.49Z"/><path class="cls-2" d="M28.72,272.81q-.51,14.9-1,29.81,27.71.6,55.49,1.28,43.23,1.05,86.24,2.24-.06-8.68-.57-18.16c-.24-4.41-.56-8.69-.93-12.83q-33.8-1.31-68.75-1.92Q63.37,272.62,28.72,272.81Z"/><path class="cls-2" d="M63,281.92a1282.61,1282.61,0,0,0,2.79-159.26C63.83,79.91,59.91,40.43,55,4.67L77.79,1.78C84,39,89.41,80.21,93.15,125.09a1548,1548,0,0,1,5.11,156.29Z"/></g></g></svg>