<svg xmlns="http://www.w3.org/2000/svg" viewBox="0 0 159.61 600.9"><defs><style>.cls-1{fill:#d69274;}.cls-2{fill:#e29c79;}.cls-3{fill:#073f07;}.cls-4{fill:#d18f71;}.cls-5{fill:#063006;}</style></defs><g id="Layer_2" data-name="Layer 2"><g id="Layer_1-2" data-name="Layer 1"><rect class="cls-1" x="87.18" y="93.51" width="35.08" height="41.66"/><path class="cls-2" d="M52.05,24.1S46.16,26.82,43.44,64a10.92,10.92,0,0,1-.28,3.45c-.62,2.46-1.94,3.82-3.22,5.48-2.29,3-5,6.47-4.36,9.17.15.66.94,3.21,7.06,4.81a109.67,109.67,0,0,0,5.6,19.87c2.53,6.57,3.78,9.87,6.07,12,8.29,7.77,24,3,34.71.26a95.07,95.07,0,0,0,36.43-18.73A52.37,52.37,0,0,0,134.51,84c5.66-16.82,2.53-36.91-8.15-50.27C110.81,14.27,79,8.74,52.05,24.1Z"/><path d="M45.67,52c.7,1.22,3.49.21,6.31.31,7.58.26,11.74,8.39,13.18,7.37,1-.72-.13-5.37-3.26-8.08-1.54-1.32-3.12-1.71-6.28-2.5-3.65-.91-7.17-1.79-9,0C45.8,49.92,45.23,51.24,45.67,52Z"/><ellipse cx="49.38" cy="62.22" rx="2.71" ry="3.76"/><path d="M115,67.46c2.22-2.26,7.65-1.55,10.82,1,5.64,4.54,3.65,14.57,1.74,18.09-1.39,2.56-2.84,3.13-4,6.44-1,2.72-.88,5-.73,8.18a.62.62,0,0,0,0,.14,2.56,2.56,0,0,0,1.2,1.36c.76.44,6.39-1.38,12-6.88,16.59-16.15,17-37.6,17-37.6.24-29.38-25.69-47-26.75-47.74C104.14-4.14,71.07-3.65,55.94,13.12c-2,2.21-8.59,9.53-7.68,18.55C49.71,46,69.45,59.09,98.52,61.42c-8.83-9.14-10.91-11.1-11-11s5.83,7.34,13.3,15c4.68,4.8,5.3,4.64,6.4,6.67,2.67,4.91,2.34,9,4.73,15.56.65,1.78,1.43,3.93,2,3.84,1.22-.2.82-10,.73-12.07C114.36,71.24,113.44,69.08,115,67.46Z"/><path d="M57.63,103.61a24.19,24.19,0,0,1-5.05,1.24,23.63,23.63,0,0,1-5.19.24,23.56,23.56,0,0,1,5-1.23A24.26,24.26,0,0,1,57.63,103.61Z"/><path d="M45,60.31A6.17,6.17,0,0,1,48.77,58a6.72,6.72,0,0,1,5.35,1.82,8.55,8.55,0,0,1,2.56,3.68A13.54,13.54,0,0,0,54,61.05c-1.42-1-3.54-2.34-6.11-2A5.87,5.87,0,0,0,45,60.31Z"/><path d="M122.28,563c.14,5.27.63,10.79.28,19.59-.2,5.06-.6,9.22-.92,12-12.6.75-82.32,4.88-83.11,2.74-.28-.74-.74-2.63-.89-2.47a15.88,15.88,0,0,1,1-8.52,16.3,16.3,0,0,1,2-3.45c4.6-6.06,11.91-7.73,13.5-8.1a44.63,44.63,0,0,1,7-.93c.77,0,1.48-.07,2.11-.08a84.23,84.23,0,0,0,10.66-.9,36.74,36.74,0,0,0,10.82-3.42c7.35-4,10.46-16.94,9-31.54l30.22-.56A143.93,143.93,0,0,0,122.28,563Z"/><path d="M37.67,599.84c13.86.53,25.78.25,35.3-.26,5.73-.3,8.25-.57,13.76-.85a329.4,329.4,0,0,1,34.71.07V594H37.64Z"/><rect x="114.17" y="597.68" width="7.27" height="3.22" transform="translate(235.61 1198.57) rotate(-180)"/><rect x="105.18" y="597.68" width="7.27" height="3.22" transform="translate(217.63 1198.57) rotate(-180)"/><rect x="96.12" y="597.68" width="7.27" height="3.22" transform="translate(199.51 1198.57) rotate(-180)"/><rect x="87.13" y="597.68" width="7.27" height="3.22" transform="translate(181.53 1198.57) rotate(-180)"/><rect x="64.71" y="597.68" width="7.27" height="3.22" transform="translate(136.69 1198.57) rotate(-180)"/><rect x="55.72" y="597.68" width="7.27" height="3.22" transform="translate(118.72 1198.57) rotate(-180)"/><rect x="46.66" y="597.68" width="7.27" height="3.22" transform="translate(100.6 1198.57) rotate(-180)"/><rect x="37.67" y="597.68" width="7.27" height="3.22" transform="translate(82.62 1198.57) rotate(-180)"/><path d="M154,254.15a401.19,401.19,0,0,1,1,70.51c-1.1,14.88-2.33,20.26-6.79,50.78-8.95,61.23-13.43,91.84-13.14,101.1.78,24.65-4.82,49.06-7,73.62-.17,1.89-.63,7.13-4.3,10-4.92,3.87-14,2.19-18.79,0-.93-.42-3.26-1.55-6.76-2.92a31.55,31.55,0,0,0-5-1.75,23.88,23.88,0,0,0-5.66,0c-2.36.15-3.83.35-4,.35-2.84,0-7.38-78.39-14.6-298.75Z"/><path class="cls-3" d="M84.34,138.6a38.07,38.07,0,0,0-4.48,7.21c-4,8.75-8.9,19.61-13,58.91-1.45,14.05-2.18,21.28-2.32,31.73-.16,11.86.55,18,1.14,30.72.47,10,.9,24.66.46,42.82,14.12,5.54,24.78,6.73,32.1,6.71,1.91,0,3.8-.09,12.85-.23,14-.21,16.4-.1,19.21-.23,6.8-.32,16.48-2,28.56-8.33,3.55-27.84-7.33-92.69-8.78-118.91-.13-2.47-4.17-58.72-25.75-70.86a14.69,14.69,0,0,0-3.89-1.47C104.41,112.79,86.5,135.77,84.34,138.6Z"/><path class="cls-2" d="M114.06,198.21a78.07,78.07,0,0,1-1.16,27.31c-3.6,16-12.58,25.75-20.33,37.89A329.87,329.87,0,0,1,49,317.75Q40.77,311,32.53,304.21c4-6.43,7.08-11.53,9.17-15.06,1.36-2.29,31.25-28.79,39.67-36.49,3.75-3.42,5.4-10.6,10.35-23.49a409.29,409.29,0,0,0,13.82-42.74Z"/><path class="cls-2" d="M33.24,303.47a7.15,7.15,0,0,1-2.47,2c-1.39.65-2.05.31-4.88.68-1.81.24-3.13.54-5.18,1a24.85,24.85,0,0,0-3.36.89c-1.32.48-1.58.73-2.86,1.22a38.1,38.1,0,0,1-3.79,1c-2.41.71-4.59,1.34-4.87,2.36C5.46,314,8.68,315.4,9,315.52a13.52,13.52,0,0,0,7.4.42c4.23-.89,1.67,1.71,1.67,1.71s-.85,1.85-4.1,4.45-10.46,8.21-12,9.56-4,5.83,1.4,5.46,15-7.37,15-7.37-13.77,7-14.56,8.63-1.26,6.71,6,4a62.53,62.53,0,0,0,13.86-7.7s-19.11,6.81-14.6,10.15,16.35-2.86,19.22-6c-2.08,1.56-3.83,2.72-5.06,3.5-1.95,1.24-3.53,2.12-3.59,3.51a1.46,1.46,0,0,0,.3,1.07c1,1.1,4.32-.53,5.58-1a28.25,28.25,0,0,0,11.66-8.93c5.15-6.38,4.14-9.55,10-17.06A52.89,52.89,0,0,1,51.56,315Z"/><path class="cls-4" d="M5.91,336.64a47.05,47.05,0,0,0,9.33-5.27,45,45,0,0,0,6-5.23"/><path class="cls-4" d="M8.34,342.83a25.74,25.74,0,0,0,3.85-1.08,42.59,42.59,0,0,0,4.61-1.68,24.32,24.32,0,0,0,4.59-2.69,21.21,21.21,0,0,0,5.2-5.75,42.53,42.53,0,0,1-7.79,6.19C13.47,341.1,8.27,342.63,8.34,342.83Z"/><path class="cls-4" d="M20.93,343.53a8.4,8.4,0,0,0,2-.79,20.59,20.59,0,0,0,2.35-1.16,12.52,12.52,0,0,0,2.29-1.68,11.63,11.63,0,0,0,2.54-3.48,34.83,34.83,0,0,1-3.63,3.31C23.55,342,20.85,343.39,20.93,343.53Z"/><path class="cls-5" d="M125.74,193.64c-.23,20.68-.42,38.19-11,56.39-5.14,8.86-5.29,5.05-24.08,27.06C76.61,293.57,59.19,315.67,53.83,314c-3-.92-2.35-4.35-8.12-8.42a20.64,20.64,0,0,0-4.41-2.4c-5.19-2-7.37-1.9-8.28-2.6-5.58-4.36,38.82-46.41,46.65-98.72,3.15-21.08-.34-39.14,13.34-50.72,5.5-4.66,14.88-9.21,22-6.07C126.21,150,126,171.6,125.74,193.64Z"/></g></g></svg>