<svg xmlns="http://www.w3.org/2000/svg" viewBox="0 0 1339.54 778.22"><defs><style>.cls-1{fill:#8c4714;}.cls-2{fill:#8d5524;}.cls-3{fill:#024e60;}.cls-4{fill:#458c93;}.cls-5{fill:#f9b03a;}.cls-6{fill:#ce8e32;}.cls-7{fill:#e59b39;}.cls-8{fill:#f26608;}.cls-9{fill:#eaeaea;}.cls-10{fill:#7c3d13;}.cls-11{fill:#7f4921;}.cls-12{fill:#30251b;}.cls-13{fill:#a0001f;}.cls-14{fill:#3f3f3f;}.cls-15{fill:#001e23;}.cls-16{fill:#595959;}.cls-17{fill:#6d3e1d;}.cls-18{fill:#663a1c;}</style></defs><g id="Layer_2" data-name="Layer 2"><g id="Layer_1-2" data-name="Layer 1"><rect class="cls-1" x="1099.62" y="259.16" width="81.7" height="97.05"/><path class="cls-2" d="M1267.45,89.1s13.71,6.33,20,92.83c0,0,0,14.24,5.27,21.62s19.52,22.16-2.63,27.43a274.24,274.24,0,0,1-13.81,50.59c-5.76,15.23-8.76,22.95-14.15,28-19.3,18.1-56,7-80.84.6-38.72-10-67.09-29-84.87-43.63a121.84,121.84,0,0,1-21.1-38c-13.19-39.19-5.9-86,19-117.1C1130.57,66.2,1204.73,53.33,1267.45,89.1Z"/><path d="M1285.06,154.88c-1.94,3-8.18.15-17.46,0-13.63-.26-22.42,5.41-24.11,2.5-.75-1.29.47-3.28,1-4.14,2.48-4,7.47-4.81,14.62-5.84,3-.43,8-.16,18.12.38,3.29.17,6.27.38,7.62,2.47A4.64,4.64,0,0,1,1285.06,154.88Z"/><ellipse cx="1274.04" cy="177.89" rx="5.93" ry="8.77"/><path d="M1269.44,298.65c2,5.27-6.36,13.76-13.42,18.13-9.38,5.81-19.12,6-26,5.81-37-1-68-14.32-77.21-18.43-17.62-7.88-26.43-11.83-29.79-15.74-27-31.44,10.29-94.54-6-103.82-6.43-3.65-17,3.34-21.48,7.87-11,11.11-10.52,30.45-4,42.15,3.24,6,6.62,7.28,9.34,15,2.21,6.33,2.06,11.63,1.7,19.05-.45,8.83-1.25,20.31-2.87,34-63.48-75.32-66-124.75-63-148.66,0,0,.28-2.21.66-4.49,2.55-15.11,16.92-63.6,57.11-92.16,46.38-32.95,124.17-37.27,164,6.18,20.51,22.37,24.58,50.45,25.47,65.54-5.9.17-10.86,0-14.58-.15-17.61-.89-25.19-3.79-41.71-4.22-5.76-.14-10.6.06-14.1.3l-14.79,16.4c-24.71,1.87-35.27,13-38.56,16.94-6.54,7.88-6.24,27.74-7.82,67.39-.27,6.82-.49,15.6,4.22,24.88,2.94,5.8,7.83,11.86,19.82,19.4,29.66,18.65,63.19,22.81,66.62,23.19C1258.17,294.85,1267.63,293.77,1269.44,298.65Z"/><path d="M1239.35,269.71l9.7,2.2c3.24.71,6.47,1.43,9.72,2.09,1.62.34,3.24.67,4.87,1s3.26.55,4.89.86l4.89.92c1.62.34,3.26.65,4.88,1-1.65-.15-3.3-.36-5-.54l-4.95-.64c-1.65-.2-3.29-.46-4.93-.69s-3.27-.6-4.9-.93c-3.26-.68-6.5-1.43-9.7-2.32S1242.48,270.83,1239.35,269.71Z"/><path d="M1283.82,173.45c-3.68-6.28-7.79-7-8.81-7.13-1.39-.18-3.85-.11-12.4,5.94a120.46,120.46,0,0,0-10.16,8c2.28-1.12,6-2.92,10.55-5.14,8.08-3.9,10.73-5.11,14.23-4.63A13.79,13.79,0,0,1,1283.82,173.45Z"/><path d="M1213.25,305.58c-6.63-4.46-5.85-15-4.57-33.1,1.4-19.81,6-26.8,8.54-30.09a42,42,0,0,1,7.17-7c12.39-9.16,37.41-6.87,64,4.79.43,1.72.18,17.31-3.8,18.88-2.2.87-4.8-1-5.73-1.58-8.92-5.86-31.37-11.21-39.87-6.12-13.6,8.15,3.19,46.32-11.32,54.94C1223.12,309,1216.91,308,1213.25,305.58Z"/><path class="cls-3" d="M1025.73,633.34l-3.3,144.53h202.7L1235.78,656Z"/><path class="cls-4" d="M1187.94,364.18c22.86,30,12.61,39.52,40.62,154,0,0,12,49.44,17.93,117.09,2.42,27.74,2.21,42.14-7.37,51.78-9.28,9.35-32.74,10.25-79.66,12-7.73.3-13.13.33-18.25.19-11.47-.32-17.44-1.47-40.3-1.24-59.59.6-83.14,9.11-94.41-5-7.45-9.34-4.57-22.71-3.69-29.28,5.64-42.36,15.31-105.7,31.88-182.18,32.27-148.86,49.28-163.7,69-168.48C1141.2,304.05,1182.92,357.59,1187.94,364.18Z"/><path class="cls-5" d="M1281.48,97.79A46.37,46.37,0,0,1,1299.77,109c4,4,8.1,8.22,7.72,12.46-.79,9-21.52,14.45-37.73,18.55-32.29,8.17-60.66,9.33-90.81,10.57-5,.21-10.18.43-15.86.4-10.94,0-17.83-.85-31.17-.76-14.45.1-61.65.43-86.63,3.27-2,.22-6.78.8-10.81-1.75-6.63-4.2-6.91-14.09-6.61-19.53l4.9-.24a107.19,107.19,0,0,1,1.54-46.31,112.06,112.06,0,0,1,36.44-57.87c34.36-28.69,75.59-27.94,89-27.78,13.7.16,45.25,1.13,75,22C1272.64,48.7,1280,88.41,1281.48,97.79Z"/><path class="cls-6" d="M1040.12,132.1c0,.9,45.78,4.13,103-2.11,76-8.29,133-29,132.78-29.93s-47,14.68-118.62,24.11C1089.31,133.11,1040.11,131.17,1040.12,132.1Z"/><path class="cls-7" d="M1066.49,82.88a115.76,115.76,0,0,1,38.71-36.79c7.16-4.12,45.47-26.16,86.91-10.41a91.87,91.87,0,0,1,36.81,26.24c-7.81-5.49-39.05-26.05-82.44-21.5C1099.47,45.36,1072.13,76.22,1066.49,82.88Z"/><path class="cls-8" d="M1140.3,316.3c-3.13-1.37-22.23-9.39-41.23-4.46-33,8.55-37,50.77-71.81,161.34-12.54,39.77-45.13,139.51-34.3,209a40.52,40.52,0,0,0,4.95,15.08c13.24,22.71,45.63,24.65,148.16,22.89,58.76-1,76-.74,85.17-7.43a25.79,25.79,0,0,0,4.36-4.3c12.13-13.59,14.55-31.48,10.89-77.42-3-37.5-4.73-59.3-13.5-89.39-2.83-9.75-1.73-4.31-14-41.05-14.7-43.84-18.71-58.86-20.92-67.67-7.15-28.5-3.88-25.1-8.76-41.71C1173.58,337.84,1155.41,322.88,1140.3,316.3ZM1087,461.47c-2.35-5.3-10.89-26.22-2.16-49,6-15.61,22.19-37.62,41.78-35.73,18.34,1.77,28.56,23.43,31.92,30.55,10,21.2,6,41.46,4.17,48.72-3.74,14.91-14.76,26.66-28.69,30.15C1115.9,490.68,1095.62,480.65,1087,461.47Z"/><path class="cls-9" d="M1004.26,553.7a314,314,0,0,0,230-7.6,82.28,82.28,0,0,1,5.26,22.73c-12.84,2.65-26.37,5.93-40.46,10q-12.32,3.54-23.66,7.37h0s-13.08,3.31-25.25,5.63c-9.18,1.76-69.71,1.34-152.09-9.07q1.63-8.57,3.57-17.47Q1002.91,559.39,1004.26,553.7Z"/><path class="cls-9" d="M1185.33,575.07c0-6.56.45-139-17.73-192-8.28-24.17-20.9-33.25-25.45-36.16-3.48-2.22-16.46-10.55-31.28-7.54-19.58,4-29.54,25.15-34.37,35.42-6.57,14-4.42,18.39-15.23,68.3-2.48,11.44-2.24,9.7-3.82,17.2-2.14,10.16-4.93,26-9.66,62.34-2,15.25-4.58,36.18-7.29,61.28l-25.44-5.4a137.64,137.64,0,0,1,1.3-24.7c.49-3.44,1-6,1.36-7.84,1.89-10.43,37-143.88,37-143.89,8.9-29.17,17.68-56.45,35-70.07a46.38,46.38,0,0,1,16.11-8.44c16.31-4.7,30.88,1.38,33.31,2.44,19.19,8.33,27.4,27.3,35.84,46.82a179.36,179.36,0,0,1,10.77,34.58c9,41.42,3.29,52.4,9.22,94.46,4.91,34.75,14.49,67.65,13.92,67.8a4.77,4.77,0,0,1-.5-1.25Z"/><rect class="cls-10" x="174.77" y="259.16" width="81.7" height="97.05"/><path class="cls-11" d="M342.59,89.1s13.71,6.33,20,92.83a27.29,27.29,0,0,0,.66,8c1.33,5.64,4,8.58,10.91,18.06,7.92,10.87,9.14,13.52,8.26,16.05-.75,2.12-2.66,3.26-6.42,5.5a39.09,39.09,0,0,1-11.33,4.53,133.17,133.17,0,0,1-3.39,25.28c-3,12.93-9.2,39.18-29.84,52.89-9.74,6.47-19.16,7.8-26.22,8.8-17.07,2.41-25.22-2.12-55.87-10.32-42.87-11.48-55.71-10.32-67.57-24.46a52.79,52.79,0,0,1-10.22-19.76,121.84,121.84,0,0,1-21.1-38c-13.19-39.19-5.89-86,19-117.1C205.71,66.2,279.87,53.33,342.59,89.1Z"/><path d="M360,159.33c-2.56,2.75-9-1.32-17.18-3.1-15.86-3.45-28.05,3.84-29.14,1.12-.71-1.74,4.07-5.27,6.69-6.81,5.34-3.15,10.44-3.34,15.42-3.17,3,.1,7.91,1.26,17.77,3.57,3.21.75,6.11,1.48,7.06,3.78A4.6,4.6,0,0,1,360,159.33Z"/><ellipse cx="349.62" cy="178.47" rx="5.54" ry="8.19"/><path d="M192.14,184.6c-6.66-3.64-17.16,3.5-21.48,7.87-11,11.11-10.52,30.45-4,42.15,3.24,6,6.62,7.28,9.35,15,2.2,6.33,2,11.63,1.69,19.05-.44,8.83-1.25,20.31-2.87,34-63.48-75.32-66-124.75-63-148.66,0,0,.28-2.21.66-4.49,2.55-15.11,16.92-63.6,57.12-92.16,46.37-32.95,124.16-37.27,164,6.18C354,85.9,358.09,114,359,129.07c-5.9.17-10.86,0-14.58-.15-17.61-.89-25.19-3.79-41.7-4.22-5.77-.14-10.61.06-14.11.3l-21.93,9.2c-17.28,7.71-26.86,18.26-31.42,24.14-2.81,3.62-23.11,30.59-17.65,61.15,2,11.1,6.95,20.4,1.83,26.6-3.46,4.2-12.33,7.92-14.73,5.61a1.47,1.47,0,0,1-.4-.56C193.8,215.81,202.33,190.18,192.14,184.6Z"/><path d="M325.83,277.1c2.32.38,4.62.84,6.92,1.27l6.9,1.31c2.3.39,4.61.74,6.91,1.19l3.45.68c1.15.26,2.3.48,3.44.78-1.17-.07-2.33-.2-3.5-.3l-3.51-.4q-3.49-.4-7-1c-2.3-.45-4.6-.94-6.88-1.54S328.05,277.88,325.83,277.1Z"/><path d="M355.81,173a11.55,11.55,0,0,0-5.35-3.15c-5.79-1.48-12.7,2.08-17.3,9a19.59,19.59,0,0,1,7.11-5.53,20.06,20.06,0,0,1,11.86-1.36A19.72,19.72,0,0,1,355.81,173Z"/><path d="M311.6,251.9a18.33,18.33,0,0,1,5.8-8c3.26-2.43,7.67-3.55,17.13-2.44a90.8,90.8,0,0,1,29,8.61c-.23,7.09-1.3,15.43-5.48,16.78-2.21.71-4.44-.82-5.73-1.59-16-9.45-37.73,1.84-41.5-5.49C309.61,257.53,310.71,254.41,311.6,251.9Z"/><path class="cls-12" d="M100.87,633.34c-2.79,32-4.33,66.33-4,102.68q.19,21.47,1.19,41.85l203,.35Q306,717.1,310.93,656Z"/><path class="cls-13" d="M263.08,364.18c22.86,30,12.62,39.52,40.62,154,0,0,12,49.44,17.93,117.09,2.42,27.74,2.21,42.14-7.37,51.78-9.28,9.35-32.74,10.25-79.66,12-7.73.3-13.13.33-18.25.19-11.46-.32-17.44-1.47-40.3-1.24-59.59.6-83.13,9.11-94.41-5-7.45-9.34-4.57-22.71-3.69-29.28,5.64-42.36,15.31-105.7,31.88-182.18,32.27-148.86,49.28-163.7,69.06-168.48C216.34,304.05,258.06,357.59,263.08,364.18Z"/><path class="cls-5" d="M356.62,97.79A46.3,46.3,0,0,1,374.91,109c4,4,8.1,8.22,7.73,12.46-.79,9-21.53,14.45-37.74,18.55-32.28,8.17-60.66,9.33-90.81,10.57-5,.21-10.18.43-15.85.4-10.94,0-17.84-.85-31.18-.76-14.44.1-61.65.43-86.63,3.27-2,.22-6.78.8-10.81-1.75-6.63-4.2-6.91-14.09-6.61-19.53l4.9-.24a107.07,107.07,0,0,1,1.55-46.31,112,112,0,0,1,36.43-57.87C180.25-.87,221.48-.12,234.85,0c13.7.16,45.25,1.13,75,22C347.78,48.7,355.15,88.41,356.62,97.79Z"/><path class="cls-6" d="M115.27,132.1c0,.9,45.77,4.13,103-2.11,76-8.29,133-29,132.79-29.93s-47,14.68-118.63,24.11C164.45,133.11,115.25,131.17,115.27,132.1Z"/><path class="cls-7" d="M141.63,82.88a115.85,115.85,0,0,1,38.71-36.79c7.16-4.12,45.47-26.16,86.91-10.41a91.87,91.87,0,0,1,36.81,26.24c-7.81-5.49-39-26.05-82.44-21.5C174.61,45.36,147.27,76.22,141.63,82.88Z"/><path class="cls-8" d="M215.44,316.3c-3.13-1.37-22.23-9.39-41.23-4.46-33,8.55-37,50.77-71.81,161.34C89.86,513,57.27,612.69,68.11,682.17a40.3,40.3,0,0,0,4.94,15.08C86.29,720,118.68,721.9,221.21,720.14c58.76-1,76-.74,85.17-7.43a25.79,25.79,0,0,0,4.36-4.3c12.13-13.59,14.55-31.48,10.89-77.42-3-37.5-4.73-59.3-13.49-89.39-2.84-9.75-1.74-4.31-14.06-41.05-14.7-43.84-18.71-58.86-20.92-67.67-7.14-28.5-3.88-25.1-8.76-41.71C248.73,337.84,230.55,322.88,215.44,316.3ZM162.1,461.47c-2.35-5.3-10.89-26.22-2.16-49,6-15.61,22.19-37.62,41.78-35.73,18.34,1.77,28.56,23.43,31.92,30.55,10,21.2,6,41.46,4.17,48.72-3.74,14.91-14.75,26.66-28.69,30.15C191.05,490.68,170.76,480.65,162.1,461.47Z"/><path class="cls-9" d="M79.4,553.7a314,314,0,0,0,230-7.6,82.28,82.28,0,0,1,5.26,22.73c-12.83,2.65-26.36,5.93-40.46,10q-12.31,3.54-23.66,7.37h0s-13.09,3.31-25.26,5.63c-9.17,1.76-69.71,1.34-152.08-9.07q1.62-8.57,3.56-17.47Q78,559.39,79.4,553.7Z"/><path class="cls-9" d="M260.47,575.07c0-6.56.45-139-17.73-192-8.28-24.17-20.9-33.25-25.44-36.16-3.48-2.22-16.47-10.55-31.29-7.54-19.58,4-29.54,25.15-34.37,35.42-6.57,14-4.42,18.39-15.23,68.3-2.48,11.44-2.24,9.7-3.82,17.2-2.14,10.16-4.93,26-9.66,62.34-2,15.25-4.58,36.18-7.29,61.28l-25.44-5.4a137.64,137.64,0,0,1,1.3-24.7c.5-3.44,1-6,1.36-7.84,1.89-10.43,37-143.88,37-143.89,8.9-29.17,17.68-56.45,35-70.07A46.48,46.48,0,0,1,181,323.55c16.31-4.7,30.88,1.38,33.31,2.44,19.19,8.33,27.4,27.3,35.84,46.82A179.36,179.36,0,0,1,261,407.39c9,41.42,3.29,52.4,9.22,94.46,4.91,34.75,14.49,67.65,13.92,67.8a5.27,5.27,0,0,1-.5-1.25Z"/><rect class="cls-14" x="45.39" y="277.91" width="1215.97" height="83.09"/><ellipse class="cls-15" cx="45.39" cy="319.45" rx="45.39" ry="41.55"/><ellipse class="cls-14" cx="1261.36" cy="319.45" rx="45.39" ry="41.55"/><rect class="cls-16" x="125.85" y="293.52" width="1170.02" height="83.09"/><ellipse class="cls-15" cx="125.85" cy="335.07" rx="43.67" ry="41.55"/><ellipse class="cls-16" cx="1295.87" cy="335.07" rx="43.67" ry="41.55"/><rect class="cls-14" x="103.91" y="216.88" width="1170.02" height="83.09"/><ellipse class="cls-15" cx="103.91" cy="258.43" rx="43.67" ry="41.55"/><ellipse class="cls-14" cx="1273.93" cy="258.43" rx="43.67" ry="41.55"/><path class="cls-11" d="M178.78,555.89a538.8,538.8,0,0,0,90.63,17.87c39.58,4.34,60.11,10.29,80.77-1,9.13-5,14.28-10.93,23.79-21.66a200.32,200.32,0,0,0,37.84-64c8.25-22.54,9-35.85,14.85-93.6,1.91-18.88,5-48.92,9.22-86.74l-44.26-.52c-2.15,6.69-19.29,59.78-35.53,99C346.45,428.51,341,441,341,441c-6.07,13.79-10.36,24.1-11,26.14a276.17,276.17,0,0,0-7.57,30.27,113.11,113.11,0,0,0-35.77-8.26,361.54,361.54,0,0,1-107.83,66.74Z"/><path class="cls-11" d="M391.74,308.36a14.63,14.63,0,0,0-1.26-6.43c-1.33-2.89-2.83-3.22-6.8-7.6-2.55-2.8-4.24-5-6.88-8.49a52.71,52.71,0,0,1-4.11-5.91c-1.44-2.51-1.52-3.25-2.88-5.73-1.75-3.17-2.54-3.61-4.61-6.74-2.86-4.34-5.44-8.25-4.52-10.23,1.24-2.66,8.22-.58,8.82-.4A28,28,0,0,1,381.79,266c5.5,7.07,4.93-.47,4.93-.47s1.16-4.08-.51-12.53-5.51-27-6.13-31.19,1.44-14.62,9.55-6.78,13.84,31.7,13.84,31.7S391.09,217.26,392,213.66s7-12.32,14.92,1.73,11.59,30.72,11.59,30.72-21.11-36.32-9.46-35.59,22,26.36,22.33,35.21c-1.2-5.26-2.41-9.42-3.31-12.32-1.42-4.55-2.74-8.06-1-10.35a3.14,3.14,0,0,1,1.92-1.29c3.09-.39,6.12,6.6,7.45,9.08,2.78,5.18,6.83,14.9,6.46,29.74-.42,17-6.29,20.66-7,40.45a106.86,106.86,0,0,0,.36,13.46Z"/><path class="cls-17" d="M393.07,219.26a97.58,97.58,0,0,1,7.69,20.82,94,94,0,0,1,2.51,16.36"/><path class="cls-17" d="M405.24,212.7c.28-.16,3.37,4.83,4.63,6.86a80.51,80.51,0,0,1,5,8.82,49.89,49.89,0,0,1,3.67,10.38,44,44,0,0,1,.5,16.07,87.63,87.63,0,0,0-4-20.21C411,222.3,404.86,212.91,405.24,212.7Z"/><path class="cls-17" d="M426.12,228.4c.16-.07.91,1.49,2.06,3.9a46,46,0,0,1,2.18,5,26.6,26.6,0,0,1,1.35,5.73,23.85,23.85,0,0,1-.66,8.91,70.44,70.44,0,0,0-1.3-10.1C428.23,234.28,425.8,228.52,426.12,228.4Z"/><path class="cls-13" d="M138.53,459.73a149.79,149.79,0,0,0-.31,36.31c3.94,37.09,19.18,64.54,29.38,79.79,29.75-10.45,50.27-23.58,63.75-33.94,15.39-11.84,31.28-27.39,60.53-41.73,7-3.42,12.91-5.84,16.85-7.36C291.07,482.64,281,471.22,275,462.39c-13.27-19.61-17.62-41.28-38.1-62.65a55.49,55.49,0,0,0-6.1-5.46c-11.19-8.83-25.37-20-41.69-17.52C157.75,381.55,142.2,433.35,138.53,459.73Z"/><path class="cls-18" d="M322.73,494.48a108.41,108.41,0,0,0,6.94,41.93"/><path class="cls-11" d="M1112.09,561.38a146.2,146.2,0,0,0,26.14,27.52A161.65,161.65,0,0,0,1174,610.22c16.22,7.14,24.33,10.71,31.64,10.32,31.82-1.72,54.49-71.29,62.5-110.89,9.63-47.63,5.3-87.68,1.48-123a573.72,573.72,0,0,0-12.49-72.07l-44.89-9.79c-.12,25.8-1.33,47.31-2.56,63.33-2.24,29-4.46,38.45-5.8,43.53-4,15.06-6.26,15.45-12.51,37.66,0,0-7.95,28.25-1.55,45.19a17.32,17.32,0,0,0,3.36,5.5c3.19,3.25,7.09,3.93,7,4.27-.28.79-7.24-1.52-13.08-2-12-1.08-21.36,13.57-28.21,20.64A277.71,277.71,0,0,1,1112.09,561.38Z"/><path class="cls-11" d="M1212.58,308.44a14.63,14.63,0,0,0-1.26-6.43c-1.33-2.89-2.83-3.22-6.8-7.6-2.55-2.8-4.24-5-6.88-8.5a53,53,0,0,1-4.11-5.9c-1.44-2.51-1.52-3.26-2.88-5.74-1.75-3.17-2.54-3.6-4.61-6.73-2.86-4.34-5.44-8.25-4.52-10.24,1.24-2.66,8.22-.58,8.82-.39a28,28,0,0,1,12.29,9.21c5.5,7.07,4.93-.47,4.93-.47s1.16-4.08-.51-12.53-5.51-27-6.13-31.19,1.44-14.62,9.55-6.78,13.84,31.7,13.84,31.7-12.38-29.51-11.44-33.12,7-12.32,14.92,1.74,11.59,30.72,11.59,30.72-21.11-36.32-9.46-35.59,22,26.36,22.33,35.21c-1.2-5.26-2.41-9.43-3.31-12.32-1.42-4.55-2.74-8.07-1-10.35a3.14,3.14,0,0,1,1.92-1.29c3.09-.39,6.12,6.6,7.45,9.08,2.78,5.18,6.83,14.9,6.46,29.73-.42,17-6.29,20.67-7,40.45a107,107,0,0,0,.36,13.47Z"/><path class="cls-17" d="M1213.91,219.34a97.58,97.58,0,0,1,7.69,20.82,94,94,0,0,1,2.51,16.36"/><path class="cls-17" d="M1226.08,212.78c.28-.16,3.37,4.83,4.63,6.86a81.47,81.47,0,0,1,5,8.81,50.26,50.26,0,0,1,3.67,10.39,44,44,0,0,1,.5,16.07,87.63,87.63,0,0,0-4-20.21C1231.87,222.37,1225.7,213,1226.08,212.78Z"/><path class="cls-17" d="M1247,228.48c.16-.07.91,1.49,2.06,3.9a46,46,0,0,1,2.18,5,27.07,27.07,0,0,1,1.36,5.73,24.13,24.13,0,0,1-.67,8.91,70.44,70.44,0,0,0-1.3-10.1C1249.07,234.36,1246.64,228.6,1247,228.48Z"/><path class="cls-18" d="M1188.33,496.15a101.24,101.24,0,0,0,12.76,18.11,94.93,94.93,0,0,0,11.05,10.6"/><path class="cls-4" d="M1064.37,459.81c-1.78,12.76-3.26,24.32-.31,36.31a75.09,75.09,0,0,0,7,17.69c23.91,46.38,19.56,57.1,32.26,63.54,18.35,9.32,44.6-4.38,56.25-13.45,7.92-6.16,14.56-14.43,25.07-27.51,7.69-9.57,11.53-14.36,13.45-18.65,3.13-7,4.19-15-6.19-53.35-10.48-38.74-17.75-53.29-29.1-64.58a77.63,77.63,0,0,0-6.11-5.46c-11.19-8.82-25.37-20-41.68-17.51C1083.59,381.63,1068,433.43,1064.37,459.81Z"/></g></g></svg>