<svg xmlns="http://www.w3.org/2000/svg" viewBox="0 0 169.29 78.11"><defs><style>.cls-1{fill:#e8e8e8;}.cls-2{fill:#d6d6d6;}.cls-3{fill:#c66c00;}.cls-4{fill:#c48c00;}.cls-5{fill:#9b592d;}</style></defs><g id="Layer_2" data-name="Layer 2"><g id="Layer_1-2" data-name="Layer 1"><path class="cls-1" d="M148.17,45.28C145,51,133,70.54,108,76.48c-28,6.66-49.22-9.13-52-11.25-4.82-4.32-11.48-11.57-10.43-19.3C49.29,19.05,144.38.82,155.13,21,158.34,27.05,153.67,35.42,148.17,45.28Z"/><ellipse class="cls-2" cx="90.25" cy="65.62" rx="1.26" ry="4.35" transform="translate(21.09 153.18) rotate(-87.72)"/><ellipse class="cls-2" cx="112.24" cy="57.34" rx="4.35" ry="1.26" transform="translate(-12.21 77.3) rotate(-36.17)"/><ellipse class="cls-2" cx="70.61" cy="42.74" rx="1.26" ry="4.35" transform="translate(-0.63 84.41) rotate(-61.51)"/><ellipse class="cls-2" cx="98.82" cy="52.58" rx="1.26" ry="4.35" transform="translate(42.34 149.22) rotate(-87.72)"/><ellipse class="cls-2" cx="111.76" cy="43.02" rx="1.26" ry="4.35" transform="translate(4.52 96.32) rotate(-47.48)"/><ellipse class="cls-2" cx="99.19" cy="35.64" rx="4.35" ry="1.26" transform="matrix(0.52, -0.86, 0.86, 0.52, 17.49, 102.23)"/><ellipse class="cls-2" cx="124.81" cy="37.53" rx="1.26" ry="4.35" transform="translate(82.34 160.75) rotate(-87.72)"/><ellipse class="cls-2" cx="85.13" cy="40.47" rx="1.26" ry="4.35" transform="translate(38.09 122.15) rotate(-85.49)"/><ellipse class="cls-2" cx="62.42" cy="51.13" rx="1.26" ry="4.35" transform="translate(-5.31 7.27) rotate(-6.39)"/><ellipse class="cls-2" cx="143.4" cy="41.46" rx="1.26" ry="4.35" transform="translate(96.26 183.1) rotate(-87.72)"/><ellipse class="cls-2" cx="137.57" cy="26.34" rx="4.35" ry="1.26" transform="translate(59.73 142.78) rotate(-67.08)"/><ellipse class="cls-2" cx="109.11" cy="27.91" rx="1.26" ry="4.35" transform="matrix(0.04, -1, 1, 0.04, 76.87, 135.82)"/><ellipse class="cls-2" cx="71.84" cy="59.28" rx="1.26" ry="4.35" transform="translate(9.74 128.7) rotate(-87.72)"/><ellipse class="cls-2" cx="86.19" cy="27" rx="4.35" ry="1.26" transform="translate(0.68 56.08) rotate(-36.17)"/><ellipse class="cls-2" cx="130.61" cy="54.56" rx="4.35" ry="1.26" transform="translate(57.37 175.68) rotate(-81.51)"/><ellipse class="cls-2" cx="105.14" cy="70.75" rx="1.26" ry="4.35" transform="translate(16.07 160.89) rotate(-79.28)"/><ellipse class="cls-2" cx="84.43" cy="49.34" rx="4.35" ry="1.26" transform="translate(-11.83 66.58) rotate(-40.46)"/><ellipse class="cls-2" cx="77.61" cy="71.48" rx="1.26" ry="4.35" transform="translate(-5.68 136.24) rotate(-80.51)"/><ellipse class="cls-2" cx="59.43" cy="62.09" rx="1.26" ry="4.35" transform="translate(-25.19 47.05) rotate(-36.17)"/><ellipse class="cls-2" cx="73.52" cy="31.44" rx="1.26" ry="4.35" transform="translate(39.17 103.65) rotate(-87.72)"/><ellipse class="cls-2" cx="123.49" cy="21.23" rx="4.35" ry="1.26" transform="translate(5.22 62.62) rotate(-29.04)"/><ellipse class="cls-2" cx="119.26" cy="63.42" rx="4.35" ry="1.26" transform="translate(-15.79 65.87) rotate(-29.04)"/><ellipse class="cls-2" cx="93.9" cy="73.54" rx="4.35" ry="1.26" transform="translate(-10.21 15.34) rotate(-8.86)"/><ellipse class="cls-2" cx="123.58" cy="48.01" rx="1.26" ry="4.35" transform="translate(70.69 169.58) rotate(-87.72)"/><ellipse class="cls-2" cx="146.71" cy="30.2" rx="4.35" ry="1.26" transform="translate(32.59 127.22) rotate(-52)"/><ellipse class="cls-2" cx="55.79" cy="42.05" rx="4.35" ry="1.26" transform="translate(-12.99 29.81) rotate(-26.92)"/><path class="cls-3" d="M58.77,71.1c-1.53,6-16.62,7.34-25.25,6.93-7.74-.37-23.6,2.41-24.86-8-.91-7.43-21-30.19,3.34-31.48,6.45-.35,10.61-2,13.52-4.21,6-4.45,5.31-9.39,10.34-11.33,3.84-1.49,9.34-.34,12.72,2.75C57,33.51,46.3,48,55.36,63.53,57.45,67.11,59.39,68.7,58.77,71.1Z"/><path class="cls-4" d="M47.35,69.52s-6.9,3.35-9.12-1-3.87-4.48,0-5.31,11.46-2.65,10.3-.38S47.35,69.52,47.35,69.52Z"/><path class="cls-4" d="M28,58.56s.46,7.66-4.37,8.06-5.63,1.88-4.9-2S20.64,53,22.3,54.9,28,58.56,28,58.56Z"/><path class="cls-4" d="M34.65,48.69s-5-5.79-1.44-9,3.32-4.91,5.13-1.36,5.55,10.37,3.06,9.85S34.65,48.69,34.65,48.69Z"/><path class="cls-4" d="M18.71,53.27s-6.9,3.35-9.12-1-3.87-4.48,0-5.31,11.47-2.65,10.31-.38S18.71,53.27,18.71,53.27Z"/><path class="cls-3" d="M152.39,51.46c3.48.69,3.19,1.61,5,1.54,6.07-.22,10-10.26,10.43-11.44,0,0,2.38-6.16,1-11.54-.57-2.28-1.09-2-2.19-5-2.43-6.66-.77-10.28-2.85-11.12-1.9-.77-5.64,1.93-7.42,4.5-1.18,1.72-1.06,2.76-2.75,4.72-1.22,1.41-2.18,2.52-3.71,3-2.09.62-6.32.35-6.9.65l-.19.12c-1.84,1.41-.7,3.32-1.89,13.1a16.43,16.43,0,0,0,.35,7.45,6.23,6.23,0,0,0,1.2,2.67C144.44,52,147.27,50.45,152.39,51.46Z"/><path class="cls-5" d="M139.79,60.36A41.83,41.83,0,0,1,137,49.19c-.43-4-1.47-13.74,3.75-22a44.35,44.35,0,0,1,7.7-9.58c2.08-1.84,4.22-3.26,4.91-6.11.34-1.39.11-2.15.14-4.45a31.64,31.64,0,0,1,.89-7,33.65,33.65,0,0,1,2.1,2.84c1,1.54,1.26,2.19,2.1,2.86a6,6,0,0,0,2.88,1.14,12.55,12.55,0,0,0,7-.89,22.07,22.07,0,0,1-3.19,4.82c-3.07,3.54-5.44,4-7.19,5.82-3.36,3.59-.13,8-.68,16.6-.68,10.56-6.67,21.21-15.18,26A22.57,22.57,0,0,1,139.79,60.36Z"/></g></g></svg>