<svg xmlns="http://www.w3.org/2000/svg" viewBox="0 0 172.19 81.58"><defs><style>.cls-1{fill:#e8e8e8;}.cls-2{fill:#d6d6d6;}.cls-3{fill:#c66c00;}.cls-4{fill:#c48c00;}.cls-5{fill:#9b592d;}</style></defs><g id="Layer_2" data-name="Layer 2"><g id="Layer_1-2" data-name="Layer 1"><path class="cls-1" d="M136.45,70C131,73.7,111.61,85.84,86.59,80c-28-6.5-40-30.1-41.51-33.21-2.39-6-5.13-15.48-.74-21.93C59.6,2.46,152.86,28.5,153.49,51.37,153.67,58.2,145.77,63.61,136.45,70Z"/><ellipse class="cls-2" cx="75.54" cy="62.4" rx="1.26" ry="4.35" transform="translate(-15.49 98.64) rotate(-61.27)"/><ellipse class="cls-2" cx="98.91" cy="64.78" rx="4.35" ry="1.26" transform="translate(-9.52 17.64) rotate(-9.72)"/><ellipse class="cls-2" cx="68.15" cy="33.17" rx="1.26" ry="4.35" transform="translate(-6.69 45.16) rotate(-35.06)"/><ellipse class="cls-2" cx="89.01" cy="54.54" rx="1.26" ry="4.35" transform="translate(-1.61 106.37) rotate(-61.27)"/><ellipse class="cls-2" cx="104.86" cy="51.75" rx="1.26" ry="4.35" transform="translate(-11.59 41.08) rotate(-21.03)"/><ellipse class="cls-2" cx="96.89" cy="39.54" rx="4.35" ry="1.26" transform="translate(-6.07 58.25) rotate(-32.5)"/><ellipse class="cls-2" cx="118.99" cy="52.65" rx="1.26" ry="4.35" transform="translate(15.62 131.68) rotate(-61.27)"/><ellipse class="cls-2" cx="82.15" cy="37.6" rx="1.26" ry="4.35" transform="translate(7.65 88.71) rotate(-59.04)"/><ellipse class="cls-2" cx="57.08" cy="37.03" rx="4.35" ry="1.26" transform="matrix(0.34, -0.94, 0.94, 0.34, 2.71, 77.95)"/><ellipse class="cls-2" cx="133.88" cy="64.45" rx="1.26" ry="4.35" transform="translate(13.01 150.86) rotate(-61.27)"/><ellipse class="cls-2" cx="135.4" cy="48.31" rx="4.35" ry="1.26" transform="translate(1.18 99.8) rotate(-40.63)"/><ellipse class="cls-2" cx="109.21" cy="37.04" rx="1.26" ry="4.35" transform="translate(24.23 115) rotate(-61.27)"/><ellipse class="cls-2" cx="61.88" cy="48.53" rx="1.26" ry="4.35" transform="translate(-10.42 79.45) rotate(-61.27)"/><ellipse class="cls-2" cx="89.1" cy="26.02" rx="4.35" ry="1.26" transform="translate(-3.11 15.42) rotate(-9.72)"/><ellipse class="cls-2" cx="116.59" cy="70.47" rx="4.35" ry="1.26" transform="matrix(0.57, -0.82, 0.82, 0.57, -7.95, 125.69)"/><ellipse class="cls-2" cx="86.58" cy="73.62" rx="1.26" ry="4.35" transform="translate(-24.4 98.13) rotate(-52.83)"/><ellipse class="cls-2" cx="77.57" cy="45.24" rx="4.35" ry="1.26" transform="translate(-8.64 20.12) rotate(-14.01)"/><ellipse class="cls-2" cx="61.61" cy="62.01" rx="1.26" ry="4.35" transform="translate(-24.76 75.49) rotate(-54.06)"/><ellipse class="cls-2" cx="49.51" cy="45.52" rx="1.26" ry="4.35" transform="translate(-6.98 9.02) rotate(-9.72)"/><ellipse class="cls-2" cx="75.78" cy="24.35" rx="1.26" ry="4.35" transform="translate(18 79.09) rotate(-61.27)"/><ellipse class="cls-2" cx="125.06" cy="37.46" rx="4.35" ry="1.26" transform="translate(-1.57 5.69) rotate(-2.59)"/><ellipse class="cls-2" cx="102.49" cy="73.36" rx="4.35" ry="1.26" transform="translate(-3.21 4.71) rotate(-2.59)"/><ellipse class="cls-2" cx="75.28" cy="71.12" rx="1.26" ry="4.35" transform="translate(-15.26 121.38) rotate(-72.41)"/><ellipse class="cls-2" cx="113.22" cy="61.48" rx="1.26" ry="4.35" transform="matrix(0.48, -0.88, 0.88, 0.48, 4.88, 131.2)"/><ellipse class="cls-2" cx="141.86" cy="55.84" rx="4.35" ry="1.26" transform="translate(-10.21 66.65) rotate(-25.55)"/><ellipse class="cls-2" cx="55.18" cy="25.95" rx="4.35" ry="1.26" transform="translate(-0.21 0.45) rotate(-0.47)"/><path class="cls-3" d="M44.91,53.29c-4.06,4.72-18.15-.84-25.7-5C12.45,44.46-3,39.88.51,30c2.5-7-5.37-36.39,17-26.7,5.93,2.57,10.4,2.9,14,2.26,7.35-1.32,8.93-6,14.3-5.54C49.91.42,54.32,3.9,56,8.17,60.1,18.86,44,27,45.23,45,45.5,49.13,46.53,51.41,44.91,53.29Z"/><path class="cls-4" d="M35.39,46.78s-7.67-.07-7.73-4.93S26.19,36.11,30,37.11s11.45,2.73,9.4,4.25S35.39,46.78,35.39,46.78Z"/><path class="cls-4" d="M22.94,28.35s-3,7.06-7.51,5.27-5.87-.83-3.47-4,6.89-9.54,7.51-7.07S22.94,28.35,22.94,28.35Z"/><path class="cls-4" d="M33.3,22.48S31.37,15.06,36,13.73s5.16-2.92,5.2,1.07S41.58,26.56,39.59,25,33.3,22.48,33.3,22.48Z"/><path class="cls-4" d="M17,19.48s-7.67-.08-7.74-4.93S7.78,8.81,11.64,9.81s11.44,2.73,9.4,4.24S17,19.48,17,19.48Z"/><path class="cls-3" d="M137.48,77.4c2.81,2.17,2.14,2.86,3.82,3.62,5.53,2.51,13.5-4.74,14.43-5.59,0,0,4.88-4.46,6.05-9.88.5-2.29-.08-2.3.28-5.5.79-7,3.9-9.53,2.41-11.21s-5.91-.79-8.65.72c-1.82,1-2.18,2-4.57,3-1.71.72-3.07,1.29-4.64,1-2.15-.38-5.82-2.51-6.47-2.49l-.22,0c-2.28.44-2.1,2.66-7.52,10.88a16.34,16.34,0,0,0-3,6.83,6.37,6.37,0,0,0-.12,2.93C130.11,74.35,133.34,74.22,137.48,77.4Z"/><path class="cls-5" d="M122.23,79.76a42.17,42.17,0,0,1,2.49-11.23c1.41-3.8,4.81-13,13.17-18a44.76,44.76,0,0,1,11.16-5.15c2.68-.72,5.23-1,7.12-3.28.92-1.09,1.05-1.88,2.1-3.92a32.08,32.08,0,0,1,3.93-5.91,32,32,0,0,1,.62,3.47c.23,1.85.15,2.53.61,3.5a6.14,6.14,0,0,0,2.07,2.31,12.53,12.53,0,0,0,6.69,2.33,22.15,22.15,0,0,1-5,2.9c-4.33,1.8-6.64,1.11-9,2-4.61,1.72-3.67,7.08-8,14.56-5.31,9.15-15.42,16-25.15,16.5A23.3,23.3,0,0,1,122.23,79.76Z"/></g></g></svg>