<svg xmlns="http://www.w3.org/2000/svg" viewBox="0 0 173.86 69.34"><defs><style>.cls-1{fill:#e8e8e8;}.cls-2{fill:#d6d6d6;}.cls-3{fill:#c66c00;}.cls-4{fill:#c48c00;}.cls-5{fill:#9b592d;}</style></defs><g id="Layer_2" data-name="Layer 2"><g id="Layer_1-2" data-name="Layer 1"><path class="cls-1" d="M29.23,20.6C33.71,15.81,50.05-.25,75.74,0c28.74.28,45.56,20.73,47.71,23.44,3.63,5.36,8.35,14,5.47,21.25-10,25.2-106.73,20-112.29-2.22C15,35.84,21.51,28.85,29.23,20.6Z"/><ellipse class="cls-2" cx="90.34" cy="14.83" rx="1.26" ry="4.35" transform="translate(50.85 97.42) rotate(-73.77)"/><ellipse class="cls-2" cx="67.01" cy="17.56" rx="4.35" ry="1.26" transform="translate(-1.66 26.65) rotate(-22.23)"/><ellipse class="cls-2" cx="103.88" cy="41.76" rx="1.26" ry="4.35" transform="translate(2.96 90.25) rotate(-47.56)"/><ellipse class="cls-2" cx="78.89" cy="25.41" rx="1.26" ry="4.35" transform="translate(32.44 94.05) rotate(-73.77)"/><ellipse class="cls-2" cx="64.02" cy="31.57" rx="1.26" ry="4.35" transform="translate(-6.79 40.62) rotate(-33.54)"/><ellipse class="cls-2" cx="74.44" cy="41.76" rx="4.35" ry="1.26" transform="translate(-7.73 64.87) rotate(-45)"/><ellipse class="cls-2" cx="50.03" cy="33.75" rx="1.26" ry="4.35" transform="translate(3.64 72.35) rotate(-73.77)"/><ellipse class="cls-2" cx="89.25" cy="40.47" rx="1.26" ry="4.35" transform="translate(22.61 112.32) rotate(-71.55)"/><ellipse class="cls-2" cx="113.86" cy="35.59" rx="4.35" ry="1.26" transform="translate(63.61 143.78) rotate(-82.45)"/><ellipse class="cls-2" cx="32.93" cy="25.46" rx="1.26" ry="4.35" transform="translate(-0.72 49.96) rotate(-73.77)"/><ellipse class="cls-2" cx="34.95" cy="41.54" rx="4.35" ry="1.26" transform="translate(-19.26 44.58) rotate(-53.13)"/><ellipse class="cls-2" cx="62.95" cy="46.87" rx="1.26" ry="4.35" transform="translate(0.35 94.21) rotate(-73.77)"/><ellipse class="cls-2" cx="106.68" cy="25.41" rx="1.26" ry="4.35" transform="translate(52.46 120.74) rotate(-73.77)"/><ellipse class="cls-2" cx="84.97" cy="53.28" rx="4.35" ry="1.26" transform="translate(-13.84 36.1) rotate(-22.23)"/><ellipse class="cls-2" cx="48.51" cy="15.83" rx="4.35" ry="1.26" transform="translate(15.36 54.63) rotate(-67.57)"/><ellipse class="cls-2" cx="77.13" cy="6.26" rx="1.26" ry="4.35" transform="translate(39.25 73.73) rotate(-65.33)"/><ellipse class="cls-2" cx="92.07" cy="32.02" rx="4.35" ry="1.26" transform="translate(-4.61 44.46) rotate(-26.51)"/><ellipse class="cls-2" cx="104.02" cy="12.19" rx="1.26" ry="4.35" transform="translate(51.46 102.77) rotate(-66.56)"/><ellipse class="cls-2" cx="119.41" cy="25.67" rx="1.26" ry="4.35" transform="translate(-0.84 47.08) rotate(-22.23)"/><ellipse class="cls-2" cx="98.34" cy="52.02" rx="1.26" ry="4.35" transform="translate(20.9 131.91) rotate(-73.77)"/><ellipse class="cls-2" cx="47.39" cy="49.89" rx="4.35" ry="1.26" transform="translate(-11.36 14.06) rotate(-15.1)"/><ellipse class="cls-2" cx="61.65" cy="9.96" rx="4.35" ry="1.26" transform="translate(-0.47 16.4) rotate(-15.1)"/><ellipse class="cls-2" cx="88.71" cy="6.26" rx="1.26" ry="4.35" transform="translate(74.61 94.06) rotate(-84.91)"/><ellipse class="cls-2" cx="53.75" cy="23.88" rx="1.26" ry="4.35" transform="translate(15.79 68.81) rotate(-73.77)"/><ellipse class="cls-2" cx="27.01" cy="35.59" rx="4.35" ry="1.26" transform="translate(-16.2 24.22) rotate(-38.06)"/><ellipse class="cls-2" cx="118.11" cy="46" rx="4.35" ry="1.26" transform="translate(-7.31 27.68) rotate(-12.97)"/><path class="cls-3" d="M122.21,17.09c3-5.49,17.9-3.11,26.18-.64,7.43,2.23,23.49,3.35,22.21,13.74-.92,7.43,13.11,34.37-10.84,29.75-6.34-1.22-10.79-.58-14.13.82-6.89,2.88-7.41,7.84-12.76,8.51-4.09.51-9.15-1.93-11.69-5.74-6.35-9.54,7.57-21,2.52-38.27C122.54,21.28,121,19.27,122.21,17.09Z"/><path class="cls-4" d="M132.91,21.38s7.51-1.59,8.62,3.14,2.68,5.28-1.3,5.14-11.76-.19-10.1-2.11S132.91,21.38,132.91,21.38Z"/><path class="cls-4" d="M149.06,36.68s1.4-7.55,6.19-6.77,5.91-.46,4.26,3.16-4.66,10.81-5.8,8.53S149.06,36.68,149.06,36.68Z"/><path class="cls-4" d="M140.22,44.65s3.49,6.83-.79,9.14-4.4,4-5.3.08-2.88-11.4-.59-10.3S140.22,44.65,140.22,44.65Z"/><path class="cls-4" d="M156.79,44.05s7.51-1.58,8.62,3.14,2.68,5.29-1.3,5.14-11.76-.18-10.1-2.11S156.79,44.05,156.79,44.05Z"/><path class="cls-3" d="M26.62,13.59c-3.21-1.51-2.71-2.33-4.51-2.71C16.16,9.63,10,18.44,9.23,19.47c0,0-3.8,5.41-3.77,11,0,2.35.57,2.23.91,5.43.76,7-1.73,10.15.08,11.47s6-.51,8.29-2.58c1.56-1.38,1.7-2.42,3.81-3.92,1.52-1.07,2.72-1.92,4.31-2,2.18-.09,6.22,1.19,6.86,1l.21-.08c2.13-.92,1.48-3,5-12.25a16.46,16.46,0,0,0,1.46-7.32,6.32,6.32,0,0,0-.52-2.88C34.47,15,31.35,15.8,26.62,13.59Z"/><path class="cls-5" d="M41,8a41.8,41.8,0,0,1,0,11.51c-.55,4-1.89,13.69-9,20.46a44.63,44.63,0,0,1-9.77,7.45c-2.47,1.28-4.89,2.15-6.25,4.74-.66,1.26-.62,2.07-1.2,4.29A31.11,31.11,0,0,1,12.26,63a34,34,0,0,1-1.36-3.26c-.62-1.74-.69-2.43-1.35-3.28A6,6,0,0,0,7,54.7a12.56,12.56,0,0,0-7-.83A22.19,22.19,0,0,1,4.25,50c3.84-2.69,6.24-2.51,8.39-3.9,4.13-2.68,2-7.71,4.66-15.95,3.21-10.09,11.58-19,21-21.55A23.88,23.88,0,0,1,41,8Z"/></g></g></svg>