<svg xmlns="http://www.w3.org/2000/svg" viewBox="0 0 33.4 36.42"><defs><style>.cls-1{fill:#af2828;}</style></defs><g id="Layer_2" data-name="Layer 2"><g id="Layer_1-2" data-name="Layer 1"><path class="cls-1" d="M6.16,3.3a13.08,13.08,0,0,1,1.69-.7A12.61,12.61,0,0,1,11.1,2a34,34,0,0,1,2,7.48c.57,3.77,1,6.34-.55,8.14-.56.67-1.22,1-4.85,2.15-2.88.87-5.3,1.49-7,1.9C.47,20.4.24,19.15,0,17.89a26,26,0,0,0,5.39-1.44,7.67,7.67,0,0,0,2.29-1.09C10.46,13,6.65,4.39,6.16,3.3Z"/><path class="cls-1" d="M18,0a12.23,12.23,0,0,0-1.81.27,12.66,12.66,0,0,0-3.11,1.15,34.51,34.51,0,0,0,2.13,7.45c1.46,3.52,2.45,5.93,4.68,6.69.81.28,1.58.27,5.26-.66,2.92-.74,5.31-1.46,7-2L30.84,9.32a27.08,27.08,0,0,1-5.37,1.55,8.25,8.25,0,0,1-2.51.25C19.33,10.49,18.17,1.18,18,0Z"/><path class="cls-1" d="M15.37,36.42a12.23,12.23,0,0,0,1.81-.27A12.68,12.68,0,0,0,20.29,35a34.46,34.46,0,0,0-2.13-7.46c-1.46-3.52-2.45-5.93-4.67-6.69-.82-.28-1.59-.27-5.27.67-2.91.74-5.3,1.46-7,2,.45,1.2.89,2.39,1.33,3.59a25.78,25.78,0,0,1,5.37-1.55,8,8,0,0,1,2.52-.25C14.07,25.94,15.23,35.24,15.37,36.42Z"/><path class="cls-1" d="M27.24,33.12a13,13,0,0,1-1.69.71,12.61,12.61,0,0,1-3.25.62,34.6,34.6,0,0,1-2-7.49c-.57-3.76-1-6.34.55-8.14.56-.66,1.22-1.05,4.85-2.15,2.88-.87,5.3-1.49,7-1.89.24,1.25.47,2.5.71,3.75A26.77,26.77,0,0,0,28,20a8.21,8.21,0,0,0-2.29,1.09C22.94,23.47,26.75,32,27.24,33.12Z"/></g></g></svg>