<svg xmlns="http://www.w3.org/2000/svg" xmlns:xlink="http://www.w3.org/1999/xlink" viewBox="0 0 1923.92 1087.13"><defs><style>.cls-1{fill:#e0dfde;}.cls-2{fill:#f2efed;}.cls-3{fill:#ffc200;}.cls-4{fill:#8c4714;}.cls-5{fill:#8d5524;}.cls-6{fill:#024e60;}.cls-7{fill:#458c93;}.cls-8{fill:#f9b03a;}.cls-9{fill:#ce8e32;}.cls-10{fill:#e59b39;}.cls-11{fill:#f26608;}.cls-12{fill:#eaeaea;}.cls-13{fill:#63391a;}.cls-14{fill:#0f0f0f;}.cls-15{fill:#d69274;}.cls-16{fill:#e29c79;}.cls-17{fill:#073f07;}.cls-18{fill:url(#linear-gradient);}.cls-19{fill:#332e29;}.cls-20{fill:#d18f71;}.cls-21{fill:#063006;}.cls-22{fill:#f2f2f2;}.cls-23{font-size:16.2px;font-family:Montserrat-Regular, Montserrat;}.cls-24{letter-spacing:-0.05em;}.cls-25{letter-spacing:-0.04em;}.cls-26{letter-spacing:-0.03em;}.cls-27{letter-spacing:0em;}</style><linearGradient id="linear-gradient" x1="951.78" y1="853.12" x2="1194.29" y2="1095.63" gradientUnits="userSpaceOnUse"><stop offset="0" stop-color="#231f20"/><stop offset="0.18" stop-color="#272324"/><stop offset="0.35" stop-color="#312e2f"/><stop offset="0.51" stop-color="#434142"/><stop offset="0.67" stop-color="#5c5b5d"/><stop offset="0.83" stop-color="#7d7d7f"/><stop offset="0.99" stop-color="#a4a6a9"/><stop offset="1" stop-color="#a7a9ac"/></linearGradient></defs><g id="Layer_2" data-name="Layer 2"><g id="Layer_1-2" data-name="Layer 1"><rect class="cls-1" y="4.41" width="279.41" height="1080.31"/><rect class="cls-2" x="279.41" y="4.12" width="340.82" height="1080.6"/><rect class="cls-1" x="620.23" y="4.12" width="340.82" height="1080.6"/><rect class="cls-2" x="961.05" y="3.54" width="340.82" height="1081.18"/><rect class="cls-1" x="1301.87" y="3.54" width="340.83" height="1081.18"/><rect class="cls-2" x="1642.7" y="3.24" width="278.76" height="1081.48"/><path d="M205.56,70.85H1881.7V0H2V70.85h203.6Z"/><path class="cls-3" d="M205.56,70.85,132.22,25.58,97.94,4.41C95.57,3,93.22,1.5,90.86,0H0V70.85H205.56Z"/><path class="cls-3" d="M431.86,70.85,311,0H536.7L651.41,70.85Z"/><path class="cls-3" d="M888.6,70.85,767.73,0H993.44l114.71,70.81Z"/><path class="cls-3" d="M1325.83,70.85,1205,0h225.72l114.71,70.81Z"/><path class="cls-3" d="M1615.27,0H1841l40.72,25.14V70.86H1736.15Z"/><path d="M1923.92,0l-2.46,1084.72H1853.1V0Z"/><path class="cls-3" d="M1853.11,77.13,1923.92,0V144l-70.81,73.19Z"/><path class="cls-3" d="M1853.11,360.37l70.81-77.13v144l-70.81,73.2Z"/><path class="cls-3" d="M1853.11,651.8l70.81-77.12v144l-70.81,73.19Z"/><path class="cls-3" d="M1853.11,930.78l70.81-77.12v144l-70.81,73.19Z"/><rect class="cls-4" x="736.54" y="549.93" width="51.45" height="61.11"/><path class="cls-5" d="M842.22,442.84s8.63,4,12.62,58.45c0,0,0,9,3.32,13.62s12.29,14-1.66,17.27A172.28,172.28,0,0,1,847.81,564c-3.63,9.59-5.52,14.45-8.91,17.63-12.16,11.4-35.26,4.43-50.91.38a139.38,139.38,0,0,1-53.44-27.47,76.61,76.61,0,0,1-13.29-23.92c-8.31-24.67-3.71-54.15,12-73.73C756,428.42,802.72,420.31,842.22,442.84Z"/><path d="M853.31,484.26c-1.22,1.89-5.15.1-11,0-8.58-.17-14.11,3.4-15.18,1.57-.47-.81.3-2.06.64-2.61,1.56-2.52,4.7-3,9.21-3.67,1.86-.27,5-.1,11.41.24,2.07.11,4,.24,4.79,1.55A2.9,2.9,0,0,1,853.31,484.26Z"/><ellipse cx="846.37" cy="498.75" rx="3.74" ry="5.52"/><path d="M843.48,574.8c1.23,3.32-4,8.66-8.46,11.41-5.9,3.66-12,3.78-16.35,3.66-23.29-.63-42.83-9-48.62-11.6-11.1-5-16.64-7.45-18.76-9.92-17-19.79,6.48-59.53-3.81-65.37-4.05-2.3-10.71,2.1-13.53,4.95-6.9,7-6.62,19.18-2.55,26.54,2,3.76,4.17,4.59,5.89,9.45,1.39,4,1.29,7.32,1.06,12-.28,5.56-.78,12.78-1.8,21.4-40-47.43-41.55-78.56-39.7-93.61,0,0,.18-1.4.42-2.83,1.6-9.52,10.65-40.05,36-58,29.2-20.74,78.19-23.47,103.27,3.89,12.92,14.09,15.48,31.77,16,41.28-3.71.11-6.84,0-9.18-.1-11.09-.55-15.86-2.38-26.26-2.65-3.63-.09-6.68,0-8.89.18l-9.3,10.33c-15.57,1.18-22.22,8.18-24.29,10.67-4.12,5-3.93,17.47-4.92,42.44-.17,4.29-.31,9.82,2.65,15.66,1.85,3.66,4.93,7.47,12.48,12.22,18.69,11.74,39.8,14.37,42,14.6C836.38,572.41,842.33,571.72,843.48,574.8Z"/><path d="M826.27,552.69a67.2,67.2,0,0,1,11.78,3.48c1,.39,1.91.76,2.83,1.2s1.85.89,2.76,1.36c1.84.91,3.64,1.89,5.41,2.92q-2.91-1-5.73-2.21c-1.88-.78-3.73-1.63-5.64-2.34C833.9,555.6,830.08,554.21,826.27,552.69Z"/><path d="M852.53,496c-2.32-3.95-4.91-4.4-5.55-4.48-.88-.12-2.42-.08-7.81,3.74a72.78,72.78,0,0,0-6.39,5.06c1.43-.7,3.75-1.84,6.64-3.24,5.09-2.46,6.76-3.22,9-2.91A8.71,8.71,0,0,1,852.53,496Z"/><path d="M808.09,579.16c-4.17-2.81-3.68-9.42-2.88-20.84.89-12.48,3.76-16.88,5.38-19A26.53,26.53,0,0,1,815.1,535c7.81-5.77,23.56-4.33,40.3,3,.27,1.08.11,10.9-2.4,11.89-1.38.55-3-.61-3.61-1-5.62-3.68-19.75-7-25.1-3.85-8.57,5.14,2,29.17-7.13,34.6C814.31,581.34,810.39,580.71,808.09,579.16Z"/><path class="cls-6" d="M822.28,799.81c-6.38,125-11.59,218.08-15.8,284.91H715.57c-2.9-24.22-8.63-63.42-17.08-121.24-6.54-44.78-8.35-52.66-10-74.49A587.37,587.37,0,0,1,690,785.55Z"/><path class="cls-7" d="M792.15,616.06c14.4,18.88,8,24.89,25.58,97,0,0,7.58,31.13,11.29,73.73,1.52,17.47,1.39,26.54-4.64,32.61-5.84,5.89-20.62,6.45-50.16,7.58-4.87.19-8.27.21-11.5.12-7.21-.2-11-.93-25.37-.78-37.53.38-52.35,5.74-59.45-3.16-4.7-5.88-2.88-14.29-2.33-18.43,3.55-26.68,9.64-66.56,20.08-114.72,20.32-93.74,31-103.09,43.48-106.1C762.72,578.2,789,611.91,792.15,616.06Z"/><path class="cls-8" d="M851.05,448.31a29.09,29.09,0,0,1,11.52,7.08c2.51,2.55,5.1,5.17,4.87,7.84-.5,5.69-13.56,9.1-23.77,11.69-20.33,5.14-38.19,5.87-57.18,6.65-3.17.13-6.41.28-10,.26-6.89,0-11.23-.54-19.63-.48-9.1.06-38.83.27-54.56,2-1.26.15-4.27.51-6.8-1.1-4.18-2.64-4.36-8.87-4.17-12.3l3.09-.15a67.51,67.51,0,0,1,1-29.16,70.56,70.56,0,0,1,22.94-36.44c21.64-18.07,47.61-17.6,56-17.5,8.62.1,28.49.72,47.22,13.87C845.49,417.4,850.13,442.41,851.05,448.31Z"/><path class="cls-9" d="M699.07,469.92c0,.56,28.83,2.6,64.85-1.33,47.85-5.22,83.77-18.27,83.62-18.85s-29.6,9.24-74.7,15.18C730,470.55,699.06,469.33,699.07,469.92Z"/><path class="cls-10" d="M715.67,438.92a72.8,72.8,0,0,1,24.38-23.16c4.51-2.6,28.63-16.48,54.73-6.56A57.86,57.86,0,0,1,818,425.72c-4.92-3.45-24.59-16.4-51.92-13.53C736.44,415.3,719.22,434.73,715.67,438.92Z"/><path class="cls-11" d="M762.15,585.91c-2-.86-14-5.91-26-2.81-20.78,5.39-23.28,32-45.22,101.6-7.9,25-28.42,87.85-21.6,131.6a25.46,25.46,0,0,0,3.11,9.5c8.35,14.3,28.74,15.52,93.3,14.42,37-.64,47.85-.47,53.64-4.69a15.74,15.74,0,0,0,2.74-2.7c7.64-8.56,9.17-19.83,6.86-48.76-1.88-23.61-3-37.33-8.5-56.29-1.78-6.13-1.09-2.71-8.85-25.84-9.26-27.61-11.78-37.07-13.17-42.62-4.5-17.94-2.44-15.81-5.52-26.26C783.11,599.47,771.67,590.06,762.15,585.91Zm-33.59,91.42c-1.48-3.34-6.86-16.51-1.36-30.87,3.77-9.83,14-23.69,26.31-22.5,11.55,1.12,18,14.76,20.1,19.24,6.3,13.35,3.77,26.11,2.63,30.68-2.35,9.39-9.29,16.79-18.07,19C746.79,695.72,734,689.4,728.56,677.33Z"/><path class="cls-12" d="M676.49,735.4a197.67,197.67,0,0,0,144.84-4.78,53.88,53.88,0,0,1,1.89,5.92,52,52,0,0,1,1.42,8.39c-8.08,1.67-16.6,3.73-25.48,6.28q-7.75,2.22-14.9,4.65h0s-8.24,2.08-15.9,3.55c-5.78,1.1-43.9.84-95.78-5.71.69-3.61,1.43-7.28,2.25-11Q675.64,739,676.49,735.4Z"/><path class="cls-12" d="M790.51,748.87c0-4.14.28-87.52-11.17-120.93-5.21-15.21-13.16-20.93-16-22.77-2.19-1.4-10.37-6.64-19.7-4.74-12.33,2.51-18.6,15.83-21.64,22.3-4.14,8.8-2.79,11.58-9.59,43-1.56,7.2-1.41,6.11-2.41,10.83-1.35,6.4-3.11,16.39-6.08,39.25-1.25,9.61-2.89,22.79-4.59,38.6l-16-3.4a87,87,0,0,1,.83-15.56c.31-2.17.63-3.76.85-4.93,1.19-6.57,23.32-90.61,23.32-90.61,5.61-18.38,11.14-35.55,22.06-44.13a29.21,29.21,0,0,1,10.14-5.31c10.28-3,19.45.86,21,1.53,12.08,5.25,17.25,17.19,22.57,29.48a113.66,113.66,0,0,1,6.78,21.78c5.66,26.09,2.07,33,5.81,59.49,3.09,21.88,9.12,42.59,8.76,42.69a3,3,0,0,1-.31-.79Z"/><path class="cls-5" d="M734.77,664.56a298.52,298.52,0,0,0-4.08,41.31c-.17,5.91-.57,25.94,3.41,54.62a419.62,419.62,0,0,0,21.57,86l26.23-6.92c-1.24-9.57-2.07-17.09-2.61-22.28-.36-3.37-.86-8.38-1.72-16.22-.47-4.37-.82-7.36-1-8.61-2.39-21.51-1.83-45.93-1.1-75.18.34-13.61,1-31.54,2.25-52.7Z"/><path class="cls-5" d="M781.47,838.31a9.22,9.22,0,0,0,1.82,3.6c1.26,1.49,2.2,1.44,5.28,3.38,2,1.24,3.33,2.28,5.47,3.9a30.71,30.71,0,0,1,3.4,2.82c1.28,1.25,1.44,1.67,2.66,2.92a47.74,47.74,0,0,0,3.84,3.23c2.41,2.1,4.59,4,4.37,5.31-.29,1.77-4.76,1.68-5.14,1.67a17.29,17.29,0,0,1-8.79-3.44c-4.42-3.28-2.84,1.09-2.84,1.09s0,2.6,2.38,7.32,7.74,15.06,8.81,17.44,1.57,8.88-4.52,5.56-13.44-16.47-13.44-16.47S797,892.06,797,894.34s-2.1,8.43-9.1,1.41A79.72,79.72,0,0,1,776,879.49s18.5,18,11.5,19.49-17.39-12-19-17.16c1.58,2.9,3,5.17,4,6.73,1.6,2.46,3,4.33,2.3,6a1.9,1.9,0,0,1-.92,1.08c-1.76.74-4.72-2.9-5.91-4.15-2.5-2.61-6.51-7.69-8.75-16.52-2.57-10.11.29-13.24-2.57-25.06a65.69,65.69,0,0,0-2.44-7.9Z"/><path class="cls-13" d="M795.48,891.2a60.1,60.1,0,0,1-8-11.05,57.73,57.73,0,0,1-4.19-9.26"/><path class="cls-13" d="M789.39,897.07c-.14.13-2.8-2.31-3.88-3.3a50.09,50.09,0,0,1-4.44-4.39,30.37,30.37,0,0,1-3.89-5.54,27.17,27.17,0,0,1-3-9.42A53.34,53.34,0,0,0,780,885.71C784.37,892.34,789.58,896.88,789.39,897.07Z"/><path class="cls-13" d="M774.45,891.19a11.12,11.12,0,0,1-1.87-2,29.12,29.12,0,0,1-2.11-2.58,15.93,15.93,0,0,1-1.75-3.16,14.91,14.91,0,0,1-1.09-5.38,44.12,44.12,0,0,0,2.45,5.76C772.22,888.06,774.62,891.07,774.45,891.19Z"/><path class="cls-7" d="M717.66,657.54q-2.25,18.87-4.48,37.75a163.22,163.22,0,0,0,79.71,0,148,148,0,0,0-9.3-39.19c-5.57-14.33-18.15-46.71-34.51-46.46C736.34,609.84,722.9,629.79,717.66,657.54Z"/><path class="cls-14" d="M1473.55,1084l215.38,0q16.39-114.45,32.8-228.9c-2.73-4.35-29.15-44.84-90-56.79-48.63-9.55-99.63,3-129.48,32Q1487.92,957.09,1473.55,1084Z"/><rect class="cls-15" x="1466.79" y="645.44" width="51.45" height="61.11"/><path class="cls-16" d="M1415.25,543.62s-8.64,4-12.62,58.46a15.54,15.54,0,0,1-.42,5.06c-.91,3.61-2.84,5.6-4.72,8-3.35,4.36-7.3,9.49-6.39,13.45.22,1,1.37,4.71,10.36,7a161.17,161.17,0,0,0,8.2,29.15c3.72,9.63,5.55,14.47,8.91,17.63,12.16,11.39,35.26,4.42,50.91.38a139.37,139.37,0,0,0,53.44-27.48,76.66,76.66,0,0,0,13.29-23.91c8.31-24.68,3.71-54.15-12-73.74C1501.44,529.2,1454.74,521.1,1415.25,543.62Z"/><path d="M1405.17,593c1.79,1,4.58-2.3,8.23-4.25,9.82-5.24,21.07,2,22.15-.35.76-1.65-4.11-6.72-10.08-7.84-2.93-.55-5.22.11-9.81,1.44-5.31,1.53-10.41,3-11.44,6.68C1403.79,590.25,1404,592.36,1405.17,593Z"/><ellipse cx="1411.34" cy="599.53" rx="3.98" ry="5.52"/><path d="M1507.64,607.22c3.25-3.31,11.22-2.26,15.88,1.5,8.26,6.66,5.35,21.37,2.54,26.54-2,3.75-4.16,4.58-5.88,9.45-1.39,4-1.3,7.32-1.06,12a.56.56,0,0,0,0,.2,3.84,3.84,0,0,0,1.77,2c1.11.64,9.38-2,17.66-10.09,24.33-23.7,24.89-55.17,24.89-55.17.35-43.09-37.67-69-39.24-70-32.58-21.43-81.09-20.71-103.28,3.89-2.91,3.23-12.6,14-11.26,27.2,2.12,20.95,31.08,40.23,73.73,43.64-13-13.4-16-16.27-16.15-16.14s8.56,10.76,19.51,22c6.87,7,7.78,6.81,9.4,9.79,3.9,7.2,3.42,13.14,6.94,22.81.95,2.62,2.09,5.77,2.94,5.63,1.79-.28,1.2-14.69,1.07-17.7C1506.65,612.77,1505.31,609.6,1507.64,607.22Z"/><path d="M1422.76,662a57.46,57.46,0,0,1-14.89-3,49.89,49.89,0,0,1,7.54,1A51.51,51.51,0,0,1,1422.76,662Z"/><path d="M1404.94,596.74a9,9,0,0,1,5.5-3.42c3.85-.65,6.78,1.78,7.86,2.67a12.52,12.52,0,0,1,3.74,5.4,19.83,19.83,0,0,0-4-3.57c-2.09-1.41-5.19-3.44-9-2.92A8.62,8.62,0,0,0,1404.94,596.74Z"/><path d="M1504.9,1039.18c-4.89,5-8.6,8.52-9.77,9.6a258.87,258.87,0,0,1-42.61,32.25l-64.66.91-72.09-1.09q19.31-24.64,38.67-49.27,59-75.06,118.57-149.68l97.79,77.54A587.39,587.39,0,0,1,1504.9,1039.18Z"/><path class="cls-17" d="M1447.63,727.12a77.2,77.2,0,0,0-7.73,14.27c-7,17.33-15.37,38.81-22.37,116.61-2.5,27.81-3.75,42.14-4,62.82-.28,23.48,1,35.63,2,60.82.81,19.83,1.55,48.81.79,84.76,24.37,11,42.77,13.32,55.41,13.29,3.3,0,6.56-.19,22.17-.46,24.21-.42,28.31-.21,33.16-.47,11.73-.62,28.45-4,49.3-16.47,6.13-55.11-12.65-183.5-15.15-235.39-.23-4.9-7.2-116.26-44.45-140.28a23.39,23.39,0,0,0-6.72-2.9C1482.27,676,1451.35,721.52,1447.63,727.12Z"/><path class="cls-18" d="M1202.78,1087.13,970.86,1085V834L1224,912.51Q1213.38,999.81,1202.78,1087.13Z"/><path class="cls-19" d="M1198.73,952.26v.12l-14-6.09Z"/><path class="cls-19" d="M1198.73,952.26v.12l-14-6.09Z"/><path class="cls-19" d="M1288.89,812.87,970.86,834v251l25.63.23q.16-110.41.32-220.83l187.92,81.88q0,70.05,0,140.11l14.32.13,364-1.89V907Zm-90.16,139.51-14-6.09,14,6Z"/><path class="cls-16" d="M1494.57,789.93a114.8,114.8,0,0,1-10.6,38.68c-10.4,21.73-26.42,32.7-41.48,47.52a482.66,482.66,0,0,1-80.09,63.42l-19.11-24.74c7.85-7.88,13.9-14.17,18-18.53,2.69-2.83,54.11-30.94,68.67-39.19,6.49-3.67,11.19-13.39,22.49-30.2a606.21,606.21,0,0,0,33.76-56.59Z"/><path class="cls-16" d="M1344.55,914a10.35,10.35,0,0,1-4.19,2c-2.2.48-3-.23-7.19-.61-2.67-.25-4.66-.26-7.74-.28a38.17,38.17,0,0,0-5.09.18c-2,.25-2.49.52-4.48.8a54.41,54.41,0,0,1-5.78.26c-3.67.23-7,.43-7.72,1.79-1,1.82,3.16,4.88,3.52,5.14a19.94,19.94,0,0,0,10.45,3c6.34.1,1.83,3,1.83,3s-1.82,2.38-7.32,5-17.64,8.32-20.29,9.75-7.68,7,.22,8.26,23.85-5.62,23.85-5.62-22,5.52-23.64,7.57-4,9.18,7.33,7.69a91.59,91.59,0,0,0,22.34-6.48s-29.56,3.48-24.2,9.74,24.31,1.25,29.45-2.32c-3.49,1.55-6.36,2.63-8.38,3.35-3.19,1.13-5.74,1.87-6.29,3.83a2.26,2.26,0,0,0,.09,1.64c1.09,1.9,6.34.65,8.31.35,4.12-.62,11.35-2.46,19.61-8.95,9.44-7.43,9-12.3,19.94-21.1a74.62,74.62,0,0,1,7.78-5.5Z"/><path class="cls-20" d="M1294.6,952.46a68.79,68.79,0,0,0,15.07-4.47,66.89,66.89,0,0,0,10.35-5.52"/><path class="cls-20" d="M1296.06,962.11c0,.22,4.17-.15,5.85-.3a56.12,56.12,0,0,0,7.14-.89,34.51,34.51,0,0,0,7.45-2.33,31.15,31.15,0,0,0,9.32-6.52,62,62,0,0,1-13.17,6.29C1304,961.31,1296,961.8,1296.06,962.11Z"/><path class="cls-20" d="M1313.83,967.23a12.59,12.59,0,0,0,3.09-.49,32.89,32.89,0,0,0,3.74-.87,19.08,19.08,0,0,0,3.83-1.66,17.06,17.06,0,0,0,4.76-4.15,50.39,50.39,0,0,1-6.27,3.54C1318.06,965.93,1313.76,967,1313.83,967.23Z"/><path class="cls-21" d="M1512.76,787.22c-7.1,29.49-13.1,54.47-34.16,77-10.26,11-9.23,5.49-43.3,30.81-25.5,19-57.64,44.86-64.76,40.74-4-2.29-1.94-7-8.87-14.69a30.29,30.29,0,0,0-5.51-4.88c-6.76-4.59-9.92-5.13-11-6.43-6.56-8,70.7-53.64,99-125.88,11.41-29.11,12.33-56.07,35.68-68.15,9.39-4.86,24.3-8.3,33.43-1.48C1527.72,725,1520.32,755.79,1512.76,787.22Z"/><path class="cls-22" d="M1087.32,847.1l98-12.22L1315.77,896l-97.2,18Z"/><text class="cls-23" transform="translate(1160.75 854.77) rotate(30.11)"><tspan class="cls-24">P</tspan><tspan class="cls-25" x="10.9" y="0">A</tspan><tspan class="cls-26" x="21.85" y="0">Y</tspan><tspan x="31.66" y="0">CH</tspan><tspan class="cls-27" x="56.47" y="0">E</tspan><tspan x="67.25" y="0">CK</tspan></text></g></g></svg>