<svg xmlns="http://www.w3.org/2000/svg" viewBox="0 0 1485.95 576.22"><defs><style>.cls-1{fill:#f2f2f2;}.cls-2{font-size:48px;font-family:Montserrat-SemiBold, Montserrat;font-weight:600;}.cls-3{letter-spacing:-0.02em;}.cls-30,.cls-31,.cls-4,.cls-5{fill:none;stroke-width:2px;}.cls-31,.cls-4,.cls-5{stroke:#000;}.cls-30,.cls-4,.cls-5{stroke-miterlimit:10;}.cls-5{stroke-dasharray:11.92 11.92;}.cls-6{font-size:36px;font-family:Montserrat-Bold, Montserrat;font-weight:700;}.cls-7{letter-spacing:-0.01em;}.cls-8{letter-spacing:0em;}.cls-9{letter-spacing:-0.02em;}.cls-10{letter-spacing:0em;}.cls-11{letter-spacing:-0.02em;}.cls-12{font-size:24px;font-family:Montserrat-Regular, Montserrat;}.cls-13{letter-spacing:-0.05em;}.cls-14{letter-spacing:0em;}.cls-15{letter-spacing:3.04em;}.cls-16{letter-spacing:3.9em;}.cls-17{letter-spacing:3.43em;}.cls-18{letter-spacing:-0.01em;}.cls-19{letter-spacing:-0.01em;}.cls-20{letter-spacing:-0.01em;}.cls-21{letter-spacing:-0.06em;}.cls-22{letter-spacing:0em;}.cls-23{letter-spacing:2.09em;}.cls-24{letter-spacing:3.69em;}.cls-25{letter-spacing:-0.01em;}.cls-26{letter-spacing:-0.03em;}.cls-27{letter-spacing:2.8em;}.cls-28{letter-spacing:3.33em;}.cls-29{letter-spacing:3.15em;}.cls-30{stroke:#231f20;}.cls-31{stroke-linecap:round;stroke-linejoin:round;}</style></defs><g id="Layer_2" data-name="Layer 2"><g id="Layer_1-2" data-name="Layer 1"><rect class="cls-1" width="1485.95" height="576.22"/><text class="cls-2" transform="translate(108.43 114.06)">Mr <tspan class="cls-3" x="79.25" y="0">K</tspan><tspan x="113.38" y="0">umar Nazrul</tspan></text><line class="cls-4" x1="113.91" y1="163.04" x2="119.91" y2="163.04"/><line class="cls-5" x1="131.82" y1="163.04" x2="1365.12" y2="163.04"/><line class="cls-4" x1="1371.08" y1="163.04" x2="1377.08" y2="163.04"/><text class="cls-6" transform="translate(113.91 246.83)"><tspan class="cls-7">0</tspan><tspan x="24.23" y="0">1</tspan><tspan class="cls-8" x="38.34" y="0">-</tspan><tspan class="cls-7" x="52.38" y="0">0</tspan><tspan x="76.61" y="0">1</tspan><tspan class="cls-9" x="90.72" y="0">-</tspan><tspan class="cls-10" x="104.04" y="0">2</tspan><tspan class="cls-7" x="125.21" y="0">0</tspan><tspan x="149.43" y="0">21 </tspan><tspan class="cls-11" x="194.97" y="0">t</tspan><tspan x="210.02" y="0">o 31</tspan><tspan class="cls-8" x="279.21" y="0">-</tspan><tspan class="cls-7" x="293.25" y="0">0</tspan><tspan x="317.48" y="0">1</tspan><tspan class="cls-9" x="331.59" y="0">-</tspan><tspan x="344.91" y="0">21</tspan></text><text class="cls-12" transform="translate(895.15 301.92)">Net <tspan class="cls-13" x="50.04" y="0">W</tspan><tspan class="cls-14" x="75.38" y="0">a</tspan><tspan x="89.59" y="0">ge</tspan><tspan class="cls-15" x="120.55" y="0">	</tspan><tspan class="cls-16" x="199.74" y="0">	</tspan><tspan x="299.61" y="0">: </tspan><tspan class="cls-17" x="310.98" y="0">	</tspan><tspan class="cls-18" x="399.47" y="0">3</tspan><tspan x="412.77" y="0">5</tspan><tspan class="cls-19" x="426.35" y="0">0.</tspan><tspan x="446.8" y="0">00</tspan></text><text class="cls-12" transform="translate(894.59 348.78)">G<tspan class="cls-20" x="18.55" y="0">r</tspan><tspan x="27.86" y="0">oss </tspan><tspan class="cls-21" x="72.67" y="0">W</tspan><tspan class="cls-14" x="98.02" y="0">a</tspan><tspan class="cls-22" x="112.22" y="0">ge</tspan><tspan class="cls-23" x="143.19" y="0">	</tspan><tspan class="cls-16" x="199.74" y="0">	</tspan><tspan x="299.61" y="0">:</tspan><tspan class="cls-24" x="304.69" y="0">	</tspan><tspan class="cls-25" x="399.47" y="0">3</tspan><tspan x="412.77" y="0">5</tspan><tspan class="cls-19" x="426.36" y="0">0.</tspan><tspan x="446.8" y="0">00</tspan></text><text class="cls-12" transform="translate(896.46 395.64)">E’R C<tspan class="cls-18" x="62.04" y="0">P</tspan><tspan x="79.03" y="0">F</tspan><tspan class="cls-26" x="94.22" y="0">	</tspan><tspan class="cls-16" x="99.87" y="0" xml:space="preserve">		</tspan><tspan x="299.6" y="0">:</tspan><tspan class="cls-24" x="304.69" y="0">	</tspan><tspan class="cls-19" x="399.47" y="0">0.</tspan><tspan x="419.92" y="0">00</tspan></text><text class="cls-12" transform="translate(896.46 442.49)">C<tspan class="cls-18" x="17.26" y="0">P</tspan><tspan x="34.25" y="0">F </tspan><tspan class="cls-13" x="55.73" y="0">W</tspan><tspan class="cls-14" x="81.07" y="0">a</tspan><tspan x="95.28" y="0">ge</tspan><tspan class="cls-27" x="126.24" y="0">	</tspan><tspan class="cls-16" x="199.74" y="0">	</tspan><tspan x="299.61" y="0">:</tspan><tspan class="cls-24" x="304.69" y="0">	</tspan><tspan class="cls-19" x="399.47" y="0">0.</tspan><tspan x="419.92" y="0">00</tspan></text><text class="cls-12" transform="translate(896.46 489.35)"><tspan class="cls-21">T</tspan><tspan class="cls-22" x="12.46" y="0">otal C</tspan><tspan class="cls-18" x="81.41" y="0">P</tspan><tspan x="98.4" y="0">F</tspan><tspan class="cls-28" x="113.59" y="0">	</tspan><tspan class="cls-16" x="199.74" y="0">	</tspan><tspan x="299.6" y="0">:</tspan><tspan class="cls-24" x="304.69" y="0">	</tspan><tspan class="cls-19" x="399.47" y="0">0.</tspan><tspan x="419.92" y="0">00</tspan></text><text class="cls-12" transform="translate(117.52 489.35)">Signatu<tspan class="cls-20" x="93.98" y="0">r</tspan><tspan x="103.3" y="0">e</tspan><tspan class="cls-29" x="117.79" y="0">	</tspan><tspan x="199.74" y="0">:</tspan></text><line class="cls-30" x1="342.09" y1="494.12" x2="495.26" y2="494.12"/><path class="cls-31" d="M398.68,483.28l3.21-35.09s-5.2,21.1-1.84,22.34c.88.32,2-1.15,4.59-3.77,7.09-7.08,14.46-11.27,14.68-11s-4,5-10.28,9.22c-5.69,3.87-8,3.89-8.68,6.28-1.34,4.79,5.79,12.58,10.46,11.61,1.38-.29,2.51-1.29,4.28-2.91,3.15-2.88,4-5.27,4.89-5,1.41.35.42,6.25,2,6.72s3.76-5.42,6.26-5c1.79.27,2.28,3.52,3.73,3.41,1.3-.1,1.42-2.71,2.85-2.95,1.87-.32,3.36,3.87,5,3.51,1.25-.26,1-2.68,2.91-3.82a4.89,4.89,0,0,1,3.67-.3"/></g></g></svg>