<svg xmlns="http://www.w3.org/2000/svg" viewBox="0 0 1485.95 576.22">
  <defs>
    <style>
      .cls-1 {
        fill: #f2f2f2;
      }

      .cls-2 {
        font-size: 48px;
      }

      .cls-15, .cls-2, .cls-27 {
        font-family: Montserrat-SemiBold, Montserrat;
        font-weight: 600;
      }

      .cls-3 {
        letter-spacing: -0.02em;
      }

      .cls-18, .cls-19, .cls-4, .cls-5 {
        fill: none;
        stroke-width: 2px;
      }

      .cls-19, .cls-4, .cls-5 {
        stroke: #000;
      }

      .cls-18, .cls-4, .cls-5 {
        stroke-miterlimit: 10;
      }

      .cls-5 {
        stroke-dasharray: 11.92 11.92;
      }

      .cls-20, .cls-27, .cls-6 {
        font-size: 36px;
      }

      .cls-6 {
        font-family: Montserrat-Medium, Montserrat;
        font-weight: 500;
      }

      .cls-7 {
        letter-spacing: 0em;
      }

      .cls-8 {
        letter-spacing: 0em;
      }

      .cls-9 {
        letter-spacing: 0.01em;
      }

      .cls-10 {
        letter-spacing: 0em;
      }

      .cls-11 {
        letter-spacing: 0em;
      }

      .cls-12 {
        letter-spacing: -0.01em;
      }

      .cls-13 {
        letter-spacing: -0.02em;
      }

      .cls-14 {
        letter-spacing: 0.01em;
      }

      .cls-15 {
        font-size: 24px;
      }

      .cls-16 {
        letter-spacing: -0.01em;
      }

      .cls-17 {
        letter-spacing: 3.01em;
      }

      .cls-18 {
        stroke: #231f20;
      }

      .cls-19 {
        stroke-linecap: round;
        stroke-linejoin: round;
      }

      .cls-20 {
        font-family: Montserrat-Bold, Montserrat;
        font-weight: 700;
      }

      .cls-21 {
        letter-spacing: -0.05em;
      }

      .cls-22 {
        letter-spacing: 0.01em;
      }

      .cls-23 {
        letter-spacing: 0.05em;
      }

      .cls-24 {
        letter-spacing: 2.49em;
      }

      .cls-25 {
        letter-spacing: 1.95em;
      }

      .cls-26 {
        letter-spacing: -0.01em;
      }

      .cls-28 {
        letter-spacing: -0.01em;
      }

      .cls-29 {
        letter-spacing: -0.06em;
      }

      .cls-30 {
        letter-spacing: 0em;
      }

      .cls-31 {
        letter-spacing: 1.9em;
      }

      .cls-32 {
        letter-spacing: 2.25em;
      }

      .cls-33 {
        letter-spacing: -0.01em;
      }

      .cls-34 {
        letter-spacing: 1.27em;
      }

      .cls-35 {
        letter-spacing: 2.5em;
      }

      .cls-36 {
        letter-spacing: -0.01em;
      }

      .cls-37 {
        letter-spacing: -0.1em;
      }

      .cls-38 {
        letter-spacing: 0.4em;
      }

      .cls-39 {
        letter-spacing: 2.25em;
      }
    </style>
  </defs>
  <g id="Layer_2" data-name="Layer 2">
    <g id="Layer_1-2" data-name="Layer 1">
      <g>
        <g>
          <rect class="cls-1" width="1485.95" height="576.22"/>
          <text class="cls-2" transform="translate(114.05 115.36)">Mr <tspan class="cls-3" x="79.25" y="0">K</tspan><tspan x="113.38" y="0">umar Nazrul</tspan></text>
          <g>
            <line class="cls-4" x1="113.91" y1="163.04" x2="119.91" y2="163.04"/>
            <line class="cls-5" x1="131.82" y1="163.04" x2="1365.12" y2="163.04"/>
            <line class="cls-4" x1="1371.08" y1="163.04" x2="1377.08" y2="163.04"/>
          </g>
          <text class="cls-6" transform="translate(1011.26 114.4)"><tspan class="cls-7">0</tspan><tspan class="cls-8" x="23.9" y="0">1</tspan><tspan class="cls-9" x="37.22" y="0">-</tspan><tspan class="cls-10" x="51.26" y="0">0</tspan><tspan class="cls-11" x="75.17" y="0">1</tspan><tspan class="cls-12" x="88.49" y="0">-</tspan><tspan class="cls-10" x="101.81" y="0">20</tspan><tspan x="146.27" y="0">21 </tspan><tspan class="cls-13" x="189.93" y="0">t</tspan><tspan class="cls-11" x="204.19" y="0">o 31</tspan><tspan class="cls-14" x="270.65" y="0">-</tspan><tspan class="cls-7" x="284.69" y="0">0</tspan><tspan x="308.59" y="0">1</tspan><tspan class="cls-12" x="321.91" y="0">-</tspan><tspan x="335.23" y="0">21</tspan></text>
          <g>
            <text class="cls-15" transform="translate(999.34 471.91)">Signatu<tspan class="cls-16" x="96.21" y="0">r</tspan><tspan x="106.05" y="0">e</tspan><tspan class="cls-17" x="120.98" y="0">	</tspan><tspan x="199.74" y="0">:</tspan></text>
            <line class="cls-18" x1="1223.91" y1="476.68" x2="1377.08" y2="476.68"/>
            <path class="cls-19" d="M1280.5,465.83l3.21-35.09s-5.2,21.11-1.84,22.34c.88.33,2-1.14,4.59-3.76,7.09-7.08,14.46-11.28,14.68-11s-4,5-10.28,9.22c-5.69,3.87-8,3.89-8.68,6.28-1.34,4.79,5.79,12.58,10.46,11.6,1.38-.29,2.51-1.28,4.28-2.9,3.15-2.89,4-5.28,4.89-5.05,1.41.36.42,6.26,2,6.73s3.76-5.42,6.26-5c1.79.27,2.27,3.52,3.73,3.41,1.3-.1,1.42-2.71,2.85-3,1.87-.31,3.36,3.88,5,3.52,1.24-.26,1-2.68,2.91-3.82a4.87,4.87,0,0,1,3.66-.31"/>
          </g>
        </g>
        <text class="cls-20" transform="translate(113.91 235.44)">Net <tspan class="cls-21" x="77.65" y="0">W</tspan><tspan class="cls-22" x="117.54" y="0">a</tspan><tspan x="139.97" y="0">ge</tspan><tspan class="cls-23" x="187.88" y="0">	</tspan><tspan class="cls-24" x="199.74" y="0">	</tspan><tspan x="299.61" y="0">: </tspan><tspan class="cls-25" x="319.22" y="0">	</tspan><tspan class="cls-16" x="399.47" y="0">3</tspan><tspan x="420.42" y="0">5</tspan><tspan class="cls-26" x="441.84" y="0">0.</tspan><tspan x="474.79" y="0">00</tspan></text>
        <text class="cls-27" transform="translate(113.91 295.75)">G<tspan class="cls-28" x="27.79" y="0">r</tspan><tspan x="42.55" y="0">oss </tspan><tspan class="cls-29" x="112.79" y="0">W</tspan><tspan class="cls-30" x="151.99" y="0">a</tspan><tspan x="174.02" y="0">ge</tspan><tspan class="cls-31" x="221.4" y="0">	</tspan><tspan x="299.6" y="0">:</tspan><tspan class="cls-32" x="308.39" y="0">	</tspan><tspan class="cls-28" x="399.47" y="0">3</tspan><tspan x="420.06" y="0">5</tspan><tspan class="cls-33" x="441.09" y="0">0.</tspan><tspan x="473.24" y="0">00</tspan></text>
        <text class="cls-27" transform="translate(113.91 356.06)">E’R C<tspan class="cls-28" x="95.33" y="0">P</tspan><tspan x="121.1" y="0">F</tspan><tspan class="cls-34" x="144.03" y="0">	</tspan><tspan class="cls-35" x="199.74" y="0">	</tspan><tspan x="299.6" y="0">:</tspan><tspan class="cls-32" x="308.39" y="0">	</tspan><tspan class="cls-36" x="399.47" y="0">0.</tspan><tspan x="431.62" y="0">00</tspan></text>
        <text class="cls-27" transform="translate(113.91 416.37)">C<tspan class="cls-28" x="26.17" y="0">P</tspan><tspan x="51.95" y="0">F </tspan><tspan class="cls-29" x="84.82" y="0">W</tspan><tspan class="cls-30" x="124.02" y="0">a</tspan><tspan x="146.05" y="0">ge</tspan><tspan class="cls-37" x="193.42" y="0">	</tspan><tspan class="cls-35" x="199.74" y="0">	</tspan><tspan x="299.6" y="0">:</tspan><tspan class="cls-32" x="308.39" y="0">	</tspan><tspan class="cls-33" x="399.47" y="0">0.</tspan><tspan x="431.62" y="0">00</tspan></text>
        <text class="cls-27" transform="translate(113.91 476.68)"><tspan class="cls-21">T</tspan><tspan x="19.69" y="0">otal C</tspan><tspan class="cls-16" x="126.54" y="0">P</tspan><tspan x="152.31" y="0">F</tspan><tspan class="cls-38" x="175.25" y="0">	</tspan><tspan class="cls-35" x="199.74" y="0">	</tspan><tspan x="299.6" y="0">:</tspan><tspan class="cls-39" x="308.39" y="0">	</tspan><tspan class="cls-33" x="399.47" y="0">0.</tspan><tspan x="431.62" y="0">00</tspan></text>
      </g>
    </g>
  </g>
</svg>
