<svg xmlns="http://www.w3.org/2000/svg" xmlns:xlink="http://www.w3.org/1999/xlink" viewBox="0 0 732.36 462.26"><defs><style>.cls-1{fill:none;}.cls-2{clip-path:url(#clip-path);}.cls-3{fill:#ddd;}.cls-4{fill:#75431f;}.cls-5{fill:#8d5524;}.cls-6{fill:#d6ad00;}.cls-7{fill:#7a4620;}.cls-8{fill:#ba8072;}.cls-9{fill:#893438;}.cls-10{fill:#c66b94;}.cls-11{fill:#fff;}</style><clipPath id="clip-path" transform="translate(15.8 52.76)"><path class="cls-1" d="M.17,200.41c6.17,93,184.56,160.49,315,169.14C411.69,376,489.89,350.68,535,332l70.77,40.84q-9-33.48-18.07-67c62.8-54.25,70.39-96.93,69.26-120.88C651.92,78.84,467.74-6.49,315.14.39,164.08,7.2-6,106.62.17,200.41Z"/></clipPath></defs><g id="Layer_2" data-name="Layer 2"><g id="Layer_1-2" data-name="Layer 1"><g class="cls-2"><rect class="cls-3" width="732.36" height="461.23"/><path d="M401.93,120.22c-16.8,22.7-7,40.91-15.67,108.88-2.84,22.15-6,39.9-6,39.9-6.64,26.06-15.07,34.84-8.53,49,22.79,49.2,172,52.74,199.48,0,5.73-11,2.18-16.82-2.43-47.29-2-13.15.14-7.59-6.36-62.12-7.14-60-14.3-74.5-17.83-81a124.62,124.62,0,0,0-25-31.84C510.94,92.37,470,77.44,430.07,98,422.52,101.91,411.16,107.76,401.93,120.22Z" transform="translate(15.8 52.76)"/><path class="cls-4" d="M234.16,324.23c-.45,16.44-12.8,29.74-27.71,31.34-16.92,1.82-33.44-11.83-34.55-30.63q-.9-20.43-1.79-40.85H232Q233.09,304.16,234.16,324.23Z" transform="translate(15.8 52.76)"/><path class="cls-5" d="M258.93,151.71c18.24,20.7,15.64,47.95,14.17,63.42-.87,9.18-6.26,65.87-49.57,81.09-24.52,8.62-47.85-.74-53.85-3.4-40-17.67-47.66-63.59-50.47-80.27-3.38-20.14-6.94-41.35,5.69-58.86C150.1,118.75,227.34,115.85,258.93,151.71Z" transform="translate(15.8 52.76)"/><path d="M274.09,205.23c-.07.4-.41-1.79-1.48-5.6-.94-3.35-1.91-7.87-3.81-10.85-1.05-1.65-4-5.4-11.75-7.17a201.43,201.43,0,0,1-41.74-8.7c-26-8.42-37.88-18.31-55.69-15.24-10.8,1.86-18.84,7.63-23.78,12A66.83,66.83,0,0,0,118,209.88c-2.56-6.77-9.79-28.52-.66-52.23,6.17-16,16.92-25.52,22.79-30.5a89.51,89.51,0,0,1,37.09-18.85c8.09-1.86,28.89-6.3,51.73,4.13,23.66,10.81,34,30.75,37.53,37.87C278.63,174.56,275.54,197.34,274.09,205.23Z" transform="translate(15.8 52.76)"/><path d="M212.41,193.6c1.75,1.78,6.76.49,14.42.85,11.24.52,18.77,4.13,20,2.58.55-.68-.56-1.86-1-2.37-2.24-2.37-6.41-3.06-12.36-4-2.46-.38-6.62-.48-15-.68-2.7-.06-5.15-.09-6.16,1A1.87,1.87,0,0,0,212.41,193.6Z" transform="translate(15.8 52.76)"/><ellipse cx="236.96" cy="265.19" rx="4.95" ry="7.31"/><path d="M212.65,208.73a10.58,10.58,0,0,1,5.26-4.41,9.78,9.78,0,0,1,3.72-.6c1,0,2.72.27,7.27,3.24a57.33,57.33,0,0,1,5.39,4l.18.05-1.92-.55-3.56-1c-3.54-1-5.18-2-7-2.38C220.05,206.54,217,206.49,212.65,208.73Z" transform="translate(15.8 52.76)"/><path d="M198.2,226.86c-.52,1.14-1.34,2.87-2.41,4.95-2.06,4-2.45,4.22-3.09,5.79-1.13,2.75-3.07,7.47.35,9.72,2.92,1.92,8.34,1.12,9.91.85-.83.07-6.28.5-8.84-1.75-1.33-1.17-1.27-2.53-1.15-4.3.25-3.73,2.22-5.37,3.84-9.61A23.29,23.29,0,0,0,198.2,226.86Z" transform="translate(15.8 52.76)"/><path class="cls-6" d="M201.45,337a47,47,0,0,0,21.44-4.44,46,46,0,0,0,11.23-7.55c11.54,2,20.87,3.48,27,4.43,23.09,3.59,29.77,3.95,37.86,9.11,7.55,4.82,11.8,10.4,16,16.24,6.26,8.64,17,26.45,20.4,54.67H68.89c2.43-14,11.79-59.13,42.48-72.37,7.11-3.06,25.47-6.93,41.42-9.57,8-1.32,14.61-2.13,19.11-2.62C175.1,327.78,185.75,336.49,201.45,337Z" transform="translate(15.8 52.76)"/><path class="cls-7" d="M508.22,283.27c-.37,14-10.9,25.34-23.6,26.71-14.41,1.54-28.48-10.09-29.43-26.1q-.76-17.4-1.52-34.8H506.4Q507.32,266.18,508.22,283.27Z" transform="translate(15.8 52.76)"/><path class="cls-5" d="M532,115.08c16.06,18.37,16.2,44.08,16.31,63.67.06,11.63-.05,31.08-10.87,52.46-3.17,6.27-13.06,25.07-33.91,37.67-5.7,3.44-11.37,6.79-19.67,7.9C467,279,453.08,270.11,445.3,265.1c-4.51-2.9-12.84-8.87-22-20.29-5.72-7.16-24.43-31-26.92-66.84-1.11-16-2.81-40.63,12.17-59.79C435.45,83.79,503.76,82.74,532,115.08Z" transform="translate(15.8 52.76)"/><path d="M552.47,169.69c.86,31-8.09,56.47-15.89,72.94a92.36,92.36,0,0,0-14-92.25c-32.14-39.53-82-33.36-84.57-33-9.91,10.53-21.45,26-27.28,46.77-11.19,39.87,5.11,76.29,2.26,77.06-2.28.61-12-22.82-17.35-50.3-4-20.77-7.16-37.46-.82-57.28,2.27-7.09,6.66-20.26,18.93-31.75,13.09-12.25,27.6-15.54,37.27-17.6,9-1.92,39.36-8.37,66.26,9.83a76.45,76.45,0,0,1,23.29,25.63C551.41,138.2,552.08,155.74,552.47,169.69Z" transform="translate(15.8 52.76)"/><path d="M450.76,235.72A75,75,0,0,0,463,239.26a54.67,54.67,0,0,0,6.22.85c1,.1,2.08.15,3.12.2s2.08.05,3.12,0a58.65,58.65,0,0,0,12.4-1.63,76.14,76.14,0,0,0,12.06-4.15,36.91,36.91,0,0,1-11.39,6.39,42.06,42.06,0,0,1-26.09.63A37.32,37.32,0,0,1,450.76,235.72Z" transform="translate(15.8 52.76)"/><path d="M461.39,165.66c-3.06,3.34-10.15.52-18.5-.19-16.86-1.43-29.41,6.58-30.2,4.81-.54-1.22,5.62-4.79,7.7-6a47.74,47.74,0,0,1,14.34-5.48c4.19-.81,8.68-.5,17.65.11,6.62.46,9.26,1,10,2.75A4,4,0,0,1,461.39,165.66Z" transform="translate(15.8 52.76)"/><ellipse cx="462.21" cy="239.43" rx="5.36" ry="7.91"/><path d="M456.35,184c-1.59-2.68-4.2-5.88-8.26-6.86l-.53-.11c-3.83-.65-8.95,2.7-11.3,3.89s-6.19,2.29-11.83,1.44a11.73,11.73,0,0,0,6,3.11,12.56,12.56,0,0,0,6.36-.78c4.24-1.4,5-3.26,7.51-4.14C446.6,179.73,450.32,179.78,456.35,184Z" transform="translate(15.8 52.76)"/><path d="M472.7,189c-1.67,4.88-2.83,9.06-3.62,12.26-2.63,10.54-2,13.26-.36,14.14.74.39,1.73.42,3.72.47a17.55,17.55,0,0,0,5.85-.69c0-.07-1.48.18-4,.2-2.79,0-4.18,0-4.94-.43-1.09-.66-1.3-2.12-.11-8.79.69-3.82,1.41-6.94,1.88-9.07C471.86,193.6,472.38,190.79,472.7,189Z" transform="translate(15.8 52.76)"/><path class="cls-8" d="M484.13,305.16c17.51-4.37,23.63-20.6,24.09-21.89,5.23.46,12.5,1.15,21.15,2.12,7.42.84,22.64,2.58,40.24,5.54,26.63,4.48,39.95,6.72,45.16,11.49,5.52,5.05,9,12,12.83,42a543.42,543.42,0,0,1,4.27,63.1H332.18a194.26,194.26,0,0,1,0-49.57c3.33-25.78,5.67-43.91,19.23-55.9,4.06-3.59,10.88-6.81,60.39-14,17.9-2.59,32.9-3.71,43.39-4.25C461.28,298,473.69,307.76,484.13,305.16Z" transform="translate(15.8 52.76)"/><path d="M185.81,193.86c-1.74,1.78-6.75.49-14.41.85-11.24.52-18.77,4.13-20,2.58-.56-.68.56-1.86,1-2.37,2.24-2.37,6.4-3.06,12.36-4,2.46-.38,6.62-.48,14.94-.67,2.71-.07,5.16-.1,6.17,1A1.86,1.86,0,0,1,185.81,193.86Z" transform="translate(15.8 52.76)"/><ellipse cx="192.86" cy="265.45" rx="4.95" ry="7.31"/><path d="M185.58,209a10.48,10.48,0,0,0-5.26-4.41,9.66,9.66,0,0,0-3.72-.61c-1,0-2.72.27-7.27,3.24a57.83,57.83,0,0,0-5.39,4l-.18,0,1.91-.55,3.56-1c3.55-1,5.19-2,7-2.38C178.18,206.8,181.22,206.75,185.58,209Z" transform="translate(15.8 52.76)"/><path class="cls-9" d="M178.49,261.55h40.06S200.43,310.71,178.49,261.55Z" transform="translate(15.8 52.76)"/><path class="cls-10" d="M187.78,277.21a24,24,0,0,1,21.55.23,12.79,12.79,0,0,1-11.58,5.92C191.37,282.92,188.09,277.72,187.78,277.21Z" transform="translate(15.8 52.76)"/><path class="cls-11" d="M178.49,261.55h40.06l-2.62,5.78-34.63,0Z" transform="translate(15.8 52.76)"/><path d="M485,164.86c3.06,3.34,10.15.52,18.5-.19,16.86-1.43,29.41,6.58,30.2,4.81.54-1.22-5.62-4.79-7.7-6A47.6,47.6,0,0,0,511.7,158c-4.19-.81-8.68-.5-17.65.11-6.62.45-9.26,1-10,2.75A4,4,0,0,0,485,164.86Z" transform="translate(15.8 52.76)"/><ellipse cx="515.82" cy="238.63" rx="5.36" ry="7.91"/><path d="M490.08,183.2c1.59-2.69,4.2-5.88,8.26-6.86l.53-.12c3.83-.64,8.95,2.71,11.3,3.89s6.19,2.3,11.83,1.45a11.72,11.72,0,0,1-6,3.1,12.46,12.46,0,0,1-6.36-.77c-4.24-1.4-5-3.26-7.51-4.14C499.83,178.92,496.11,179,490.08,183.2Z" transform="translate(15.8 52.76)"/></g></g></g></svg>