<svg xmlns="http://www.w3.org/2000/svg" xmlns:xlink="http://www.w3.org/1999/xlink" viewBox="0 0 1348.53 544.68"><defs><style>.cls-1,.cls-7,.cls-8{fill:none;}.cls-2{clip-path:url(#clip-path);}.cls-3{fill:#f2f2f2;}.cls-4{font-size:45.37px;font-family:Montserrat-SemiBold, Montserrat;font-weight:600;}.cls-5{letter-spacing:-0.02em;}.cls-6{letter-spacing:0em;}.cls-7,.cls-8{stroke:#000;stroke-miterlimit:10;stroke-width:2px;}.cls-8{stroke-dasharray:11.94 11.94;}.cls-9{font-size:34.03px;font-family:Montserrat-Bold, Montserrat;font-weight:700;}.cls-10{letter-spacing:-0.01em;}.cls-11{letter-spacing:0em;}.cls-12{letter-spacing:0em;}.cls-13{letter-spacing:-0.01em;}.cls-14{letter-spacing:-0.02em;}.cls-15{letter-spacing:0em;}.cls-16{letter-spacing:-0.02em;}.cls-17{letter-spacing:0em;}.cls-18{letter-spacing:-0.02em;}.cls-19{font-size:22.69px;font-family:Montserrat-Regular, Montserrat;}.cls-20{letter-spacing:-0.05em;}.cls-21{letter-spacing:0em;}.cls-22{letter-spacing:3.04em;}.cls-23{letter-spacing:3.9em;}.cls-24{letter-spacing:3.43em;}.cls-25{letter-spacing:-0.01em;}.cls-26{letter-spacing:0em;}.cls-27{letter-spacing:-0.01em;}.cls-28{letter-spacing:-0.01em;}.cls-29{letter-spacing:2.09em;}.cls-30{letter-spacing:3.69em;}.cls-31{letter-spacing:-0.01em;}.cls-32{letter-spacing:-0.03em;}.cls-33{letter-spacing:-0.01em;}.cls-34{letter-spacing:0em;}.cls-35{letter-spacing:2.8em;}.cls-36{letter-spacing:3.33em;}.cls-37{letter-spacing:3.9em;}.cls-38{fill:#9e1b1b;}</style><clipPath id="clip-path" transform="translate(689.44 160.88)"><path class="cls-1" d="M656.87,200.41c-6.18,93-184.57,160.49-315,169.14C245.34,376,167.14,350.68,122.06,332L51.29,372.82q9-33.48,18.07-67C6.56,251.6-1,208.92.1,185,5.11,78.84,189.29-6.49,341.89.39,493,7.2,663.08,106.62,656.87,200.41Z"/></clipPath></defs><g id="Layer_2" data-name="Layer 2"><g id="Layer_1-2" data-name="Layer 1"><g class="cls-2"><rect class="cls-3" width="1348.53" height="544.68"/><text class="cls-4" transform="translate(98.41 107.81) scale(0.96 1)">Mr <tspan class="cls-5" x="74.91" y="0">K</tspan><tspan class="cls-6" x="107.17" y="0">umar Nazrul</tspan></text><line class="cls-7" x1="103.37" y1="154.11" x2="109.37" y2="154.11"/><line class="cls-8" x1="121.31" y1="154.11" x2="1237.75" y2="154.11"/><line class="cls-7" x1="1243.72" y1="154.11" x2="1249.72" y2="154.11"/><text class="cls-9" transform="translate(103.37 233.31) scale(0.96 1)"><tspan class="cls-10">0</tspan><tspan class="cls-11" x="22.9" y="0">1</tspan><tspan class="cls-12" x="36.24" y="0">-</tspan><tspan class="cls-13" x="49.51" y="0">0</tspan><tspan x="72.41" y="0">1</tspan><tspan class="cls-14" x="85.75" y="0">-</tspan><tspan class="cls-15" x="98.34" y="0">2</tspan><tspan class="cls-13" x="118.35" y="0">0</tspan><tspan x="141.25" y="0">21 </tspan><tspan class="cls-16" x="184.3" y="0">t</tspan><tspan x="198.53" y="0">o 31</tspan><tspan class="cls-17" x="263.93" y="0">-</tspan><tspan class="cls-10" x="277.2" y="0">0</tspan><tspan x="300.1" y="0">1</tspan><tspan class="cls-18" x="313.44" y="0">-</tspan><tspan x="326.03" y="0">21</tspan></text><text class="cls-19" transform="translate(812.36 285.39) scale(0.96 1)">Net <tspan class="cls-20" x="47.3" y="0">W</tspan><tspan class="cls-21" x="71.26" y="0">a</tspan><tspan x="84.69" y="0">ge</tspan><tspan class="cls-22" x="113.95" y="0">	</tspan><tspan class="cls-23" x="188.8" y="0">	</tspan><tspan x="283.2" y="0">: </tspan><tspan class="cls-24" x="293.96" y="0">	</tspan><tspan class="cls-25" x="377.61" y="0">3</tspan><tspan class="cls-26" x="390.17" y="0">5</tspan><tspan class="cls-27" x="403.01" y="0">0.</tspan><tspan class="cls-26" x="422.34" y="0">00</tspan></text><text class="cls-19" transform="translate(811.85 329.69) scale(0.96 1)">G<tspan class="cls-28" x="17.54" y="0">r</tspan><tspan x="26.34" y="0">oss </tspan><tspan class="cls-20" x="68.69" y="0">W</tspan><tspan class="cls-21" x="92.65" y="0">a</tspan><tspan x="106.08" y="0">ge</tspan><tspan class="cls-29" x="135.34" y="0">	</tspan><tspan class="cls-23" x="188.8" y="0">	</tspan><tspan x="283.2" y="0">:</tspan><tspan class="cls-30" x="288.01" y="0">	</tspan><tspan class="cls-31" x="377.6" y="0">3</tspan><tspan class="cls-26" x="390.17" y="0">5</tspan><tspan class="cls-27" x="403.01" y="0">0.</tspan><tspan class="cls-26" x="422.34" y="0">00</tspan></text><text class="cls-19" transform="translate(813.55 373.98) scale(0.96 1)">E’R C<tspan class="cls-25" x="58.64" y="0">P</tspan><tspan x="74.71" y="0">F</tspan><tspan class="cls-32" x="89.07" y="0">	</tspan><tspan class="cls-23" x="94.4" y="0" xml:space="preserve">		</tspan><tspan x="283.2" y="0">:</tspan><tspan class="cls-30" x="288.01" y="0">	</tspan><tspan class="cls-33" x="377.61" y="0">0.</tspan><tspan class="cls-34" x="396.94" y="0">00</tspan></text><text class="cls-19" transform="translate(813.55 418.27) scale(0.96 1)">C<tspan class="cls-25" x="16.31" y="0">P</tspan><tspan x="32.37" y="0">F </tspan><tspan class="cls-20" x="52.68" y="0">W</tspan><tspan class="cls-21" x="76.63" y="0">a</tspan><tspan x="90.06" y="0">ge</tspan><tspan class="cls-35" x="119.33" y="0">	</tspan><tspan class="cls-23" x="188.8" y="0">	</tspan><tspan x="283.2" y="0">:</tspan><tspan class="cls-30" x="288.01" y="0">	</tspan><tspan class="cls-33" x="377.61" y="0">0.</tspan><tspan class="cls-34" x="396.94" y="0">00</tspan></text><text class="cls-19" transform="translate(813.55 462.56) scale(0.96 1)"><tspan class="cls-20">T</tspan><tspan x="11.77" y="0">otal C</tspan><tspan class="cls-25" x="76.95" y="0">P</tspan><tspan x="93.01" y="0">F</tspan><tspan class="cls-36" x="107.37" y="0">	</tspan><tspan class="cls-37" x="188.8" y="0">	</tspan><tspan x="283.21" y="0">:</tspan><tspan class="cls-30" x="288.01" y="0">	</tspan><tspan class="cls-27" x="377.61" y="0">0.</tspan><tspan class="cls-26" x="396.94" y="0">00</tspan></text></g><path class="cls-38" d="M585.5,113.39a16.21,16.21,0,0,1-2.89,8.87,31.2,31.2,0,0,1-6.5,6.93,58.54,58.54,0,0,1-16.8,9.12,124.64,124.64,0,0,1-37.64,5.47A123.67,123.67,0,0,1,484,138.3a63.94,63.94,0,0,1-17.34-8.36,30.28,30.28,0,0,1-7.07-6.91,18.9,18.9,0,0,1-2.37-4.52,14.86,14.86,0,0,1,0-10.24,18.9,18.9,0,0,1,2.37-4.52,30.23,30.23,0,0,1,7.07-6.9A63.65,63.65,0,0,1,484,88.49a131.78,131.78,0,0,1,75.28,0,58.86,58.86,0,0,1,16.79,9.12,31.43,31.43,0,0,1,6.51,6.92A16.18,16.18,0,0,1,585.5,113.39Zm0,0a14.52,14.52,0,0,0-.86-4.61,16.63,16.63,0,0,0-2.27-4.08,26.4,26.4,0,0,0-6.93-6.19,66.13,66.13,0,0,0-17.06-7.17,128.85,128.85,0,0,0-73.42,0,60.69,60.69,0,0,0-16.51,7.94,27.06,27.06,0,0,0-6.38,6.2,16.4,16.4,0,0,0-2,3.79,12,12,0,0,0,0,8.24,16.46,16.46,0,0,0,2,3.8,27.22,27.22,0,0,0,6.38,6.19A60.4,60.4,0,0,0,485,135.44a120.71,120.71,0,0,0,36.71,5.34,120.1,120.1,0,0,0,36.71-5.35,66.59,66.59,0,0,0,17-7.18,26,26,0,0,0,6.94-6.17,17,17,0,0,0,2.27-4.08A14.47,14.47,0,0,0,585.5,113.39Z" transform="translate(689.44 160.88)"/></g></g></svg>