<svg xmlns="http://www.w3.org/2000/svg" viewBox="0 0 1920 1085.1"><defs><style>.cls-1{fill:#88d7ff;}.cls-2{opacity:0.14;}.cls-3{fill:#54828c;}.cls-4{fill:#8d5524;}.cls-5{fill:#481d5e;}.cls-6{fill:#97d2ef;}</style></defs><g id="Layer_2" data-name="Layer 2"><g id="Layer_1-2" data-name="Layer 1"><rect class="cls-1" width="1916.59" height="1085.1"/><rect class="cls-2" width="1920" height="1085.1"/><path class="cls-3" d="M448.23,314.26c-1.77,13.3,1.71,58.24,7.34,131.18,2.06,26.7,3.9,46,2.29,73.82-2.39,41.37-10.62,70.71-14.32,85.38-6.26,24.78-39.24,143.86-11.82,187,45.14,70.94,170.66-20.71,449.76-22.45,254.72-1.58,511.93,40.41,511.93,40.41,74.85,12.21,185.9,33.28,203.61-7.49,11.59-26.68-36.53-56.77-55-143-10.58-49.42-5.74-89.62,0-133.79,4.82-37.34,12-66.34,19.49-89.67,24.13-74.78,34.92-90.08,34.17-104.86C1589.11,202.07,467.56,169.11,448.23,314.26Z"/><path class="cls-4" d="M1060.65,803.34c-.85,31.75-24.71,57.45-53.51,60.54-32.67,3.5-64.57-22.86-66.72-59.16L937,725.82h119.55Q1058.59,764.58,1060.65,803.34Z"/><path class="cls-4" d="M1129.38,387.58c41,49.25,35.2,114.07,31.88,150.87-2,21.84-14.09,156.68-111.54,192.89-55.16,20.5-107.65-1.76-121.16-8.08-89.89-42-107.24-151.27-113.54-191-7.61-47.9-15.63-98.37,12.79-140C884.52,309.19,1058.3,302.28,1129.38,387.58Z"/><path d="M1163.49,504.71c-.29,1.56-2.4-14.61-11.9-37a181.9,181.9,0,0,0-25.84-43,323.06,323.06,0,0,0-273.33,0,150.47,150.47,0,0,0-40.06,90.53c-5.76-15.23-22-64.19-1.49-117.53,13.88-36.07,38.06-57.42,51.27-68.63a201.5,201.5,0,0,1,83.47-42.41c18.18-4.18,65-14.17,116.38,9.3,53.25,24.33,76.43,69.18,84.44,85.21C1173.71,435.71,1166.75,487,1163.49,504.71Z"/><path d="M953,675c6.54-.28,13.06-.34,19.57-.37,3.26,0,6.51,0,9.77,0l9.76,0,9.76.09c3.26.07,6.51.06,9.77.15,6.51.12,13,.26,19.56.64-6.49.87-13,1.38-19.53,1.7-3.26.19-6.52.25-9.79.35s-6.53.07-9.79.07-6.53-.09-9.79-.2-6.53-.25-9.79-.48C966,676.56,959.48,676,953,675Z"/><path d="M952.05,466.68c-1.72,6.47-14.51,5-31.21,10-24.49,7.39-36.93,22.59-41.63,18.38-2.09-1.88-1-6.14-.59-8,2.12-8.6,10.58-12.9,22.77-18.87,5-2.46,14.22-4.9,32.59-9.77,6-1.58,11.42-2.94,15,0C951.26,460.33,952.8,463.84,952.05,466.68Z"/><ellipse cx="932.15" cy="524" rx="11.14" ry="14.57"/><path d="M950.19,524.23c-5.22-12.62-12.68-15-14.55-15.52-2.54-.69-7.13-1.2-24.59,7.85a225.32,225.32,0,0,0-21,12.35c4.53-1.5,11.84-3.91,20.94-6.85,16-5.18,21.28-6.74,27.66-4.95A25.85,25.85,0,0,1,950.19,524.23Z"/><path d="M1021.18,464.49c1.55,6.52,14.37,5.36,30.93,10.83,24.3,8,36.34,23.55,41.15,19.46,2.13-1.82,1.19-6.11.79-8-1.89-8.65-10.24-13.17-22.27-19.45-5-2.6-14.09-5.27-32.33-10.62-5.93-1.73-11.34-3.23-15-.36C1022.13,458.16,1020.5,461.64,1021.18,464.49Z"/><ellipse cx="1040.84" cy="522.95" rx="11.14" ry="14.57"/><path d="M1023,524.07c4.77-12.8,12.14-15.46,14-16,2.52-.78,7.08-1.46,24.86,7a222.13,222.13,0,0,1,21.37,11.6c-4.57-1.34-12-3.49-21.17-6.11-16.2-4.61-21.5-6-27.81-4A25.83,25.83,0,0,0,1023,524.07Z"/><path d="M987.92,538.57c-1.27,3.79-3.24,9.49-5.83,16.38-5,13.17-5.84,13.9-7.41,19.08-2.76,9.12-7.5,24.78,0,32.76,6.41,6.81,18.66,4.75,22.22,4-1.87.14-14.16.93-19.75-7-2.9-4.1-2.65-8.64-2.24-14.58.86-12.52,5.44-17.81,9.42-31.87A110.37,110.37,0,0,0,987.92,538.57Z"/><path d="M916.75,717.11c-1.77-.36-5.21-64.4,28.19-85.84,13.88-8.92,30.51-9.43,52.5-10.1s38.35-1.18,52.51,6.73c36.07,20.14,33,81.25,32.77,85.42-1.06-2.38-2.61-5.85-4.5-10-13.89-30.64-21-46-26.25-50.48-10-8.34-24.38-7.58-53.18-6.06-27.8,1.47-41.7,2.2-52.51,11.44-12.54,10.73-19.08,29-26,48.3C917.26,714.9,917.09,717.17,916.75,717.11Z"/><path d="M834.35,611.68c30,62.45,94.34,101.23,163.09,98.35,67-2.82,126.6-44.67,152.4-107-1.79,11.81-12.27,72.89-67.12,110.25a159.17,159.17,0,0,1-83.21,26.5C920,742.15,870.87,682.9,866.18,677A167.42,167.42,0,0,1,834.35,611.68Z"/><path class="cls-5" d="M1006.05,853c39.67-9.9,53.56-46.7,54.6-49.61,11.86,1,28.33,2.59,47.94,4.81,40.87,4.62,73.05,9.58,91.24,12.54,69.74,11.36,105,17.29,125.12,30.12,24.94,15.91,39,34.34,53,53.65,20.67,28.56,56.31,87.39,67.41,180.64H564.82c8-46.32,39-195.38,140.34-239.11,39.29-17,111.85-28,136.89-31.64,40.59-5.86,74.61-8.41,98.37-9.63C954.24,836.79,982.37,858.86,1006.05,853Z"/><path class="cls-6" d="M919.79,556.66c-.2.26-2.4,3-5.29,2.75-2.49-.23-4-2.56-4.33-3-2.64-4-.33-11.34,5.14-18.66C920.72,545.41,922.67,553,919.79,556.66Z"/></g></g></svg>